o 
v 0 0.054999999701976776 0.06499999761581421
v 0.032499998807907104 0.054999999701976776 0.05629165098071098
v 0.05629165098071098 0.054999999701976776 0.032499998807907104
v 0.06499999761581421 0.054999999701976776 3.9801019400295505e-18
v 0.05629165098071098 0.054999999701976776 -0.032499998807907104
v 0.032499998807907104 0.054999999701976776 -0.05629165098071098
v 7.960203880059101e-18 0.054999999701976776 -0.06499999761581421
v -0.032499998807907104 0.054999999701976776 -0.05629165098071098
v -0.05629165098071098 0.054999999701976776 -0.032499998807907104
v -0.06499999761581421 0.054999999701976776 -1.1940306647269264e-17
v -0.05629165098071098 0.054999999701976776 0.032499998807907104
v -0.032499998807907104 0.054999999701976776 0.05629165098071098
v -1.5920407760118202e-17 0.054999999701976776 0.06499999761581421
v 0 -0.054999999701976776 0.04500000178813934
v 0.02250000089406967 -0.054999999701976776 0.03897114470601082
v 0.03897114470601082 -0.054999999701976776 0.02250000089406967
v 0.04500000178813934 -0.054999999701976776 2.755455252880505e-18
v 0.03897114470601082 -0.054999999701976776 -0.02250000089406967
v 0.02250000089406967 -0.054999999701976776 -0.03897114470601082
v 5.51091050576101e-18 -0.054999999701976776 -0.04500000178813934
v -0.02250000089406967 -0.054999999701976776 -0.03897114470601082
v -0.03897114470601082 -0.054999999701976776 -0.02250000089406967
v -0.04500000178813934 -0.054999999701976776 -8.266365758641515e-18
v -0.03897114470601082 -0.054999999701976776 0.02250000089406967
v -0.02250000089406967 -0.054999999701976776 0.03897114470601082
v -1.102182101152202e-17 -0.054999999701976776 0.04500000178813934
v 0 0.054999999701976776 0
v 0 0.054999999701976776 0
v 0 0.054999999701976776 0
v 0 0.054999999701976776 0
v 0 0.054999999701976776 0
v 0 0.054999999701976776 0
v 0 0.054999999701976776 0
v 0 0.054999999701976776 0
v 0 0.054999999701976776 0
v 0 0.054999999701976776 0
v 0 0.054999999701976776 0
v 0 0.054999999701976776 0
v 0 0.054999999701976776 0.06499999761581421
v 0.032499998807907104 0.054999999701976776 0.05629165098071098
v 0.05629165098071098 0.054999999701976776 0.032499998807907104
v 0.06499999761581421 0.054999999701976776 3.9801019400295505e-18
v 0.05629165098071098 0.054999999701976776 -0.032499998807907104
v 0.032499998807907104 0.054999999701976776 -0.05629165098071098
v 7.960203880059101e-18 0.054999999701976776 -0.06499999761581421
v -0.032499998807907104 0.054999999701976776 -0.05629165098071098
v -0.05629165098071098 0.054999999701976776 -0.032499998807907104
v -0.06499999761581421 0.054999999701976776 -1.1940306647269264e-17
v -0.05629165098071098 0.054999999701976776 0.032499998807907104
v -0.032499998807907104 0.054999999701976776 0.05629165098071098
v -1.5920407760118202e-17 0.054999999701976776 0.06499999761581421
v 0 -0.054999999701976776 0
v 0 -0.054999999701976776 0
v 0 -0.054999999701976776 0
v 0 -0.054999999701976776 0
v 0 -0.054999999701976776 0
v 0 -0.054999999701976776 0
v 0 -0.054999999701976776 0
v 0 -0.054999999701976776 0
v 0 -0.054999999701976776 0
v 0 -0.054999999701976776 0
v 0 -0.054999999701976776 0
v 0 -0.054999999701976776 0
v 0 -0.054999999701976776 0.04500000178813934
v 0.02250000089406967 -0.054999999701976776 0.03897114470601082
v 0.03897114470601082 -0.054999999701976776 0.02250000089406967
v 0.04500000178813934 -0.054999999701976776 2.755455252880505e-18
v 0.03897114470601082 -0.054999999701976776 -0.02250000089406967
v 0.02250000089406967 -0.054999999701976776 -0.03897114470601082
v 5.51091050576101e-18 -0.054999999701976776 -0.04500000178813934
v -0.02250000089406967 -0.054999999701976776 -0.03897114470601082
v -0.03897114470601082 -0.054999999701976776 -0.02250000089406967
v -0.04500000178813934 -0.054999999701976776 -8.266365758641515e-18
v -0.03897114470601082 -0.054999999701976776 0.02250000089406967
v -0.02250000089406967 -0.054999999701976776 0.03897114470601082
v -1.102182101152202e-17 -0.054999999701976776 0.04500000178813934
vt 0 1
vt 0.0833333358168602 1
vt 0.1666666716337204 1
vt 0.25 1
vt 0.3333333432674408 1
vt 0.4166666567325592 1
vt 0.5 1
vt 0.5833333134651184 1
vt 0.6666666865348816 1
vt 0.75 1
vt 0.8333333134651184 1
vt 0.9166666865348816 1
vt 1 1
vt 0 0
vt 0.0833333358168602 0
vt 0.1666666716337204 0
vt 0.25 0
vt 0.3333333432674408 0
vt 0.4166666567325592 0
vt 0.5 0
vt 0.5833333134651184 0
vt 0.6666666865348816 0
vt 0.75 0
vt 0.8333333134651184 0
vt 0.9166666865348816 0
vt 1 0
vt 0.5 0.5
vt 0.5 0.5
vt 0.5 0.5
vt 0.5 0.5
vt 0.5 0.5
vt 0.5 0.5
vt 0.5 0.5
vt 0.5 0.5
vt 0.5 0.5
vt 0.5 0.5
vt 0.5 0.5
vt 0.5 0.5
vt 1 0.5
vt 0.9330127239227295 0.75
vt 0.75 0.9330127239227295
vt 0.5 1
vt 0.25 0.9330127239227295
vt 0.0669872984290123 0.75
vt 0 0.5
vt 0.0669872984290123 0.25
vt 0.25 0.0669872984290123
vt 0.5 0
vt 0.75 0.0669872984290123
vt 0.9330127239227295 0.25
vt 1 0.5
vt 0.5 0.5
vt 0.5 0.5
vt 0.5 0.5
vt 0.5 0.5
vt 0.5 0.5
vt 0.5 0.5
vt 0.5 0.5
vt 0.5 0.5
vt 0.5 0.5
vt 0.5 0.5
vt 0.5 0.5
vt 0.5 0.5
vt 1 0.5
vt 0.9330127239227295 0.25
vt 0.75 0.0669872984290123
vt 0.5 0
vt 0.25 0.0669872984290123
vt 0.0669872984290123 0.25
vt 0 0.5
vt 0.0669872984290123 0.75
vt 0.25 0.9330127239227295
vt 0.5 1
vt 0.75 0.9330127239227295
vt 0.9330127239227295 0.75
vt 1 0.5
vn 0 -0.1788854447564941 0.9838699089078147
vn 0.49193495940210663 -0.17888544655583938 0.8520563318986402
vn 0.8520563318986402 -0.17888544655583938 0.49193495940210663
vn 0.9838699089078147 -0.1788854447564941 6.024465580906214e-17
vn 0.8520563318986402 -0.17888544655583938 -0.49193495940210663
vn 0.49193495940210663 -0.17888544655583938 -0.8520563318986402
vn 1.2048931161812427e-16 -0.1788854447564941 -0.9838699089078147
vn -0.49193495940210663 -0.17888544655583938 -0.8520563318986402
vn -0.8520563318986402 -0.17888544655583938 -0.49193495940210663
vn -0.9838699089078147 -0.1788854447564941 -1.807339740446313e-16
vn -0.8520563318986402 -0.17888544655583938 0.49193495940210663
vn -0.49193495940210663 -0.17888544655583938 0.8520563318986402
vn -2.4097862323624854e-16 -0.1788854447564941 0.9838699089078147
vn 0 -0.1788854447564941 0.9838699089078147
vn 0.49193495940210663 -0.17888544655583938 0.8520563318986402
vn 0.8520563318986402 -0.17888544655583938 0.49193495940210663
vn 0.9838699089078147 -0.1788854447564941 6.024465580906214e-17
vn 0.8520563318986402 -0.17888544655583938 -0.49193495940210663
vn 0.49193495940210663 -0.17888544655583938 -0.8520563318986402
vn 1.2048931161812427e-16 -0.1788854447564941 -0.9838699089078147
vn -0.49193495940210663 -0.17888544655583938 -0.8520563318986402
vn -0.8520563318986402 -0.17888544655583938 -0.49193495940210663
vn -0.9838699089078147 -0.1788854447564941 -1.807339740446313e-16
vn -0.8520563318986402 -0.17888544655583938 0.49193495940210663
vn -0.49193495940210663 -0.17888544655583938 0.8520563318986402
vn -2.4097862323624854e-16 -0.1788854447564941 0.9838699089078147
vn 0 1 0
vn 0 1 0
vn 0 1 0
vn 0 1 0
vn 0 1 0
vn 0 1 0
vn 0 1 0
vn 0 1 0
vn 0 1 0
vn 0 1 0
vn 0 1 0
vn 0 1 0
vn 0 1 0
vn 0 1 0
vn 0 1 0
vn 0 1 0
vn 0 1 0
vn 0 1 0
vn 0 1 0
vn 0 1 0
vn 0 1 0
vn 0 1 0
vn 0 1 0
vn 0 1 0
vn 0 1 0
vn 0 -1 0
vn 0 -1 0
vn 0 -1 0
vn 0 -1 0
vn 0 -1 0
vn 0 -1 0
vn 0 -1 0
vn 0 -1 0
vn 0 -1 0
vn 0 -1 0
vn 0 -1 0
vn 0 -1 0
vn 0 -1 0
vn 0 -1 0
vn 0 -1 0
vn 0 -1 0
vn 0 -1 0
vn 0 -1 0
vn 0 -1 0
vn 0 -1 0
vn 0 -1 0
vn 0 -1 0
vn 0 -1 0
vn 0 -1 0
vn 0 -1 0
f 1/1/1 14/14/14 2/2/2
f 14/14/14 15/15/15 2/2/2
f 2/2/2 15/15/15 3/3/3
f 15/15/15 16/16/16 3/3/3
f 3/3/3 16/16/16 4/4/4
f 16/16/16 17/17/17 4/4/4
f 4/4/4 17/17/17 5/5/5
f 17/17/17 18/18/18 5/5/5
f 5/5/5 18/18/18 6/6/6
f 18/18/18 19/19/19 6/6/6
f 6/6/6 19/19/19 7/7/7
f 19/19/19 20/20/20 7/7/7
f 7/7/7 20/20/20 8/8/8
f 20/20/20 21/21/21 8/8/8
f 8/8/8 21/21/21 9/9/9
f 21/21/21 22/22/22 9/9/9
f 9/9/9 22/22/22 10/10/10
f 22/22/22 23/23/23 10/10/10
f 10/10/10 23/23/23 11/11/11
f 23/23/23 24/24/24 11/11/11
f 11/11/11 24/24/24 12/12/12
f 24/24/24 25/25/25 12/12/12
f 12/12/12 25/25/25 13/13/13
f 25/25/25 26/26/26 13/13/13
f 39/39/39 40/40/40 27/27/27
f 40/40/40 41/41/41 28/28/28
f 41/41/41 42/42/42 29/29/29
f 42/42/42 43/43/43 30/30/30
f 43/43/43 44/44/44 31/31/31
f 44/44/44 45/45/45 32/32/32
f 45/45/45 46/46/46 33/33/33
f 46/46/46 47/47/47 34/34/34
f 47/47/47 48/48/48 35/35/35
f 48/48/48 49/49/49 36/36/36
f 49/49/49 50/50/50 37/37/37
f 50/50/50 51/51/51 38/38/38
f 65/65/65 64/64/64 52/52/52
f 66/66/66 65/65/65 53/53/53
f 67/67/67 66/66/66 54/54/54
f 68/68/68 67/67/67 55/55/55
f 69/69/69 68/68/68 56/56/56
f 70/70/70 69/69/69 57/57/57
f 71/71/71 70/70/70 58/58/58
f 72/72/72 71/71/71 59/59/59
f 73/73/73 72/72/72 60/60/60
f 74/74/74 73/73/73 61/61/61
f 75/75/75 74/74/74 62/62/62
f 76/76/76 75/75/75 63/63/63
o 
v 0 0 0
v 0.06499999761581421 0 0
v 0.05629165098071098 1.9900509700147753e-18 -0.032499998807907104
v 0.032499998807907104 3.4468694707242856e-18 -0.05629165098071098
v 3.9801019400295505e-18 3.9801019400295505e-18 -0.06499999761581421
v -0.032499998807907104 3.4468694707242856e-18 -0.05629165098071098
v -0.05629165098071098 1.9900509700147753e-18 -0.032499998807907104
v -0.06499999761581421 4.87421900893079e-34 -7.960203880059101e-18
v -0.05629165098071098 -1.9900509700147753e-18 0.032499998807907104
v -0.032499998807907104 -3.4468694707242856e-18 0.05629165098071098
v -1.1940306647269264e-17 -3.9801019400295505e-18 0.06499999761581421
v 0.032499998807907104 -3.4468694707242856e-18 0.05629165098071098
v 0.05629165098071098 -1.9900509700147753e-18 0.032499998807907104
v 0.06499999761581421 -9.74843801786158e-34 1.5920407760118202e-17
vt 0.5 0.5
vt 1 0.5
vt 0.9330127239227295 0.75
vt 0.75 0.9330127239227295
vt 0.5 1
vt 0.25 0.9330127239227295
vt 0.0669872984290123 0.75
vt 0 0.5
vt 0.0669872984290123 0.25
vt 0.25 0.0669872984290123
vt 0.5 0
vt 0.75 0.0669872984290123
vt 0.9330127239227295 0.25
vt 1 0.5
vn 0 1 6.123234262925839e-17
vn 0 1 6.123234262925839e-17
vn 0 1 6.123234262925839e-17
vn 0 1 6.123234262925839e-17
vn 0 1 6.123234262925839e-17
vn 0 1 6.123234262925839e-17
vn 0 1 6.123234262925839e-17
vn 0 1 6.123234262925839e-17
vn 0 1 6.123234262925839e-17
vn 0 1 6.123234262925839e-17
vn 0 1 6.123234262925839e-17
vn 0 1 6.123234262925839e-17
vn 0 1 6.123234262925839e-17
vn 0 1 6.123234262925839e-17
f 78/78/78 79/79/79 77/77/77
f 79/79/79 80/80/80 77/77/77
f 80/80/80 81/81/81 77/77/77
f 81/81/81 82/82/82 77/77/77
f 82/82/82 83/83/83 77/77/77
f 83/83/83 84/84/84 77/77/77
f 84/84/84 85/85/85 77/77/77
f 85/85/85 86/86/86 77/77/77
f 86/86/86 87/87/87 77/77/77
f 87/87/87 88/88/88 77/77/77
f 88/88/88 89/89/89 77/77/77
f 89/89/89 90/90/90 77/77/77
o 
v 0.0024999999441206455 0.0024999999441206455 0.09000000357627869
v 0.0024999999441206455 0.0024999999441206455 -0.09000000357627869
v 0.0024999999441206455 -0.0024999999441206455 0.09000000357627869
v 0.0024999999441206455 -0.0024999999441206455 -0.09000000357627869
v -0.0024999999441206455 0.0024999999441206455 -0.09000000357627869
v -0.0024999999441206455 0.0024999999441206455 0.09000000357627869
v -0.0024999999441206455 -0.0024999999441206455 -0.09000000357627869
v -0.0024999999441206455 -0.0024999999441206455 0.09000000357627869
v -0.0024999999441206455 0.0024999999441206455 -0.09000000357627869
v 0.0024999999441206455 0.0024999999441206455 -0.09000000357627869
v -0.0024999999441206455 0.0024999999441206455 0.09000000357627869
v 0.0024999999441206455 0.0024999999441206455 0.09000000357627869
v -0.0024999999441206455 -0.0024999999441206455 0.09000000357627869
v 0.0024999999441206455 -0.0024999999441206455 0.09000000357627869
v -0.0024999999441206455 -0.0024999999441206455 -0.09000000357627869
v 0.0024999999441206455 -0.0024999999441206455 -0.09000000357627869
v -0.0024999999441206455 0.0024999999441206455 0.09000000357627869
v 0.0024999999441206455 0.0024999999441206455 0.09000000357627869
v -0.0024999999441206455 -0.0024999999441206455 0.09000000357627869
v 0.0024999999441206455 -0.0024999999441206455 0.09000000357627869
v 0.0024999999441206455 0.0024999999441206455 -0.09000000357627869
v -0.0024999999441206455 0.0024999999441206455 -0.09000000357627869
v 0.0024999999441206455 -0.0024999999441206455 -0.09000000357627869
v -0.0024999999441206455 -0.0024999999441206455 -0.09000000357627869
vt 0 1
vt 1 1
vt 0 0
vt 1 0
vt 0 1
vt 1 1
vt 0 0
vt 1 0
vt 0 1
vt 1 1
vt 0 0
vt 1 0
vt 0 1
vt 1 1
vt 0 0
vt 1 0
vt 0 1
vt 1 1
vt 0 0
vt 1 0
vt 0 1
vt 1 1
vt 0 0
vt 1 0
vn 1 0 0
vn 1 0 0
vn 1 0 0
vn 1 0 0
vn -1 0 0
vn -1 0 0
vn -1 0 0
vn -1 0 0
vn 0 1 0
vn 0 1 0
vn 0 1 0
vn 0 1 0
vn 0 -1 0
vn 0 -1 0
vn 0 -1 0
vn 0 -1 0
vn 0 0 1
vn 0 0 1
vn 0 0 1
vn 0 0 1
vn 0 0 -1
vn 0 0 -1
vn 0 0 -1
vn 0 0 -1
f 91/91/91 93/93/93 92/92/92
f 93/93/93 94/94/94 92/92/92
f 95/95/95 97/97/97 96/96/96
f 97/97/97 98/98/98 96/96/96
f 99/99/99 101/101/101 100/100/100
f 101/101/101 102/102/102 100/100/100
f 103/103/103 105/105/105 104/104/104
f 105/105/105 106/106/106 104/104/104
f 107/107/107 109/109/109 108/108/108
f 109/109/109 110/110/110 108/108/108
f 111/111/111 113/113/113 112/112/112
f 113/113/113 114/114/114 112/112/112
o 
v 0.0024999999441206455 0.0024999999441206455 0.09000000357627869
v 0.0024999999441206455 0.0024999999441206455 -0.09000000357627869
v 0.0024999999441206455 -0.0024999999441206455 0.09000000357627869
v 0.0024999999441206455 -0.0024999999441206455 -0.09000000357627869
v -0.0024999999441206455 0.0024999999441206455 -0.09000000357627869
v -0.0024999999441206455 0.0024999999441206455 0.09000000357627869
v -0.0024999999441206455 -0.0024999999441206455 -0.09000000357627869
v -0.0024999999441206455 -0.0024999999441206455 0.09000000357627869
v -0.0024999999441206455 0.0024999999441206455 -0.09000000357627869
v 0.0024999999441206455 0.0024999999441206455 -0.09000000357627869
v -0.0024999999441206455 0.0024999999441206455 0.09000000357627869
v 0.0024999999441206455 0.0024999999441206455 0.09000000357627869
v -0.0024999999441206455 -0.0024999999441206455 0.09000000357627869
v 0.0024999999441206455 -0.0024999999441206455 0.09000000357627869
v -0.0024999999441206455 -0.0024999999441206455 -0.09000000357627869
v 0.0024999999441206455 -0.0024999999441206455 -0.09000000357627869
v -0.0024999999441206455 0.0024999999441206455 0.09000000357627869
v 0.0024999999441206455 0.0024999999441206455 0.09000000357627869
v -0.0024999999441206455 -0.0024999999441206455 0.09000000357627869
v 0.0024999999441206455 -0.0024999999441206455 0.09000000357627869
v 0.0024999999441206455 0.0024999999441206455 -0.09000000357627869
v -0.0024999999441206455 0.0024999999441206455 -0.09000000357627869
v 0.0024999999441206455 -0.0024999999441206455 -0.09000000357627869
v -0.0024999999441206455 -0.0024999999441206455 -0.09000000357627869
vt 0 1
vt 1 1
vt 0 0
vt 1 0
vt 0 1
vt 1 1
vt 0 0
vt 1 0
vt 0 1
vt 1 1
vt 0 0
vt 1 0
vt 0 1
vt 1 1
vt 0 0
vt 1 0
vt 0 1
vt 1 1
vt 0 0
vt 1 0
vt 0 1
vt 1 1
vt 0 0
vt 1 0
vn 1 0 0
vn 1 0 0
vn 1 0 0
vn 1 0 0
vn -1 0 0
vn -1 0 0
vn -1 0 0
vn -1 0 0
vn 0 1 0
vn 0 1 0
vn 0 1 0
vn 0 1 0
vn 0 -1 0
vn 0 -1 0
vn 0 -1 0
vn 0 -1 0
vn 0 0 1
vn 0 0 1
vn 0 0 1
vn 0 0 1
vn 0 0 -1
vn 0 0 -1
vn 0 0 -1
vn 0 0 -1
f 115/115/115 117/117/117 116/116/116
f 117/117/117 118/118/118 116/116/116
f 119/119/119 121/121/121 120/120/120
f 121/121/121 122/122/122 120/120/120
f 123/123/123 125/125/125 124/124/124
f 125/125/125 126/126/126 124/124/124
f 127/127/127 129/129/129 128/128/128
f 129/129/129 130/130/130 128/128/128
f 131/131/131 133/133/133 132/132/132
f 133/133/133 134/134/134 132/132/132
f 135/135/135 137/137/137 136/136/136
f 137/137/137 138/138/138 136/136/136
