o 
v 0.12999999523162842 0.22499999403953552 0.006000000052154064
v 0.12999999523162842 0.22499999403953552 -0.006000000052154064
v 0.12999999523162842 -0.22499999403953552 0.006000000052154064
v 0.12999999523162842 -0.22499999403953552 -0.006000000052154064
v -0.12999999523162842 0.22499999403953552 -0.006000000052154064
v -0.12999999523162842 0.22499999403953552 0.006000000052154064
v -0.12999999523162842 -0.22499999403953552 -0.006000000052154064
v -0.12999999523162842 -0.22499999403953552 0.006000000052154064
v -0.12999999523162842 0.22499999403953552 -0.006000000052154064
v 0.12999999523162842 0.22499999403953552 -0.006000000052154064
v -0.12999999523162842 0.22499999403953552 0.006000000052154064
v 0.12999999523162842 0.22499999403953552 0.006000000052154064
v -0.12999999523162842 -0.22499999403953552 0.006000000052154064
v 0.12999999523162842 -0.22499999403953552 0.006000000052154064
v -0.12999999523162842 -0.22499999403953552 -0.006000000052154064
v 0.12999999523162842 -0.22499999403953552 -0.006000000052154064
v -0.12999999523162842 0.22499999403953552 0.006000000052154064
v 0.12999999523162842 0.22499999403953552 0.006000000052154064
v -0.12999999523162842 -0.22499999403953552 0.006000000052154064
v 0.12999999523162842 -0.22499999403953552 0.006000000052154064
v 0.12999999523162842 0.22499999403953552 -0.006000000052154064
v -0.12999999523162842 0.22499999403953552 -0.006000000052154064
v 0.12999999523162842 -0.22499999403953552 -0.006000000052154064
v -0.12999999523162842 -0.22499999403953552 -0.006000000052154064
vt 0 1
vt 1 1
vt 0 0
vt 1 0
vt 0 1
vt 1 1
vt 0 0
vt 1 0
vt 0 1
vt 1 1
vt 0 0
vt 1 0
vt 0 1
vt 1 1
vt 0 0
vt 1 0
vt 0 1
vt 1 1
vt 0 0
vt 1 0
vt 0 1
vt 1 1
vt 0 0
vt 1 0
vn 1 0 0
vn 1 0 0
vn 1 0 0
vn 1 0 0
vn -1 0 0
vn -1 0 0
vn -1 0 0
vn -1 0 0
vn 0 1 0
vn 0 1 0
vn 0 1 0
vn 0 1 0
vn 0 -1 0
vn 0 -1 0
vn 0 -1 0
vn 0 -1 0
vn 0 0 1
vn 0 0 1
vn 0 0 1
vn 0 0 1
vn 0 0 -1
vn 0 0 -1
vn 0 0 -1
vn 0 0 -1
f 1/1/1 3/3/3 2/2/2
f 3/3/3 4/4/4 2/2/2
f 5/5/5 7/7/7 6/6/6
f 7/7/7 8/8/8 6/6/6
f 9/9/9 11/11/11 10/10/10
f 11/11/11 12/12/12 10/10/10
f 13/13/13 15/15/15 14/14/14
f 15/15/15 16/16/16 14/14/14
f 17/17/17 19/19/19 18/18/18
f 19/19/19 20/20/20 18/18/18
f 21/21/21 23/23/23 22/22/22
f 23/23/23 24/24/24 22/22/22
o 
v 0.12999999523162842 0.17499999701976776 0.006000000052154064
v 0.12999999523162842 0.17499999701976776 -0.006000000052154064
v 0.12999999523162842 -0.17499999701976776 0.006000000052154064
v 0.12999999523162842 -0.17499999701976776 -0.006000000052154064
v -0.12999999523162842 0.17499999701976776 -0.006000000052154064
v -0.12999999523162842 0.17499999701976776 0.006000000052154064
v -0.12999999523162842 -0.17499999701976776 -0.006000000052154064
v -0.12999999523162842 -0.17499999701976776 0.006000000052154064
v -0.12999999523162842 0.17499999701976776 -0.006000000052154064
v 0.12999999523162842 0.17499999701976776 -0.006000000052154064
v -0.12999999523162842 0.17499999701976776 0.006000000052154064
v 0.12999999523162842 0.17499999701976776 0.006000000052154064
v -0.12999999523162842 -0.17499999701976776 0.006000000052154064
v 0.12999999523162842 -0.17499999701976776 0.006000000052154064
v -0.12999999523162842 -0.17499999701976776 -0.006000000052154064
v 0.12999999523162842 -0.17499999701976776 -0.006000000052154064
v -0.12999999523162842 0.17499999701976776 0.006000000052154064
v 0.12999999523162842 0.17499999701976776 0.006000000052154064
v -0.12999999523162842 -0.17499999701976776 0.006000000052154064
v 0.12999999523162842 -0.17499999701976776 0.006000000052154064
v 0.12999999523162842 0.17499999701976776 -0.006000000052154064
v -0.12999999523162842 0.17499999701976776 -0.006000000052154064
v 0.12999999523162842 -0.17499999701976776 -0.006000000052154064
v -0.12999999523162842 -0.17499999701976776 -0.006000000052154064
vt 0 1
vt 1 1
vt 0 0
vt 1 0
vt 0 1
vt 1 1
vt 0 0
vt 1 0
vt 0 1
vt 1 1
vt 0 0
vt 1 0
vt 0 1
vt 1 1
vt 0 0
vt 1 0
vt 0 1
vt 1 1
vt 0 0
vt 1 0
vt 0 1
vt 1 1
vt 0 0
vt 1 0
vn 1 0 0
vn 1 0 0
vn 1 0 0
vn 1 0 0
vn -1 0 0
vn -1 0 0
vn -1 0 0
vn -1 0 0
vn 0 1 0
vn 0 1 0
vn 0 1 0
vn 0 1 0
vn 0 -1 0
vn 0 -1 0
vn 0 -1 0
vn 0 -1 0
vn 0 0 1
vn 0 0 1
vn 0 0 1
vn 0 0 1
vn 0 0 -1
vn 0 0 -1
vn 0 0 -1
vn 0 0 -1
f 25/25/25 27/27/27 26/26/26
f 27/27/27 28/28/28 26/26/26
f 29/29/29 31/31/31 30/30/30
f 31/31/31 32/32/32 30/30/30
f 33/33/33 35/35/35 34/34/34
f 35/35/35 36/36/36 34/34/34
f 37/37/37 39/39/39 38/38/38
f 39/39/39 40/40/40 38/38/38
f 41/41/41 43/43/43 42/42/42
f 43/43/43 44/44/44 42/42/42
f 45/45/45 47/47/47 46/46/46
f 47/47/47 48/48/48 46/46/46
o 
v 0 0.12999999523162842 0.02500000037252903
v 0.01767767034471035 0.12999999523162842 0.01767767034471035
v 0.02500000037252903 0.12999999523162842 1.5308084623338832e-18
v 0.01767767034471035 0.12999999523162842 -0.01767767034471035
v 3.0616169246677665e-18 0.12999999523162842 -0.02500000037252903
v -0.01767767034471035 0.12999999523162842 -0.01767767034471035
v -0.02500000037252903 0.12999999523162842 -4.5924256971943795e-18
v -0.01767767034471035 0.12999999523162842 0.01767767034471035
v -6.123233849335533e-18 0.12999999523162842 0.02500000037252903
v 0 -0.12999999523162842 0.02500000037252903
v 0.01767767034471035 -0.12999999523162842 0.01767767034471035
v 0.02500000037252903 -0.12999999523162842 1.5308084623338832e-18
v 0.01767767034471035 -0.12999999523162842 -0.01767767034471035
v 3.0616169246677665e-18 -0.12999999523162842 -0.02500000037252903
v -0.01767767034471035 -0.12999999523162842 -0.01767767034471035
v -0.02500000037252903 -0.12999999523162842 -4.5924256971943795e-18
v -0.01767767034471035 -0.12999999523162842 0.01767767034471035
v -6.123233849335533e-18 -0.12999999523162842 0.02500000037252903
v 0 0.12999999523162842 0
v 0 0.12999999523162842 0
v 0 0.12999999523162842 0
v 0 0.12999999523162842 0
v 0 0.12999999523162842 0
v 0 0.12999999523162842 0
v 0 0.12999999523162842 0
v 0 0.12999999523162842 0
v 0 0.12999999523162842 0.02500000037252903
v 0.01767767034471035 0.12999999523162842 0.01767767034471035
v 0.02500000037252903 0.12999999523162842 1.5308084623338832e-18
v 0.01767767034471035 0.12999999523162842 -0.01767767034471035
v 3.0616169246677665e-18 0.12999999523162842 -0.02500000037252903
v -0.01767767034471035 0.12999999523162842 -0.01767767034471035
v -0.02500000037252903 0.12999999523162842 -4.5924256971943795e-18
v -0.01767767034471035 0.12999999523162842 0.01767767034471035
v -6.123233849335533e-18 0.12999999523162842 0.02500000037252903
v 0 -0.12999999523162842 0
v 0 -0.12999999523162842 0
v 0 -0.12999999523162842 0
v 0 -0.12999999523162842 0
v 0 -0.12999999523162842 0
v 0 -0.12999999523162842 0
v 0 -0.12999999523162842 0
v 0 -0.12999999523162842 0
v 0 -0.12999999523162842 0.02500000037252903
v 0.01767767034471035 -0.12999999523162842 0.01767767034471035
v 0.02500000037252903 -0.12999999523162842 1.5308084623338832e-18
v 0.01767767034471035 -0.12999999523162842 -0.01767767034471035
v 3.0616169246677665e-18 -0.12999999523162842 -0.02500000037252903
v -0.01767767034471035 -0.12999999523162842 -0.01767767034471035
v -0.02500000037252903 -0.12999999523162842 -4.5924256971943795e-18
v -0.01767767034471035 -0.12999999523162842 0.01767767034471035
v -6.123233849335533e-18 -0.12999999523162842 0.02500000037252903
vt 0 1
vt 0.125 1
vt 0.25 1
vt 0.375 1
vt 0.5 1
vt 0.625 1
vt 0.75 1
vt 0.875 1
vt 1 1
vt 0 0
vt 0.125 0
vt 0.25 0
vt 0.375 0
vt 0.5 0
vt 0.625 0
vt 0.75 0
vt 0.875 0
vt 1 0
vt 0.5 0.5
vt 0.5 0.5
vt 0.5 0.5
vt 0.5 0.5
vt 0.5 0.5
vt 0.5 0.5
vt 0.5 0.5
vt 0.5 0.5
vt 1 0.5
vt 0.8535534143447876 0.8535534143447876
vt 0.5 1
vt 0.1464466154575348 0.8535534143447876
vt 0 0.5
vt 0.1464466154575348 0.1464466154575348
vt 0.5 0
vt 0.8535534143447876 0.1464466154575348
vt 1 0.5
vt 0.5 0.5
vt 0.5 0.5
vt 0.5 0.5
vt 0.5 0.5
vt 0.5 0.5
vt 0.5 0.5
vt 0.5 0.5
vt 0.5 0.5
vt 1 0.5
vt 0.8535534143447876 0.1464466154575348
vt 0.5 0
vt 0.1464466154575348 0.1464466154575348
vt 0 0.5
vt 0.1464466154575348 0.8535534143447876
vt 0.5 1
vt 0.8535534143447876 0.8535534143447876
vt 1 0.5
vn 0 0 1
vn 0.7071067811865476 0 0.7071067811865476
vn 1 0 6.123234262925839e-17
vn 0.7071067811865476 0 -0.7071067811865476
vn 1.2246468525851679e-16 0 -1
vn -0.7071067811865476 0 -0.7071067811865476
vn -1 0 -1.8369701465288538e-16
vn -0.7071067811865476 0 0.7071067811865476
vn -2.4492937051703357e-16 0 1
vn 0 0 1
vn 0.7071067811865476 0 0.7071067811865476
vn 1 0 6.123234262925839e-17
vn 0.7071067811865476 0 -0.7071067811865476
vn 1.2246468525851679e-16 0 -1
vn -0.7071067811865476 0 -0.7071067811865476
vn -1 0 -1.8369701465288538e-16
vn -0.7071067811865476 0 0.7071067811865476
vn -2.4492937051703357e-16 0 1
vn 0 1 0
vn 0 1 0
vn 0 1 0
vn 0 1 0
vn 0 1 0
vn 0 1 0
vn 0 1 0
vn 0 1 0
vn 0 1 0
vn 0 1 0
vn 0 1 0
vn 0 1 0
vn 0 1 0
vn 0 1 0
vn 0 1 0
vn 0 1 0
vn 0 1 0
vn 0 -1 0
vn 0 -1 0
vn 0 -1 0
vn 0 -1 0
vn 0 -1 0
vn 0 -1 0
vn 0 -1 0
vn 0 -1 0
vn 0 -1 0
vn 0 -1 0
vn 0 -1 0
vn 0 -1 0
vn 0 -1 0
vn 0 -1 0
vn 0 -1 0
vn 0 -1 0
vn 0 -1 0
f 49/49/49 58/58/58 50/50/50
f 58/58/58 59/59/59 50/50/50
f 50/50/50 59/59/59 51/51/51
f 59/59/59 60/60/60 51/51/51
f 51/51/51 60/60/60 52/52/52
f 60/60/60 61/61/61 52/52/52
f 52/52/52 61/61/61 53/53/53
f 61/61/61 62/62/62 53/53/53
f 53/53/53 62/62/62 54/54/54
f 62/62/62 63/63/63 54/54/54
f 54/54/54 63/63/63 55/55/55
f 63/63/63 64/64/64 55/55/55
f 55/55/55 64/64/64 56/56/56
f 64/64/64 65/65/65 56/56/56
f 56/56/56 65/65/65 57/57/57
f 65/65/65 66/66/66 57/57/57
f 75/75/75 76/76/76 67/67/67
f 76/76/76 77/77/77 68/68/68
f 77/77/77 78/78/78 69/69/69
f 78/78/78 79/79/79 70/70/70
f 79/79/79 80/80/80 71/71/71
f 80/80/80 81/81/81 72/72/72
f 81/81/81 82/82/82 73/73/73
f 82/82/82 83/83/83 74/74/74
f 93/93/93 92/92/92 84/84/84
f 94/94/94 93/93/93 85/85/85
f 95/95/95 94/94/94 86/86/86
f 96/96/96 95/95/95 87/87/87
f 97/97/97 96/96/96 88/88/88
f 98/98/98 97/97/97 89/89/89
f 99/99/99 98/98/98 90/90/90
f 100/100/100 99/99/99 91/91/91
