o 
v 0.11999999731779099 0.02500000037252903 0.625
v 0.11999999731779099 0.02500000037252903 -0.625
v 0.11999999731779099 -0.02500000037252903 0.625
v 0.11999999731779099 -0.02500000037252903 -0.625
v -0.11999999731779099 0.02500000037252903 -0.625
v -0.11999999731779099 0.02500000037252903 0.625
v -0.11999999731779099 -0.02500000037252903 -0.625
v -0.11999999731779099 -0.02500000037252903 0.625
v -0.11999999731779099 0.02500000037252903 -0.625
v 0.11999999731779099 0.02500000037252903 -0.625
v -0.11999999731779099 0.02500000037252903 0.625
v 0.11999999731779099 0.02500000037252903 0.625
v -0.11999999731779099 -0.02500000037252903 0.625
v 0.11999999731779099 -0.02500000037252903 0.625
v -0.11999999731779099 -0.02500000037252903 -0.625
v 0.11999999731779099 -0.02500000037252903 -0.625
v -0.11999999731779099 0.02500000037252903 0.625
v 0.11999999731779099 0.02500000037252903 0.625
v -0.11999999731779099 -0.02500000037252903 0.625
v 0.11999999731779099 -0.02500000037252903 0.625
v 0.11999999731779099 0.02500000037252903 -0.625
v -0.11999999731779099 0.02500000037252903 -0.625
v 0.11999999731779099 -0.02500000037252903 -0.625
v -0.11999999731779099 -0.02500000037252903 -0.625
vt 0 1
vt 1 1
vt 0 0
vt 1 0
vt 0 1
vt 1 1
vt 0 0
vt 1 0
vt 0 1
vt 1 1
vt 0 0
vt 1 0
vt 0 1
vt 1 1
vt 0 0
vt 1 0
vt 0 1
vt 1 1
vt 0 0
vt 1 0
vt 0 1
vt 1 1
vt 0 0
vt 1 0
vn 1 0 0
vn 1 0 0
vn 1 0 0
vn 1 0 0
vn -1 0 0
vn -1 0 0
vn -1 0 0
vn -1 0 0
vn 0 1 0
vn 0 1 0
vn 0 1 0
vn 0 1 0
vn 0 -1 0
vn 0 -1 0
vn 0 -1 0
vn 0 -1 0
vn 0 0 1
vn 0 0 1
vn 0 0 1
vn 0 0 1
vn 0 0 -1
vn 0 0 -1
vn 0 0 -1
vn 0 0 -1
f 1/1/1 3/3/3 2/2/2
f 3/3/3 4/4/4 2/2/2
f 5/5/5 7/7/7 6/6/6
f 7/7/7 8/8/8 6/6/6
f 9/9/9 11/11/11 10/10/10
f 11/11/11 12/12/12 10/10/10
f 13/13/13 15/15/15 14/14/14
f 15/15/15 16/16/16 14/14/14
f 17/17/17 19/19/19 18/18/18
f 19/19/19 20/20/20 18/18/18
f 21/21/21 23/23/23 22/22/22
f 23/23/23 24/24/24 22/22/22
o 
v 0.019999999552965164 0.019999999552965164 0.02500000037252903
v 0.019999999552965164 0.019999999552965164 -0.02500000037252903
v 0.019999999552965164 -0.019999999552965164 0.02500000037252903
v 0.019999999552965164 -0.019999999552965164 -0.02500000037252903
v -0.019999999552965164 0.019999999552965164 -0.02500000037252903
v -0.019999999552965164 0.019999999552965164 0.02500000037252903
v -0.019999999552965164 -0.019999999552965164 -0.02500000037252903
v -0.019999999552965164 -0.019999999552965164 0.02500000037252903
v -0.019999999552965164 0.019999999552965164 -0.02500000037252903
v 0.019999999552965164 0.019999999552965164 -0.02500000037252903
v -0.019999999552965164 0.019999999552965164 0.02500000037252903
v 0.019999999552965164 0.019999999552965164 0.02500000037252903
v -0.019999999552965164 -0.019999999552965164 0.02500000037252903
v 0.019999999552965164 -0.019999999552965164 0.02500000037252903
v -0.019999999552965164 -0.019999999552965164 -0.02500000037252903
v 0.019999999552965164 -0.019999999552965164 -0.02500000037252903
v -0.019999999552965164 0.019999999552965164 0.02500000037252903
v 0.019999999552965164 0.019999999552965164 0.02500000037252903
v -0.019999999552965164 -0.019999999552965164 0.02500000037252903
v 0.019999999552965164 -0.019999999552965164 0.02500000037252903
v 0.019999999552965164 0.019999999552965164 -0.02500000037252903
v -0.019999999552965164 0.019999999552965164 -0.02500000037252903
v 0.019999999552965164 -0.019999999552965164 -0.02500000037252903
v -0.019999999552965164 -0.019999999552965164 -0.02500000037252903
vt 0 1
vt 1 1
vt 0 0
vt 1 0
vt 0 1
vt 1 1
vt 0 0
vt 1 0
vt 0 1
vt 1 1
vt 0 0
vt 1 0
vt 0 1
vt 1 1
vt 0 0
vt 1 0
vt 0 1
vt 1 1
vt 0 0
vt 1 0
vt 0 1
vt 1 1
vt 0 0
vt 1 0
vn 1 0 0
vn 1 0 0
vn 1 0 0
vn 1 0 0
vn -1 0 0
vn -1 0 0
vn -1 0 0
vn -1 0 0
vn 0 1 0
vn 0 1 0
vn 0 1 0
vn 0 1 0
vn 0 -1 0
vn 0 -1 0
vn 0 -1 0
vn 0 -1 0
vn 0 0 1
vn 0 0 1
vn 0 0 1
vn 0 0 1
vn 0 0 -1
vn 0 0 -1
vn 0 0 -1
vn 0 0 -1
f 25/25/25 27/27/27 26/26/26
f 27/27/27 28/28/28 26/26/26
f 29/29/29 31/31/31 30/30/30
f 31/31/31 32/32/32 30/30/30
f 33/33/33 35/35/35 34/34/34
f 35/35/35 36/36/36 34/34/34
f 37/37/37 39/39/39 38/38/38
f 39/39/39 40/40/40 38/38/38
f 41/41/41 43/43/43 42/42/42
f 43/43/43 44/44/44 42/42/42
f 45/45/45 47/47/47 46/46/46
f 47/47/47 48/48/48 46/46/46
o 
v 0.019999999552965164 0.019999999552965164 0.02500000037252903
v 0.019999999552965164 0.019999999552965164 -0.02500000037252903
v 0.019999999552965164 -0.019999999552965164 0.02500000037252903
v 0.019999999552965164 -0.019999999552965164 -0.02500000037252903
v -0.019999999552965164 0.019999999552965164 -0.02500000037252903
v -0.019999999552965164 0.019999999552965164 0.02500000037252903
v -0.019999999552965164 -0.019999999552965164 -0.02500000037252903
v -0.019999999552965164 -0.019999999552965164 0.02500000037252903
v -0.019999999552965164 0.019999999552965164 -0.02500000037252903
v 0.019999999552965164 0.019999999552965164 -0.02500000037252903
v -0.019999999552965164 0.019999999552965164 0.02500000037252903
v 0.019999999552965164 0.019999999552965164 0.02500000037252903
v -0.019999999552965164 -0.019999999552965164 0.02500000037252903
v 0.019999999552965164 -0.019999999552965164 0.02500000037252903
v -0.019999999552965164 -0.019999999552965164 -0.02500000037252903
v 0.019999999552965164 -0.019999999552965164 -0.02500000037252903
v -0.019999999552965164 0.019999999552965164 0.02500000037252903
v 0.019999999552965164 0.019999999552965164 0.02500000037252903
v -0.019999999552965164 -0.019999999552965164 0.02500000037252903
v 0.019999999552965164 -0.019999999552965164 0.02500000037252903
v 0.019999999552965164 0.019999999552965164 -0.02500000037252903
v -0.019999999552965164 0.019999999552965164 -0.02500000037252903
v 0.019999999552965164 -0.019999999552965164 -0.02500000037252903
v -0.019999999552965164 -0.019999999552965164 -0.02500000037252903
vt 0 1
vt 1 1
vt 0 0
vt 1 0
vt 0 1
vt 1 1
vt 0 0
vt 1 0
vt 0 1
vt 1 1
vt 0 0
vt 1 0
vt 0 1
vt 1 1
vt 0 0
vt 1 0
vt 0 1
vt 1 1
vt 0 0
vt 1 0
vt 0 1
vt 1 1
vt 0 0
vt 1 0
vn 1 0 0
vn 1 0 0
vn 1 0 0
vn 1 0 0
vn -1 0 0
vn -1 0 0
vn -1 0 0
vn -1 0 0
vn 0 1 0
vn 0 1 0
vn 0 1 0
vn 0 1 0
vn 0 -1 0
vn 0 -1 0
vn 0 -1 0
vn 0 -1 0
vn 0 0 1
vn 0 0 1
vn 0 0 1
vn 0 0 1
vn 0 0 -1
vn 0 0 -1
vn 0 0 -1
vn 0 0 -1
f 49/49/49 51/51/51 50/50/50
f 51/51/51 52/52/52 50/50/50
f 53/53/53 55/55/55 54/54/54
f 55/55/55 56/56/56 54/54/54
f 57/57/57 59/59/59 58/58/58
f 59/59/59 60/60/60 58/58/58
f 61/61/61 63/63/63 62/62/62
f 63/63/63 64/64/64 62/62/62
f 65/65/65 67/67/67 66/66/66
f 67/67/67 68/68/68 66/66/66
f 69/69/69 71/71/71 70/70/70
f 71/71/71 72/72/72 70/70/70
o 
v 0 -0.014999999664723873 0.5600000023841858
v 0.008816778659820557 -0.01213525515049696 0.5600000023841858
v 0.014265847392380238 -0.004635254852473736 0.5600000023841858
v 0.014265847392380238 0.004635254852473736 0.5600000023841858
v 0.008816778659820557 0.01213525515049696 0.5600000023841858
v 1.836970237518721e-18 0.014999999664723873 0.5600000023841858
v -0.008816778659820557 0.01213525515049696 0.5600000023841858
v -0.014265847392380238 0.004635254852473736 0.5600000023841858
v -0.014265847392380238 -0.004635254852473736 0.5600000023841858
v -0.008816778659820557 -0.01213525515049696 0.5600000023841858
v -3.673940475037442e-18 -0.014999999664723873 0.5600000023841858
v 0 -0.014999999664723873 -0.5600000023841858
v 0.008816778659820557 -0.01213525515049696 -0.5600000023841858
v 0.014265847392380238 -0.004635254852473736 -0.5600000023841858
v 0.014265847392380238 0.004635254852473736 -0.5600000023841858
v 0.008816778659820557 0.01213525515049696 -0.5600000023841858
v 1.836970237518721e-18 0.014999999664723873 -0.5600000023841858
v -0.008816778659820557 0.01213525515049696 -0.5600000023841858
v -0.014265847392380238 0.004635254852473736 -0.5600000023841858
v -0.014265847392380238 -0.004635254852473736 -0.5600000023841858
v -0.008816778659820557 -0.01213525515049696 -0.5600000023841858
v -3.673940475037442e-18 -0.014999999664723873 -0.5600000023841858
v 0 3.429011054889572e-17 0.5600000023841858
v 0 3.429011054889572e-17 0.5600000023841858
v 0 3.429011054889572e-17 0.5600000023841858
v 0 3.429011054889572e-17 0.5600000023841858
v 0 3.429011054889572e-17 0.5600000023841858
v 0 3.429011054889572e-17 0.5600000023841858
v 0 3.429011054889572e-17 0.5600000023841858
v 0 3.429011054889572e-17 0.5600000023841858
v 0 3.429011054889572e-17 0.5600000023841858
v 0 3.429011054889572e-17 0.5600000023841858
v 0 -0.014999999664723873 0.5600000023841858
v 0.008816778659820557 -0.01213525515049696 0.5600000023841858
v 0.014265847392380238 -0.004635254852473736 0.5600000023841858
v 0.014265847392380238 0.004635254852473736 0.5600000023841858
v 0.008816778659820557 0.01213525515049696 0.5600000023841858
v 1.836970237518721e-18 0.014999999664723873 0.5600000023841858
v -0.008816778659820557 0.01213525515049696 0.5600000023841858
v -0.014265847392380238 0.004635254852473736 0.5600000023841858
v -0.014265847392380238 -0.004635254852473736 0.5600000023841858
v -0.008816778659820557 -0.01213525515049696 0.5600000023841858
v -3.673940475037442e-18 -0.014999999664723873 0.5600000023841858
v 0 -3.429011054889572e-17 -0.5600000023841858
v 0 -3.429011054889572e-17 -0.5600000023841858
v 0 -3.429011054889572e-17 -0.5600000023841858
v 0 -3.429011054889572e-17 -0.5600000023841858
v 0 -3.429011054889572e-17 -0.5600000023841858
v 0 -3.429011054889572e-17 -0.5600000023841858
v 0 -3.429011054889572e-17 -0.5600000023841858
v 0 -3.429011054889572e-17 -0.5600000023841858
v 0 -3.429011054889572e-17 -0.5600000023841858
v 0 -3.429011054889572e-17 -0.5600000023841858
v 0 -0.014999999664723873 -0.5600000023841858
v 0.008816778659820557 -0.01213525515049696 -0.5600000023841858
v 0.014265847392380238 -0.004635254852473736 -0.5600000023841858
v 0.014265847392380238 0.004635254852473736 -0.5600000023841858
v 0.008816778659820557 0.01213525515049696 -0.5600000023841858
v 1.836970237518721e-18 0.014999999664723873 -0.5600000023841858
v -0.008816778659820557 0.01213525515049696 -0.5600000023841858
v -0.014265847392380238 0.004635254852473736 -0.5600000023841858
v -0.014265847392380238 -0.004635254852473736 -0.5600000023841858
v -0.008816778659820557 -0.01213525515049696 -0.5600000023841858
v -3.673940475037442e-18 -0.014999999664723873 -0.5600000023841858
vt 0 1
vt 0.10000000149011612 1
vt 0.20000000298023224 1
vt 0.30000001192092896 1
vt 0.4000000059604645 1
vt 0.5 1
vt 0.6000000238418579 1
vt 0.699999988079071 1
vt 0.800000011920929 1
vt 0.8999999761581421 1
vt 1 1
vt 0 0
vt 0.10000000149011612 0
vt 0.20000000298023224 0
vt 0.30000001192092896 0
vt 0.4000000059604645 0
vt 0.5 0
vt 0.6000000238418579 0
vt 0.699999988079071 0
vt 0.800000011920929 0
vt 0.8999999761581421 0
vt 1 0
vt 0.5 0.5
vt 0.5 0.5
vt 0.5 0.5
vt 0.5 0.5
vt 0.5 0.5
vt 0.5 0.5
vt 0.5 0.5
vt 0.5 0.5
vt 0.5 0.5
vt 0.5 0.5
vt 1 0.5
vt 0.9045084714889526 0.7938926219940186
vt 0.6545084714889526 0.9755282402038574
vt 0.345491498708725 0.9755282402038574
vt 0.09549150615930557 0.7938926219940186
vt 0 0.5
vt 0.09549150615930557 0.20610737800598145
vt 0.345491498708725 0.024471741169691086
vt 0.6545084714889526 0.024471741169691086
vt 0.9045084714889526 0.20610737800598145
vt 1 0.5
vt 0.5 0.5
vt 0.5 0.5
vt 0.5 0.5
vt 0.5 0.5
vt 0.5 0.5
vt 0.5 0.5
vt 0.5 0.5
vt 0.5 0.5
vt 0.5 0.5
vt 0.5 0.5
vt 1 0.5
vt 0.9045084714889526 0.20610737800598145
vt 0.6545084714889526 0.024471741169691086
vt 0.345491498708725 0.024471741169691086
vt 0.09549150615930557 0.20610737800598145
vt 0 0.5
vt 0.09549150615930557 0.7938926219940186
vt 0.345491498708725 0.9755282402038574
vt 0.6545084714889526 0.9755282402038574
vt 0.9045084714889526 0.7938926219940186
vt 1 0.5
vn 0 -1 6.123234262925839e-17
vn 0.5877852429542022 -0.8090170011595983 4.953800384026539e-17
vn 0.9510565161477913 -0.3090169948284817 1.892183379232834e-17
vn 0.9510565161477913 0.3090169948284817 -1.892183379232834e-17
vn 0.5877852429542022 0.8090170011595983 -4.953800384026539e-17
vn 1.2246468525851679e-16 1 -6.123234262925839e-17
vn -0.5877852429542022 0.8090170011595983 -4.953800384026539e-17
vn -0.9510565161477913 0.3090169948284817 -1.892183379232834e-17
vn -0.9510565161477913 -0.3090169948284817 1.892183379232834e-17
vn -0.5877852429542022 -0.8090170011595983 4.953800384026539e-17
vn -2.4492937051703357e-16 -1 6.123234262925839e-17
vn 0 -1 6.123234262925839e-17
vn 0.5877852429542022 -0.8090170011595983 4.953800384026539e-17
vn 0.9510565161477913 -0.3090169948284817 1.892183379232834e-17
vn 0.9510565161477913 0.3090169948284817 -1.892183379232834e-17
vn 0.5877852429542022 0.8090170011595983 -4.953800384026539e-17
vn 1.2246468525851679e-16 1 -6.123234262925839e-17
vn -0.5877852429542022 0.8090170011595983 -4.953800384026539e-17
vn -0.9510565161477913 0.3090169948284817 -1.892183379232834e-17
vn -0.9510565161477913 -0.3090169948284817 1.892183379232834e-17
vn -0.5877852429542022 -0.8090170011595983 4.953800384026539e-17
vn -2.4492937051703357e-16 -1 6.123234262925839e-17
vn 0 6.123234262925839e-17 1
vn 0 6.123234262925839e-17 1
vn 0 6.123234262925839e-17 1
vn 0 6.123234262925839e-17 1
vn 0 6.123234262925839e-17 1
vn 0 6.123234262925839e-17 1
vn 0 6.123234262925839e-17 1
vn 0 6.123234262925839e-17 1
vn 0 6.123234262925839e-17 1
vn 0 6.123234262925839e-17 1
vn 0 6.123234262925839e-17 1
vn 0 6.123234262925839e-17 1
vn 0 6.123234262925839e-17 1
vn 0 6.123234262925839e-17 1
vn 0 6.123234262925839e-17 1
vn 0 6.123234262925839e-17 1
vn 0 6.123234262925839e-17 1
vn 0 6.123234262925839e-17 1
vn 0 6.123234262925839e-17 1
vn 0 6.123234262925839e-17 1
vn 0 6.123234262925839e-17 1
vn 0 -6.123234262925839e-17 -1
vn 0 -6.123234262925839e-17 -1
vn 0 -6.123234262925839e-17 -1
vn 0 -6.123234262925839e-17 -1
vn 0 -6.123234262925839e-17 -1
vn 0 -6.123234262925839e-17 -1
vn 0 -6.123234262925839e-17 -1
vn 0 -6.123234262925839e-17 -1
vn 0 -6.123234262925839e-17 -1
vn 0 -6.123234262925839e-17 -1
vn 0 -6.123234262925839e-17 -1
vn 0 -6.123234262925839e-17 -1
vn 0 -6.123234262925839e-17 -1
vn 0 -6.123234262925839e-17 -1
vn 0 -6.123234262925839e-17 -1
vn 0 -6.123234262925839e-17 -1
vn 0 -6.123234262925839e-17 -1
vn 0 -6.123234262925839e-17 -1
vn 0 -6.123234262925839e-17 -1
vn 0 -6.123234262925839e-17 -1
vn 0 -6.123234262925839e-17 -1
f 73/73/73 84/84/84 74/74/74
f 84/84/84 85/85/85 74/74/74
f 74/74/74 85/85/85 75/75/75
f 85/85/85 86/86/86 75/75/75
f 75/75/75 86/86/86 76/76/76
f 86/86/86 87/87/87 76/76/76
f 76/76/76 87/87/87 77/77/77
f 87/87/87 88/88/88 77/77/77
f 77/77/77 88/88/88 78/78/78
f 88/88/88 89/89/89 78/78/78
f 78/78/78 89/89/89 79/79/79
f 89/89/89 90/90/90 79/79/79
f 79/79/79 90/90/90 80/80/80
f 90/90/90 91/91/91 80/80/80
f 80/80/80 91/91/91 81/81/81
f 91/91/91 92/92/92 81/81/81
f 81/81/81 92/92/92 82/82/82
f 92/92/92 93/93/93 82/82/82
f 82/82/82 93/93/93 83/83/83
f 93/93/93 94/94/94 83/83/83
f 105/105/105 106/106/106 95/95/95
f 106/106/106 107/107/107 96/96/96
f 107/107/107 108/108/108 97/97/97
f 108/108/108 109/109/109 98/98/98
f 109/109/109 110/110/110 99/99/99
f 110/110/110 111/111/111 100/100/100
f 111/111/111 112/112/112 101/101/101
f 112/112/112 113/113/113 102/102/102
f 113/113/113 114/114/114 103/103/103
f 114/114/114 115/115/115 104/104/104
f 127/127/127 126/126/126 116/116/116
f 128/128/128 127/127/127 117/117/117
f 129/129/129 128/128/128 118/118/118
f 130/130/130 129/129/129 119/119/119
f 131/131/131 130/130/130 120/120/120
f 132/132/132 131/131/131 121/121/121
f 133/133/133 132/132/132 122/122/122
f 134/134/134 133/133/133 123/123/123
f 135/135/135 134/134/134 124/124/124
f 136/136/136 135/135/135 125/125/125
o 
v 0.019999999552965164 0.019999999552965164 0.02500000037252903
v 0.019999999552965164 0.019999999552965164 -0.02500000037252903
v 0.019999999552965164 -0.019999999552965164 0.02500000037252903
v 0.019999999552965164 -0.019999999552965164 -0.02500000037252903
v -0.019999999552965164 0.019999999552965164 -0.02500000037252903
v -0.019999999552965164 0.019999999552965164 0.02500000037252903
v -0.019999999552965164 -0.019999999552965164 -0.02500000037252903
v -0.019999999552965164 -0.019999999552965164 0.02500000037252903
v -0.019999999552965164 0.019999999552965164 -0.02500000037252903
v 0.019999999552965164 0.019999999552965164 -0.02500000037252903
v -0.019999999552965164 0.019999999552965164 0.02500000037252903
v 0.019999999552965164 0.019999999552965164 0.02500000037252903
v -0.019999999552965164 -0.019999999552965164 0.02500000037252903
v 0.019999999552965164 -0.019999999552965164 0.02500000037252903
v -0.019999999552965164 -0.019999999552965164 -0.02500000037252903
v 0.019999999552965164 -0.019999999552965164 -0.02500000037252903
v -0.019999999552965164 0.019999999552965164 0.02500000037252903
v 0.019999999552965164 0.019999999552965164 0.02500000037252903
v -0.019999999552965164 -0.019999999552965164 0.02500000037252903
v 0.019999999552965164 -0.019999999552965164 0.02500000037252903
v 0.019999999552965164 0.019999999552965164 -0.02500000037252903
v -0.019999999552965164 0.019999999552965164 -0.02500000037252903
v 0.019999999552965164 -0.019999999552965164 -0.02500000037252903
v -0.019999999552965164 -0.019999999552965164 -0.02500000037252903
vt 0 1
vt 1 1
vt 0 0
vt 1 0
vt 0 1
vt 1 1
vt 0 0
vt 1 0
vt 0 1
vt 1 1
vt 0 0
vt 1 0
vt 0 1
vt 1 1
vt 0 0
vt 1 0
vt 0 1
vt 1 1
vt 0 0
vt 1 0
vt 0 1
vt 1 1
vt 0 0
vt 1 0
vn 1 0 0
vn 1 0 0
vn 1 0 0
vn 1 0 0
vn -1 0 0
vn -1 0 0
vn -1 0 0
vn -1 0 0
vn 0 1 0
vn 0 1 0
vn 0 1 0
vn 0 1 0
vn 0 -1 0
vn 0 -1 0
vn 0 -1 0
vn 0 -1 0
vn 0 0 1
vn 0 0 1
vn 0 0 1
vn 0 0 1
vn 0 0 -1
vn 0 0 -1
vn 0 0 -1
vn 0 0 -1
f 137/137/137 139/139/139 138/138/138
f 139/139/139 140/140/140 138/138/138
f 141/141/141 143/143/143 142/142/142
f 143/143/143 144/144/144 142/142/142
f 145/145/145 147/147/147 146/146/146
f 147/147/147 148/148/148 146/146/146
f 149/149/149 151/151/151 150/150/150
f 151/151/151 152/152/152 150/150/150
f 153/153/153 155/155/155 154/154/154
f 155/155/155 156/156/156 154/154/154
f 157/157/157 159/159/159 158/158/158
f 159/159/159 160/160/160 158/158/158
o 
v 0.019999999552965164 0.019999999552965164 0.02500000037252903
v 0.019999999552965164 0.019999999552965164 -0.02500000037252903
v 0.019999999552965164 -0.019999999552965164 0.02500000037252903
v 0.019999999552965164 -0.019999999552965164 -0.02500000037252903
v -0.019999999552965164 0.019999999552965164 -0.02500000037252903
v -0.019999999552965164 0.019999999552965164 0.02500000037252903
v -0.019999999552965164 -0.019999999552965164 -0.02500000037252903
v -0.019999999552965164 -0.019999999552965164 0.02500000037252903
v -0.019999999552965164 0.019999999552965164 -0.02500000037252903
v 0.019999999552965164 0.019999999552965164 -0.02500000037252903
v -0.019999999552965164 0.019999999552965164 0.02500000037252903
v 0.019999999552965164 0.019999999552965164 0.02500000037252903
v -0.019999999552965164 -0.019999999552965164 0.02500000037252903
v 0.019999999552965164 -0.019999999552965164 0.02500000037252903
v -0.019999999552965164 -0.019999999552965164 -0.02500000037252903
v 0.019999999552965164 -0.019999999552965164 -0.02500000037252903
v -0.019999999552965164 0.019999999552965164 0.02500000037252903
v 0.019999999552965164 0.019999999552965164 0.02500000037252903
v -0.019999999552965164 -0.019999999552965164 0.02500000037252903
v 0.019999999552965164 -0.019999999552965164 0.02500000037252903
v 0.019999999552965164 0.019999999552965164 -0.02500000037252903
v -0.019999999552965164 0.019999999552965164 -0.02500000037252903
v 0.019999999552965164 -0.019999999552965164 -0.02500000037252903
v -0.019999999552965164 -0.019999999552965164 -0.02500000037252903
vt 0 1
vt 1 1
vt 0 0
vt 1 0
vt 0 1
vt 1 1
vt 0 0
vt 1 0
vt 0 1
vt 1 1
vt 0 0
vt 1 0
vt 0 1
vt 1 1
vt 0 0
vt 1 0
vt 0 1
vt 1 1
vt 0 0
vt 1 0
vt 0 1
vt 1 1
vt 0 0
vt 1 0
vn 1 0 0
vn 1 0 0
vn 1 0 0
vn 1 0 0
vn -1 0 0
vn -1 0 0
vn -1 0 0
vn -1 0 0
vn 0 1 0
vn 0 1 0
vn 0 1 0
vn 0 1 0
vn 0 -1 0
vn 0 -1 0
vn 0 -1 0
vn 0 -1 0
vn 0 0 1
vn 0 0 1
vn 0 0 1
vn 0 0 1
vn 0 0 -1
vn 0 0 -1
vn 0 0 -1
vn 0 0 -1
f 161/161/161 163/163/163 162/162/162
f 163/163/163 164/164/164 162/162/162
f 165/165/165 167/167/167 166/166/166
f 167/167/167 168/168/168 166/166/166
f 169/169/169 171/171/171 170/170/170
f 171/171/171 172/172/172 170/170/170
f 173/173/173 175/175/175 174/174/174
f 175/175/175 176/176/176 174/174/174
f 177/177/177 179/179/179 178/178/178
f 179/179/179 180/180/180 178/178/178
f 181/181/181 183/183/183 182/182/182
f 183/183/183 184/184/184 182/182/182
o 
v 0 -0.014999999664723873 0.5600000023841858
v 0.008816778659820557 -0.01213525515049696 0.5600000023841858
v 0.014265847392380238 -0.004635254852473736 0.5600000023841858
v 0.014265847392380238 0.004635254852473736 0.5600000023841858
v 0.008816778659820557 0.01213525515049696 0.5600000023841858
v 1.836970237518721e-18 0.014999999664723873 0.5600000023841858
v -0.008816778659820557 0.01213525515049696 0.5600000023841858
v -0.014265847392380238 0.004635254852473736 0.5600000023841858
v -0.014265847392380238 -0.004635254852473736 0.5600000023841858
v -0.008816778659820557 -0.01213525515049696 0.5600000023841858
v -3.673940475037442e-18 -0.014999999664723873 0.5600000023841858
v 0 -0.014999999664723873 -0.5600000023841858
v 0.008816778659820557 -0.01213525515049696 -0.5600000023841858
v 0.014265847392380238 -0.004635254852473736 -0.5600000023841858
v 0.014265847392380238 0.004635254852473736 -0.5600000023841858
v 0.008816778659820557 0.01213525515049696 -0.5600000023841858
v 1.836970237518721e-18 0.014999999664723873 -0.5600000023841858
v -0.008816778659820557 0.01213525515049696 -0.5600000023841858
v -0.014265847392380238 0.004635254852473736 -0.5600000023841858
v -0.014265847392380238 -0.004635254852473736 -0.5600000023841858
v -0.008816778659820557 -0.01213525515049696 -0.5600000023841858
v -3.673940475037442e-18 -0.014999999664723873 -0.5600000023841858
v 0 3.429011054889572e-17 0.5600000023841858
v 0 3.429011054889572e-17 0.5600000023841858
v 0 3.429011054889572e-17 0.5600000023841858
v 0 3.429011054889572e-17 0.5600000023841858
v 0 3.429011054889572e-17 0.5600000023841858
v 0 3.429011054889572e-17 0.5600000023841858
v 0 3.429011054889572e-17 0.5600000023841858
v 0 3.429011054889572e-17 0.5600000023841858
v 0 3.429011054889572e-17 0.5600000023841858
v 0 3.429011054889572e-17 0.5600000023841858
v 0 -0.014999999664723873 0.5600000023841858
v 0.008816778659820557 -0.01213525515049696 0.5600000023841858
v 0.014265847392380238 -0.004635254852473736 0.5600000023841858
v 0.014265847392380238 0.004635254852473736 0.5600000023841858
v 0.008816778659820557 0.01213525515049696 0.5600000023841858
v 1.836970237518721e-18 0.014999999664723873 0.5600000023841858
v -0.008816778659820557 0.01213525515049696 0.5600000023841858
v -0.014265847392380238 0.004635254852473736 0.5600000023841858
v -0.014265847392380238 -0.004635254852473736 0.5600000023841858
v -0.008816778659820557 -0.01213525515049696 0.5600000023841858
v -3.673940475037442e-18 -0.014999999664723873 0.5600000023841858
v 0 -3.429011054889572e-17 -0.5600000023841858
v 0 -3.429011054889572e-17 -0.5600000023841858
v 0 -3.429011054889572e-17 -0.5600000023841858
v 0 -3.429011054889572e-17 -0.5600000023841858
v 0 -3.429011054889572e-17 -0.5600000023841858
v 0 -3.429011054889572e-17 -0.5600000023841858
v 0 -3.429011054889572e-17 -0.5600000023841858
v 0 -3.429011054889572e-17 -0.5600000023841858
v 0 -3.429011054889572e-17 -0.5600000023841858
v 0 -3.429011054889572e-17 -0.5600000023841858
v 0 -0.014999999664723873 -0.5600000023841858
v 0.008816778659820557 -0.01213525515049696 -0.5600000023841858
v 0.014265847392380238 -0.004635254852473736 -0.5600000023841858
v 0.014265847392380238 0.004635254852473736 -0.5600000023841858
v 0.008816778659820557 0.01213525515049696 -0.5600000023841858
v 1.836970237518721e-18 0.014999999664723873 -0.5600000023841858
v -0.008816778659820557 0.01213525515049696 -0.5600000023841858
v -0.014265847392380238 0.004635254852473736 -0.5600000023841858
v -0.014265847392380238 -0.004635254852473736 -0.5600000023841858
v -0.008816778659820557 -0.01213525515049696 -0.5600000023841858
v -3.673940475037442e-18 -0.014999999664723873 -0.5600000023841858
vt 0 1
vt 0.10000000149011612 1
vt 0.20000000298023224 1
vt 0.30000001192092896 1
vt 0.4000000059604645 1
vt 0.5 1
vt 0.6000000238418579 1
vt 0.699999988079071 1
vt 0.800000011920929 1
vt 0.8999999761581421 1
vt 1 1
vt 0 0
vt 0.10000000149011612 0
vt 0.20000000298023224 0
vt 0.30000001192092896 0
vt 0.4000000059604645 0
vt 0.5 0
vt 0.6000000238418579 0
vt 0.699999988079071 0
vt 0.800000011920929 0
vt 0.8999999761581421 0
vt 1 0
vt 0.5 0.5
vt 0.5 0.5
vt 0.5 0.5
vt 0.5 0.5
vt 0.5 0.5
vt 0.5 0.5
vt 0.5 0.5
vt 0.5 0.5
vt 0.5 0.5
vt 0.5 0.5
vt 1 0.5
vt 0.9045084714889526 0.7938926219940186
vt 0.6545084714889526 0.9755282402038574
vt 0.345491498708725 0.9755282402038574
vt 0.09549150615930557 0.7938926219940186
vt 0 0.5
vt 0.09549150615930557 0.20610737800598145
vt 0.345491498708725 0.024471741169691086
vt 0.6545084714889526 0.024471741169691086
vt 0.9045084714889526 0.20610737800598145
vt 1 0.5
vt 0.5 0.5
vt 0.5 0.5
vt 0.5 0.5
vt 0.5 0.5
vt 0.5 0.5
vt 0.5 0.5
vt 0.5 0.5
vt 0.5 0.5
vt 0.5 0.5
vt 0.5 0.5
vt 1 0.5
vt 0.9045084714889526 0.20610737800598145
vt 0.6545084714889526 0.024471741169691086
vt 0.345491498708725 0.024471741169691086
vt 0.09549150615930557 0.20610737800598145
vt 0 0.5
vt 0.09549150615930557 0.7938926219940186
vt 0.345491498708725 0.9755282402038574
vt 0.6545084714889526 0.9755282402038574
vt 0.9045084714889526 0.7938926219940186
vt 1 0.5
vn 0 -1 6.123234262925839e-17
vn 0.5877852429542022 -0.8090170011595983 4.953800384026539e-17
vn 0.9510565161477913 -0.3090169948284817 1.892183379232834e-17
vn 0.9510565161477913 0.3090169948284817 -1.892183379232834e-17
vn 0.5877852429542022 0.8090170011595983 -4.953800384026539e-17
vn 1.2246468525851679e-16 1 -6.123234262925839e-17
vn -0.5877852429542022 0.8090170011595983 -4.953800384026539e-17
vn -0.9510565161477913 0.3090169948284817 -1.892183379232834e-17
vn -0.9510565161477913 -0.3090169948284817 1.892183379232834e-17
vn -0.5877852429542022 -0.8090170011595983 4.953800384026539e-17
vn -2.4492937051703357e-16 -1 6.123234262925839e-17
vn 0 -1 6.123234262925839e-17
vn 0.5877852429542022 -0.8090170011595983 4.953800384026539e-17
vn 0.9510565161477913 -0.3090169948284817 1.892183379232834e-17
vn 0.9510565161477913 0.3090169948284817 -1.892183379232834e-17
vn 0.5877852429542022 0.8090170011595983 -4.953800384026539e-17
vn 1.2246468525851679e-16 1 -6.123234262925839e-17
vn -0.5877852429542022 0.8090170011595983 -4.953800384026539e-17
vn -0.9510565161477913 0.3090169948284817 -1.892183379232834e-17
vn -0.9510565161477913 -0.3090169948284817 1.892183379232834e-17
vn -0.5877852429542022 -0.8090170011595983 4.953800384026539e-17
vn -2.4492937051703357e-16 -1 6.123234262925839e-17
vn 0 6.123234262925839e-17 1
vn 0 6.123234262925839e-17 1
vn 0 6.123234262925839e-17 1
vn 0 6.123234262925839e-17 1
vn 0 6.123234262925839e-17 1
vn 0 6.123234262925839e-17 1
vn 0 6.123234262925839e-17 1
vn 0 6.123234262925839e-17 1
vn 0 6.123234262925839e-17 1
vn 0 6.123234262925839e-17 1
vn 0 6.123234262925839e-17 1
vn 0 6.123234262925839e-17 1
vn 0 6.123234262925839e-17 1
vn 0 6.123234262925839e-17 1
vn 0 6.123234262925839e-17 1
vn 0 6.123234262925839e-17 1
vn 0 6.123234262925839e-17 1
vn 0 6.123234262925839e-17 1
vn 0 6.123234262925839e-17 1
vn 0 6.123234262925839e-17 1
vn 0 6.123234262925839e-17 1
vn 0 -6.123234262925839e-17 -1
vn 0 -6.123234262925839e-17 -1
vn 0 -6.123234262925839e-17 -1
vn 0 -6.123234262925839e-17 -1
vn 0 -6.123234262925839e-17 -1
vn 0 -6.123234262925839e-17 -1
vn 0 -6.123234262925839e-17 -1
vn 0 -6.123234262925839e-17 -1
vn 0 -6.123234262925839e-17 -1
vn 0 -6.123234262925839e-17 -1
vn 0 -6.123234262925839e-17 -1
vn 0 -6.123234262925839e-17 -1
vn 0 -6.123234262925839e-17 -1
vn 0 -6.123234262925839e-17 -1
vn 0 -6.123234262925839e-17 -1
vn 0 -6.123234262925839e-17 -1
vn 0 -6.123234262925839e-17 -1
vn 0 -6.123234262925839e-17 -1
vn 0 -6.123234262925839e-17 -1
vn 0 -6.123234262925839e-17 -1
vn 0 -6.123234262925839e-17 -1
f 185/185/185 196/196/196 186/186/186
f 196/196/196 197/197/197 186/186/186
f 186/186/186 197/197/197 187/187/187
f 197/197/197 198/198/198 187/187/187
f 187/187/187 198/198/198 188/188/188
f 198/198/198 199/199/199 188/188/188
f 188/188/188 199/199/199 189/189/189
f 199/199/199 200/200/200 189/189/189
f 189/189/189 200/200/200 190/190/190
f 200/200/200 201/201/201 190/190/190
f 190/190/190 201/201/201 191/191/191
f 201/201/201 202/202/202 191/191/191
f 191/191/191 202/202/202 192/192/192
f 202/202/202 203/203/203 192/192/192
f 192/192/192 203/203/203 193/193/193
f 203/203/203 204/204/204 193/193/193
f 193/193/193 204/204/204 194/194/194
f 204/204/204 205/205/205 194/194/194
f 194/194/194 205/205/205 195/195/195
f 205/205/205 206/206/206 195/195/195
f 217/217/217 218/218/218 207/207/207
f 218/218/218 219/219/219 208/208/208
f 219/219/219 220/220/220 209/209/209
f 220/220/220 221/221/221 210/210/210
f 221/221/221 222/222/222 211/211/211
f 222/222/222 223/223/223 212/212/212
f 223/223/223 224/224/224 213/213/213
f 224/224/224 225/225/225 214/214/214
f 225/225/225 226/226/226 215/215/215
f 226/226/226 227/227/227 216/216/216
f 239/239/239 238/238/238 228/228/228
f 240/240/240 239/239/239 229/229/229
f 241/241/241 240/240/240 230/230/230
f 242/242/242 241/241/241 231/231/231
f 243/243/243 242/242/242 232/232/232
f 244/244/244 243/243/243 233/233/233
f 245/245/245 244/244/244 234/234/234
f 246/246/246 245/245/245 235/235/235
f 247/247/247 246/246/246 236/236/236
f 248/248/248 247/247/247 237/237/237
