o 
v 0.2199999988079071 0.019999999552965164 0.20999999344348907
v 0.2199999988079071 0.019999999552965164 -0.20999999344348907
v 0.2199999988079071 -0.019999999552965164 0.20999999344348907
v 0.2199999988079071 -0.019999999552965164 -0.20999999344348907
v -0.2199999988079071 0.019999999552965164 -0.20999999344348907
v -0.2199999988079071 0.019999999552965164 0.20999999344348907
v -0.2199999988079071 -0.019999999552965164 -0.20999999344348907
v -0.2199999988079071 -0.019999999552965164 0.20999999344348907
v -0.2199999988079071 0.019999999552965164 -0.20999999344348907
v 0.2199999988079071 0.019999999552965164 -0.20999999344348907
v -0.2199999988079071 0.019999999552965164 0.20999999344348907
v 0.2199999988079071 0.019999999552965164 0.20999999344348907
v -0.2199999988079071 -0.019999999552965164 0.20999999344348907
v 0.2199999988079071 -0.019999999552965164 0.20999999344348907
v -0.2199999988079071 -0.019999999552965164 -0.20999999344348907
v 0.2199999988079071 -0.019999999552965164 -0.20999999344348907
v -0.2199999988079071 0.019999999552965164 0.20999999344348907
v 0.2199999988079071 0.019999999552965164 0.20999999344348907
v -0.2199999988079071 -0.019999999552965164 0.20999999344348907
v 0.2199999988079071 -0.019999999552965164 0.20999999344348907
v 0.2199999988079071 0.019999999552965164 -0.20999999344348907
v -0.2199999988079071 0.019999999552965164 -0.20999999344348907
v 0.2199999988079071 -0.019999999552965164 -0.20999999344348907
v -0.2199999988079071 -0.019999999552965164 -0.20999999344348907
vt 0 1
vt 1 1
vt 0 0
vt 1 0
vt 0 1
vt 1 1
vt 0 0
vt 1 0
vt 0 1
vt 1 1
vt 0 0
vt 1 0
vt 0 1
vt 1 1
vt 0 0
vt 1 0
vt 0 1
vt 1 1
vt 0 0
vt 1 0
vt 0 1
vt 1 1
vt 0 0
vt 1 0
vn 1 0 0
vn 1 0 0
vn 1 0 0
vn 1 0 0
vn -1 0 0
vn -1 0 0
vn -1 0 0
vn -1 0 0
vn 0 1 0
vn 0 1 0
vn 0 1 0
vn 0 1 0
vn 0 -1 0
vn 0 -1 0
vn 0 -1 0
vn 0 -1 0
vn 0 0 1
vn 0 0 1
vn 0 0 1
vn 0 0 1
vn 0 0 -1
vn 0 0 -1
vn 0 0 -1
vn 0 0 -1
f 1/1/1 3/3/3 2/2/2
f 3/3/3 4/4/4 2/2/2
f 5/5/5 7/7/7 6/6/6
f 7/7/7 8/8/8 6/6/6
f 9/9/9 11/11/11 10/10/10
f 11/11/11 12/12/12 10/10/10
f 13/13/13 15/15/15 14/14/14
f 15/15/15 16/16/16 14/14/14
f 17/17/17 19/19/19 18/18/18
f 19/19/19 20/20/20 18/18/18
f 21/21/21 23/23/23 22/22/22
f 23/23/23 24/24/24 22/22/22
o 
v 0.20999999344348907 0.1899999976158142 0.014999999664723873
v 0.20999999344348907 0.1899999976158142 -0.014999999664723873
v 0.20999999344348907 -0.1899999976158142 0.014999999664723873
v 0.20999999344348907 -0.1899999976158142 -0.014999999664723873
v -0.20999999344348907 0.1899999976158142 -0.014999999664723873
v -0.20999999344348907 0.1899999976158142 0.014999999664723873
v -0.20999999344348907 -0.1899999976158142 -0.014999999664723873
v -0.20999999344348907 -0.1899999976158142 0.014999999664723873
v -0.20999999344348907 0.1899999976158142 -0.014999999664723873
v 0.20999999344348907 0.1899999976158142 -0.014999999664723873
v -0.20999999344348907 0.1899999976158142 0.014999999664723873
v 0.20999999344348907 0.1899999976158142 0.014999999664723873
v -0.20999999344348907 -0.1899999976158142 0.014999999664723873
v 0.20999999344348907 -0.1899999976158142 0.014999999664723873
v -0.20999999344348907 -0.1899999976158142 -0.014999999664723873
v 0.20999999344348907 -0.1899999976158142 -0.014999999664723873
v -0.20999999344348907 0.1899999976158142 0.014999999664723873
v 0.20999999344348907 0.1899999976158142 0.014999999664723873
v -0.20999999344348907 -0.1899999976158142 0.014999999664723873
v 0.20999999344348907 -0.1899999976158142 0.014999999664723873
v 0.20999999344348907 0.1899999976158142 -0.014999999664723873
v -0.20999999344348907 0.1899999976158142 -0.014999999664723873
v 0.20999999344348907 -0.1899999976158142 -0.014999999664723873
v -0.20999999344348907 -0.1899999976158142 -0.014999999664723873
vt 0 1
vt 1 1
vt 0 0
vt 1 0
vt 0 1
vt 1 1
vt 0 0
vt 1 0
vt 0 1
vt 1 1
vt 0 0
vt 1 0
vt 0 1
vt 1 1
vt 0 0
vt 1 0
vt 0 1
vt 1 1
vt 0 0
vt 1 0
vt 0 1
vt 1 1
vt 0 0
vt 1 0
vn 1 0 0
vn 1 0 0
vn 1 0 0
vn 1 0 0
vn -1 0 0
vn -1 0 0
vn -1 0 0
vn -1 0 0
vn 0 1 0
vn 0 1 0
vn 0 1 0
vn 0 1 0
vn 0 -1 0
vn 0 -1 0
vn 0 -1 0
vn 0 -1 0
vn 0 0 1
vn 0 0 1
vn 0 0 1
vn 0 0 1
vn 0 0 -1
vn 0 0 -1
vn 0 0 -1
vn 0 0 -1
f 25/25/25 27/27/27 26/26/26
f 27/27/27 28/28/28 26/26/26
f 29/29/29 31/31/31 30/30/30
f 31/31/31 32/32/32 30/30/30
f 33/33/33 35/35/35 34/34/34
f 35/35/35 36/36/36 34/34/34
f 37/37/37 39/39/39 38/38/38
f 39/39/39 40/40/40 38/38/38
f 41/41/41 43/43/43 42/42/42
f 43/43/43 44/44/44 42/42/42
f 45/45/45 47/47/47 46/46/46
f 47/47/47 48/48/48 46/46/46
o 
v 0 0.22499999403953552 0.014999999664723873
v 0.01060660183429718 0.22499999403953552 0.01060660183429718
v 0.014999999664723873 0.22499999403953552 9.184851187593606e-19
v 0.01060660183429718 0.22499999403953552 -0.01060660183429718
v 1.836970237518721e-18 0.22499999403953552 -0.014999999664723873
v -0.01060660183429718 0.22499999403953552 -0.01060660183429718
v -0.014999999664723873 0.22499999403953552 -2.755455252880505e-18
v -0.01060660183429718 0.22499999403953552 0.01060660183429718
v -3.673940475037442e-18 0.22499999403953552 0.014999999664723873
v 0 -0.22499999403953552 0.014999999664723873
v 0.01060660183429718 -0.22499999403953552 0.01060660183429718
v 0.014999999664723873 -0.22499999403953552 9.184851187593606e-19
v 0.01060660183429718 -0.22499999403953552 -0.01060660183429718
v 1.836970237518721e-18 -0.22499999403953552 -0.014999999664723873
v -0.01060660183429718 -0.22499999403953552 -0.01060660183429718
v -0.014999999664723873 -0.22499999403953552 -2.755455252880505e-18
v -0.01060660183429718 -0.22499999403953552 0.01060660183429718
v -3.673940475037442e-18 -0.22499999403953552 0.014999999664723873
v 0 0.22499999403953552 0
v 0 0.22499999403953552 0
v 0 0.22499999403953552 0
v 0 0.22499999403953552 0
v 0 0.22499999403953552 0
v 0 0.22499999403953552 0
v 0 0.22499999403953552 0
v 0 0.22499999403953552 0
v 0 0.22499999403953552 0.014999999664723873
v 0.01060660183429718 0.22499999403953552 0.01060660183429718
v 0.014999999664723873 0.22499999403953552 9.184851187593606e-19
v 0.01060660183429718 0.22499999403953552 -0.01060660183429718
v 1.836970237518721e-18 0.22499999403953552 -0.014999999664723873
v -0.01060660183429718 0.22499999403953552 -0.01060660183429718
v -0.014999999664723873 0.22499999403953552 -2.755455252880505e-18
v -0.01060660183429718 0.22499999403953552 0.01060660183429718
v -3.673940475037442e-18 0.22499999403953552 0.014999999664723873
v 0 -0.22499999403953552 0
v 0 -0.22499999403953552 0
v 0 -0.22499999403953552 0
v 0 -0.22499999403953552 0
v 0 -0.22499999403953552 0
v 0 -0.22499999403953552 0
v 0 -0.22499999403953552 0
v 0 -0.22499999403953552 0
v 0 -0.22499999403953552 0.014999999664723873
v 0.01060660183429718 -0.22499999403953552 0.01060660183429718
v 0.014999999664723873 -0.22499999403953552 9.184851187593606e-19
v 0.01060660183429718 -0.22499999403953552 -0.01060660183429718
v 1.836970237518721e-18 -0.22499999403953552 -0.014999999664723873
v -0.01060660183429718 -0.22499999403953552 -0.01060660183429718
v -0.014999999664723873 -0.22499999403953552 -2.755455252880505e-18
v -0.01060660183429718 -0.22499999403953552 0.01060660183429718
v -3.673940475037442e-18 -0.22499999403953552 0.014999999664723873
vt 0 1
vt 0.125 1
vt 0.25 1
vt 0.375 1
vt 0.5 1
vt 0.625 1
vt 0.75 1
vt 0.875 1
vt 1 1
vt 0 0
vt 0.125 0
vt 0.25 0
vt 0.375 0
vt 0.5 0
vt 0.625 0
vt 0.75 0
vt 0.875 0
vt 1 0
vt 0.5 0.5
vt 0.5 0.5
vt 0.5 0.5
vt 0.5 0.5
vt 0.5 0.5
vt 0.5 0.5
vt 0.5 0.5
vt 0.5 0.5
vt 1 0.5
vt 0.8535534143447876 0.8535534143447876
vt 0.5 1
vt 0.1464466154575348 0.8535534143447876
vt 0 0.5
vt 0.1464466154575348 0.1464466154575348
vt 0.5 0
vt 0.8535534143447876 0.1464466154575348
vt 1 0.5
vt 0.5 0.5
vt 0.5 0.5
vt 0.5 0.5
vt 0.5 0.5
vt 0.5 0.5
vt 0.5 0.5
vt 0.5 0.5
vt 0.5 0.5
vt 1 0.5
vt 0.8535534143447876 0.1464466154575348
vt 0.5 0
vt 0.1464466154575348 0.1464466154575348
vt 0 0.5
vt 0.1464466154575348 0.8535534143447876
vt 0.5 1
vt 0.8535534143447876 0.8535534143447876
vt 1 0.5
vn 0 0 1
vn 0.7071067811865476 0 0.7071067811865476
vn 1 0 6.123234262925839e-17
vn 0.7071067811865476 0 -0.7071067811865476
vn 1.2246468525851679e-16 0 -1
vn -0.7071067811865476 0 -0.7071067811865476
vn -1 0 -1.8369701465288538e-16
vn -0.7071067811865476 0 0.7071067811865476
vn -2.4492937051703357e-16 0 1
vn 0 0 1
vn 0.7071067811865476 0 0.7071067811865476
vn 1 0 6.123234262925839e-17
vn 0.7071067811865476 0 -0.7071067811865476
vn 1.2246468525851679e-16 0 -1
vn -0.7071067811865476 0 -0.7071067811865476
vn -1 0 -1.8369701465288538e-16
vn -0.7071067811865476 0 0.7071067811865476
vn -2.4492937051703357e-16 0 1
vn 0 1 0
vn 0 1 0
vn 0 1 0
vn 0 1 0
vn 0 1 0
vn 0 1 0
vn 0 1 0
vn 0 1 0
vn 0 1 0
vn 0 1 0
vn 0 1 0
vn 0 1 0
vn 0 1 0
vn 0 1 0
vn 0 1 0
vn 0 1 0
vn 0 1 0
vn 0 -1 0
vn 0 -1 0
vn 0 -1 0
vn 0 -1 0
vn 0 -1 0
vn 0 -1 0
vn 0 -1 0
vn 0 -1 0
vn 0 -1 0
vn 0 -1 0
vn 0 -1 0
vn 0 -1 0
vn 0 -1 0
vn 0 -1 0
vn 0 -1 0
vn 0 -1 0
vn 0 -1 0
f 49/49/49 58/58/58 50/50/50
f 58/58/58 59/59/59 50/50/50
f 50/50/50 59/59/59 51/51/51
f 59/59/59 60/60/60 51/51/51
f 51/51/51 60/60/60 52/52/52
f 60/60/60 61/61/61 52/52/52
f 52/52/52 61/61/61 53/53/53
f 61/61/61 62/62/62 53/53/53
f 53/53/53 62/62/62 54/54/54
f 62/62/62 63/63/63 54/54/54
f 54/54/54 63/63/63 55/55/55
f 63/63/63 64/64/64 55/55/55
f 55/55/55 64/64/64 56/56/56
f 64/64/64 65/65/65 56/56/56
f 56/56/56 65/65/65 57/57/57
f 65/65/65 66/66/66 57/57/57
f 75/75/75 76/76/76 67/67/67
f 76/76/76 77/77/77 68/68/68
f 77/77/77 78/78/78 69/69/69
f 78/78/78 79/79/79 70/70/70
f 79/79/79 80/80/80 71/71/71
f 80/80/80 81/81/81 72/72/72
f 81/81/81 82/82/82 73/73/73
f 82/82/82 83/83/83 74/74/74
f 93/93/93 92/92/92 84/84/84
f 94/94/94 93/93/93 85/85/85
f 95/95/95 94/94/94 86/86/86
f 96/96/96 95/95/95 87/87/87
f 97/97/97 96/96/96 88/88/88
f 98/98/98 97/97/97 89/89/89
f 99/99/99 98/98/98 90/90/90
f 100/100/100 99/99/99 91/91/91
o 
v 0 0.22499999403953552 0.014999999664723873
v 0.01060660183429718 0.22499999403953552 0.01060660183429718
v 0.014999999664723873 0.22499999403953552 9.184851187593606e-19
v 0.01060660183429718 0.22499999403953552 -0.01060660183429718
v 1.836970237518721e-18 0.22499999403953552 -0.014999999664723873
v -0.01060660183429718 0.22499999403953552 -0.01060660183429718
v -0.014999999664723873 0.22499999403953552 -2.755455252880505e-18
v -0.01060660183429718 0.22499999403953552 0.01060660183429718
v -3.673940475037442e-18 0.22499999403953552 0.014999999664723873
v 0 -0.22499999403953552 0.014999999664723873
v 0.01060660183429718 -0.22499999403953552 0.01060660183429718
v 0.014999999664723873 -0.22499999403953552 9.184851187593606e-19
v 0.01060660183429718 -0.22499999403953552 -0.01060660183429718
v 1.836970237518721e-18 -0.22499999403953552 -0.014999999664723873
v -0.01060660183429718 -0.22499999403953552 -0.01060660183429718
v -0.014999999664723873 -0.22499999403953552 -2.755455252880505e-18
v -0.01060660183429718 -0.22499999403953552 0.01060660183429718
v -3.673940475037442e-18 -0.22499999403953552 0.014999999664723873
v 0 0.22499999403953552 0
v 0 0.22499999403953552 0
v 0 0.22499999403953552 0
v 0 0.22499999403953552 0
v 0 0.22499999403953552 0
v 0 0.22499999403953552 0
v 0 0.22499999403953552 0
v 0 0.22499999403953552 0
v 0 0.22499999403953552 0.014999999664723873
v 0.01060660183429718 0.22499999403953552 0.01060660183429718
v 0.014999999664723873 0.22499999403953552 9.184851187593606e-19
v 0.01060660183429718 0.22499999403953552 -0.01060660183429718
v 1.836970237518721e-18 0.22499999403953552 -0.014999999664723873
v -0.01060660183429718 0.22499999403953552 -0.01060660183429718
v -0.014999999664723873 0.22499999403953552 -2.755455252880505e-18
v -0.01060660183429718 0.22499999403953552 0.01060660183429718
v -3.673940475037442e-18 0.22499999403953552 0.014999999664723873
v 0 -0.22499999403953552 0
v 0 -0.22499999403953552 0
v 0 -0.22499999403953552 0
v 0 -0.22499999403953552 0
v 0 -0.22499999403953552 0
v 0 -0.22499999403953552 0
v 0 -0.22499999403953552 0
v 0 -0.22499999403953552 0
v 0 -0.22499999403953552 0.014999999664723873
v 0.01060660183429718 -0.22499999403953552 0.01060660183429718
v 0.014999999664723873 -0.22499999403953552 9.184851187593606e-19
v 0.01060660183429718 -0.22499999403953552 -0.01060660183429718
v 1.836970237518721e-18 -0.22499999403953552 -0.014999999664723873
v -0.01060660183429718 -0.22499999403953552 -0.01060660183429718
v -0.014999999664723873 -0.22499999403953552 -2.755455252880505e-18
v -0.01060660183429718 -0.22499999403953552 0.01060660183429718
v -3.673940475037442e-18 -0.22499999403953552 0.014999999664723873
vt 0 1
vt 0.125 1
vt 0.25 1
vt 0.375 1
vt 0.5 1
vt 0.625 1
vt 0.75 1
vt 0.875 1
vt 1 1
vt 0 0
vt 0.125 0
vt 0.25 0
vt 0.375 0
vt 0.5 0
vt 0.625 0
vt 0.75 0
vt 0.875 0
vt 1 0
vt 0.5 0.5
vt 0.5 0.5
vt 0.5 0.5
vt 0.5 0.5
vt 0.5 0.5
vt 0.5 0.5
vt 0.5 0.5
vt 0.5 0.5
vt 1 0.5
vt 0.8535534143447876 0.8535534143447876
vt 0.5 1
vt 0.1464466154575348 0.8535534143447876
vt 0 0.5
vt 0.1464466154575348 0.1464466154575348
vt 0.5 0
vt 0.8535534143447876 0.1464466154575348
vt 1 0.5
vt 0.5 0.5
vt 0.5 0.5
vt 0.5 0.5
vt 0.5 0.5
vt 0.5 0.5
vt 0.5 0.5
vt 0.5 0.5
vt 0.5 0.5
vt 1 0.5
vt 0.8535534143447876 0.1464466154575348
vt 0.5 0
vt 0.1464466154575348 0.1464466154575348
vt 0 0.5
vt 0.1464466154575348 0.8535534143447876
vt 0.5 1
vt 0.8535534143447876 0.8535534143447876
vt 1 0.5
vn 0 0 1
vn 0.7071067811865476 0 0.7071067811865476
vn 1 0 6.123234262925839e-17
vn 0.7071067811865476 0 -0.7071067811865476
vn 1.2246468525851679e-16 0 -1
vn -0.7071067811865476 0 -0.7071067811865476
vn -1 0 -1.8369701465288538e-16
vn -0.7071067811865476 0 0.7071067811865476
vn -2.4492937051703357e-16 0 1
vn 0 0 1
vn 0.7071067811865476 0 0.7071067811865476
vn 1 0 6.123234262925839e-17
vn 0.7071067811865476 0 -0.7071067811865476
vn 1.2246468525851679e-16 0 -1
vn -0.7071067811865476 0 -0.7071067811865476
vn -1 0 -1.8369701465288538e-16
vn -0.7071067811865476 0 0.7071067811865476
vn -2.4492937051703357e-16 0 1
vn 0 1 0
vn 0 1 0
vn 0 1 0
vn 0 1 0
vn 0 1 0
vn 0 1 0
vn 0 1 0
vn 0 1 0
vn 0 1 0
vn 0 1 0
vn 0 1 0
vn 0 1 0
vn 0 1 0
vn 0 1 0
vn 0 1 0
vn 0 1 0
vn 0 1 0
vn 0 -1 0
vn 0 -1 0
vn 0 -1 0
vn 0 -1 0
vn 0 -1 0
vn 0 -1 0
vn 0 -1 0
vn 0 -1 0
vn 0 -1 0
vn 0 -1 0
vn 0 -1 0
vn 0 -1 0
vn 0 -1 0
vn 0 -1 0
vn 0 -1 0
vn 0 -1 0
vn 0 -1 0
f 101/101/101 110/110/110 102/102/102
f 110/110/110 111/111/111 102/102/102
f 102/102/102 111/111/111 103/103/103
f 111/111/111 112/112/112 103/103/103
f 103/103/103 112/112/112 104/104/104
f 112/112/112 113/113/113 104/104/104
f 104/104/104 113/113/113 105/105/105
f 113/113/113 114/114/114 105/105/105
f 105/105/105 114/114/114 106/106/106
f 114/114/114 115/115/115 106/106/106
f 106/106/106 115/115/115 107/107/107
f 115/115/115 116/116/116 107/107/107
f 107/107/107 116/116/116 108/108/108
f 116/116/116 117/117/117 108/108/108
f 108/108/108 117/117/117 109/109/109
f 117/117/117 118/118/118 109/109/109
f 127/127/127 128/128/128 119/119/119
f 128/128/128 129/129/129 120/120/120
f 129/129/129 130/130/130 121/121/121
f 130/130/130 131/131/131 122/122/122
f 131/131/131 132/132/132 123/123/123
f 132/132/132 133/133/133 124/124/124
f 133/133/133 134/134/134 125/125/125
f 134/134/134 135/135/135 126/126/126
f 145/145/145 144/144/144 136/136/136
f 146/146/146 145/145/145 137/137/137
f 147/147/147 146/146/146 138/138/138
f 148/148/148 147/147/147 139/139/139
f 149/149/149 148/148/148 140/140/140
f 150/150/150 149/149/149 141/141/141
f 151/151/151 150/150/150 142/142/142
f 152/152/152 151/151/151 143/143/143
o 
v 0 0.22499999403953552 0.014999999664723873
v 0.01060660183429718 0.22499999403953552 0.01060660183429718
v 0.014999999664723873 0.22499999403953552 9.184851187593606e-19
v 0.01060660183429718 0.22499999403953552 -0.01060660183429718
v 1.836970237518721e-18 0.22499999403953552 -0.014999999664723873
v -0.01060660183429718 0.22499999403953552 -0.01060660183429718
v -0.014999999664723873 0.22499999403953552 -2.755455252880505e-18
v -0.01060660183429718 0.22499999403953552 0.01060660183429718
v -3.673940475037442e-18 0.22499999403953552 0.014999999664723873
v 0 -0.22499999403953552 0.014999999664723873
v 0.01060660183429718 -0.22499999403953552 0.01060660183429718
v 0.014999999664723873 -0.22499999403953552 9.184851187593606e-19
v 0.01060660183429718 -0.22499999403953552 -0.01060660183429718
v 1.836970237518721e-18 -0.22499999403953552 -0.014999999664723873
v -0.01060660183429718 -0.22499999403953552 -0.01060660183429718
v -0.014999999664723873 -0.22499999403953552 -2.755455252880505e-18
v -0.01060660183429718 -0.22499999403953552 0.01060660183429718
v -3.673940475037442e-18 -0.22499999403953552 0.014999999664723873
v 0 0.22499999403953552 0
v 0 0.22499999403953552 0
v 0 0.22499999403953552 0
v 0 0.22499999403953552 0
v 0 0.22499999403953552 0
v 0 0.22499999403953552 0
v 0 0.22499999403953552 0
v 0 0.22499999403953552 0
v 0 0.22499999403953552 0.014999999664723873
v 0.01060660183429718 0.22499999403953552 0.01060660183429718
v 0.014999999664723873 0.22499999403953552 9.184851187593606e-19
v 0.01060660183429718 0.22499999403953552 -0.01060660183429718
v 1.836970237518721e-18 0.22499999403953552 -0.014999999664723873
v -0.01060660183429718 0.22499999403953552 -0.01060660183429718
v -0.014999999664723873 0.22499999403953552 -2.755455252880505e-18
v -0.01060660183429718 0.22499999403953552 0.01060660183429718
v -3.673940475037442e-18 0.22499999403953552 0.014999999664723873
v 0 -0.22499999403953552 0
v 0 -0.22499999403953552 0
v 0 -0.22499999403953552 0
v 0 -0.22499999403953552 0
v 0 -0.22499999403953552 0
v 0 -0.22499999403953552 0
v 0 -0.22499999403953552 0
v 0 -0.22499999403953552 0
v 0 -0.22499999403953552 0.014999999664723873
v 0.01060660183429718 -0.22499999403953552 0.01060660183429718
v 0.014999999664723873 -0.22499999403953552 9.184851187593606e-19
v 0.01060660183429718 -0.22499999403953552 -0.01060660183429718
v 1.836970237518721e-18 -0.22499999403953552 -0.014999999664723873
v -0.01060660183429718 -0.22499999403953552 -0.01060660183429718
v -0.014999999664723873 -0.22499999403953552 -2.755455252880505e-18
v -0.01060660183429718 -0.22499999403953552 0.01060660183429718
v -3.673940475037442e-18 -0.22499999403953552 0.014999999664723873
vt 0 1
vt 0.125 1
vt 0.25 1
vt 0.375 1
vt 0.5 1
vt 0.625 1
vt 0.75 1
vt 0.875 1
vt 1 1
vt 0 0
vt 0.125 0
vt 0.25 0
vt 0.375 0
vt 0.5 0
vt 0.625 0
vt 0.75 0
vt 0.875 0
vt 1 0
vt 0.5 0.5
vt 0.5 0.5
vt 0.5 0.5
vt 0.5 0.5
vt 0.5 0.5
vt 0.5 0.5
vt 0.5 0.5
vt 0.5 0.5
vt 1 0.5
vt 0.8535534143447876 0.8535534143447876
vt 0.5 1
vt 0.1464466154575348 0.8535534143447876
vt 0 0.5
vt 0.1464466154575348 0.1464466154575348
vt 0.5 0
vt 0.8535534143447876 0.1464466154575348
vt 1 0.5
vt 0.5 0.5
vt 0.5 0.5
vt 0.5 0.5
vt 0.5 0.5
vt 0.5 0.5
vt 0.5 0.5
vt 0.5 0.5
vt 0.5 0.5
vt 1 0.5
vt 0.8535534143447876 0.1464466154575348
vt 0.5 0
vt 0.1464466154575348 0.1464466154575348
vt 0 0.5
vt 0.1464466154575348 0.8535534143447876
vt 0.5 1
vt 0.8535534143447876 0.8535534143447876
vt 1 0.5
vn 0 0 1
vn 0.7071067811865476 0 0.7071067811865476
vn 1 0 6.123234262925839e-17
vn 0.7071067811865476 0 -0.7071067811865476
vn 1.2246468525851679e-16 0 -1
vn -0.7071067811865476 0 -0.7071067811865476
vn -1 0 -1.8369701465288538e-16
vn -0.7071067811865476 0 0.7071067811865476
vn -2.4492937051703357e-16 0 1
vn 0 0 1
vn 0.7071067811865476 0 0.7071067811865476
vn 1 0 6.123234262925839e-17
vn 0.7071067811865476 0 -0.7071067811865476
vn 1.2246468525851679e-16 0 -1
vn -0.7071067811865476 0 -0.7071067811865476
vn -1 0 -1.8369701465288538e-16
vn -0.7071067811865476 0 0.7071067811865476
vn -2.4492937051703357e-16 0 1
vn 0 1 0
vn 0 1 0
vn 0 1 0
vn 0 1 0
vn 0 1 0
vn 0 1 0
vn 0 1 0
vn 0 1 0
vn 0 1 0
vn 0 1 0
vn 0 1 0
vn 0 1 0
vn 0 1 0
vn 0 1 0
vn 0 1 0
vn 0 1 0
vn 0 1 0
vn 0 -1 0
vn 0 -1 0
vn 0 -1 0
vn 0 -1 0
vn 0 -1 0
vn 0 -1 0
vn 0 -1 0
vn 0 -1 0
vn 0 -1 0
vn 0 -1 0
vn 0 -1 0
vn 0 -1 0
vn 0 -1 0
vn 0 -1 0
vn 0 -1 0
vn 0 -1 0
vn 0 -1 0
f 153/153/153 162/162/162 154/154/154
f 162/162/162 163/163/163 154/154/154
f 154/154/154 163/163/163 155/155/155
f 163/163/163 164/164/164 155/155/155
f 155/155/155 164/164/164 156/156/156
f 164/164/164 165/165/165 156/156/156
f 156/156/156 165/165/165 157/157/157
f 165/165/165 166/166/166 157/157/157
f 157/157/157 166/166/166 158/158/158
f 166/166/166 167/167/167 158/158/158
f 158/158/158 167/167/167 159/159/159
f 167/167/167 168/168/168 159/159/159
f 159/159/159 168/168/168 160/160/160
f 168/168/168 169/169/169 160/160/160
f 160/160/160 169/169/169 161/161/161
f 169/169/169 170/170/170 161/161/161
f 179/179/179 180/180/180 171/171/171
f 180/180/180 181/181/181 172/172/172
f 181/181/181 182/182/182 173/173/173
f 182/182/182 183/183/183 174/174/174
f 183/183/183 184/184/184 175/175/175
f 184/184/184 185/185/185 176/176/176
f 185/185/185 186/186/186 177/177/177
f 186/186/186 187/187/187 178/178/178
f 197/197/197 196/196/196 188/188/188
f 198/198/198 197/197/197 189/189/189
f 199/199/199 198/198/198 190/190/190
f 200/200/200 199/199/199 191/191/191
f 201/201/201 200/200/200 192/192/192
f 202/202/202 201/201/201 193/193/193
f 203/203/203 202/202/202 194/194/194
f 204/204/204 203/203/203 195/195/195
o 
v 0 0.22499999403953552 0.014999999664723873
v 0.01060660183429718 0.22499999403953552 0.01060660183429718
v 0.014999999664723873 0.22499999403953552 9.184851187593606e-19
v 0.01060660183429718 0.22499999403953552 -0.01060660183429718
v 1.836970237518721e-18 0.22499999403953552 -0.014999999664723873
v -0.01060660183429718 0.22499999403953552 -0.01060660183429718
v -0.014999999664723873 0.22499999403953552 -2.755455252880505e-18
v -0.01060660183429718 0.22499999403953552 0.01060660183429718
v -3.673940475037442e-18 0.22499999403953552 0.014999999664723873
v 0 -0.22499999403953552 0.014999999664723873
v 0.01060660183429718 -0.22499999403953552 0.01060660183429718
v 0.014999999664723873 -0.22499999403953552 9.184851187593606e-19
v 0.01060660183429718 -0.22499999403953552 -0.01060660183429718
v 1.836970237518721e-18 -0.22499999403953552 -0.014999999664723873
v -0.01060660183429718 -0.22499999403953552 -0.01060660183429718
v -0.014999999664723873 -0.22499999403953552 -2.755455252880505e-18
v -0.01060660183429718 -0.22499999403953552 0.01060660183429718
v -3.673940475037442e-18 -0.22499999403953552 0.014999999664723873
v 0 0.22499999403953552 0
v 0 0.22499999403953552 0
v 0 0.22499999403953552 0
v 0 0.22499999403953552 0
v 0 0.22499999403953552 0
v 0 0.22499999403953552 0
v 0 0.22499999403953552 0
v 0 0.22499999403953552 0
v 0 0.22499999403953552 0.014999999664723873
v 0.01060660183429718 0.22499999403953552 0.01060660183429718
v 0.014999999664723873 0.22499999403953552 9.184851187593606e-19
v 0.01060660183429718 0.22499999403953552 -0.01060660183429718
v 1.836970237518721e-18 0.22499999403953552 -0.014999999664723873
v -0.01060660183429718 0.22499999403953552 -0.01060660183429718
v -0.014999999664723873 0.22499999403953552 -2.755455252880505e-18
v -0.01060660183429718 0.22499999403953552 0.01060660183429718
v -3.673940475037442e-18 0.22499999403953552 0.014999999664723873
v 0 -0.22499999403953552 0
v 0 -0.22499999403953552 0
v 0 -0.22499999403953552 0
v 0 -0.22499999403953552 0
v 0 -0.22499999403953552 0
v 0 -0.22499999403953552 0
v 0 -0.22499999403953552 0
v 0 -0.22499999403953552 0
v 0 -0.22499999403953552 0.014999999664723873
v 0.01060660183429718 -0.22499999403953552 0.01060660183429718
v 0.014999999664723873 -0.22499999403953552 9.184851187593606e-19
v 0.01060660183429718 -0.22499999403953552 -0.01060660183429718
v 1.836970237518721e-18 -0.22499999403953552 -0.014999999664723873
v -0.01060660183429718 -0.22499999403953552 -0.01060660183429718
v -0.014999999664723873 -0.22499999403953552 -2.755455252880505e-18
v -0.01060660183429718 -0.22499999403953552 0.01060660183429718
v -3.673940475037442e-18 -0.22499999403953552 0.014999999664723873
vt 0 1
vt 0.125 1
vt 0.25 1
vt 0.375 1
vt 0.5 1
vt 0.625 1
vt 0.75 1
vt 0.875 1
vt 1 1
vt 0 0
vt 0.125 0
vt 0.25 0
vt 0.375 0
vt 0.5 0
vt 0.625 0
vt 0.75 0
vt 0.875 0
vt 1 0
vt 0.5 0.5
vt 0.5 0.5
vt 0.5 0.5
vt 0.5 0.5
vt 0.5 0.5
vt 0.5 0.5
vt 0.5 0.5
vt 0.5 0.5
vt 1 0.5
vt 0.8535534143447876 0.8535534143447876
vt 0.5 1
vt 0.1464466154575348 0.8535534143447876
vt 0 0.5
vt 0.1464466154575348 0.1464466154575348
vt 0.5 0
vt 0.8535534143447876 0.1464466154575348
vt 1 0.5
vt 0.5 0.5
vt 0.5 0.5
vt 0.5 0.5
vt 0.5 0.5
vt 0.5 0.5
vt 0.5 0.5
vt 0.5 0.5
vt 0.5 0.5
vt 1 0.5
vt 0.8535534143447876 0.1464466154575348
vt 0.5 0
vt 0.1464466154575348 0.1464466154575348
vt 0 0.5
vt 0.1464466154575348 0.8535534143447876
vt 0.5 1
vt 0.8535534143447876 0.8535534143447876
vt 1 0.5
vn 0 0 1
vn 0.7071067811865476 0 0.7071067811865476
vn 1 0 6.123234262925839e-17
vn 0.7071067811865476 0 -0.7071067811865476
vn 1.2246468525851679e-16 0 -1
vn -0.7071067811865476 0 -0.7071067811865476
vn -1 0 -1.8369701465288538e-16
vn -0.7071067811865476 0 0.7071067811865476
vn -2.4492937051703357e-16 0 1
vn 0 0 1
vn 0.7071067811865476 0 0.7071067811865476
vn 1 0 6.123234262925839e-17
vn 0.7071067811865476 0 -0.7071067811865476
vn 1.2246468525851679e-16 0 -1
vn -0.7071067811865476 0 -0.7071067811865476
vn -1 0 -1.8369701465288538e-16
vn -0.7071067811865476 0 0.7071067811865476
vn -2.4492937051703357e-16 0 1
vn 0 1 0
vn 0 1 0
vn 0 1 0
vn 0 1 0
vn 0 1 0
vn 0 1 0
vn 0 1 0
vn 0 1 0
vn 0 1 0
vn 0 1 0
vn 0 1 0
vn 0 1 0
vn 0 1 0
vn 0 1 0
vn 0 1 0
vn 0 1 0
vn 0 1 0
vn 0 -1 0
vn 0 -1 0
vn 0 -1 0
vn 0 -1 0
vn 0 -1 0
vn 0 -1 0
vn 0 -1 0
vn 0 -1 0
vn 0 -1 0
vn 0 -1 0
vn 0 -1 0
vn 0 -1 0
vn 0 -1 0
vn 0 -1 0
vn 0 -1 0
vn 0 -1 0
vn 0 -1 0
f 205/205/205 214/214/214 206/206/206
f 214/214/214 215/215/215 206/206/206
f 206/206/206 215/215/215 207/207/207
f 215/215/215 216/216/216 207/207/207
f 207/207/207 216/216/216 208/208/208
f 216/216/216 217/217/217 208/208/208
f 208/208/208 217/217/217 209/209/209
f 217/217/217 218/218/218 209/209/209
f 209/209/209 218/218/218 210/210/210
f 218/218/218 219/219/219 210/210/210
f 210/210/210 219/219/219 211/211/211
f 219/219/219 220/220/220 211/211/211
f 211/211/211 220/220/220 212/212/212
f 220/220/220 221/221/221 212/212/212
f 212/212/212 221/221/221 213/213/213
f 221/221/221 222/222/222 213/213/213
f 231/231/231 232/232/232 223/223/223
f 232/232/232 233/233/233 224/224/224
f 233/233/233 234/234/234 225/225/225
f 234/234/234 235/235/235 226/226/226
f 235/235/235 236/236/236 227/227/227
f 236/236/236 237/237/237 228/228/228
f 237/237/237 238/238/238 229/229/229
f 238/238/238 239/239/239 230/230/230
f 249/249/249 248/248/248 240/240/240
f 250/250/250 249/249/249 241/241/241
f 251/251/251 250/250/250 242/242/242
f 252/252/252 251/251/251 243/243/243
f 253/253/253 252/252/252 244/244/244
f 254/254/254 253/253/253 245/245/245
f 255/255/255 254/254/254 246/246/246
f 256/256/256 255/255/255 247/247/247
