o 
v 0.03999999910593033 0.017500000074505806 0.1599999964237213
v 0.03999999910593033 0.017500000074505806 -0.1599999964237213
v 0.03999999910593033 -0.017500000074505806 0.1599999964237213
v 0.03999999910593033 -0.017500000074505806 -0.1599999964237213
v -0.03999999910593033 0.017500000074505806 -0.1599999964237213
v -0.03999999910593033 0.017500000074505806 0.1599999964237213
v -0.03999999910593033 -0.017500000074505806 -0.1599999964237213
v -0.03999999910593033 -0.017500000074505806 0.1599999964237213
v -0.03999999910593033 0.017500000074505806 -0.1599999964237213
v 0.03999999910593033 0.017500000074505806 -0.1599999964237213
v -0.03999999910593033 0.017500000074505806 0.1599999964237213
v 0.03999999910593033 0.017500000074505806 0.1599999964237213
v -0.03999999910593033 -0.017500000074505806 0.1599999964237213
v 0.03999999910593033 -0.017500000074505806 0.1599999964237213
v -0.03999999910593033 -0.017500000074505806 -0.1599999964237213
v 0.03999999910593033 -0.017500000074505806 -0.1599999964237213
v -0.03999999910593033 0.017500000074505806 0.1599999964237213
v 0.03999999910593033 0.017500000074505806 0.1599999964237213
v -0.03999999910593033 -0.017500000074505806 0.1599999964237213
v 0.03999999910593033 -0.017500000074505806 0.1599999964237213
v 0.03999999910593033 0.017500000074505806 -0.1599999964237213
v -0.03999999910593033 0.017500000074505806 -0.1599999964237213
v 0.03999999910593033 -0.017500000074505806 -0.1599999964237213
v -0.03999999910593033 -0.017500000074505806 -0.1599999964237213
vt 0 1
vt 1 1
vt 0 0
vt 1 0
vt 0 1
vt 1 1
vt 0 0
vt 1 0
vt 0 1
vt 1 1
vt 0 0
vt 1 0
vt 0 1
vt 1 1
vt 0 0
vt 1 0
vt 0 1
vt 1 1
vt 0 0
vt 1 0
vt 0 1
vt 1 1
vt 0 0
vt 1 0
vn 1 0 0
vn 1 0 0
vn 1 0 0
vn 1 0 0
vn -1 0 0
vn -1 0 0
vn -1 0 0
vn -1 0 0
vn 0 1 0
vn 0 1 0
vn 0 1 0
vn 0 1 0
vn 0 -1 0
vn 0 -1 0
vn 0 -1 0
vn 0 -1 0
vn 0 0 1
vn 0 0 1
vn 0 0 1
vn 0 0 1
vn 0 0 -1
vn 0 0 -1
vn 0 0 -1
vn 0 0 -1
f 1/1/1 3/3/3 2/2/2
f 3/3/3 4/4/4 2/2/2
f 5/5/5 7/7/7 6/6/6
f 7/7/7 8/8/8 6/6/6
f 9/9/9 11/11/11 10/10/10
f 11/11/11 12/12/12 10/10/10
f 13/13/13 15/15/15 14/14/14
f 15/15/15 16/16/16 14/14/14
f 17/17/17 19/19/19 18/18/18
f 19/19/19 20/20/20 18/18/18
f 21/21/21 23/23/23 22/22/22
f 23/23/23 24/24/24 22/22/22
o 
v 0.017500000074505806 0.007499999832361937 0.014999999664723873
v 0.017500000074505806 0.007499999832361937 -0.014999999664723873
v 0.017500000074505806 -0.007499999832361937 0.014999999664723873
v 0.017500000074505806 -0.007499999832361937 -0.014999999664723873
v -0.017500000074505806 0.007499999832361937 -0.014999999664723873
v -0.017500000074505806 0.007499999832361937 0.014999999664723873
v -0.017500000074505806 -0.007499999832361937 -0.014999999664723873
v -0.017500000074505806 -0.007499999832361937 0.014999999664723873
v -0.017500000074505806 0.007499999832361937 -0.014999999664723873
v 0.017500000074505806 0.007499999832361937 -0.014999999664723873
v -0.017500000074505806 0.007499999832361937 0.014999999664723873
v 0.017500000074505806 0.007499999832361937 0.014999999664723873
v -0.017500000074505806 -0.007499999832361937 0.014999999664723873
v 0.017500000074505806 -0.007499999832361937 0.014999999664723873
v -0.017500000074505806 -0.007499999832361937 -0.014999999664723873
v 0.017500000074505806 -0.007499999832361937 -0.014999999664723873
v -0.017500000074505806 0.007499999832361937 0.014999999664723873
v 0.017500000074505806 0.007499999832361937 0.014999999664723873
v -0.017500000074505806 -0.007499999832361937 0.014999999664723873
v 0.017500000074505806 -0.007499999832361937 0.014999999664723873
v 0.017500000074505806 0.007499999832361937 -0.014999999664723873
v -0.017500000074505806 0.007499999832361937 -0.014999999664723873
v 0.017500000074505806 -0.007499999832361937 -0.014999999664723873
v -0.017500000074505806 -0.007499999832361937 -0.014999999664723873
vt 0 1
vt 1 1
vt 0 0
vt 1 0
vt 0 1
vt 1 1
vt 0 0
vt 1 0
vt 0 1
vt 1 1
vt 0 0
vt 1 0
vt 0 1
vt 1 1
vt 0 0
vt 1 0
vt 0 1
vt 1 1
vt 0 0
vt 1 0
vt 0 1
vt 1 1
vt 0 0
vt 1 0
vn 1 0 0
vn 1 0 0
vn 1 0 0
vn 1 0 0
vn -1 0 0
vn -1 0 0
vn -1 0 0
vn -1 0 0
vn 0 1 0
vn 0 1 0
vn 0 1 0
vn 0 1 0
vn 0 -1 0
vn 0 -1 0
vn 0 -1 0
vn 0 -1 0
vn 0 0 1
vn 0 0 1
vn 0 0 1
vn 0 0 1
vn 0 0 -1
vn 0 0 -1
vn 0 0 -1
vn 0 0 -1
f 25/25/25 27/27/27 26/26/26
f 27/27/27 28/28/28 26/26/26
f 29/29/29 31/31/31 30/30/30
f 31/31/31 32/32/32 30/30/30
f 33/33/33 35/35/35 34/34/34
f 35/35/35 36/36/36 34/34/34
f 37/37/37 39/39/39 38/38/38
f 39/39/39 40/40/40 38/38/38
f 41/41/41 43/43/43 42/42/42
f 43/43/43 44/44/44 42/42/42
f 45/45/45 47/47/47 46/46/46
f 47/47/47 48/48/48 46/46/46
o 
v 0 0.0024999999441206455 0.02199999988079071
v 0.012931275181472301 0.0024999999441206455 0.017798373475670815
v 0.020923243835568428 0.0024999999441206455 0.006798374000936747
v 0.020923243835568428 0.0024999999441206455 -0.006798374000936747
v 0.012931275181472301 0.0024999999441206455 -0.017798373475670815
v 2.694223001241114e-18 0.0024999999441206455 -0.02199999988079071
v -0.012931275181472301 0.0024999999441206455 -0.017798373475670815
v -0.020923243835568428 0.0024999999441206455 -0.006798374000936747
v -0.020923243835568428 0.0024999999441206455 0.006798374000936747
v -0.012931275181472301 0.0024999999441206455 0.017798373475670815
v -5.388446002482228e-18 0.0024999999441206455 0.02199999988079071
v 0 -0.0024999999441206455 0.02199999988079071
v 0.012931275181472301 -0.0024999999441206455 0.017798373475670815
v 0.020923243835568428 -0.0024999999441206455 0.006798374000936747
v 0.020923243835568428 -0.0024999999441206455 -0.006798374000936747
v 0.012931275181472301 -0.0024999999441206455 -0.017798373475670815
v 2.694223001241114e-18 -0.0024999999441206455 -0.02199999988079071
v -0.012931275181472301 -0.0024999999441206455 -0.017798373475670815
v -0.020923243835568428 -0.0024999999441206455 -0.006798374000936747
v -0.020923243835568428 -0.0024999999441206455 0.006798374000936747
v -0.012931275181472301 -0.0024999999441206455 0.017798373475670815
v -5.388446002482228e-18 -0.0024999999441206455 0.02199999988079071
v 0 0.0024999999441206455 0
v 0 0.0024999999441206455 0
v 0 0.0024999999441206455 0
v 0 0.0024999999441206455 0
v 0 0.0024999999441206455 0
v 0 0.0024999999441206455 0
v 0 0.0024999999441206455 0
v 0 0.0024999999441206455 0
v 0 0.0024999999441206455 0
v 0 0.0024999999441206455 0
v 0 0.0024999999441206455 0.02199999988079071
v 0.012931275181472301 0.0024999999441206455 0.017798373475670815
v 0.020923243835568428 0.0024999999441206455 0.006798374000936747
v 0.020923243835568428 0.0024999999441206455 -0.006798374000936747
v 0.012931275181472301 0.0024999999441206455 -0.017798373475670815
v 2.694223001241114e-18 0.0024999999441206455 -0.02199999988079071
v -0.012931275181472301 0.0024999999441206455 -0.017798373475670815
v -0.020923243835568428 0.0024999999441206455 -0.006798374000936747
v -0.020923243835568428 0.0024999999441206455 0.006798374000936747
v -0.012931275181472301 0.0024999999441206455 0.017798373475670815
v -5.388446002482228e-18 0.0024999999441206455 0.02199999988079071
v 0 -0.0024999999441206455 0
v 0 -0.0024999999441206455 0
v 0 -0.0024999999441206455 0
v 0 -0.0024999999441206455 0
v 0 -0.0024999999441206455 0
v 0 -0.0024999999441206455 0
v 0 -0.0024999999441206455 0
v 0 -0.0024999999441206455 0
v 0 -0.0024999999441206455 0
v 0 -0.0024999999441206455 0
v 0 -0.0024999999441206455 0.02199999988079071
v 0.012931275181472301 -0.0024999999441206455 0.017798373475670815
v 0.020923243835568428 -0.0024999999441206455 0.006798374000936747
v 0.020923243835568428 -0.0024999999441206455 -0.006798374000936747
v 0.012931275181472301 -0.0024999999441206455 -0.017798373475670815
v 2.694223001241114e-18 -0.0024999999441206455 -0.02199999988079071
v -0.012931275181472301 -0.0024999999441206455 -0.017798373475670815
v -0.020923243835568428 -0.0024999999441206455 -0.006798374000936747
v -0.020923243835568428 -0.0024999999441206455 0.006798374000936747
v -0.012931275181472301 -0.0024999999441206455 0.017798373475670815
v -5.388446002482228e-18 -0.0024999999441206455 0.02199999988079071
vt 0 1
vt 0.10000000149011612 1
vt 0.20000000298023224 1
vt 0.30000001192092896 1
vt 0.4000000059604645 1
vt 0.5 1
vt 0.6000000238418579 1
vt 0.699999988079071 1
vt 0.800000011920929 1
vt 0.8999999761581421 1
vt 1 1
vt 0 0
vt 0.10000000149011612 0
vt 0.20000000298023224 0
vt 0.30000001192092896 0
vt 0.4000000059604645 0
vt 0.5 0
vt 0.6000000238418579 0
vt 0.699999988079071 0
vt 0.800000011920929 0
vt 0.8999999761581421 0
vt 1 0
vt 0.5 0.5
vt 0.5 0.5
vt 0.5 0.5
vt 0.5 0.5
vt 0.5 0.5
vt 0.5 0.5
vt 0.5 0.5
vt 0.5 0.5
vt 0.5 0.5
vt 0.5 0.5
vt 1 0.5
vt 0.9045084714889526 0.7938926219940186
vt 0.6545084714889526 0.9755282402038574
vt 0.345491498708725 0.9755282402038574
vt 0.09549150615930557 0.7938926219940186
vt 0 0.5
vt 0.09549150615930557 0.20610737800598145
vt 0.345491498708725 0.024471741169691086
vt 0.6545084714889526 0.024471741169691086
vt 0.9045084714889526 0.20610737800598145
vt 1 0.5
vt 0.5 0.5
vt 0.5 0.5
vt 0.5 0.5
vt 0.5 0.5
vt 0.5 0.5
vt 0.5 0.5
vt 0.5 0.5
vt 0.5 0.5
vt 0.5 0.5
vt 0.5 0.5
vt 1 0.5
vt 0.9045084714889526 0.20610737800598145
vt 0.6545084714889526 0.024471741169691086
vt 0.345491498708725 0.024471741169691086
vt 0.09549150615930557 0.20610737800598145
vt 0 0.5
vt 0.09549150615930557 0.7938926219940186
vt 0.345491498708725 0.9755282402038574
vt 0.6545084714889526 0.9755282402038574
vt 0.9045084714889526 0.7938926219940186
vt 1 0.5
vn 0 0 1
vn 0.5877852429542022 0 0.8090170011595983
vn 0.9510565161477913 0 0.3090169948284817
vn 0.9510565161477913 0 -0.3090169948284817
vn 0.5877852429542022 0 -0.8090170011595983
vn 1.2246468525851679e-16 0 -1
vn -0.5877852429542022 0 -0.8090170011595983
vn -0.9510565161477913 0 -0.3090169948284817
vn -0.9510565161477913 0 0.3090169948284817
vn -0.5877852429542022 0 0.8090170011595983
vn -2.4492937051703357e-16 0 1
vn 0 0 1
vn 0.5877852429542022 0 0.8090170011595983
vn 0.9510565161477913 0 0.3090169948284817
vn 0.9510565161477913 0 -0.3090169948284817
vn 0.5877852429542022 0 -0.8090170011595983
vn 1.2246468525851679e-16 0 -1
vn -0.5877852429542022 0 -0.8090170011595983
vn -0.9510565161477913 0 -0.3090169948284817
vn -0.9510565161477913 0 0.3090169948284817
vn -0.5877852429542022 0 0.8090170011595983
vn -2.4492937051703357e-16 0 1
vn 0 1 0
vn 0 1 0
vn 0 1 0
vn 0 1 0
vn 0 1 0
vn 0 1 0
vn 0 1 0
vn 0 1 0
vn 0 1 0
vn 0 1 0
vn 0 1 0
vn 0 1 0
vn 0 1 0
vn 0 1 0
vn 0 1 0
vn 0 1 0
vn 0 1 0
vn 0 1 0
vn 0 1 0
vn 0 1 0
vn 0 1 0
vn 0 -1 0
vn 0 -1 0
vn 0 -1 0
vn 0 -1 0
vn 0 -1 0
vn 0 -1 0
vn 0 -1 0
vn 0 -1 0
vn 0 -1 0
vn 0 -1 0
vn 0 -1 0
vn 0 -1 0
vn 0 -1 0
vn 0 -1 0
vn 0 -1 0
vn 0 -1 0
vn 0 -1 0
vn 0 -1 0
vn 0 -1 0
vn 0 -1 0
vn 0 -1 0
f 49/49/49 60/60/60 50/50/50
f 60/60/60 61/61/61 50/50/50
f 50/50/50 61/61/61 51/51/51
f 61/61/61 62/62/62 51/51/51
f 51/51/51 62/62/62 52/52/52
f 62/62/62 63/63/63 52/52/52
f 52/52/52 63/63/63 53/53/53
f 63/63/63 64/64/64 53/53/53
f 53/53/53 64/64/64 54/54/54
f 64/64/64 65/65/65 54/54/54
f 54/54/54 65/65/65 55/55/55
f 65/65/65 66/66/66 55/55/55
f 55/55/55 66/66/66 56/56/56
f 66/66/66 67/67/67 56/56/56
f 56/56/56 67/67/67 57/57/57
f 67/67/67 68/68/68 57/57/57
f 57/57/57 68/68/68 58/58/58
f 68/68/68 69/69/69 58/58/58
f 58/58/58 69/69/69 59/59/59
f 69/69/69 70/70/70 59/59/59
f 81/81/81 82/82/82 71/71/71
f 82/82/82 83/83/83 72/72/72
f 83/83/83 84/84/84 73/73/73
f 84/84/84 85/85/85 74/74/74
f 85/85/85 86/86/86 75/75/75
f 86/86/86 87/87/87 76/76/76
f 87/87/87 88/88/88 77/77/77
f 88/88/88 89/89/89 78/78/78
f 89/89/89 90/90/90 79/79/79
f 90/90/90 91/91/91 80/80/80
f 103/103/103 102/102/102 92/92/92
f 104/104/104 103/103/103 93/93/93
f 105/105/105 104/104/104 94/94/94
f 106/106/106 105/105/105 95/95/95
f 107/107/107 106/106/106 96/96/96
f 108/108/108 107/107/107 97/97/97
f 109/109/109 108/108/108 98/98/98
f 110/110/110 109/109/109 99/99/99
f 111/111/111 110/110/110 100/100/100
f 112/112/112 111/111/111 101/101/101
o 
v 0.0020000000949949026 0.004000000189989805 0.0020000000949949026
v 0.0020000000949949026 0.004000000189989805 -0.0020000000949949026
v 0.0020000000949949026 -0.004000000189989805 0.0020000000949949026
v 0.0020000000949949026 -0.004000000189989805 -0.0020000000949949026
v -0.0020000000949949026 0.004000000189989805 -0.0020000000949949026
v -0.0020000000949949026 0.004000000189989805 0.0020000000949949026
v -0.0020000000949949026 -0.004000000189989805 -0.0020000000949949026
v -0.0020000000949949026 -0.004000000189989805 0.0020000000949949026
v -0.0020000000949949026 0.004000000189989805 -0.0020000000949949026
v 0.0020000000949949026 0.004000000189989805 -0.0020000000949949026
v -0.0020000000949949026 0.004000000189989805 0.0020000000949949026
v 0.0020000000949949026 0.004000000189989805 0.0020000000949949026
v -0.0020000000949949026 -0.004000000189989805 0.0020000000949949026
v 0.0020000000949949026 -0.004000000189989805 0.0020000000949949026
v -0.0020000000949949026 -0.004000000189989805 -0.0020000000949949026
v 0.0020000000949949026 -0.004000000189989805 -0.0020000000949949026
v -0.0020000000949949026 0.004000000189989805 0.0020000000949949026
v 0.0020000000949949026 0.004000000189989805 0.0020000000949949026
v -0.0020000000949949026 -0.004000000189989805 0.0020000000949949026
v 0.0020000000949949026 -0.004000000189989805 0.0020000000949949026
v 0.0020000000949949026 0.004000000189989805 -0.0020000000949949026
v -0.0020000000949949026 0.004000000189989805 -0.0020000000949949026
v 0.0020000000949949026 -0.004000000189989805 -0.0020000000949949026
v -0.0020000000949949026 -0.004000000189989805 -0.0020000000949949026
vt 0 1
vt 1 1
vt 0 0
vt 1 0
vt 0 1
vt 1 1
vt 0 0
vt 1 0
vt 0 1
vt 1 1
vt 0 0
vt 1 0
vt 0 1
vt 1 1
vt 0 0
vt 1 0
vt 0 1
vt 1 1
vt 0 0
vt 1 0
vt 0 1
vt 1 1
vt 0 0
vt 1 0
vn 1 0 0
vn 1 0 0
vn 1 0 0
vn 1 0 0
vn -1 0 0
vn -1 0 0
vn -1 0 0
vn -1 0 0
vn 0 1 0
vn 0 1 0
vn 0 1 0
vn 0 1 0
vn 0 -1 0
vn 0 -1 0
vn 0 -1 0
vn 0 -1 0
vn 0 0 1
vn 0 0 1
vn 0 0 1
vn 0 0 1
vn 0 0 -1
vn 0 0 -1
vn 0 0 -1
vn 0 0 -1
f 113/113/113 115/115/115 114/114/114
f 115/115/115 116/116/116 114/114/114
f 117/117/117 119/119/119 118/118/118
f 119/119/119 120/120/120 118/118/118
f 121/121/121 123/123/123 122/122/122
f 123/123/123 124/124/124 122/122/122
f 125/125/125 127/127/127 126/126/126
f 127/127/127 128/128/128 126/126/126
f 129/129/129 131/131/131 130/130/130
f 131/131/131 132/132/132 130/130/130
f 133/133/133 135/135/135 134/134/134
f 135/135/135 136/136/136 134/134/134
o 
v 0.0020000000949949026 0.004000000189989805 0.0020000000949949026
v 0.0020000000949949026 0.004000000189989805 -0.0020000000949949026
v 0.0020000000949949026 -0.004000000189989805 0.0020000000949949026
v 0.0020000000949949026 -0.004000000189989805 -0.0020000000949949026
v -0.0020000000949949026 0.004000000189989805 -0.0020000000949949026
v -0.0020000000949949026 0.004000000189989805 0.0020000000949949026
v -0.0020000000949949026 -0.004000000189989805 -0.0020000000949949026
v -0.0020000000949949026 -0.004000000189989805 0.0020000000949949026
v -0.0020000000949949026 0.004000000189989805 -0.0020000000949949026
v 0.0020000000949949026 0.004000000189989805 -0.0020000000949949026
v -0.0020000000949949026 0.004000000189989805 0.0020000000949949026
v 0.0020000000949949026 0.004000000189989805 0.0020000000949949026
v -0.0020000000949949026 -0.004000000189989805 0.0020000000949949026
v 0.0020000000949949026 -0.004000000189989805 0.0020000000949949026
v -0.0020000000949949026 -0.004000000189989805 -0.0020000000949949026
v 0.0020000000949949026 -0.004000000189989805 -0.0020000000949949026
v -0.0020000000949949026 0.004000000189989805 0.0020000000949949026
v 0.0020000000949949026 0.004000000189989805 0.0020000000949949026
v -0.0020000000949949026 -0.004000000189989805 0.0020000000949949026
v 0.0020000000949949026 -0.004000000189989805 0.0020000000949949026
v 0.0020000000949949026 0.004000000189989805 -0.0020000000949949026
v -0.0020000000949949026 0.004000000189989805 -0.0020000000949949026
v 0.0020000000949949026 -0.004000000189989805 -0.0020000000949949026
v -0.0020000000949949026 -0.004000000189989805 -0.0020000000949949026
vt 0 1
vt 1 1
vt 0 0
vt 1 0
vt 0 1
vt 1 1
vt 0 0
vt 1 0
vt 0 1
vt 1 1
vt 0 0
vt 1 0
vt 0 1
vt 1 1
vt 0 0
vt 1 0
vt 0 1
vt 1 1
vt 0 0
vt 1 0
vt 0 1
vt 1 1
vt 0 0
vt 1 0
vn 1 0 0
vn 1 0 0
vn 1 0 0
vn 1 0 0
vn -1 0 0
vn -1 0 0
vn -1 0 0
vn -1 0 0
vn 0 1 0
vn 0 1 0
vn 0 1 0
vn 0 1 0
vn 0 -1 0
vn 0 -1 0
vn 0 -1 0
vn 0 -1 0
vn 0 0 1
vn 0 0 1
vn 0 0 1
vn 0 0 1
vn 0 0 -1
vn 0 0 -1
vn 0 0 -1
vn 0 0 -1
f 137/137/137 139/139/139 138/138/138
f 139/139/139 140/140/140 138/138/138
f 141/141/141 143/143/143 142/142/142
f 143/143/143 144/144/144 142/142/142
f 145/145/145 147/147/147 146/146/146
f 147/147/147 148/148/148 146/146/146
f 149/149/149 151/151/151 150/150/150
f 151/151/151 152/152/152 150/150/150
f 153/153/153 155/155/155 154/154/154
f 155/155/155 156/156/156 154/154/154
f 157/157/157 159/159/159 158/158/158
f 159/159/159 160/160/160 158/158/158
o 
v 0 0.0024999999441206455 0.02199999988079071
v 0.012931275181472301 0.0024999999441206455 0.017798373475670815
v 0.020923243835568428 0.0024999999441206455 0.006798374000936747
v 0.020923243835568428 0.0024999999441206455 -0.006798374000936747
v 0.012931275181472301 0.0024999999441206455 -0.017798373475670815
v 2.694223001241114e-18 0.0024999999441206455 -0.02199999988079071
v -0.012931275181472301 0.0024999999441206455 -0.017798373475670815
v -0.020923243835568428 0.0024999999441206455 -0.006798374000936747
v -0.020923243835568428 0.0024999999441206455 0.006798374000936747
v -0.012931275181472301 0.0024999999441206455 0.017798373475670815
v -5.388446002482228e-18 0.0024999999441206455 0.02199999988079071
v 0 -0.0024999999441206455 0.02199999988079071
v 0.012931275181472301 -0.0024999999441206455 0.017798373475670815
v 0.020923243835568428 -0.0024999999441206455 0.006798374000936747
v 0.020923243835568428 -0.0024999999441206455 -0.006798374000936747
v 0.012931275181472301 -0.0024999999441206455 -0.017798373475670815
v 2.694223001241114e-18 -0.0024999999441206455 -0.02199999988079071
v -0.012931275181472301 -0.0024999999441206455 -0.017798373475670815
v -0.020923243835568428 -0.0024999999441206455 -0.006798374000936747
v -0.020923243835568428 -0.0024999999441206455 0.006798374000936747
v -0.012931275181472301 -0.0024999999441206455 0.017798373475670815
v -5.388446002482228e-18 -0.0024999999441206455 0.02199999988079071
v 0 0.0024999999441206455 0
v 0 0.0024999999441206455 0
v 0 0.0024999999441206455 0
v 0 0.0024999999441206455 0
v 0 0.0024999999441206455 0
v 0 0.0024999999441206455 0
v 0 0.0024999999441206455 0
v 0 0.0024999999441206455 0
v 0 0.0024999999441206455 0
v 0 0.0024999999441206455 0
v 0 0.0024999999441206455 0.02199999988079071
v 0.012931275181472301 0.0024999999441206455 0.017798373475670815
v 0.020923243835568428 0.0024999999441206455 0.006798374000936747
v 0.020923243835568428 0.0024999999441206455 -0.006798374000936747
v 0.012931275181472301 0.0024999999441206455 -0.017798373475670815
v 2.694223001241114e-18 0.0024999999441206455 -0.02199999988079071
v -0.012931275181472301 0.0024999999441206455 -0.017798373475670815
v -0.020923243835568428 0.0024999999441206455 -0.006798374000936747
v -0.020923243835568428 0.0024999999441206455 0.006798374000936747
v -0.012931275181472301 0.0024999999441206455 0.017798373475670815
v -5.388446002482228e-18 0.0024999999441206455 0.02199999988079071
v 0 -0.0024999999441206455 0
v 0 -0.0024999999441206455 0
v 0 -0.0024999999441206455 0
v 0 -0.0024999999441206455 0
v 0 -0.0024999999441206455 0
v 0 -0.0024999999441206455 0
v 0 -0.0024999999441206455 0
v 0 -0.0024999999441206455 0
v 0 -0.0024999999441206455 0
v 0 -0.0024999999441206455 0
v 0 -0.0024999999441206455 0.02199999988079071
v 0.012931275181472301 -0.0024999999441206455 0.017798373475670815
v 0.020923243835568428 -0.0024999999441206455 0.006798374000936747
v 0.020923243835568428 -0.0024999999441206455 -0.006798374000936747
v 0.012931275181472301 -0.0024999999441206455 -0.017798373475670815
v 2.694223001241114e-18 -0.0024999999441206455 -0.02199999988079071
v -0.012931275181472301 -0.0024999999441206455 -0.017798373475670815
v -0.020923243835568428 -0.0024999999441206455 -0.006798374000936747
v -0.020923243835568428 -0.0024999999441206455 0.006798374000936747
v -0.012931275181472301 -0.0024999999441206455 0.017798373475670815
v -5.388446002482228e-18 -0.0024999999441206455 0.02199999988079071
vt 0 1
vt 0.10000000149011612 1
vt 0.20000000298023224 1
vt 0.30000001192092896 1
vt 0.4000000059604645 1
vt 0.5 1
vt 0.6000000238418579 1
vt 0.699999988079071 1
vt 0.800000011920929 1
vt 0.8999999761581421 1
vt 1 1
vt 0 0
vt 0.10000000149011612 0
vt 0.20000000298023224 0
vt 0.30000001192092896 0
vt 0.4000000059604645 0
vt 0.5 0
vt 0.6000000238418579 0
vt 0.699999988079071 0
vt 0.800000011920929 0
vt 0.8999999761581421 0
vt 1 0
vt 0.5 0.5
vt 0.5 0.5
vt 0.5 0.5
vt 0.5 0.5
vt 0.5 0.5
vt 0.5 0.5
vt 0.5 0.5
vt 0.5 0.5
vt 0.5 0.5
vt 0.5 0.5
vt 1 0.5
vt 0.9045084714889526 0.7938926219940186
vt 0.6545084714889526 0.9755282402038574
vt 0.345491498708725 0.9755282402038574
vt 0.09549150615930557 0.7938926219940186
vt 0 0.5
vt 0.09549150615930557 0.20610737800598145
vt 0.345491498708725 0.024471741169691086
vt 0.6545084714889526 0.024471741169691086
vt 0.9045084714889526 0.20610737800598145
vt 1 0.5
vt 0.5 0.5
vt 0.5 0.5
vt 0.5 0.5
vt 0.5 0.5
vt 0.5 0.5
vt 0.5 0.5
vt 0.5 0.5
vt 0.5 0.5
vt 0.5 0.5
vt 0.5 0.5
vt 1 0.5
vt 0.9045084714889526 0.20610737800598145
vt 0.6545084714889526 0.024471741169691086
vt 0.345491498708725 0.024471741169691086
vt 0.09549150615930557 0.20610737800598145
vt 0 0.5
vt 0.09549150615930557 0.7938926219940186
vt 0.345491498708725 0.9755282402038574
vt 0.6545084714889526 0.9755282402038574
vt 0.9045084714889526 0.7938926219940186
vt 1 0.5
vn 0 0 1
vn 0.5877852429542022 0 0.8090170011595983
vn 0.9510565161477913 0 0.3090169948284817
vn 0.9510565161477913 0 -0.3090169948284817
vn 0.5877852429542022 0 -0.8090170011595983
vn 1.2246468525851679e-16 0 -1
vn -0.5877852429542022 0 -0.8090170011595983
vn -0.9510565161477913 0 -0.3090169948284817
vn -0.9510565161477913 0 0.3090169948284817
vn -0.5877852429542022 0 0.8090170011595983
vn -2.4492937051703357e-16 0 1
vn 0 0 1
vn 0.5877852429542022 0 0.8090170011595983
vn 0.9510565161477913 0 0.3090169948284817
vn 0.9510565161477913 0 -0.3090169948284817
vn 0.5877852429542022 0 -0.8090170011595983
vn 1.2246468525851679e-16 0 -1
vn -0.5877852429542022 0 -0.8090170011595983
vn -0.9510565161477913 0 -0.3090169948284817
vn -0.9510565161477913 0 0.3090169948284817
vn -0.5877852429542022 0 0.8090170011595983
vn -2.4492937051703357e-16 0 1
vn 0 1 0
vn 0 1 0
vn 0 1 0
vn 0 1 0
vn 0 1 0
vn 0 1 0
vn 0 1 0
vn 0 1 0
vn 0 1 0
vn 0 1 0
vn 0 1 0
vn 0 1 0
vn 0 1 0
vn 0 1 0
vn 0 1 0
vn 0 1 0
vn 0 1 0
vn 0 1 0
vn 0 1 0
vn 0 1 0
vn 0 1 0
vn 0 -1 0
vn 0 -1 0
vn 0 -1 0
vn 0 -1 0
vn 0 -1 0
vn 0 -1 0
vn 0 -1 0
vn 0 -1 0
vn 0 -1 0
vn 0 -1 0
vn 0 -1 0
vn 0 -1 0
vn 0 -1 0
vn 0 -1 0
vn 0 -1 0
vn 0 -1 0
vn 0 -1 0
vn 0 -1 0
vn 0 -1 0
vn 0 -1 0
vn 0 -1 0
f 161/161/161 172/172/172 162/162/162
f 172/172/172 173/173/173 162/162/162
f 162/162/162 173/173/173 163/163/163
f 173/173/173 174/174/174 163/163/163
f 163/163/163 174/174/174 164/164/164
f 174/174/174 175/175/175 164/164/164
f 164/164/164 175/175/175 165/165/165
f 175/175/175 176/176/176 165/165/165
f 165/165/165 176/176/176 166/166/166
f 176/176/176 177/177/177 166/166/166
f 166/166/166 177/177/177 167/167/167
f 177/177/177 178/178/178 167/167/167
f 167/167/167 178/178/178 168/168/168
f 178/178/178 179/179/179 168/168/168
f 168/168/168 179/179/179 169/169/169
f 179/179/179 180/180/180 169/169/169
f 169/169/169 180/180/180 170/170/170
f 180/180/180 181/181/181 170/170/170
f 170/170/170 181/181/181 171/171/171
f 181/181/181 182/182/182 171/171/171
f 193/193/193 194/194/194 183/183/183
f 194/194/194 195/195/195 184/184/184
f 195/195/195 196/196/196 185/185/185
f 196/196/196 197/197/197 186/186/186
f 197/197/197 198/198/198 187/187/187
f 198/198/198 199/199/199 188/188/188
f 199/199/199 200/200/200 189/189/189
f 200/200/200 201/201/201 190/190/190
f 201/201/201 202/202/202 191/191/191
f 202/202/202 203/203/203 192/192/192
f 215/215/215 214/214/214 204/204/204
f 216/216/216 215/215/215 205/205/205
f 217/217/217 216/216/216 206/206/206
f 218/218/218 217/217/217 207/207/207
f 219/219/219 218/218/218 208/208/208
f 220/220/220 219/219/219 209/209/209
f 221/221/221 220/220/220 210/210/210
f 222/222/222 221/221/221 211/211/211
f 223/223/223 222/222/222 212/212/212
f 224/224/224 223/223/223 213/213/213
o 
v 0.0020000000949949026 0.004000000189989805 0.0020000000949949026
v 0.0020000000949949026 0.004000000189989805 -0.0020000000949949026
v 0.0020000000949949026 -0.004000000189989805 0.0020000000949949026
v 0.0020000000949949026 -0.004000000189989805 -0.0020000000949949026
v -0.0020000000949949026 0.004000000189989805 -0.0020000000949949026
v -0.0020000000949949026 0.004000000189989805 0.0020000000949949026
v -0.0020000000949949026 -0.004000000189989805 -0.0020000000949949026
v -0.0020000000949949026 -0.004000000189989805 0.0020000000949949026
v -0.0020000000949949026 0.004000000189989805 -0.0020000000949949026
v 0.0020000000949949026 0.004000000189989805 -0.0020000000949949026
v -0.0020000000949949026 0.004000000189989805 0.0020000000949949026
v 0.0020000000949949026 0.004000000189989805 0.0020000000949949026
v -0.0020000000949949026 -0.004000000189989805 0.0020000000949949026
v 0.0020000000949949026 -0.004000000189989805 0.0020000000949949026
v -0.0020000000949949026 -0.004000000189989805 -0.0020000000949949026
v 0.0020000000949949026 -0.004000000189989805 -0.0020000000949949026
v -0.0020000000949949026 0.004000000189989805 0.0020000000949949026
v 0.0020000000949949026 0.004000000189989805 0.0020000000949949026
v -0.0020000000949949026 -0.004000000189989805 0.0020000000949949026
v 0.0020000000949949026 -0.004000000189989805 0.0020000000949949026
v 0.0020000000949949026 0.004000000189989805 -0.0020000000949949026
v -0.0020000000949949026 0.004000000189989805 -0.0020000000949949026
v 0.0020000000949949026 -0.004000000189989805 -0.0020000000949949026
v -0.0020000000949949026 -0.004000000189989805 -0.0020000000949949026
vt 0 1
vt 1 1
vt 0 0
vt 1 0
vt 0 1
vt 1 1
vt 0 0
vt 1 0
vt 0 1
vt 1 1
vt 0 0
vt 1 0
vt 0 1
vt 1 1
vt 0 0
vt 1 0
vt 0 1
vt 1 1
vt 0 0
vt 1 0
vt 0 1
vt 1 1
vt 0 0
vt 1 0
vn 1 0 0
vn 1 0 0
vn 1 0 0
vn 1 0 0
vn -1 0 0
vn -1 0 0
vn -1 0 0
vn -1 0 0
vn 0 1 0
vn 0 1 0
vn 0 1 0
vn 0 1 0
vn 0 -1 0
vn 0 -1 0
vn 0 -1 0
vn 0 -1 0
vn 0 0 1
vn 0 0 1
vn 0 0 1
vn 0 0 1
vn 0 0 -1
vn 0 0 -1
vn 0 0 -1
vn 0 0 -1
f 225/225/225 227/227/227 226/226/226
f 227/227/227 228/228/228 226/226/226
f 229/229/229 231/231/231 230/230/230
f 231/231/231 232/232/232 230/230/230
f 233/233/233 235/235/235 234/234/234
f 235/235/235 236/236/236 234/234/234
f 237/237/237 239/239/239 238/238/238
f 239/239/239 240/240/240 238/238/238
f 241/241/241 243/243/243 242/242/242
f 243/243/243 244/244/244 242/242/242
f 245/245/245 247/247/247 246/246/246
f 247/247/247 248/248/248 246/246/246
o 
v 0.0020000000949949026 0.004000000189989805 0.0020000000949949026
v 0.0020000000949949026 0.004000000189989805 -0.0020000000949949026
v 0.0020000000949949026 -0.004000000189989805 0.0020000000949949026
v 0.0020000000949949026 -0.004000000189989805 -0.0020000000949949026
v -0.0020000000949949026 0.004000000189989805 -0.0020000000949949026
v -0.0020000000949949026 0.004000000189989805 0.0020000000949949026
v -0.0020000000949949026 -0.004000000189989805 -0.0020000000949949026
v -0.0020000000949949026 -0.004000000189989805 0.0020000000949949026
v -0.0020000000949949026 0.004000000189989805 -0.0020000000949949026
v 0.0020000000949949026 0.004000000189989805 -0.0020000000949949026
v -0.0020000000949949026 0.004000000189989805 0.0020000000949949026
v 0.0020000000949949026 0.004000000189989805 0.0020000000949949026
v -0.0020000000949949026 -0.004000000189989805 0.0020000000949949026
v 0.0020000000949949026 -0.004000000189989805 0.0020000000949949026
v -0.0020000000949949026 -0.004000000189989805 -0.0020000000949949026
v 0.0020000000949949026 -0.004000000189989805 -0.0020000000949949026
v -0.0020000000949949026 0.004000000189989805 0.0020000000949949026
v 0.0020000000949949026 0.004000000189989805 0.0020000000949949026
v -0.0020000000949949026 -0.004000000189989805 0.0020000000949949026
v 0.0020000000949949026 -0.004000000189989805 0.0020000000949949026
v 0.0020000000949949026 0.004000000189989805 -0.0020000000949949026
v -0.0020000000949949026 0.004000000189989805 -0.0020000000949949026
v 0.0020000000949949026 -0.004000000189989805 -0.0020000000949949026
v -0.0020000000949949026 -0.004000000189989805 -0.0020000000949949026
vt 0 1
vt 1 1
vt 0 0
vt 1 0
vt 0 1
vt 1 1
vt 0 0
vt 1 0
vt 0 1
vt 1 1
vt 0 0
vt 1 0
vt 0 1
vt 1 1
vt 0 0
vt 1 0
vt 0 1
vt 1 1
vt 0 0
vt 1 0
vt 0 1
vt 1 1
vt 0 0
vt 1 0
vn 1 0 0
vn 1 0 0
vn 1 0 0
vn 1 0 0
vn -1 0 0
vn -1 0 0
vn -1 0 0
vn -1 0 0
vn 0 1 0
vn 0 1 0
vn 0 1 0
vn 0 1 0
vn 0 -1 0
vn 0 -1 0
vn 0 -1 0
vn 0 -1 0
vn 0 0 1
vn 0 0 1
vn 0 0 1
vn 0 0 1
vn 0 0 -1
vn 0 0 -1
vn 0 0 -1
vn 0 0 -1
f 249/249/249 251/251/251 250/250/250
f 251/251/251 252/252/252 250/250/250
f 253/253/253 255/255/255 254/254/254
f 255/255/255 256/256/256 254/254/254
f 257/257/257 259/259/259 258/258/258
f 259/259/259 260/260/260 258/258/258
f 261/261/261 263/263/263 262/262/262
f 263/263/263 264/264/264 262/262/262
f 265/265/265 267/267/267 266/266/266
f 267/267/267 268/268/268 266/266/266
f 269/269/269 271/271/271 270/270/270
f 271/271/271 272/272/272 270/270/270
o 
v 0 0.0024999999441206455 0.02199999988079071
v 0.012931275181472301 0.0024999999441206455 0.017798373475670815
v 0.020923243835568428 0.0024999999441206455 0.006798374000936747
v 0.020923243835568428 0.0024999999441206455 -0.006798374000936747
v 0.012931275181472301 0.0024999999441206455 -0.017798373475670815
v 2.694223001241114e-18 0.0024999999441206455 -0.02199999988079071
v -0.012931275181472301 0.0024999999441206455 -0.017798373475670815
v -0.020923243835568428 0.0024999999441206455 -0.006798374000936747
v -0.020923243835568428 0.0024999999441206455 0.006798374000936747
v -0.012931275181472301 0.0024999999441206455 0.017798373475670815
v -5.388446002482228e-18 0.0024999999441206455 0.02199999988079071
v 0 -0.0024999999441206455 0.02199999988079071
v 0.012931275181472301 -0.0024999999441206455 0.017798373475670815
v 0.020923243835568428 -0.0024999999441206455 0.006798374000936747
v 0.020923243835568428 -0.0024999999441206455 -0.006798374000936747
v 0.012931275181472301 -0.0024999999441206455 -0.017798373475670815
v 2.694223001241114e-18 -0.0024999999441206455 -0.02199999988079071
v -0.012931275181472301 -0.0024999999441206455 -0.017798373475670815
v -0.020923243835568428 -0.0024999999441206455 -0.006798374000936747
v -0.020923243835568428 -0.0024999999441206455 0.006798374000936747
v -0.012931275181472301 -0.0024999999441206455 0.017798373475670815
v -5.388446002482228e-18 -0.0024999999441206455 0.02199999988079071
v 0 0.0024999999441206455 0
v 0 0.0024999999441206455 0
v 0 0.0024999999441206455 0
v 0 0.0024999999441206455 0
v 0 0.0024999999441206455 0
v 0 0.0024999999441206455 0
v 0 0.0024999999441206455 0
v 0 0.0024999999441206455 0
v 0 0.0024999999441206455 0
v 0 0.0024999999441206455 0
v 0 0.0024999999441206455 0.02199999988079071
v 0.012931275181472301 0.0024999999441206455 0.017798373475670815
v 0.020923243835568428 0.0024999999441206455 0.006798374000936747
v 0.020923243835568428 0.0024999999441206455 -0.006798374000936747
v 0.012931275181472301 0.0024999999441206455 -0.017798373475670815
v 2.694223001241114e-18 0.0024999999441206455 -0.02199999988079071
v -0.012931275181472301 0.0024999999441206455 -0.017798373475670815
v -0.020923243835568428 0.0024999999441206455 -0.006798374000936747
v -0.020923243835568428 0.0024999999441206455 0.006798374000936747
v -0.012931275181472301 0.0024999999441206455 0.017798373475670815
v -5.388446002482228e-18 0.0024999999441206455 0.02199999988079071
v 0 -0.0024999999441206455 0
v 0 -0.0024999999441206455 0
v 0 -0.0024999999441206455 0
v 0 -0.0024999999441206455 0
v 0 -0.0024999999441206455 0
v 0 -0.0024999999441206455 0
v 0 -0.0024999999441206455 0
v 0 -0.0024999999441206455 0
v 0 -0.0024999999441206455 0
v 0 -0.0024999999441206455 0
v 0 -0.0024999999441206455 0.02199999988079071
v 0.012931275181472301 -0.0024999999441206455 0.017798373475670815
v 0.020923243835568428 -0.0024999999441206455 0.006798374000936747
v 0.020923243835568428 -0.0024999999441206455 -0.006798374000936747
v 0.012931275181472301 -0.0024999999441206455 -0.017798373475670815
v 2.694223001241114e-18 -0.0024999999441206455 -0.02199999988079071
v -0.012931275181472301 -0.0024999999441206455 -0.017798373475670815
v -0.020923243835568428 -0.0024999999441206455 -0.006798374000936747
v -0.020923243835568428 -0.0024999999441206455 0.006798374000936747
v -0.012931275181472301 -0.0024999999441206455 0.017798373475670815
v -5.388446002482228e-18 -0.0024999999441206455 0.02199999988079071
vt 0 1
vt 0.10000000149011612 1
vt 0.20000000298023224 1
vt 0.30000001192092896 1
vt 0.4000000059604645 1
vt 0.5 1
vt 0.6000000238418579 1
vt 0.699999988079071 1
vt 0.800000011920929 1
vt 0.8999999761581421 1
vt 1 1
vt 0 0
vt 0.10000000149011612 0
vt 0.20000000298023224 0
vt 0.30000001192092896 0
vt 0.4000000059604645 0
vt 0.5 0
vt 0.6000000238418579 0
vt 0.699999988079071 0
vt 0.800000011920929 0
vt 0.8999999761581421 0
vt 1 0
vt 0.5 0.5
vt 0.5 0.5
vt 0.5 0.5
vt 0.5 0.5
vt 0.5 0.5
vt 0.5 0.5
vt 0.5 0.5
vt 0.5 0.5
vt 0.5 0.5
vt 0.5 0.5
vt 1 0.5
vt 0.9045084714889526 0.7938926219940186
vt 0.6545084714889526 0.9755282402038574
vt 0.345491498708725 0.9755282402038574
vt 0.09549150615930557 0.7938926219940186
vt 0 0.5
vt 0.09549150615930557 0.20610737800598145
vt 0.345491498708725 0.024471741169691086
vt 0.6545084714889526 0.024471741169691086
vt 0.9045084714889526 0.20610737800598145
vt 1 0.5
vt 0.5 0.5
vt 0.5 0.5
vt 0.5 0.5
vt 0.5 0.5
vt 0.5 0.5
vt 0.5 0.5
vt 0.5 0.5
vt 0.5 0.5
vt 0.5 0.5
vt 0.5 0.5
vt 1 0.5
vt 0.9045084714889526 0.20610737800598145
vt 0.6545084714889526 0.024471741169691086
vt 0.345491498708725 0.024471741169691086
vt 0.09549150615930557 0.20610737800598145
vt 0 0.5
vt 0.09549150615930557 0.7938926219940186
vt 0.345491498708725 0.9755282402038574
vt 0.6545084714889526 0.9755282402038574
vt 0.9045084714889526 0.7938926219940186
vt 1 0.5
vn 0 0 1
vn 0.5877852429542022 0 0.8090170011595983
vn 0.9510565161477913 0 0.3090169948284817
vn 0.9510565161477913 0 -0.3090169948284817
vn 0.5877852429542022 0 -0.8090170011595983
vn 1.2246468525851679e-16 0 -1
vn -0.5877852429542022 0 -0.8090170011595983
vn -0.9510565161477913 0 -0.3090169948284817
vn -0.9510565161477913 0 0.3090169948284817
vn -0.5877852429542022 0 0.8090170011595983
vn -2.4492937051703357e-16 0 1
vn 0 0 1
vn 0.5877852429542022 0 0.8090170011595983
vn 0.9510565161477913 0 0.3090169948284817
vn 0.9510565161477913 0 -0.3090169948284817
vn 0.5877852429542022 0 -0.8090170011595983
vn 1.2246468525851679e-16 0 -1
vn -0.5877852429542022 0 -0.8090170011595983
vn -0.9510565161477913 0 -0.3090169948284817
vn -0.9510565161477913 0 0.3090169948284817
vn -0.5877852429542022 0 0.8090170011595983
vn -2.4492937051703357e-16 0 1
vn 0 1 0
vn 0 1 0
vn 0 1 0
vn 0 1 0
vn 0 1 0
vn 0 1 0
vn 0 1 0
vn 0 1 0
vn 0 1 0
vn 0 1 0
vn 0 1 0
vn 0 1 0
vn 0 1 0
vn 0 1 0
vn 0 1 0
vn 0 1 0
vn 0 1 0
vn 0 1 0
vn 0 1 0
vn 0 1 0
vn 0 1 0
vn 0 -1 0
vn 0 -1 0
vn 0 -1 0
vn 0 -1 0
vn 0 -1 0
vn 0 -1 0
vn 0 -1 0
vn 0 -1 0
vn 0 -1 0
vn 0 -1 0
vn 0 -1 0
vn 0 -1 0
vn 0 -1 0
vn 0 -1 0
vn 0 -1 0
vn 0 -1 0
vn 0 -1 0
vn 0 -1 0
vn 0 -1 0
vn 0 -1 0
vn 0 -1 0
f 273/273/273 284/284/284 274/274/274
f 284/284/284 285/285/285 274/274/274
f 274/274/274 285/285/285 275/275/275
f 285/285/285 286/286/286 275/275/275
f 275/275/275 286/286/286 276/276/276
f 286/286/286 287/287/287 276/276/276
f 276/276/276 287/287/287 277/277/277
f 287/287/287 288/288/288 277/277/277
f 277/277/277 288/288/288 278/278/278
f 288/288/288 289/289/289 278/278/278
f 278/278/278 289/289/289 279/279/279
f 289/289/289 290/290/290 279/279/279
f 279/279/279 290/290/290 280/280/280
f 290/290/290 291/291/291 280/280/280
f 280/280/280 291/291/291 281/281/281
f 291/291/291 292/292/292 281/281/281
f 281/281/281 292/292/292 282/282/282
f 292/292/292 293/293/293 282/282/282
f 282/282/282 293/293/293 283/283/283
f 293/293/293 294/294/294 283/283/283
f 305/305/305 306/306/306 295/295/295
f 306/306/306 307/307/307 296/296/296
f 307/307/307 308/308/308 297/297/297
f 308/308/308 309/309/309 298/298/298
f 309/309/309 310/310/310 299/299/299
f 310/310/310 311/311/311 300/300/300
f 311/311/311 312/312/312 301/301/301
f 312/312/312 313/313/313 302/302/302
f 313/313/313 314/314/314 303/303/303
f 314/314/314 315/315/315 304/304/304
f 327/327/327 326/326/326 316/316/316
f 328/328/328 327/327/327 317/317/317
f 329/329/329 328/328/328 318/318/318
f 330/330/330 329/329/329 319/319/319
f 331/331/331 330/330/330 320/320/320
f 332/332/332 331/331/331 321/321/321
f 333/333/333 332/332/332 322/322/322
f 334/334/334 333/333/333 323/323/323
f 335/335/335 334/334/334 324/324/324
f 336/336/336 335/335/335 325/325/325
o 
v 0.0020000000949949026 0.004000000189989805 0.0020000000949949026
v 0.0020000000949949026 0.004000000189989805 -0.0020000000949949026
v 0.0020000000949949026 -0.004000000189989805 0.0020000000949949026
v 0.0020000000949949026 -0.004000000189989805 -0.0020000000949949026
v -0.0020000000949949026 0.004000000189989805 -0.0020000000949949026
v -0.0020000000949949026 0.004000000189989805 0.0020000000949949026
v -0.0020000000949949026 -0.004000000189989805 -0.0020000000949949026
v -0.0020000000949949026 -0.004000000189989805 0.0020000000949949026
v -0.0020000000949949026 0.004000000189989805 -0.0020000000949949026
v 0.0020000000949949026 0.004000000189989805 -0.0020000000949949026
v -0.0020000000949949026 0.004000000189989805 0.0020000000949949026
v 0.0020000000949949026 0.004000000189989805 0.0020000000949949026
v -0.0020000000949949026 -0.004000000189989805 0.0020000000949949026
v 0.0020000000949949026 -0.004000000189989805 0.0020000000949949026
v -0.0020000000949949026 -0.004000000189989805 -0.0020000000949949026
v 0.0020000000949949026 -0.004000000189989805 -0.0020000000949949026
v -0.0020000000949949026 0.004000000189989805 0.0020000000949949026
v 0.0020000000949949026 0.004000000189989805 0.0020000000949949026
v -0.0020000000949949026 -0.004000000189989805 0.0020000000949949026
v 0.0020000000949949026 -0.004000000189989805 0.0020000000949949026
v 0.0020000000949949026 0.004000000189989805 -0.0020000000949949026
v -0.0020000000949949026 0.004000000189989805 -0.0020000000949949026
v 0.0020000000949949026 -0.004000000189989805 -0.0020000000949949026
v -0.0020000000949949026 -0.004000000189989805 -0.0020000000949949026
vt 0 1
vt 1 1
vt 0 0
vt 1 0
vt 0 1
vt 1 1
vt 0 0
vt 1 0
vt 0 1
vt 1 1
vt 0 0
vt 1 0
vt 0 1
vt 1 1
vt 0 0
vt 1 0
vt 0 1
vt 1 1
vt 0 0
vt 1 0
vt 0 1
vt 1 1
vt 0 0
vt 1 0
vn 1 0 0
vn 1 0 0
vn 1 0 0
vn 1 0 0
vn -1 0 0
vn -1 0 0
vn -1 0 0
vn -1 0 0
vn 0 1 0
vn 0 1 0
vn 0 1 0
vn 0 1 0
vn 0 -1 0
vn 0 -1 0
vn 0 -1 0
vn 0 -1 0
vn 0 0 1
vn 0 0 1
vn 0 0 1
vn 0 0 1
vn 0 0 -1
vn 0 0 -1
vn 0 0 -1
vn 0 0 -1
f 337/337/337 339/339/339 338/338/338
f 339/339/339 340/340/340 338/338/338
f 341/341/341 343/343/343 342/342/342
f 343/343/343 344/344/344 342/342/342
f 345/345/345 347/347/347 346/346/346
f 347/347/347 348/348/348 346/346/346
f 349/349/349 351/351/351 350/350/350
f 351/351/351 352/352/352 350/350/350
f 353/353/353 355/355/355 354/354/354
f 355/355/355 356/356/356 354/354/354
f 357/357/357 359/359/359 358/358/358
f 359/359/359 360/360/360 358/358/358
o 
v 0.0020000000949949026 0.004000000189989805 0.0020000000949949026
v 0.0020000000949949026 0.004000000189989805 -0.0020000000949949026
v 0.0020000000949949026 -0.004000000189989805 0.0020000000949949026
v 0.0020000000949949026 -0.004000000189989805 -0.0020000000949949026
v -0.0020000000949949026 0.004000000189989805 -0.0020000000949949026
v -0.0020000000949949026 0.004000000189989805 0.0020000000949949026
v -0.0020000000949949026 -0.004000000189989805 -0.0020000000949949026
v -0.0020000000949949026 -0.004000000189989805 0.0020000000949949026
v -0.0020000000949949026 0.004000000189989805 -0.0020000000949949026
v 0.0020000000949949026 0.004000000189989805 -0.0020000000949949026
v -0.0020000000949949026 0.004000000189989805 0.0020000000949949026
v 0.0020000000949949026 0.004000000189989805 0.0020000000949949026
v -0.0020000000949949026 -0.004000000189989805 0.0020000000949949026
v 0.0020000000949949026 -0.004000000189989805 0.0020000000949949026
v -0.0020000000949949026 -0.004000000189989805 -0.0020000000949949026
v 0.0020000000949949026 -0.004000000189989805 -0.0020000000949949026
v -0.0020000000949949026 0.004000000189989805 0.0020000000949949026
v 0.0020000000949949026 0.004000000189989805 0.0020000000949949026
v -0.0020000000949949026 -0.004000000189989805 0.0020000000949949026
v 0.0020000000949949026 -0.004000000189989805 0.0020000000949949026
v 0.0020000000949949026 0.004000000189989805 -0.0020000000949949026
v -0.0020000000949949026 0.004000000189989805 -0.0020000000949949026
v 0.0020000000949949026 -0.004000000189989805 -0.0020000000949949026
v -0.0020000000949949026 -0.004000000189989805 -0.0020000000949949026
vt 0 1
vt 1 1
vt 0 0
vt 1 0
vt 0 1
vt 1 1
vt 0 0
vt 1 0
vt 0 1
vt 1 1
vt 0 0
vt 1 0
vt 0 1
vt 1 1
vt 0 0
vt 1 0
vt 0 1
vt 1 1
vt 0 0
vt 1 0
vt 0 1
vt 1 1
vt 0 0
vt 1 0
vn 1 0 0
vn 1 0 0
vn 1 0 0
vn 1 0 0
vn -1 0 0
vn -1 0 0
vn -1 0 0
vn -1 0 0
vn 0 1 0
vn 0 1 0
vn 0 1 0
vn 0 1 0
vn 0 -1 0
vn 0 -1 0
vn 0 -1 0
vn 0 -1 0
vn 0 0 1
vn 0 0 1
vn 0 0 1
vn 0 0 1
vn 0 0 -1
vn 0 0 -1
vn 0 0 -1
vn 0 0 -1
f 361/361/361 363/363/363 362/362/362
f 363/363/363 364/364/364 362/362/362
f 365/365/365 367/367/367 366/366/366
f 367/367/367 368/368/368 366/366/366
f 369/369/369 371/371/371 370/370/370
f 371/371/371 372/372/372 370/370/370
f 373/373/373 375/375/375 374/374/374
f 375/375/375 376/376/376 374/374/374
f 377/377/377 379/379/379 378/378/378
f 379/379/379 380/380/380 378/378/378
f 381/381/381 383/383/383 382/382/382
f 383/383/383 384/384/384 382/382/382
o 
v 0 0.0024999999441206455 0.02199999988079071
v 0.012931275181472301 0.0024999999441206455 0.017798373475670815
v 0.020923243835568428 0.0024999999441206455 0.006798374000936747
v 0.020923243835568428 0.0024999999441206455 -0.006798374000936747
v 0.012931275181472301 0.0024999999441206455 -0.017798373475670815
v 2.694223001241114e-18 0.0024999999441206455 -0.02199999988079071
v -0.012931275181472301 0.0024999999441206455 -0.017798373475670815
v -0.020923243835568428 0.0024999999441206455 -0.006798374000936747
v -0.020923243835568428 0.0024999999441206455 0.006798374000936747
v -0.012931275181472301 0.0024999999441206455 0.017798373475670815
v -5.388446002482228e-18 0.0024999999441206455 0.02199999988079071
v 0 -0.0024999999441206455 0.02199999988079071
v 0.012931275181472301 -0.0024999999441206455 0.017798373475670815
v 0.020923243835568428 -0.0024999999441206455 0.006798374000936747
v 0.020923243835568428 -0.0024999999441206455 -0.006798374000936747
v 0.012931275181472301 -0.0024999999441206455 -0.017798373475670815
v 2.694223001241114e-18 -0.0024999999441206455 -0.02199999988079071
v -0.012931275181472301 -0.0024999999441206455 -0.017798373475670815
v -0.020923243835568428 -0.0024999999441206455 -0.006798374000936747
v -0.020923243835568428 -0.0024999999441206455 0.006798374000936747
v -0.012931275181472301 -0.0024999999441206455 0.017798373475670815
v -5.388446002482228e-18 -0.0024999999441206455 0.02199999988079071
v 0 0.0024999999441206455 0
v 0 0.0024999999441206455 0
v 0 0.0024999999441206455 0
v 0 0.0024999999441206455 0
v 0 0.0024999999441206455 0
v 0 0.0024999999441206455 0
v 0 0.0024999999441206455 0
v 0 0.0024999999441206455 0
v 0 0.0024999999441206455 0
v 0 0.0024999999441206455 0
v 0 0.0024999999441206455 0.02199999988079071
v 0.012931275181472301 0.0024999999441206455 0.017798373475670815
v 0.020923243835568428 0.0024999999441206455 0.006798374000936747
v 0.020923243835568428 0.0024999999441206455 -0.006798374000936747
v 0.012931275181472301 0.0024999999441206455 -0.017798373475670815
v 2.694223001241114e-18 0.0024999999441206455 -0.02199999988079071
v -0.012931275181472301 0.0024999999441206455 -0.017798373475670815
v -0.020923243835568428 0.0024999999441206455 -0.006798374000936747
v -0.020923243835568428 0.0024999999441206455 0.006798374000936747
v -0.012931275181472301 0.0024999999441206455 0.017798373475670815
v -5.388446002482228e-18 0.0024999999441206455 0.02199999988079071
v 0 -0.0024999999441206455 0
v 0 -0.0024999999441206455 0
v 0 -0.0024999999441206455 0
v 0 -0.0024999999441206455 0
v 0 -0.0024999999441206455 0
v 0 -0.0024999999441206455 0
v 0 -0.0024999999441206455 0
v 0 -0.0024999999441206455 0
v 0 -0.0024999999441206455 0
v 0 -0.0024999999441206455 0
v 0 -0.0024999999441206455 0.02199999988079071
v 0.012931275181472301 -0.0024999999441206455 0.017798373475670815
v 0.020923243835568428 -0.0024999999441206455 0.006798374000936747
v 0.020923243835568428 -0.0024999999441206455 -0.006798374000936747
v 0.012931275181472301 -0.0024999999441206455 -0.017798373475670815
v 2.694223001241114e-18 -0.0024999999441206455 -0.02199999988079071
v -0.012931275181472301 -0.0024999999441206455 -0.017798373475670815
v -0.020923243835568428 -0.0024999999441206455 -0.006798374000936747
v -0.020923243835568428 -0.0024999999441206455 0.006798374000936747
v -0.012931275181472301 -0.0024999999441206455 0.017798373475670815
v -5.388446002482228e-18 -0.0024999999441206455 0.02199999988079071
vt 0 1
vt 0.10000000149011612 1
vt 0.20000000298023224 1
vt 0.30000001192092896 1
vt 0.4000000059604645 1
vt 0.5 1
vt 0.6000000238418579 1
vt 0.699999988079071 1
vt 0.800000011920929 1
vt 0.8999999761581421 1
vt 1 1
vt 0 0
vt 0.10000000149011612 0
vt 0.20000000298023224 0
vt 0.30000001192092896 0
vt 0.4000000059604645 0
vt 0.5 0
vt 0.6000000238418579 0
vt 0.699999988079071 0
vt 0.800000011920929 0
vt 0.8999999761581421 0
vt 1 0
vt 0.5 0.5
vt 0.5 0.5
vt 0.5 0.5
vt 0.5 0.5
vt 0.5 0.5
vt 0.5 0.5
vt 0.5 0.5
vt 0.5 0.5
vt 0.5 0.5
vt 0.5 0.5
vt 1 0.5
vt 0.9045084714889526 0.7938926219940186
vt 0.6545084714889526 0.9755282402038574
vt 0.345491498708725 0.9755282402038574
vt 0.09549150615930557 0.7938926219940186
vt 0 0.5
vt 0.09549150615930557 0.20610737800598145
vt 0.345491498708725 0.024471741169691086
vt 0.6545084714889526 0.024471741169691086
vt 0.9045084714889526 0.20610737800598145
vt 1 0.5
vt 0.5 0.5
vt 0.5 0.5
vt 0.5 0.5
vt 0.5 0.5
vt 0.5 0.5
vt 0.5 0.5
vt 0.5 0.5
vt 0.5 0.5
vt 0.5 0.5
vt 0.5 0.5
vt 1 0.5
vt 0.9045084714889526 0.20610737800598145
vt 0.6545084714889526 0.024471741169691086
vt 0.345491498708725 0.024471741169691086
vt 0.09549150615930557 0.20610737800598145
vt 0 0.5
vt 0.09549150615930557 0.7938926219940186
vt 0.345491498708725 0.9755282402038574
vt 0.6545084714889526 0.9755282402038574
vt 0.9045084714889526 0.7938926219940186
vt 1 0.5
vn 0 0 1
vn 0.5877852429542022 0 0.8090170011595983
vn 0.9510565161477913 0 0.3090169948284817
vn 0.9510565161477913 0 -0.3090169948284817
vn 0.5877852429542022 0 -0.8090170011595983
vn 1.2246468525851679e-16 0 -1
vn -0.5877852429542022 0 -0.8090170011595983
vn -0.9510565161477913 0 -0.3090169948284817
vn -0.9510565161477913 0 0.3090169948284817
vn -0.5877852429542022 0 0.8090170011595983
vn -2.4492937051703357e-16 0 1
vn 0 0 1
vn 0.5877852429542022 0 0.8090170011595983
vn 0.9510565161477913 0 0.3090169948284817
vn 0.9510565161477913 0 -0.3090169948284817
vn 0.5877852429542022 0 -0.8090170011595983
vn 1.2246468525851679e-16 0 -1
vn -0.5877852429542022 0 -0.8090170011595983
vn -0.9510565161477913 0 -0.3090169948284817
vn -0.9510565161477913 0 0.3090169948284817
vn -0.5877852429542022 0 0.8090170011595983
vn -2.4492937051703357e-16 0 1
vn 0 1 0
vn 0 1 0
vn 0 1 0
vn 0 1 0
vn 0 1 0
vn 0 1 0
vn 0 1 0
vn 0 1 0
vn 0 1 0
vn 0 1 0
vn 0 1 0
vn 0 1 0
vn 0 1 0
vn 0 1 0
vn 0 1 0
vn 0 1 0
vn 0 1 0
vn 0 1 0
vn 0 1 0
vn 0 1 0
vn 0 1 0
vn 0 -1 0
vn 0 -1 0
vn 0 -1 0
vn 0 -1 0
vn 0 -1 0
vn 0 -1 0
vn 0 -1 0
vn 0 -1 0
vn 0 -1 0
vn 0 -1 0
vn 0 -1 0
vn 0 -1 0
vn 0 -1 0
vn 0 -1 0
vn 0 -1 0
vn 0 -1 0
vn 0 -1 0
vn 0 -1 0
vn 0 -1 0
vn 0 -1 0
vn 0 -1 0
f 385/385/385 396/396/396 386/386/386
f 396/396/396 397/397/397 386/386/386
f 386/386/386 397/397/397 387/387/387
f 397/397/397 398/398/398 387/387/387
f 387/387/387 398/398/398 388/388/388
f 398/398/398 399/399/399 388/388/388
f 388/388/388 399/399/399 389/389/389
f 399/399/399 400/400/400 389/389/389
f 389/389/389 400/400/400 390/390/390
f 400/400/400 401/401/401 390/390/390
f 390/390/390 401/401/401 391/391/391
f 401/401/401 402/402/402 391/391/391
f 391/391/391 402/402/402 392/392/392
f 402/402/402 403/403/403 392/392/392
f 392/392/392 403/403/403 393/393/393
f 403/403/403 404/404/404 393/393/393
f 393/393/393 404/404/404 394/394/394
f 404/404/404 405/405/405 394/394/394
f 394/394/394 405/405/405 395/395/395
f 405/405/405 406/406/406 395/395/395
f 417/417/417 418/418/418 407/407/407
f 418/418/418 419/419/419 408/408/408
f 419/419/419 420/420/420 409/409/409
f 420/420/420 421/421/421 410/410/410
f 421/421/421 422/422/422 411/411/411
f 422/422/422 423/423/423 412/412/412
f 423/423/423 424/424/424 413/413/413
f 424/424/424 425/425/425 414/414/414
f 425/425/425 426/426/426 415/415/415
f 426/426/426 427/427/427 416/416/416
f 439/439/439 438/438/438 428/428/428
f 440/440/440 439/439/439 429/429/429
f 441/441/441 440/440/440 430/430/430
f 442/442/442 441/441/441 431/431/431
f 443/443/443 442/442/442 432/432/432
f 444/444/444 443/443/443 433/433/433
f 445/445/445 444/444/444 434/434/434
f 446/446/446 445/445/445 435/435/435
f 447/447/447 446/446/446 436/436/436
f 448/448/448 447/447/447 437/437/437
o 
v 0.0020000000949949026 0.004000000189989805 0.0020000000949949026
v 0.0020000000949949026 0.004000000189989805 -0.0020000000949949026
v 0.0020000000949949026 -0.004000000189989805 0.0020000000949949026
v 0.0020000000949949026 -0.004000000189989805 -0.0020000000949949026
v -0.0020000000949949026 0.004000000189989805 -0.0020000000949949026
v -0.0020000000949949026 0.004000000189989805 0.0020000000949949026
v -0.0020000000949949026 -0.004000000189989805 -0.0020000000949949026
v -0.0020000000949949026 -0.004000000189989805 0.0020000000949949026
v -0.0020000000949949026 0.004000000189989805 -0.0020000000949949026
v 0.0020000000949949026 0.004000000189989805 -0.0020000000949949026
v -0.0020000000949949026 0.004000000189989805 0.0020000000949949026
v 0.0020000000949949026 0.004000000189989805 0.0020000000949949026
v -0.0020000000949949026 -0.004000000189989805 0.0020000000949949026
v 0.0020000000949949026 -0.004000000189989805 0.0020000000949949026
v -0.0020000000949949026 -0.004000000189989805 -0.0020000000949949026
v 0.0020000000949949026 -0.004000000189989805 -0.0020000000949949026
v -0.0020000000949949026 0.004000000189989805 0.0020000000949949026
v 0.0020000000949949026 0.004000000189989805 0.0020000000949949026
v -0.0020000000949949026 -0.004000000189989805 0.0020000000949949026
v 0.0020000000949949026 -0.004000000189989805 0.0020000000949949026
v 0.0020000000949949026 0.004000000189989805 -0.0020000000949949026
v -0.0020000000949949026 0.004000000189989805 -0.0020000000949949026
v 0.0020000000949949026 -0.004000000189989805 -0.0020000000949949026
v -0.0020000000949949026 -0.004000000189989805 -0.0020000000949949026
vt 0 1
vt 1 1
vt 0 0
vt 1 0
vt 0 1
vt 1 1
vt 0 0
vt 1 0
vt 0 1
vt 1 1
vt 0 0
vt 1 0
vt 0 1
vt 1 1
vt 0 0
vt 1 0
vt 0 1
vt 1 1
vt 0 0
vt 1 0
vt 0 1
vt 1 1
vt 0 0
vt 1 0
vn 1 0 0
vn 1 0 0
vn 1 0 0
vn 1 0 0
vn -1 0 0
vn -1 0 0
vn -1 0 0
vn -1 0 0
vn 0 1 0
vn 0 1 0
vn 0 1 0
vn 0 1 0
vn 0 -1 0
vn 0 -1 0
vn 0 -1 0
vn 0 -1 0
vn 0 0 1
vn 0 0 1
vn 0 0 1
vn 0 0 1
vn 0 0 -1
vn 0 0 -1
vn 0 0 -1
vn 0 0 -1
f 449/449/449 451/451/451 450/450/450
f 451/451/451 452/452/452 450/450/450
f 453/453/453 455/455/455 454/454/454
f 455/455/455 456/456/456 454/454/454
f 457/457/457 459/459/459 458/458/458
f 459/459/459 460/460/460 458/458/458
f 461/461/461 463/463/463 462/462/462
f 463/463/463 464/464/464 462/462/462
f 465/465/465 467/467/467 466/466/466
f 467/467/467 468/468/468 466/466/466
f 469/469/469 471/471/471 470/470/470
f 471/471/471 472/472/472 470/470/470
o 
v 0.0020000000949949026 0.004000000189989805 0.0020000000949949026
v 0.0020000000949949026 0.004000000189989805 -0.0020000000949949026
v 0.0020000000949949026 -0.004000000189989805 0.0020000000949949026
v 0.0020000000949949026 -0.004000000189989805 -0.0020000000949949026
v -0.0020000000949949026 0.004000000189989805 -0.0020000000949949026
v -0.0020000000949949026 0.004000000189989805 0.0020000000949949026
v -0.0020000000949949026 -0.004000000189989805 -0.0020000000949949026
v -0.0020000000949949026 -0.004000000189989805 0.0020000000949949026
v -0.0020000000949949026 0.004000000189989805 -0.0020000000949949026
v 0.0020000000949949026 0.004000000189989805 -0.0020000000949949026
v -0.0020000000949949026 0.004000000189989805 0.0020000000949949026
v 0.0020000000949949026 0.004000000189989805 0.0020000000949949026
v -0.0020000000949949026 -0.004000000189989805 0.0020000000949949026
v 0.0020000000949949026 -0.004000000189989805 0.0020000000949949026
v -0.0020000000949949026 -0.004000000189989805 -0.0020000000949949026
v 0.0020000000949949026 -0.004000000189989805 -0.0020000000949949026
v -0.0020000000949949026 0.004000000189989805 0.0020000000949949026
v 0.0020000000949949026 0.004000000189989805 0.0020000000949949026
v -0.0020000000949949026 -0.004000000189989805 0.0020000000949949026
v 0.0020000000949949026 -0.004000000189989805 0.0020000000949949026
v 0.0020000000949949026 0.004000000189989805 -0.0020000000949949026
v -0.0020000000949949026 0.004000000189989805 -0.0020000000949949026
v 0.0020000000949949026 -0.004000000189989805 -0.0020000000949949026
v -0.0020000000949949026 -0.004000000189989805 -0.0020000000949949026
vt 0 1
vt 1 1
vt 0 0
vt 1 0
vt 0 1
vt 1 1
vt 0 0
vt 1 0
vt 0 1
vt 1 1
vt 0 0
vt 1 0
vt 0 1
vt 1 1
vt 0 0
vt 1 0
vt 0 1
vt 1 1
vt 0 0
vt 1 0
vt 0 1
vt 1 1
vt 0 0
vt 1 0
vn 1 0 0
vn 1 0 0
vn 1 0 0
vn 1 0 0
vn -1 0 0
vn -1 0 0
vn -1 0 0
vn -1 0 0
vn 0 1 0
vn 0 1 0
vn 0 1 0
vn 0 1 0
vn 0 -1 0
vn 0 -1 0
vn 0 -1 0
vn 0 -1 0
vn 0 0 1
vn 0 0 1
vn 0 0 1
vn 0 0 1
vn 0 0 -1
vn 0 0 -1
vn 0 0 -1
vn 0 0 -1
f 473/473/473 475/475/475 474/474/474
f 475/475/475 476/476/476 474/474/474
f 477/477/477 479/479/479 478/478/478
f 479/479/479 480/480/480 478/478/478
f 481/481/481 483/483/483 482/482/482
f 483/483/483 484/484/484 482/482/482
f 485/485/485 487/487/487 486/486/486
f 487/487/487 488/488/488 486/486/486
f 489/489/489 491/491/491 490/490/490
f 491/491/491 492/492/492 490/490/490
f 493/493/493 495/495/495 494/494/494
f 495/495/495 496/496/496 494/494/494
o 
v -0.0002863934787455946 0.024980926886200905 -0.1604296863079071
v -0.005187604110687971 0.021490463986992836 -0.15685270726680756
v -0.0049012103118002415 0.014509536325931549 -0.15642301738262177
v 0.0002863934787455946 0.011019072495400906 -0.15957030653953552
v 0.005187604110687971 0.014509536325931549 -0.16314728558063507
v 0.0049012103118002415 0.021490463986992836 -0.16357697546482086
v -0.0002863934787455946 0.024980926886200905 -0.1604296863079071
v -0.014792554080486298 0.02273966744542122 -0.18478013575077057
v -0.01993676833808422 0.019212674349546432 -0.18160249292850494
v -0.01961982436478138 0.012236339040100574 -0.18112260103225708
v -0.014158667996525764 0.008786997757852077 -0.18382033705711365
v -0.009014454670250416 0.012313990853726864 -0.18699797987937927
v -0.009331397712230682 0.019290326163172722 -0.18747787177562714
v -0.014792554080486298 0.02273966744542122 -0.18478013575077057
v -0.028499146923422813 0.020417828112840652 -0.20951062440872192
v -0.03359566256403923 0.016898728907108307 -0.20624849200248718
v -0.03328471630811691 0.009921401739120483 -0.20577922463417053
v -0.02787725254893303 0.00646317470818758 -0.20857205986976624
v -0.022780736908316612 0.009982273913919926 -0.21183419227600098
v -0.02309168316423893 0.016959602013230324 -0.21230345964431763
v -0.028499146923422813 0.020417828112840652 -0.20951062440872192
v -0.04383406415581703 0.018295705318450928 -0.2331666201353073
v -0.04852847382426262 0.014830434694886208 -0.22929953038692474
v -0.04826807975769043 0.007846340537071228 -0.2289063036441803
v -0.04331327602267265 0.004327517468482256 -0.23238018155097961
v -0.038618866354227066 0.007792788092046976 -0.23624728620052338
v -0.038879264146089554 0.014776882715523243 -0.23664049804210663
v -0.04383406415581703 0.018295705318450928 -0.2331666201353073
v -0.06363922357559204 0.016840172931551933 -0.2529658377170563
v -0.06723619252443314 0.013451536186039448 -0.2480081021785736
v -0.0671398863196373 0.006455983500927687 -0.24777795374393463
v -0.06344661116600037 0.0028490673284977674 -0.25250551104545593
v -0.05984964221715927 0.006237703841179609 -0.2574632465839386
v -0.05994594842195511 0.01323325652629137 -0.2576933801174164
v -0.06363922357559204 0.016840172931551933 -0.2529658377170563
v -0.08748822659254074 0.016508933156728745 -0.2678878903388977
v -0.09026171267032623 0.01313390675932169 -0.2624182403087616
v -0.0903439074754715 0.006135404109954834 -0.2622990608215332
v -0.08765261620283127 0.0025119283236563206 -0.2676495313644409
v -0.08487913757562637 0.005886955186724663 -0.273119181394577
v -0.08479694277048111 0.012885457836091518 -0.2732383608818054
v -0.08748822659254074 0.016508933156728745 -0.2678878903388977
v -0.11398081481456757 0.016782786697149277 -0.2777808904647827
v -0.11544015258550644 0.013396820984780788 -0.27183064818382263
v -0.11555701494216919 0.006398607045412064 -0.271724134683609
v -0.11421453952789307 0.002786359516903758 -0.27756789326667786
v -0.1127552017569542 0.006172325927764177 -0.28351813554763794
v -0.11263833940029144 0.013170539401471615 -0.28362464904785156
v -0.11398081481456757 0.016782786697149277 -0.2777808904647827
v -0.14227552711963654 0.016999075189232826 -0.2798718214035034
v -0.14141593873500824 0.01359807699918747 -0.27381426095962524
v -0.14139994978904724 0.006599002052098513 -0.27370157837867737
v -0.14224356412887573 0.0030009248293936253 -0.27964651584625244
v -0.14310315251350403 0.006401923019438982 -0.285704106092453
v -0.14311912655830383 0.013400997966527939 -0.2858167588710785
v -0.14227552711963654 0.016999075189232826 -0.2798718214035034
v -0.16806498169898987 0.016999075189232826 -0.26844650506973267
v -0.1646764725446701 0.01359807699918747 -0.26335227489471436
v -0.16461345553398132 0.006599002052098513 -0.26325753331184387
v -0.1679389476776123 0.0030009248293936253 -0.2682570219039917
v -0.17132745683193207 0.006401923019438982 -0.27335125207901
v -0.17139047384262085 0.013400997966527939 -0.2734459936618805
v -0.16806498169898987 0.016999075189232826 -0.26844650506973267
v -0.1907230168581009 0.016999075189232826 -0.2513512372970581
v -0.1868971437215805 0.01359807699918747 -0.246576726436615
v -0.18682599067687988 0.006599002052098513 -0.24648793041706085
v -0.19058071076869965 0.0030009248293936253 -0.25117364525794983
v -0.19440658390522003 0.006401923019438982 -0.25594815611839294
v -0.19447773694992065 0.013400997966527939 -0.2560369372367859
v -0.1907230168581009 0.016999075189232826 -0.2513512372970581
v -0.21322309970855713 0.016999075189232826 -0.2340700626373291
v -0.2097313404083252 0.01359807699918747 -0.2290460169315338
v -0.2096664160490036 0.006599002052098513 -0.2289525866508484
v -0.21309322118759155 0.0030009248293936253 -0.23388318717479706
v -0.2165849655866623 0.006401923019438982 -0.23890721797943115
v -0.21664990484714508 0.013400997966527939 -0.23900066316127777
v -0.21322309970855713 0.016999075189232826 -0.2340700626373291
v -0.23834551870822906 0.016999075189232826 -0.22124631702899933
v -0.23679004609584808 0.01359807699918747 -0.21532906591892242
v -0.23676112294197083 0.006599002052098513 -0.21521902084350586
v -0.23828765749931335 0.0030009248293936253 -0.2210262268781662
v -0.23984313011169434 0.006401923019438982 -0.2269434630870819
v -0.2398720532655716 0.013400997966527939 -0.22705350816249847
v -0.23834551870822906 0.016999075189232826 -0.22124631702899933
v -0.26583346724510193 0.016999075189232826 -0.22456440329551697
v -0.2684049904346466 0.01359807699918747 -0.2190127819776535
v -0.26845279335975647 0.006599002052098513 -0.21890953183174133
v -0.26592910289764404 0.0030009248293936253 -0.22435791790485382
v -0.26335757970809937 0.006401923019438982 -0.22990953922271729
v -0.2633097469806671 0.013400997966527939 -0.23001277446746826
v -0.26583346724510193 0.016999075189232826 -0.22456440329551697
v -0.28916043043136597 0.016999075189232826 -0.24051465094089508
v -0.29317885637283325 0.01359807699918747 -0.23590102791786194
v -0.2932535707950592 0.006599002052098513 -0.23581522703170776
v -0.28930988907814026 0.0030009248293936253 -0.24034304916858673
v -0.28529149293899536 0.006401923019438982 -0.24495668709278107
v -0.285216748714447 0.013400997966527939 -0.24504248797893524
v -0.28916043043136597 0.016999075189232826 -0.24051465094089508
v -0.30949676036834717 0.016999075189232826 -0.2602865397930145
v -0.31391075253486633 0.01359807699918747 -0.2560498118400574
v -0.31399282813072205 0.006599002052098513 -0.2559710443019867
v -0.309660941362381 0.0030009248293936253 -0.2601289749145508
v -0.3052469491958618 0.006401923019438982 -0.26436570286750793
v -0.3051648437976837 0.013400997966527939 -0.264444500207901
v -0.30949676036834717 0.016999075189232826 -0.2602865397930145
v -0.3291076719760895 0.016999075189232826 -0.28080859780311584
v -0.33347657322883606 0.01359807699918747 -0.2765254080295563
v -0.3335578441619873 0.006599002052098513 -0.27644574642181396
v -0.3292701542377472 0.0030009248293936253 -0.2806493043899536
v -0.3249012529850006 0.006401923019438982 -0.2849324941635132
v -0.32481998205184937 0.013400997966527939 -0.2850121557712555
v -0.3291076719760895 0.016999075189232826 -0.28080859780311584
v -0.34992891550064087 0.016999075189232826 -0.3000888228416443
v -0.3537518382072449 0.01359807699918747 -0.29531198740005493
v -0.3538229167461395 0.006599002052098513 -0.2952231466770172
v -0.35007110238075256 0.0030009248293936253 -0.29991117119789124
v -0.34624817967414856 0.006401923019438982 -0.304688036441803
v -0.3461770713329315 0.013400997966527939 -0.3047768771648407
v -0.34992891550064087 0.016999075189232826 -0.3000888228416443
vt 0 0
vt 0 0.1666666716337204
vt 0 0.3333333432674408
vt 0 0.5
vt 0 0.6666666865348816
vt 0 0.8333333134651184
vt 0 1
vt 0.0625 0
vt 0.0625 0.1666666716337204
vt 0.0625 0.3333333432674408
vt 0.0625 0.5
vt 0.0625 0.6666666865348816
vt 0.0625 0.8333333134651184
vt 0.0625 1
vt 0.125 0
vt 0.125 0.1666666716337204
vt 0.125 0.3333333432674408
vt 0.125 0.5
vt 0.125 0.6666666865348816
vt 0.125 0.8333333134651184
vt 0.125 1
vt 0.1875 0
vt 0.1875 0.1666666716337204
vt 0.1875 0.3333333432674408
vt 0.1875 0.5
vt 0.1875 0.6666666865348816
vt 0.1875 0.8333333134651184
vt 0.1875 1
vt 0.25 0
vt 0.25 0.1666666716337204
vt 0.25 0.3333333432674408
vt 0.25 0.5
vt 0.25 0.6666666865348816
vt 0.25 0.8333333134651184
vt 0.25 1
vt 0.3125 0
vt 0.3125 0.1666666716337204
vt 0.3125 0.3333333432674408
vt 0.3125 0.5
vt 0.3125 0.6666666865348816
vt 0.3125 0.8333333134651184
vt 0.3125 1
vt 0.375 0
vt 0.375 0.1666666716337204
vt 0.375 0.3333333432674408
vt 0.375 0.5
vt 0.375 0.6666666865348816
vt 0.375 0.8333333134651184
vt 0.375 1
vt 0.4375 0
vt 0.4375 0.1666666716337204
vt 0.4375 0.3333333432674408
vt 0.4375 0.5
vt 0.4375 0.6666666865348816
vt 0.4375 0.8333333134651184
vt 0.4375 1
vt 0.5 0
vt 0.5 0.1666666716337204
vt 0.5 0.3333333432674408
vt 0.5 0.5
vt 0.5 0.6666666865348816
vt 0.5 0.8333333134651184
vt 0.5 1
vt 0.5625 0
vt 0.5625 0.1666666716337204
vt 0.5625 0.3333333432674408
vt 0.5625 0.5
vt 0.5625 0.6666666865348816
vt 0.5625 0.8333333134651184
vt 0.5625 1
vt 0.625 0
vt 0.625 0.1666666716337204
vt 0.625 0.3333333432674408
vt 0.625 0.5
vt 0.625 0.6666666865348816
vt 0.625 0.8333333134651184
vt 0.625 1
vt 0.6875 0
vt 0.6875 0.1666666716337204
vt 0.6875 0.3333333432674408
vt 0.6875 0.5
vt 0.6875 0.6666666865348816
vt 0.6875 0.8333333134651184
vt 0.6875 1
vt 0.75 0
vt 0.75 0.1666666716337204
vt 0.75 0.3333333432674408
vt 0.75 0.5
vt 0.75 0.6666666865348816
vt 0.75 0.8333333134651184
vt 0.75 1
vt 0.8125 0
vt 0.8125 0.1666666716337204
vt 0.8125 0.3333333432674408
vt 0.8125 0.5
vt 0.8125 0.6666666865348816
vt 0.8125 0.8333333134651184
vt 0.8125 1
vt 0.875 0
vt 0.875 0.1666666716337204
vt 0.875 0.3333333432674408
vt 0.875 0.5
vt 0.875 0.6666666865348816
vt 0.875 0.8333333134651184
vt 0.875 1
vt 0.9375 0
vt 0.9375 0.1666666716337204
vt 0.9375 0.3333333432674408
vt 0.9375 0.5
vt 0.9375 0.6666666865348816
vt 0.9375 0.8333333134651184
vt 0.9375 1
vt 1 0
vt 1 0.1666666716337204
vt 1 0.3333333432674408
vt 1 0.5
vt 1 0.6666666865348816
vt 1 0.8333333134651184
vt 1 1
vn -0.040913354779371296 0.9972752971130997 -0.061384681873217925
vn -0.7410862946636121 0.4986376400283877 0.44961273092371146
vn -0.7001729180731414 -0.49863765848619795 0.5109974269371069
vn 0.040913354779371296 -0.9972752971130997 0.061384681873217925
vn 0.7410862946636121 -0.4986376400283877 -0.44961273092371146
vn 0.7001729180731414 0.49863765848619795 -0.5109974269371069
vn -0.040913354779371296 0.9972752971130997 -0.061384681873217925
vn -0.04527755192968348 0.9966192490502003 -0.06855666060908981
vn -0.7801652629089452 0.4927631070059504 0.3853915968519012
vn -0.7348877286680224 -0.5038561290165338 0.4539482652303333
vn 0.04527755192968348 -0.9966192490502003 0.06855666060908981
vn 0.7801652629089452 -0.4927631070059504 -0.3853915968519012
vn 0.7348877286680224 0.5038561290165338 -0.4539482652303333
vn -0.04527755192968348 0.9966192490502003 -0.06855666060908981
vn -0.04442093822846795 0.996761008057867 -0.06703933966237581
vn -0.7724947780844851 0.4940324628726596 0.39897837467734565
vn -0.728073837324966 -0.5027285231717502 0.46601772433293775
vn 0.04442093822846795 -0.996761008057867 0.06703933966237581
vn 0.7724947780844851 -0.4940324628726596 -0.39897837467734565
vn 0.728073837324966 0.5027285231717502 -0.46601772433293775
vn -0.04442093822846795 0.996761008057867 -0.06703933966237581
vn -0.03719929945867229 0.9977277430460524 -0.056174396979534975
vn -0.7078289376039651 0.5026890625852761 0.4962679734252235
vn -0.6706296322982811 -0.495038696853537 0.5524423815213891
vn 0.03719929945867229 -0.9977277430460524 0.056174396979534975
vn 0.7078289376039651 -0.5026890625852761 -0.4962679734252235
vn 0.6706296322982811 0.495038696853537 -0.5524423815213891
vn -0.03719929945867229 0.9977277430460524 -0.056174396979534975
vn -0.013758085294742322 0.9993646469721965 -0.03287883013672574
vn -0.5276105356044475 0.5152737451546695 0.6753666339651884
vn -0.5138524726023785 -0.48409092005067994 0.7082454500559168
vn 0.013758085294742322 -0.9993646469721965 0.03287883013672574
vn 0.5276105356044475 -0.5152737451546695 -0.6753666339651884
vn 0.5138524726023785 0.48409092005067994 -0.7082454500559168
vn -0.013758085294742322 0.9993646469721965 -0.03287883013672574
vn 0.011742087189224249 0.9997860881383492 -0.017026489757360302
vn -0.3844698157161371 0.5176394101107565 0.7643509677519794
vn -0.39621189622233344 -0.48214668504731134 0.7813774423348753
vn -0.011742087189224249 -0.9997860881383492 0.017026489757360302
vn 0.3844698157161371 -0.5176394101107565 -0.7643509677519794
vn 0.39621189622233344 0.48214668504731134 -0.7813774423348753
vn 0.011742087189224249 0.9997860881383492 -0.017026489757360302
vn 0.016694643070059693 0.9997448604614029 -0.015215218492477426
vn -0.19178240247941183 0.516035384618383 0.8348215329763496
vn -0.20847703523827896 -0.4837094845091699 0.8500367406025052
vn -0.016694643070059693 -0.9997448604614029 0.015215218492477426
vn 0.19178240247941183 -0.516035384618383 -0.8348215329763496
vn 0.20847703523827896 0.4837094845091699 -0.8500367406025052
vn 0.016694643070059693 0.9997448604614029 -0.015215218492477426
vn -0.0022837310675290334 0.9998678817726909 -0.01609358790957843
vn 0.12051487753553852 0.5140110271135668 0.8492754725636731
vn 0.1227986119860604 -0.4858568521010079 0.8653690658677351
vn 0.0022837310675290334 -0.9998678817726909 0.01609358790957843
vn -0.12051487753553852 -0.5140110271135668 -0.8492754725636731
vn -0.1227986119860604 0.4858568521010079 -0.8653690658677351
vn -0.0022837310675290334 0.9998678817726909 -0.01609358790957843
vn -0.009002465982345486 0.9998678817809429 -0.013534200719930597
vn 0.47506955141374047 0.514011024080369 0.7142139654497087
vn 0.48407203030156 -0.485856861589658 0.7277481566627109
vn 0.009002465982345486 -0.9998678817809429 0.013534200719930597
vn -0.47506955141374047 -0.514011024080369 -0.7142139654497087
vn -0.48407203030156 0.485856861589658 -0.7277481566627109
vn -0.009002465982345486 0.9998678817809429 -0.013534200719930597
vn -0.010164455767613616 0.9998678817772518 -0.012684747897359362
vn 0.5363889778062655 0.5140110106166528 0.6693874404653832
vn 0.5465534385838616 -0.48585686589189825 0.6820721696696462
vn 0.010164455767613616 -0.9998678817772518 0.012684747897359362
vn -0.5363889778062655 -0.5140110106166528 -0.6693874404653832
vn -0.5465534385838616 0.48585686589189825 -0.6820721696696462
vn -0.010164455767613616 0.9998678817772518 -0.012684747897359362
vn -0.00927675725128839 0.9998678817785435 -0.01334768753713267
vn 0.4895442095319033 0.5140110219782872 0.704371447603195
vn 0.49882096039900703 -0.4858568607565811 0.717719137492078
vn 0.00927675725128839 -0.9998678817785435 0.01334768753713267
vn -0.4895442095319033 -0.5140110219782872 -0.704371447603195
vn -0.49882096039900703 0.4858568607565811 -0.717719137492078
vn -0.00927675725128839 0.9998678817785435 -0.01334768753713267
vn -0.0041325228402819885 0.9998678817954271 -0.015720725457184462
vn 0.2180775564094463 0.5140110280465643 0.8295992059042722
vn 0.22221008085335417 -0.48585686398485856 0.8453199321475534
vn 0.0041325228402819885 -0.9998678817954271 0.015720725457184462
vn -0.2180775564094463 -0.5140110280465643 -0.8295992059042722
vn -0.22221008085335417 0.48585686398485856 -0.8453199321475534
vn -0.0041325228402819885 0.9998678817954271 -0.015720725457184462
vn 0.006831931588666138 0.9998678817806003 -0.014749362506327999
vn -0.3605281963810047 0.5140110190361624 0.7783393167016975
vn -0.36736011705653304 -0.48585686352817054 0.7930886788744238
vn -0.006831931588666138 -0.9998678817806003 0.014749362506327999
vn 0.3605281963810047 -0.5140110190361624 -0.7783393167016975
vn 0.36736011705653304 0.48585686352817054 -0.7930886788744238
vn 0.006831931588666138 0.9998678817806003 -0.014749362506327999
vn 0.010675988429930824 0.9998678817762034 -0.012257335086051488
vn -0.5633830977755948 0.5140110211941235 0.6468324011919541
vn -0.5740590706183899 -0.48585686211323476 0.6590897457692932
vn -0.010675988429930824 -0.9998678817762034 0.012257335086051488
vn 0.5633830977755948 -0.5140110211941235 -0.6468324011919541
vn 0.5740590706183899 0.48585686211323476 -0.6590897457692932
vn 0.010675988429930824 0.9998678817762034 -0.012257335086051488
vn 0.011726955248374443 0.9998678817821475 -0.01125599844900026
vn -0.6188437199446027 0.5140110135347836 0.5939908486248509
vn -0.630570658402866 -0.48585686727292465 0.6052468498762432
vn -0.011726955248374443 -0.9998678817821475 0.01125599844900026
vn 0.6188437199446027 -0.5140110135347836 -0.5939908486248509
vn 0.630570658402866 0.48585686727292465 -0.6052468498762432
vn 0.011726955248374443 0.9998678817821475 -0.01125599844900026
vn 0.011607200200664998 0.9998678817733457 -0.011379450847222057
vn -0.6125240951537441 0.5140110279096279 0.6005055337325167
vn -0.6241313021931415 -0.48585684552973846 0.6118849918690482
vn -0.011607200200664998 -0.9998678817733457 0.011379450847222057
vn 0.6125240951537441 -0.5140110279096279 -0.6005055337325167
vn 0.6241313021931415 0.48585684552973846 -0.6118849918690482
vn 0.011607200200664998 0.9998678817733457 -0.011379450847222057
vn 0.010156628932616414 0.9998678817888401 -0.012691014767269452
vn -0.5359759941516321 0.5140110268404822 0.6697181481635112
vn -0.546132623051144 -0.48585685989910904 0.6824091659175268
vn -0.010156628932616414 -0.9998678817888401 0.012691014767269452
vn 0.5359759941516321 -0.5140110268404822 -0.6697181481635112
vn 0.546132623051144 0.48585685989910904 -0.6824091659175268
vn 0.010156628932616414 0.9998678817888401 -0.012691014767269452
f 497/497/497 504/504/504 498/498/498
f 504/504/504 505/505/505 498/498/498
f 498/498/498 505/505/505 499/499/499
f 505/505/505 506/506/506 499/499/499
f 499/499/499 506/506/506 500/500/500
f 506/506/506 507/507/507 500/500/500
f 500/500/500 507/507/507 501/501/501
f 507/507/507 508/508/508 501/501/501
f 501/501/501 508/508/508 502/502/502
f 508/508/508 509/509/509 502/502/502
f 502/502/502 509/509/509 503/503/503
f 509/509/509 510/510/510 503/503/503
f 504/504/504 511/511/511 505/505/505
f 511/511/511 512/512/512 505/505/505
f 505/505/505 512/512/512 506/506/506
f 512/512/512 513/513/513 506/506/506
f 506/506/506 513/513/513 507/507/507
f 513/513/513 514/514/514 507/507/507
f 507/507/507 514/514/514 508/508/508
f 514/514/514 515/515/515 508/508/508
f 508/508/508 515/515/515 509/509/509
f 515/515/515 516/516/516 509/509/509
f 509/509/509 516/516/516 510/510/510
f 516/516/516 517/517/517 510/510/510
f 511/511/511 518/518/518 512/512/512
f 518/518/518 519/519/519 512/512/512
f 512/512/512 519/519/519 513/513/513
f 519/519/519 520/520/520 513/513/513
f 513/513/513 520/520/520 514/514/514
f 520/520/520 521/521/521 514/514/514
f 514/514/514 521/521/521 515/515/515
f 521/521/521 522/522/522 515/515/515
f 515/515/515 522/522/522 516/516/516
f 522/522/522 523/523/523 516/516/516
f 516/516/516 523/523/523 517/517/517
f 523/523/523 524/524/524 517/517/517
f 518/518/518 525/525/525 519/519/519
f 525/525/525 526/526/526 519/519/519
f 519/519/519 526/526/526 520/520/520
f 526/526/526 527/527/527 520/520/520
f 520/520/520 527/527/527 521/521/521
f 527/527/527 528/528/528 521/521/521
f 521/521/521 528/528/528 522/522/522
f 528/528/528 529/529/529 522/522/522
f 522/522/522 529/529/529 523/523/523
f 529/529/529 530/530/530 523/523/523
f 523/523/523 530/530/530 524/524/524
f 530/530/530 531/531/531 524/524/524
f 525/525/525 532/532/532 526/526/526
f 532/532/532 533/533/533 526/526/526
f 526/526/526 533/533/533 527/527/527
f 533/533/533 534/534/534 527/527/527
f 527/527/527 534/534/534 528/528/528
f 534/534/534 535/535/535 528/528/528
f 528/528/528 535/535/535 529/529/529
f 535/535/535 536/536/536 529/529/529
f 529/529/529 536/536/536 530/530/530
f 536/536/536 537/537/537 530/530/530
f 530/530/530 537/537/537 531/531/531
f 537/537/537 538/538/538 531/531/531
f 532/532/532 539/539/539 533/533/533
f 539/539/539 540/540/540 533/533/533
f 533/533/533 540/540/540 534/534/534
f 540/540/540 541/541/541 534/534/534
f 534/534/534 541/541/541 535/535/535
f 541/541/541 542/542/542 535/535/535
f 535/535/535 542/542/542 536/536/536
f 542/542/542 543/543/543 536/536/536
f 536/536/536 543/543/543 537/537/537
f 543/543/543 544/544/544 537/537/537
f 537/537/537 544/544/544 538/538/538
f 544/544/544 545/545/545 538/538/538
f 539/539/539 546/546/546 540/540/540
f 546/546/546 547/547/547 540/540/540
f 540/540/540 547/547/547 541/541/541
f 547/547/547 548/548/548 541/541/541
f 541/541/541 548/548/548 542/542/542
f 548/548/548 549/549/549 542/542/542
f 542/542/542 549/549/549 543/543/543
f 549/549/549 550/550/550 543/543/543
f 543/543/543 550/550/550 544/544/544
f 550/550/550 551/551/551 544/544/544
f 544/544/544 551/551/551 545/545/545
f 551/551/551 552/552/552 545/545/545
f 546/546/546 553/553/553 547/547/547
f 553/553/553 554/554/554 547/547/547
f 547/547/547 554/554/554 548/548/548
f 554/554/554 555/555/555 548/548/548
f 548/548/548 555/555/555 549/549/549
f 555/555/555 556/556/556 549/549/549
f 549/549/549 556/556/556 550/550/550
f 556/556/556 557/557/557 550/550/550
f 550/550/550 557/557/557 551/551/551
f 557/557/557 558/558/558 551/551/551
f 551/551/551 558/558/558 552/552/552
f 558/558/558 559/559/559 552/552/552
f 553/553/553 560/560/560 554/554/554
f 560/560/560 561/561/561 554/554/554
f 554/554/554 561/561/561 555/555/555
f 561/561/561 562/562/562 555/555/555
f 555/555/555 562/562/562 556/556/556
f 562/562/562 563/563/563 556/556/556
f 556/556/556 563/563/563 557/557/557
f 563/563/563 564/564/564 557/557/557
f 557/557/557 564/564/564 558/558/558
f 564/564/564 565/565/565 558/558/558
f 558/558/558 565/565/565 559/559/559
f 565/565/565 566/566/566 559/559/559
f 560/560/560 567/567/567 561/561/561
f 567/567/567 568/568/568 561/561/561
f 561/561/561 568/568/568 562/562/562
f 568/568/568 569/569/569 562/562/562
f 562/562/562 569/569/569 563/563/563
f 569/569/569 570/570/570 563/563/563
f 563/563/563 570/570/570 564/564/564
f 570/570/570 571/571/571 564/564/564
f 564/564/564 571/571/571 565/565/565
f 571/571/571 572/572/572 565/565/565
f 565/565/565 572/572/572 566/566/566
f 572/572/572 573/573/573 566/566/566
f 567/567/567 574/574/574 568/568/568
f 574/574/574 575/575/575 568/568/568
f 568/568/568 575/575/575 569/569/569
f 575/575/575 576/576/576 569/569/569
f 569/569/569 576/576/576 570/570/570
f 576/576/576 577/577/577 570/570/570
f 570/570/570 577/577/577 571/571/571
f 577/577/577 578/578/578 571/571/571
f 571/571/571 578/578/578 572/572/572
f 578/578/578 579/579/579 572/572/572
f 572/572/572 579/579/579 573/573/573
f 579/579/579 580/580/580 573/573/573
f 574/574/574 581/581/581 575/575/575
f 581/581/581 582/582/582 575/575/575
f 575/575/575 582/582/582 576/576/576
f 582/582/582 583/583/583 576/576/576
f 576/576/576 583/583/583 577/577/577
f 583/583/583 584/584/584 577/577/577
f 577/577/577 584/584/584 578/578/578
f 584/584/584 585/585/585 578/578/578
f 578/578/578 585/585/585 579/579/579
f 585/585/585 586/586/586 579/579/579
f 579/579/579 586/586/586 580/580/580
f 586/586/586 587/587/587 580/580/580
f 581/581/581 588/588/588 582/582/582
f 588/588/588 589/589/589 582/582/582
f 582/582/582 589/589/589 583/583/583
f 589/589/589 590/590/590 583/583/583
f 583/583/583 590/590/590 584/584/584
f 590/590/590 591/591/591 584/584/584
f 584/584/584 591/591/591 585/585/585
f 591/591/591 592/592/592 585/585/585
f 585/585/585 592/592/592 586/586/586
f 592/592/592 593/593/593 586/586/586
f 586/586/586 593/593/593 587/587/587
f 593/593/593 594/594/594 587/587/587
f 588/588/588 595/595/595 589/589/589
f 595/595/595 596/596/596 589/589/589
f 589/589/589 596/596/596 590/590/590
f 596/596/596 597/597/597 590/590/590
f 590/590/590 597/597/597 591/591/591
f 597/597/597 598/598/598 591/591/591
f 591/591/591 598/598/598 592/592/592
f 598/598/598 599/599/599 592/592/592
f 592/592/592 599/599/599 593/593/593
f 599/599/599 600/600/600 593/593/593
f 593/593/593 600/600/600 594/594/594
f 600/600/600 601/601/601 594/594/594
f 595/595/595 602/602/602 596/596/596
f 602/602/602 603/603/603 596/596/596
f 596/596/596 603/603/603 597/597/597
f 603/603/603 604/604/604 597/597/597
f 597/597/597 604/604/604 598/598/598
f 604/604/604 605/605/605 598/598/598
f 598/598/598 605/605/605 599/599/599
f 605/605/605 606/606/606 599/599/599
f 599/599/599 606/606/606 600/600/600
f 606/606/606 607/607/607 600/600/600
f 600/600/600 607/607/607 601/601/601
f 607/607/607 608/608/608 601/601/601
f 602/602/602 609/609/609 603/603/603
f 609/609/609 610/610/610 603/603/603
f 603/603/603 610/610/610 604/604/604
f 610/610/610 611/611/611 604/604/604
f 604/604/604 611/611/611 605/605/605
f 611/611/611 612/612/612 605/605/605
f 605/605/605 612/612/612 606/606/606
f 612/612/612 613/613/613 606/606/606
f 606/606/606 613/613/613 607/607/607
f 613/613/613 614/614/614 607/607/607
f 607/607/607 614/614/614 608/608/608
f 614/614/614 615/615/615 608/608/608
