o 
v 0.054999999701976776 0.009999999776482582 0.12999999523162842
v 0.054999999701976776 0.009999999776482582 -0.12999999523162842
v 0.054999999701976776 -0.009999999776482582 0.12999999523162842
v 0.054999999701976776 -0.009999999776482582 -0.12999999523162842
v -0.054999999701976776 0.009999999776482582 -0.12999999523162842
v -0.054999999701976776 0.009999999776482582 0.12999999523162842
v -0.054999999701976776 -0.009999999776482582 -0.12999999523162842
v -0.054999999701976776 -0.009999999776482582 0.12999999523162842
v -0.054999999701976776 0.009999999776482582 -0.12999999523162842
v 0.054999999701976776 0.009999999776482582 -0.12999999523162842
v -0.054999999701976776 0.009999999776482582 0.12999999523162842
v 0.054999999701976776 0.009999999776482582 0.12999999523162842
v -0.054999999701976776 -0.009999999776482582 0.12999999523162842
v 0.054999999701976776 -0.009999999776482582 0.12999999523162842
v -0.054999999701976776 -0.009999999776482582 -0.12999999523162842
v 0.054999999701976776 -0.009999999776482582 -0.12999999523162842
v -0.054999999701976776 0.009999999776482582 0.12999999523162842
v 0.054999999701976776 0.009999999776482582 0.12999999523162842
v -0.054999999701976776 -0.009999999776482582 0.12999999523162842
v 0.054999999701976776 -0.009999999776482582 0.12999999523162842
v 0.054999999701976776 0.009999999776482582 -0.12999999523162842
v -0.054999999701976776 0.009999999776482582 -0.12999999523162842
v 0.054999999701976776 -0.009999999776482582 -0.12999999523162842
v -0.054999999701976776 -0.009999999776482582 -0.12999999523162842
vt 0 1
vt 1 1
vt 0 0
vt 1 0
vt 0 1
vt 1 1
vt 0 0
vt 1 0
vt 0 1
vt 1 1
vt 0 0
vt 1 0
vt 0 1
vt 1 1
vt 0 0
vt 1 0
vt 0 1
vt 1 1
vt 0 0
vt 1 0
vt 0 1
vt 1 1
vt 0 0
vt 1 0
vn 1 0 0
vn 1 0 0
vn 1 0 0
vn 1 0 0
vn -1 0 0
vn -1 0 0
vn -1 0 0
vn -1 0 0
vn 0 1 0
vn 0 1 0
vn 0 1 0
vn 0 1 0
vn 0 -1 0
vn 0 -1 0
vn 0 -1 0
vn 0 -1 0
vn 0 0 1
vn 0 0 1
vn 0 0 1
vn 0 0 1
vn 0 0 -1
vn 0 0 -1
vn 0 0 -1
vn 0 0 -1
f 1/1/1 3/3/3 2/2/2
f 3/3/3 4/4/4 2/2/2
f 5/5/5 7/7/7 6/6/6
f 7/7/7 8/8/8 6/6/6
f 9/9/9 11/11/11 10/10/10
f 11/11/11 12/12/12 10/10/10
f 13/13/13 15/15/15 14/14/14
f 15/15/15 16/16/16 14/14/14
f 17/17/17 19/19/19 18/18/18
f 19/19/19 20/20/20 18/18/18
f 21/21/21 23/23/23 22/22/22
f 23/23/23 24/24/24 22/22/22
o 
v -0.05999999865889549 3.673940475037442e-18 0.05999999865889549
v -0.05999999865889549 0.022961005568504333 0.055432770401239395
v -0.05999999865889549 0.04242640733718872 0.04242640733718872
v -0.05999999865889549 0.055432770401239395 0.022961005568504333
v -0.05999999865889549 0.05999999865889549 3.673940475037442e-18
v -0.05999999865889549 0.055432770401239395 -0.022961005568504333
v -0.05999999865889549 0.04242640733718872 -0.04242640733718872
v -0.05999999865889549 0.022961005568504333 -0.055432770401239395
v -0.05999999865889549 1.102182101152202e-17 -0.05999999865889549
v 0.05999999865889549 -3.673940475037442e-18 0.05999999865889549
v 0.05999999865889549 0.022961005568504333 0.055432770401239395
v 0.05999999865889549 0.04242640733718872 0.04242640733718872
v 0.05999999865889549 0.055432770401239395 0.022961005568504333
v 0.05999999865889549 0.05999999865889549 3.673940475037442e-18
v 0.05999999865889549 0.055432770401239395 -0.022961005568504333
v 0.05999999865889549 0.04242640733718872 -0.04242640733718872
v 0.05999999865889549 0.022961005568504333 -0.055432770401239395
v 0.05999999865889549 3.673940475037442e-18 -0.05999999865889549
v -0.05999999865889549 3.673940475037442e-18 0
v -0.05999999865889549 3.673940475037442e-18 0
v -0.05999999865889549 3.673940475037442e-18 0
v -0.05999999865889549 3.673940475037442e-18 0
v -0.05999999865889549 3.673940475037442e-18 0
v -0.05999999865889549 3.673940475037442e-18 0
v -0.05999999865889549 3.673940475037442e-18 0
v -0.05999999865889549 3.673940475037442e-18 0
v -0.05999999865889549 3.673940475037442e-18 0.05999999865889549
v -0.05999999865889549 0.022961005568504333 0.055432770401239395
v -0.05999999865889549 0.04242640733718872 0.04242640733718872
v -0.05999999865889549 0.055432770401239395 0.022961005568504333
v -0.05999999865889549 0.05999999865889549 3.673940475037442e-18
v -0.05999999865889549 0.055432770401239395 -0.022961005568504333
v -0.05999999865889549 0.04242640733718872 -0.04242640733718872
v -0.05999999865889549 0.022961005568504333 -0.055432770401239395
v -0.05999999865889549 1.102182101152202e-17 -0.05999999865889549
v 0.05999999865889549 -3.673940475037442e-18 0
v 0.05999999865889549 -3.673940475037442e-18 0
v 0.05999999865889549 -3.673940475037442e-18 0
v 0.05999999865889549 -3.673940475037442e-18 0
v 0.05999999865889549 -3.673940475037442e-18 0
v 0.05999999865889549 -3.673940475037442e-18 0
v 0.05999999865889549 -3.673940475037442e-18 0
v 0.05999999865889549 -3.673940475037442e-18 0
v 0.05999999865889549 -3.673940475037442e-18 0.05999999865889549
v 0.05999999865889549 0.022961005568504333 0.055432770401239395
v 0.05999999865889549 0.04242640733718872 0.04242640733718872
v 0.05999999865889549 0.055432770401239395 0.022961005568504333
v 0.05999999865889549 0.05999999865889549 3.673940475037442e-18
v 0.05999999865889549 0.055432770401239395 -0.022961005568504333
v 0.05999999865889549 0.04242640733718872 -0.04242640733718872
v 0.05999999865889549 0.022961005568504333 -0.055432770401239395
v 0.05999999865889549 3.673940475037442e-18 -0.05999999865889549
vt 0 1
vt 0.125 1
vt 0.25 1
vt 0.375 1
vt 0.5 1
vt 0.625 1
vt 0.75 1
vt 0.875 1
vt 1 1
vt 0 0
vt 0.125 0
vt 0.25 0
vt 0.375 0
vt 0.5 0
vt 0.625 0
vt 0.75 0
vt 0.875 0
vt 1 0
vt 0.5 0.5
vt 0.5 0.5
vt 0.5 0.5
vt 0.5 0.5
vt 0.5 0.5
vt 0.5 0.5
vt 0.5 0.5
vt 0.5 0.5
vt 1 0.5
vt 0.9619397521018982 0.6913416981697083
vt 0.8535534143447876 0.8535534143447876
vt 0.6913416981697083 0.9619397521018982
vt 0.5 1
vt 0.30865827202796936 0.9619397521018982
vt 0.1464466154575348 0.8535534143447876
vt 0.03806023299694061 0.6913416981697083
vt 0 0.5
vt 0.5 0.5
vt 0.5 0.5
vt 0.5 0.5
vt 0.5 0.5
vt 0.5 0.5
vt 0.5 0.5
vt 0.5 0.5
vt 0.5 0.5
vt 1 0.5
vt 0.9619397521018982 0.30865827202796936
vt 0.8535534143447876 0.1464466154575348
vt 0.6913416981697083 0.03806023299694061
vt 0.5 0
vt 0.30865827202796936 0.03806023299694061
vt 0.1464466154575348 0.1464466154575348
vt 0.03806023299694061 0.30865827202796936
vt 0 0.5
vn 0 0 1
vn 2.3432603017245014e-17 0.3826834370613369 0.9238795305660377
vn 4.329780375814312e-17 0.7071067811865476 0.7071067811865476
vn 5.657130722319695e-17 0.9238795305660377 0.3826834370613369
vn 6.123234262925839e-17 1 6.123234262925839e-17
vn 5.657130722319695e-17 0.9238795305660377 -0.3826834370613369
vn 4.329780375814312e-17 0.7071067811865476 -0.7071067811865476
vn 2.3432603017245014e-17 0.3826834370613369 -0.9238795305660377
vn 7.49879952078994e-33 1.2246468525851679e-16 -1
vn 0 0 1
vn 2.3432603017245014e-17 0.3826834370613369 0.9238795305660377
vn 4.329780375814312e-17 0.7071067811865476 0.7071067811865476
vn 5.657130722319695e-17 0.9238795305660377 0.3826834370613369
vn 6.123234262925839e-17 1 6.123234262925839e-17
vn 5.657130722319695e-17 0.9238795305660377 -0.3826834370613369
vn 4.329780375814312e-17 0.7071067811865476 -0.7071067811865476
vn 2.3432603017245014e-17 0.3826834370613369 -0.9238795305660377
vn 7.49879952078994e-33 1.2246468525851679e-16 -1
vn -1 6.123234262925839e-17 0
vn -1 6.123234262925839e-17 0
vn -1 6.123234262925839e-17 0
vn -1 6.123234262925839e-17 0
vn -1 6.123234262925839e-17 0
vn -1 6.123234262925839e-17 0
vn -1 6.123234262925839e-17 0
vn -1 6.123234262925839e-17 0
vn -1 6.123234262925839e-17 0
vn -1 6.123234262925839e-17 0
vn -1 6.123234262925839e-17 0
vn -1 6.123234262925839e-17 0
vn -1 6.123234262925839e-17 0
vn -1 6.123234262925839e-17 0
vn -1 6.123234262925839e-17 0
vn -1 6.123234262925839e-17 0
vn -1 6.123234262925839e-17 0
vn 1 -6.123234262925839e-17 0
vn 1 -6.123234262925839e-17 0
vn 1 -6.123234262925839e-17 0
vn 1 -6.123234262925839e-17 0
vn 1 -6.123234262925839e-17 0
vn 1 -6.123234262925839e-17 0
vn 1 -6.123234262925839e-17 0
vn 1 -6.123234262925839e-17 0
vn 1 -6.123234262925839e-17 0
vn 1 -6.123234262925839e-17 0
vn 1 -6.123234262925839e-17 0
vn 1 -6.123234262925839e-17 0
vn 1 -6.123234262925839e-17 0
vn 1 -6.123234262925839e-17 0
vn 1 -6.123234262925839e-17 0
vn 1 -6.123234262925839e-17 0
vn 1 -6.123234262925839e-17 0
f 25/25/25 34/34/34 26/26/26
f 34/34/34 35/35/35 26/26/26
f 26/26/26 35/35/35 27/27/27
f 35/35/35 36/36/36 27/27/27
f 27/27/27 36/36/36 28/28/28
f 36/36/36 37/37/37 28/28/28
f 28/28/28 37/37/37 29/29/29
f 37/37/37 38/38/38 29/29/29
f 29/29/29 38/38/38 30/30/30
f 38/38/38 39/39/39 30/30/30
f 30/30/30 39/39/39 31/31/31
f 39/39/39 40/40/40 31/31/31
f 31/31/31 40/40/40 32/32/32
f 40/40/40 41/41/41 32/32/32
f 32/32/32 41/41/41 33/33/33
f 41/41/41 42/42/42 33/33/33
f 51/51/51 52/52/52 43/43/43
f 52/52/52 53/53/53 44/44/44
f 53/53/53 54/54/54 45/45/45
f 54/54/54 55/55/55 46/46/46
f 55/55/55 56/56/56 47/47/47
f 56/56/56 57/57/57 48/48/48
f 57/57/57 58/58/58 49/49/49
f 58/58/58 59/59/59 50/50/50
f 69/69/69 68/68/68 60/60/60
f 70/70/70 69/69/69 61/61/61
f 71/71/71 70/70/70 62/62/62
f 72/72/72 71/71/71 63/63/63
f 73/73/73 72/72/72 64/64/64
f 74/74/74 73/73/73 65/65/65
f 75/75/75 74/74/74 66/66/66
f 76/76/76 75/75/75 67/67/67
o 
v 0.054999999701976776 0.009999999776482582 0.12999999523162842
v 0.054999999701976776 0.009999999776482582 -0.12999999523162842
v 0.054999999701976776 -0.009999999776482582 0.12999999523162842
v 0.054999999701976776 -0.009999999776482582 -0.12999999523162842
v -0.054999999701976776 0.009999999776482582 -0.12999999523162842
v -0.054999999701976776 0.009999999776482582 0.12999999523162842
v -0.054999999701976776 -0.009999999776482582 -0.12999999523162842
v -0.054999999701976776 -0.009999999776482582 0.12999999523162842
v -0.054999999701976776 0.009999999776482582 -0.12999999523162842
v 0.054999999701976776 0.009999999776482582 -0.12999999523162842
v -0.054999999701976776 0.009999999776482582 0.12999999523162842
v 0.054999999701976776 0.009999999776482582 0.12999999523162842
v -0.054999999701976776 -0.009999999776482582 0.12999999523162842
v 0.054999999701976776 -0.009999999776482582 0.12999999523162842
v -0.054999999701976776 -0.009999999776482582 -0.12999999523162842
v 0.054999999701976776 -0.009999999776482582 -0.12999999523162842
v -0.054999999701976776 0.009999999776482582 0.12999999523162842
v 0.054999999701976776 0.009999999776482582 0.12999999523162842
v -0.054999999701976776 -0.009999999776482582 0.12999999523162842
v 0.054999999701976776 -0.009999999776482582 0.12999999523162842
v 0.054999999701976776 0.009999999776482582 -0.12999999523162842
v -0.054999999701976776 0.009999999776482582 -0.12999999523162842
v 0.054999999701976776 -0.009999999776482582 -0.12999999523162842
v -0.054999999701976776 -0.009999999776482582 -0.12999999523162842
vt 0 1
vt 1 1
vt 0 0
vt 1 0
vt 0 1
vt 1 1
vt 0 0
vt 1 0
vt 0 1
vt 1 1
vt 0 0
vt 1 0
vt 0 1
vt 1 1
vt 0 0
vt 1 0
vt 0 1
vt 1 1
vt 0 0
vt 1 0
vt 0 1
vt 1 1
vt 0 0
vt 1 0
vn 1 0 0
vn 1 0 0
vn 1 0 0
vn 1 0 0
vn -1 0 0
vn -1 0 0
vn -1 0 0
vn -1 0 0
vn 0 1 0
vn 0 1 0
vn 0 1 0
vn 0 1 0
vn 0 -1 0
vn 0 -1 0
vn 0 -1 0
vn 0 -1 0
vn 0 0 1
vn 0 0 1
vn 0 0 1
vn 0 0 1
vn 0 0 -1
vn 0 0 -1
vn 0 0 -1
vn 0 0 -1
f 77/77/77 79/79/79 78/78/78
f 79/79/79 80/80/80 78/78/78
f 81/81/81 83/83/83 82/82/82
f 83/83/83 84/84/84 82/82/82
f 85/85/85 87/87/87 86/86/86
f 87/87/87 88/88/88 86/86/86
f 89/89/89 91/91/91 90/90/90
f 91/91/91 92/92/92 90/90/90
f 93/93/93 95/95/95 94/94/94
f 95/95/95 96/96/96 94/94/94
f 97/97/97 99/99/99 98/98/98
f 99/99/99 100/100/100 98/98/98
o 
v -0.05999999865889549 3.673940475037442e-18 0.05999999865889549
v -0.05999999865889549 0.022961005568504333 0.055432770401239395
v -0.05999999865889549 0.04242640733718872 0.04242640733718872
v -0.05999999865889549 0.055432770401239395 0.022961005568504333
v -0.05999999865889549 0.05999999865889549 3.673940475037442e-18
v -0.05999999865889549 0.055432770401239395 -0.022961005568504333
v -0.05999999865889549 0.04242640733718872 -0.04242640733718872
v -0.05999999865889549 0.022961005568504333 -0.055432770401239395
v -0.05999999865889549 1.102182101152202e-17 -0.05999999865889549
v 0.05999999865889549 -3.673940475037442e-18 0.05999999865889549
v 0.05999999865889549 0.022961005568504333 0.055432770401239395
v 0.05999999865889549 0.04242640733718872 0.04242640733718872
v 0.05999999865889549 0.055432770401239395 0.022961005568504333
v 0.05999999865889549 0.05999999865889549 3.673940475037442e-18
v 0.05999999865889549 0.055432770401239395 -0.022961005568504333
v 0.05999999865889549 0.04242640733718872 -0.04242640733718872
v 0.05999999865889549 0.022961005568504333 -0.055432770401239395
v 0.05999999865889549 3.673940475037442e-18 -0.05999999865889549
v -0.05999999865889549 3.673940475037442e-18 0
v -0.05999999865889549 3.673940475037442e-18 0
v -0.05999999865889549 3.673940475037442e-18 0
v -0.05999999865889549 3.673940475037442e-18 0
v -0.05999999865889549 3.673940475037442e-18 0
v -0.05999999865889549 3.673940475037442e-18 0
v -0.05999999865889549 3.673940475037442e-18 0
v -0.05999999865889549 3.673940475037442e-18 0
v -0.05999999865889549 3.673940475037442e-18 0.05999999865889549
v -0.05999999865889549 0.022961005568504333 0.055432770401239395
v -0.05999999865889549 0.04242640733718872 0.04242640733718872
v -0.05999999865889549 0.055432770401239395 0.022961005568504333
v -0.05999999865889549 0.05999999865889549 3.673940475037442e-18
v -0.05999999865889549 0.055432770401239395 -0.022961005568504333
v -0.05999999865889549 0.04242640733718872 -0.04242640733718872
v -0.05999999865889549 0.022961005568504333 -0.055432770401239395
v -0.05999999865889549 1.102182101152202e-17 -0.05999999865889549
v 0.05999999865889549 -3.673940475037442e-18 0
v 0.05999999865889549 -3.673940475037442e-18 0
v 0.05999999865889549 -3.673940475037442e-18 0
v 0.05999999865889549 -3.673940475037442e-18 0
v 0.05999999865889549 -3.673940475037442e-18 0
v 0.05999999865889549 -3.673940475037442e-18 0
v 0.05999999865889549 -3.673940475037442e-18 0
v 0.05999999865889549 -3.673940475037442e-18 0
v 0.05999999865889549 -3.673940475037442e-18 0.05999999865889549
v 0.05999999865889549 0.022961005568504333 0.055432770401239395
v 0.05999999865889549 0.04242640733718872 0.04242640733718872
v 0.05999999865889549 0.055432770401239395 0.022961005568504333
v 0.05999999865889549 0.05999999865889549 3.673940475037442e-18
v 0.05999999865889549 0.055432770401239395 -0.022961005568504333
v 0.05999999865889549 0.04242640733718872 -0.04242640733718872
v 0.05999999865889549 0.022961005568504333 -0.055432770401239395
v 0.05999999865889549 3.673940475037442e-18 -0.05999999865889549
vt 0 1
vt 0.125 1
vt 0.25 1
vt 0.375 1
vt 0.5 1
vt 0.625 1
vt 0.75 1
vt 0.875 1
vt 1 1
vt 0 0
vt 0.125 0
vt 0.25 0
vt 0.375 0
vt 0.5 0
vt 0.625 0
vt 0.75 0
vt 0.875 0
vt 1 0
vt 0.5 0.5
vt 0.5 0.5
vt 0.5 0.5
vt 0.5 0.5
vt 0.5 0.5
vt 0.5 0.5
vt 0.5 0.5
vt 0.5 0.5
vt 1 0.5
vt 0.9619397521018982 0.6913416981697083
vt 0.8535534143447876 0.8535534143447876
vt 0.6913416981697083 0.9619397521018982
vt 0.5 1
vt 0.30865827202796936 0.9619397521018982
vt 0.1464466154575348 0.8535534143447876
vt 0.03806023299694061 0.6913416981697083
vt 0 0.5
vt 0.5 0.5
vt 0.5 0.5
vt 0.5 0.5
vt 0.5 0.5
vt 0.5 0.5
vt 0.5 0.5
vt 0.5 0.5
vt 0.5 0.5
vt 1 0.5
vt 0.9619397521018982 0.30865827202796936
vt 0.8535534143447876 0.1464466154575348
vt 0.6913416981697083 0.03806023299694061
vt 0.5 0
vt 0.30865827202796936 0.03806023299694061
vt 0.1464466154575348 0.1464466154575348
vt 0.03806023299694061 0.30865827202796936
vt 0 0.5
vn 0 0 1
vn 2.3432603017245014e-17 0.3826834370613369 0.9238795305660377
vn 4.329780375814312e-17 0.7071067811865476 0.7071067811865476
vn 5.657130722319695e-17 0.9238795305660377 0.3826834370613369
vn 6.123234262925839e-17 1 6.123234262925839e-17
vn 5.657130722319695e-17 0.9238795305660377 -0.3826834370613369
vn 4.329780375814312e-17 0.7071067811865476 -0.7071067811865476
vn 2.3432603017245014e-17 0.3826834370613369 -0.9238795305660377
vn 7.49879952078994e-33 1.2246468525851679e-16 -1
vn 0 0 1
vn 2.3432603017245014e-17 0.3826834370613369 0.9238795305660377
vn 4.329780375814312e-17 0.7071067811865476 0.7071067811865476
vn 5.657130722319695e-17 0.9238795305660377 0.3826834370613369
vn 6.123234262925839e-17 1 6.123234262925839e-17
vn 5.657130722319695e-17 0.9238795305660377 -0.3826834370613369
vn 4.329780375814312e-17 0.7071067811865476 -0.7071067811865476
vn 2.3432603017245014e-17 0.3826834370613369 -0.9238795305660377
vn 7.49879952078994e-33 1.2246468525851679e-16 -1
vn -1 6.123234262925839e-17 0
vn -1 6.123234262925839e-17 0
vn -1 6.123234262925839e-17 0
vn -1 6.123234262925839e-17 0
vn -1 6.123234262925839e-17 0
vn -1 6.123234262925839e-17 0
vn -1 6.123234262925839e-17 0
vn -1 6.123234262925839e-17 0
vn -1 6.123234262925839e-17 0
vn -1 6.123234262925839e-17 0
vn -1 6.123234262925839e-17 0
vn -1 6.123234262925839e-17 0
vn -1 6.123234262925839e-17 0
vn -1 6.123234262925839e-17 0
vn -1 6.123234262925839e-17 0
vn -1 6.123234262925839e-17 0
vn -1 6.123234262925839e-17 0
vn 1 -6.123234262925839e-17 0
vn 1 -6.123234262925839e-17 0
vn 1 -6.123234262925839e-17 0
vn 1 -6.123234262925839e-17 0
vn 1 -6.123234262925839e-17 0
vn 1 -6.123234262925839e-17 0
vn 1 -6.123234262925839e-17 0
vn 1 -6.123234262925839e-17 0
vn 1 -6.123234262925839e-17 0
vn 1 -6.123234262925839e-17 0
vn 1 -6.123234262925839e-17 0
vn 1 -6.123234262925839e-17 0
vn 1 -6.123234262925839e-17 0
vn 1 -6.123234262925839e-17 0
vn 1 -6.123234262925839e-17 0
vn 1 -6.123234262925839e-17 0
vn 1 -6.123234262925839e-17 0
f 101/101/101 110/110/110 102/102/102
f 110/110/110 111/111/111 102/102/102
f 102/102/102 111/111/111 103/103/103
f 111/111/111 112/112/112 103/103/103
f 103/103/103 112/112/112 104/104/104
f 112/112/112 113/113/113 104/104/104
f 104/104/104 113/113/113 105/105/105
f 113/113/113 114/114/114 105/105/105
f 105/105/105 114/114/114 106/106/106
f 114/114/114 115/115/115 106/106/106
f 106/106/106 115/115/115 107/107/107
f 115/115/115 116/116/116 107/107/107
f 107/107/107 116/116/116 108/108/108
f 116/116/116 117/117/117 108/108/108
f 108/108/108 117/117/117 109/109/109
f 117/117/117 118/118/118 109/109/109
f 127/127/127 128/128/128 119/119/119
f 128/128/128 129/129/129 120/120/120
f 129/129/129 130/130/130 121/121/121
f 130/130/130 131/131/131 122/122/122
f 131/131/131 132/132/132 123/123/123
f 132/132/132 133/133/133 124/124/124
f 133/133/133 134/134/134 125/125/125
f 134/134/134 135/135/135 126/126/126
f 145/145/145 144/144/144 136/136/136
f 146/146/146 145/145/145 137/137/137
f 147/147/147 146/146/146 138/138/138
f 148/148/148 147/147/147 139/139/139
f 149/149/149 148/148/148 140/140/140
f 150/150/150 149/149/149 141/141/141
f 151/151/151 150/150/150 142/142/142
f 152/152/152 151/151/151 143/143/143
