o 
v 0 0.2639999985694885 0
v 0 0.2639999985694885 0
v 0 0.2639999985694885 0
v 0 0.2639999985694885 0
v 0 0.2639999985694885 0
v 0 0.2639999985694885 0
v 0 0.2639999985694885 0
v 0 0.2639999985694885 0
v 0 0.2639999985694885 0
v 0 0.2639999985694885 0
v 0 0.2639999985694885 0
v 0 0.2639999985694885 0
v 0 0.2639999985694885 0
v -0.07416407763957977 0.25107890367507935 0
v -0.06422797590494156 0.25107890367507935 0.03337383642792702
v -0.037082038819789886 0.25107890367507935 0.057805176824331284
v -4.541240174479904e-18 0.25107890367507935 0.06674767285585403
v 0.037082038819789886 0.25107890367507935 0.057805176824331284
v 0.06422797590494156 0.25107890367507935 0.03337383642792702
v 0.07416407763957977 0.25107890367507935 8.174231900473522e-18
v 0.06422797590494156 0.25107890367507935 -0.03337383642792702
v 0.037082038819789886 0.25107890367507935 -0.057805176824331284
v 1.3623720109849407e-17 0.25107890367507935 -0.06674767285585403
v -0.037082038819789886 0.25107890367507935 -0.057805176824331284
v -0.06422797590494156 0.25107890367507935 -0.03337383642792702
v -0.07416407763957977 0.25107890367507935 -1.6348463800947043e-17
v -0.1410684585571289 0.21358048915863037 0
v -0.12216886878013611 0.21358048915863037 0.06348080933094025
v -0.07053422927856445 0.21358048915863037 0.10995198041200638
v -8.637951833412587e-18 0.21358048915863037 0.1269616186618805
v 0.07053422927856445 0.21358048915863037 0.10995198041200638
v 0.12216886878013611 0.21358048915863037 0.06348080933094025
v 0.1410684585571289 0.21358048915863037 1.5548313796451023e-17
v 0.12216886878013611 0.21358048915863037 -0.06348080933094025
v 0.07053422927856445 0.21358048915863037 -0.10995198041200638
v 2.5913856327418372e-17 0.21358048915863037 -0.1269616186618805
v -0.07053422927856445 0.21358048915863037 -0.10995198041200638
v -0.12216886878013611 0.21358048915863037 -0.06348080933094025
v -0.1410684585571289 0.21358048915863037 -3.1096627592902047e-17
v -0.19416408240795135 0.15517529845237732 0
v -0.16815102100372314 0.15517529845237732 0.08737383782863617
v -0.09708204120397568 0.15517529845237732 0.1513359248638153
v -1.1889120710964483e-17 0.15517529845237732 0.17474767565727234
v 0.09708204120397568 0.15517529845237732 0.1513359248638153
v 0.16815102100372314 0.15517529845237732 0.08737383782863617
v 0.19416408240795135 0.15517529845237732 2.1400416452555456e-17
v 0.16815102100372314 0.15517529845237732 -0.08737383782863617
v 0.09708204120397568 0.15517529845237732 -0.1513359248638153
v 3.566736296007406e-17 0.15517529845237732 -0.17474767565727234
v -0.09708204120397568 0.15517529845237732 -0.1513359248638153
v -0.16815102100372314 0.15517529845237732 -0.08737383782863617
v -0.19416408240795135 0.15517529845237732 -4.280083290511091e-17
v -0.2282535582780838 0.08158048242330551 0
v -0.19767338037490845 0.08158048242330551 0.10271409898996353
v -0.1141267791390419 0.08158048242330551 0.17790603637695312
v -1.3976500233394085e-17 0.08158048242330551 0.20542819797992706
v 0.1141267791390419 0.08158048242330551 0.17790603637695312
v 0.19767338037490845 0.08158048242330551 0.10271409898996353
v 0.2282535582780838 0.08158048242330551 2.5157700750981598e-17
v 0.19767338037490845 0.08158048242330551 -0.10271409898996353
v 0.1141267791390419 0.08158048242330551 -0.17790603637695312
v 4.1929500700182255e-17 0.08158048242330551 -0.20542819797992706
v -0.1141267791390419 0.08158048242330551 -0.17790603637695312
v -0.19767338037490845 0.08158048242330551 -0.10271409898996353
v -0.2282535582780838 0.08158048242330551 -5.0315401501963196e-17
v -0.23999999463558197 1.616533759385638e-17 0
v -0.20784609019756317 1.616533759385638e-17 0.10799999535083771
v -0.11999999731779099 1.616533759385638e-17 0.18706148862838745
v -1.469576190014977e-17 1.616533759385638e-17 0.21599999070167542
v 0.11999999731779099 1.616533759385638e-17 0.18706148862838745
v 0.20784609019756317 1.616533759385638e-17 0.10799999535083771
v 0.23999999463558197 1.616533759385638e-17 2.6452370758525095e-17
v 0.20784609019756317 1.616533759385638e-17 -0.10799999535083771
v 0.11999999731779099 1.616533759385638e-17 -0.18706148862838745
v 4.408728404608808e-17 1.616533759385638e-17 -0.21599999070167542
v -0.11999999731779099 1.616533759385638e-17 -0.18706148862838745
v -0.20784609019756317 1.616533759385638e-17 -0.10799999535083771
v -0.23999999463558197 1.616533759385638e-17 -5.290474151705019e-17
v -0.2282535582780838 -0.08158048242330551 0
v -0.19767338037490845 -0.08158048242330551 0.10271409898996353
v -0.1141267791390419 -0.08158048242330551 0.17790603637695312
v -1.3976500233394085e-17 -0.08158048242330551 0.20542819797992706
v 0.1141267791390419 -0.08158048242330551 0.17790603637695312
v 0.19767338037490845 -0.08158048242330551 0.10271409898996353
v 0.2282535582780838 -0.08158048242330551 2.5157700750981598e-17
v 0.19767338037490845 -0.08158048242330551 -0.10271409898996353
v 0.1141267791390419 -0.08158048242330551 -0.17790603637695312
v 4.1929500700182255e-17 -0.08158048242330551 -0.20542819797992706
v -0.1141267791390419 -0.08158048242330551 -0.17790603637695312
v -0.19767338037490845 -0.08158048242330551 -0.10271409898996353
v -0.2282535582780838 -0.08158048242330551 -5.0315401501963196e-17
v -0.19416408240795135 -0.15517529845237732 0
v -0.16815102100372314 -0.15517529845237732 0.08737383782863617
v -0.09708204120397568 -0.15517529845237732 0.1513359248638153
v -1.1889120710964483e-17 -0.15517529845237732 0.17474767565727234
v 0.09708204120397568 -0.15517529845237732 0.1513359248638153
v 0.16815102100372314 -0.15517529845237732 0.08737383782863617
v 0.19416408240795135 -0.15517529845237732 2.1400416452555456e-17
v 0.16815102100372314 -0.15517529845237732 -0.08737383782863617
v 0.09708204120397568 -0.15517529845237732 -0.1513359248638153
v 3.566736296007406e-17 -0.15517529845237732 -0.17474767565727234
v -0.09708204120397568 -0.15517529845237732 -0.1513359248638153
v -0.16815102100372314 -0.15517529845237732 -0.08737383782863617
v -0.19416408240795135 -0.15517529845237732 -4.280083290511091e-17
v -0.1410684585571289 -0.21358048915863037 0
v -0.12216886878013611 -0.21358048915863037 0.06348080933094025
v -0.07053422927856445 -0.21358048915863037 0.10995198041200638
v -8.637951833412587e-18 -0.21358048915863037 0.1269616186618805
v 0.07053422927856445 -0.21358048915863037 0.10995198041200638
v 0.12216886878013611 -0.21358048915863037 0.06348080933094025
v 0.1410684585571289 -0.21358048915863037 1.5548313796451023e-17
v 0.12216886878013611 -0.21358048915863037 -0.06348080933094025
v 0.07053422927856445 -0.21358048915863037 -0.10995198041200638
v 2.5913856327418372e-17 -0.21358048915863037 -0.1269616186618805
v -0.07053422927856445 -0.21358048915863037 -0.10995198041200638
v -0.12216886878013611 -0.21358048915863037 -0.06348080933094025
v -0.1410684585571289 -0.21358048915863037 -3.1096627592902047e-17
v -0.07416407763957977 -0.25107890367507935 0
v -0.06422797590494156 -0.25107890367507935 0.03337383642792702
v -0.037082038819789886 -0.25107890367507935 0.057805176824331284
v -4.541240174479904e-18 -0.25107890367507935 0.06674767285585403
v 0.037082038819789886 -0.25107890367507935 0.057805176824331284
v 0.06422797590494156 -0.25107890367507935 0.03337383642792702
v 0.07416407763957977 -0.25107890367507935 8.174231900473522e-18
v 0.06422797590494156 -0.25107890367507935 -0.03337383642792702
v 0.037082038819789886 -0.25107890367507935 -0.057805176824331284
v 1.3623720109849407e-17 -0.25107890367507935 -0.06674767285585403
v -0.037082038819789886 -0.25107890367507935 -0.057805176824331284
v -0.06422797590494156 -0.25107890367507935 -0.03337383642792702
v -0.07416407763957977 -0.25107890367507935 -1.6348463800947043e-17
v -2.939152380029954e-17 -0.2639999985694885 0
v -2.545380494049598e-17 -0.2639999985694885 1.3226185379262547e-17
v -1.469576190014977e-17 -0.2639999985694885 2.2908424611882505e-17
v -1.7997117894806697e-33 -0.2639999985694885 2.6452370758525095e-17
v 1.469576190014977e-17 -0.2639999985694885 2.2908424611882505e-17
v 2.545380494049598e-17 -0.2639999985694885 1.3226185379262547e-17
v 2.939152380029954e-17 -0.2639999985694885 3.239481331267801e-33
v 2.545380494049598e-17 -0.2639999985694885 -1.3226185379262547e-17
v 1.469576190014977e-17 -0.2639999985694885 -2.2908424611882505e-17
v 5.399135184771017e-33 -0.2639999985694885 -2.6452370758525095e-17
v -1.469576190014977e-17 -0.2639999985694885 -2.2908424611882505e-17
v -2.545380494049598e-17 -0.2639999985694885 -1.3226185379262547e-17
v -2.939152380029954e-17 -0.2639999985694885 -6.478962662535602e-33
vt 0.0416666679084301 1
vt 0.125 1
vt 0.2083333283662796 1
vt 0.2916666567325592 1
vt 0.375 1
vt 0.4583333432674408 1
vt 0.5416666865348816 1
vt 0.625 1
vt 0.7083333134651184 1
vt 0.7916666865348816 1
vt 0.875 1
vt 0.9583333134651184 1
vt 1.0416666269302368 1
vt 0 0.8999999761581421
vt 0.0833333358168602 0.8999999761581421
vt 0.1666666716337204 0.8999999761581421
vt 0.25 0.8999999761581421
vt 0.3333333432674408 0.8999999761581421
vt 0.4166666567325592 0.8999999761581421
vt 0.5 0.8999999761581421
vt 0.5833333134651184 0.8999999761581421
vt 0.6666666865348816 0.8999999761581421
vt 0.75 0.8999999761581421
vt 0.8333333134651184 0.8999999761581421
vt 0.9166666865348816 0.8999999761581421
vt 1 0.8999999761581421
vt 0 0.800000011920929
vt 0.0833333358168602 0.800000011920929
vt 0.1666666716337204 0.800000011920929
vt 0.25 0.800000011920929
vt 0.3333333432674408 0.800000011920929
vt 0.4166666567325592 0.800000011920929
vt 0.5 0.800000011920929
vt 0.5833333134651184 0.800000011920929
vt 0.6666666865348816 0.800000011920929
vt 0.75 0.800000011920929
vt 0.8333333134651184 0.800000011920929
vt 0.9166666865348816 0.800000011920929
vt 1 0.800000011920929
vt 0 0.699999988079071
vt 0.0833333358168602 0.699999988079071
vt 0.1666666716337204 0.699999988079071
vt 0.25 0.699999988079071
vt 0.3333333432674408 0.699999988079071
vt 0.4166666567325592 0.699999988079071
vt 0.5 0.699999988079071
vt 0.5833333134651184 0.699999988079071
vt 0.6666666865348816 0.699999988079071
vt 0.75 0.699999988079071
vt 0.8333333134651184 0.699999988079071
vt 0.9166666865348816 0.699999988079071
vt 1 0.699999988079071
vt 0 0.6000000238418579
vt 0.0833333358168602 0.6000000238418579
vt 0.1666666716337204 0.6000000238418579
vt 0.25 0.6000000238418579
vt 0.3333333432674408 0.6000000238418579
vt 0.4166666567325592 0.6000000238418579
vt 0.5 0.6000000238418579
vt 0.5833333134651184 0.6000000238418579
vt 0.6666666865348816 0.6000000238418579
vt 0.75 0.6000000238418579
vt 0.8333333134651184 0.6000000238418579
vt 0.9166666865348816 0.6000000238418579
vt 1 0.6000000238418579
vt 0 0.5
vt 0.0833333358168602 0.5
vt 0.1666666716337204 0.5
vt 0.25 0.5
vt 0.3333333432674408 0.5
vt 0.4166666567325592 0.5
vt 0.5 0.5
vt 0.5833333134651184 0.5
vt 0.6666666865348816 0.5
vt 0.75 0.5
vt 0.8333333134651184 0.5
vt 0.9166666865348816 0.5
vt 1 0.5
vt 0 0.4000000059604645
vt 0.0833333358168602 0.4000000059604645
vt 0.1666666716337204 0.4000000059604645
vt 0.25 0.4000000059604645
vt 0.3333333432674408 0.4000000059604645
vt 0.4166666567325592 0.4000000059604645
vt 0.5 0.4000000059604645
vt 0.5833333134651184 0.4000000059604645
vt 0.6666666865348816 0.4000000059604645
vt 0.75 0.4000000059604645
vt 0.8333333134651184 0.4000000059604645
vt 0.9166666865348816 0.4000000059604645
vt 1 0.4000000059604645
vt 0 0.30000001192092896
vt 0.0833333358168602 0.30000001192092896
vt 0.1666666716337204 0.30000001192092896
vt 0.25 0.30000001192092896
vt 0.3333333432674408 0.30000001192092896
vt 0.4166666567325592 0.30000001192092896
vt 0.5 0.30000001192092896
vt 0.5833333134651184 0.30000001192092896
vt 0.6666666865348816 0.30000001192092896
vt 0.75 0.30000001192092896
vt 0.8333333134651184 0.30000001192092896
vt 0.9166666865348816 0.30000001192092896
vt 1 0.30000001192092896
vt 0 0.20000000298023224
vt 0.0833333358168602 0.20000000298023224
vt 0.1666666716337204 0.20000000298023224
vt 0.25 0.20000000298023224
vt 0.3333333432674408 0.20000000298023224
vt 0.4166666567325592 0.20000000298023224
vt 0.5 0.20000000298023224
vt 0.5833333134651184 0.20000000298023224
vt 0.6666666865348816 0.20000000298023224
vt 0.75 0.20000000298023224
vt 0.8333333134651184 0.20000000298023224
vt 0.9166666865348816 0.20000000298023224
vt 1 0.20000000298023224
vt 0 0.10000000149011612
vt 0.0833333358168602 0.10000000149011612
vt 0.1666666716337204 0.10000000149011612
vt 0.25 0.10000000149011612
vt 0.3333333432674408 0.10000000149011612
vt 0.4166666567325592 0.10000000149011612
vt 0.5 0.10000000149011612
vt 0.5833333134651184 0.10000000149011612
vt 0.6666666865348816 0.10000000149011612
vt 0.75 0.10000000149011612
vt 0.8333333134651184 0.10000000149011612
vt 0.9166666865348816 0.10000000149011612
vt 1 0.10000000149011612
vt -0.0416666679084301 0
vt 0.0416666679084301 0
vt 0.125 0
vt 0.2083333283662796 0
vt 0.2916666567325592 0
vt 0.375 0
vt 0.4583333432674408 0
vt 0.5416666865348816 0
vt 0.625 0
vt 0.7083333134651184 0
vt 0.7916666865348816 0
vt 0.875 0
vt 0.9583333134651184 0
vn 0 1 0
vn 0 1 0
vn 0 1 0
vn 0 1 0
vn 0 1 0
vn 0 1 0
vn 0 1 0
vn 0 1 0
vn 0 1 0
vn 0 1 0
vn 0 1 0
vn 0 1 0
vn 0 1 0
vn -0.33656087363716175 0.94166171119813 0
vn -0.29050701352665004 0.9385496811179359 0.1863603261567434
vn -0.16662837256111976 0.9324170774258348 0.3206764400175002
vn -2.0339962848943588e-17 0.9293955066001344 0.36908534556587225
vn 0.16662837256111976 0.9324170774258348 0.3206764400175002
vn 0.29050701352665004 0.9385496811179359 0.1863603261567434
vn 0.33656087363716175 0.94166171119813 4.579646728389086e-17
vn 0.29050701352665004 0.9385496811179359 -0.1863603261567434
vn 0.16662837256111976 0.9324170774258348 -0.3206764400175002
vn 6.101989020119201e-17 0.9293955066001344 -0.36908534556587225
vn -0.16662837256111976 0.9324170774258348 -0.3206764400175002
vn -0.29050701352665004 0.9385496811179359 -0.1863603261567434
vn -0.33656087363716175 0.94166171119813 -9.159293456778172e-17
vn -0.6243123616156199 0.7811748044669179 0
vn -0.5345953716907414 0.772397460573294 0.3429430732158981
vn -0.3019746249187228 0.7556953443272739 0.5811504731713462
vn -3.659194798450733e-17 0.7477406045042516 0.663990955040516
vn 0.3019746249187228 0.7556953443272739 0.5811504731713462
vn 0.5345953716907414 0.772397460573294 0.3429430732158981
vn 0.6243123616156199 0.7811748044669179 8.495135242371435e-17
vn 0.5345953716907414 0.772397460573294 -0.3429430732158981
vn 0.3019746249187228 0.7556953443272739 -0.5811504731713462
vn 1.09775843953522e-16 0.7477406045042516 -0.663990955040516
vn -0.3019746249187228 0.7556953443272739 -0.5811504731713462
vn -0.5345953716907414 0.772397460573294 -0.3429430732158981
vn -0.6243123616156199 0.7811748044669179 -1.699027048474287e-16
vn -0.8344201434332131 0.5511288635454471 0
vn -0.7083135379303994 0.5402107935544692 0.45438335193069246
vn -0.3937890224368031 0.5201899399728452 0.7578473673236021
vn -4.737139009802643e-17 0.5109796577631273 0.8595928043860517
vn 0.3937890224368031 0.5201899399728452 0.7578473673236021
vn 0.7083135379303994 0.5402107935544692 0.45438335193069246
vn 0.8344201434332131 0.5511288635454471 1.1354111359680848e-16
vn 0.7083135379303994 0.5402107935544692 -0.45438335193069246
vn 0.3937890224368031 0.5201899399728452 -0.7578473673236021
vn 1.4211417029407928e-16 0.5109796577631273 -0.8595928043860517
vn -0.3937890224368031 0.5201899399728452 -0.7578473673236021
vn -0.7083135379303994 0.5402107935544692 -0.45438335193069246
vn -0.8344201434332131 0.5511288635454471 -2.2708222719361695e-16
vn -0.9590367302845296 0.28328175014490076 0
vn -0.8090190252339082 0.2759379731205323 0.5189859842035325
vn -0.4448750525992988 0.26281573841947814 0.8561624117034079
vn -5.325924096703059e-17 0.25691973978752786 0.9664327432923145
vn 0.4448750525992988 0.26281573841947814 0.8561624117034079
vn 0.8090190252339082 0.2759379731205323 0.5189859842035325
vn 0.9590367302845296 0.28328175014490076 1.3049790907448993e-16
vn 0.8090190252339082 0.2759379731205323 -0.5189859842035325
vn 0.4448750525992988 0.26281573841947814 -0.8561624117034079
vn 1.5977772951853664e-16 0.25691973978752786 -0.9664327432923145
vn -0.4448750525992988 0.26281573841947814 -0.8561624117034079
vn -0.8090190252339082 0.2759379731205323 -0.5189859842035325
vn -0.9590367302845296 0.28328175014490076 -2.6099581814897986e-16
vn -1 5.566576783135624e-17 0
vn -0.8416975797854622 5.410203952521853e-17 0.5399492422286518
vn -0.46108397191254397 5.133318365610648e-17 0.8873565071860082
vn -5.5109108366332553e-17 5.0099189724731635e-17 1
vn 0.46108397191254397 5.133318365610648e-17 0.8873565071860082
vn 0.8416975797854622 5.410203952521853e-17 0.5399492422286518
vn 1 5.566576783135624e-17 1.360718725094631e-16
vn 0.8416975797854622 5.410203952521853e-17 -0.5399492422286518
vn 0.46108397191254397 5.133318365610648e-17 -0.8873565071860082
vn 1.6532731848155276e-16 5.0099189724731635e-17 -1
vn -0.46108397191254397 5.133318365610648e-17 -0.8873565071860082
vn -0.8416975797854622 5.410203952521853e-17 -0.5399492422286518
vn -1 5.566576783135624e-17 -2.721437450189262e-16
vn -0.9590367302845296 -0.28328175014490076 0
vn -0.8090190252339082 -0.2759379731205323 0.5189859842035325
vn -0.4448750525992988 -0.26281573841947814 0.8561624117034079
vn -5.325924096703059e-17 -0.25691973978752786 0.9664327432923145
vn 0.4448750525992988 -0.26281573841947814 0.8561624117034079
vn 0.8090190252339082 -0.2759379731205323 0.5189859842035325
vn 0.9590367302845296 -0.28328175014490076 1.3049790907448993e-16
vn 0.8090190252339082 -0.2759379731205323 -0.5189859842035325
vn 0.4448750525992988 -0.26281573841947814 -0.8561624117034079
vn 1.5977772951853664e-16 -0.25691973978752786 -0.9664327432923145
vn -0.4448750525992988 -0.26281573841947814 -0.8561624117034079
vn -0.8090190252339082 -0.2759379731205323 -0.5189859842035325
vn -0.9590367302845296 -0.28328175014490076 -2.6099581814897986e-16
vn -0.8344201434332131 -0.5511288635454471 0
vn -0.7083135379303994 -0.5402107935544692 0.45438335193069246
vn -0.3937890224368031 -0.5201899399728452 0.7578473673236021
vn -4.737139009802643e-17 -0.5109796577631273 0.8595928043860517
vn 0.3937890224368031 -0.5201899399728452 0.7578473673236021
vn 0.7083135379303994 -0.5402107935544692 0.45438335193069246
vn 0.8344201434332131 -0.5511288635454471 1.1354111359680848e-16
vn 0.7083135379303994 -0.5402107935544692 -0.45438335193069246
vn 0.3937890224368031 -0.5201899399728452 -0.7578473673236021
vn 1.4211417029407928e-16 -0.5109796577631273 -0.8595928043860517
vn -0.3937890224368031 -0.5201899399728452 -0.7578473673236021
vn -0.7083135379303994 -0.5402107935544692 -0.45438335193069246
vn -0.8344201434332131 -0.5511288635454471 -2.2708222719361695e-16
vn -0.6243123616156199 -0.7811748044669179 0
vn -0.5345953716907414 -0.772397460573294 0.3429430732158981
vn -0.3019746249187228 -0.7556953443272739 0.5811504731713462
vn -3.659194798450733e-17 -0.7477406045042516 0.663990955040516
vn 0.3019746249187228 -0.7556953443272739 0.5811504731713462
vn 0.5345953716907414 -0.772397460573294 0.3429430732158981
vn 0.6243123616156199 -0.7811748044669179 8.495135242371435e-17
vn 0.5345953716907414 -0.772397460573294 -0.3429430732158981
vn 0.3019746249187228 -0.7556953443272739 -0.5811504731713462
vn 1.09775843953522e-16 -0.7477406045042516 -0.663990955040516
vn -0.3019746249187228 -0.7556953443272739 -0.5811504731713462
vn -0.5345953716907414 -0.772397460573294 -0.3429430732158981
vn -0.6243123616156199 -0.7811748044669179 -1.699027048474287e-16
vn -0.33656087363716175 -0.94166171119813 0
vn -0.29050701352665004 -0.9385496811179359 0.1863603261567434
vn -0.16662837256111976 -0.9324170774258348 0.3206764400175002
vn -2.0339962848943588e-17 -0.9293955066001344 0.36908534556587225
vn 0.16662837256111976 -0.9324170774258348 0.3206764400175002
vn 0.29050701352665004 -0.9385496811179359 0.1863603261567434
vn 0.33656087363716175 -0.94166171119813 4.579646728389086e-17
vn 0.29050701352665004 -0.9385496811179359 -0.1863603261567434
vn 0.16662837256111976 -0.9324170774258348 -0.3206764400175002
vn 6.101989020119201e-17 -0.9293955066001344 -0.36908534556587225
vn -0.16662837256111976 -0.9324170774258348 -0.3206764400175002
vn -0.29050701352665004 -0.9385496811179359 -0.1863603261567434
vn -0.33656087363716175 -0.94166171119813 -9.159293456778172e-17
vn -1.3471115378436846e-16 -1 0
vn -1.1666327719343328e-16 -1 7.48395298802047e-17
vn -6.735557689218423e-17 -1 1.2962585913662926e-16
vn -8.248678958590156e-33 -1 1.496790597604094e-16
vn 6.735557689218423e-17 -1 1.2962585913662926e-16
vn 1.1666327719343328e-16 -1 7.48395298802047e-17
vn 1.3471115378436846e-16 -1 1.8330397359229693e-32
vn 1.1666327719343328e-16 -1 -7.48395298802047e-17
vn 6.735557689218423e-17 -1 -1.2962585913662926e-16
vn 2.474603687577047e-32 -1 -1.496790597604094e-16
vn -6.735557689218423e-17 -1 -1.2962585913662926e-16
vn -1.1666327719343328e-16 -1 -7.48395298802047e-17
vn -1.3471115378436846e-16 -1 -3.6660794718459387e-32
f 1/1/1 14/14/14 15/15/15
f 2/2/2 15/15/15 16/16/16
f 3/3/3 16/16/16 17/17/17
f 4/4/4 17/17/17 18/18/18
f 5/5/5 18/18/18 19/19/19
f 6/6/6 19/19/19 20/20/20
f 7/7/7 20/20/20 21/21/21
f 8/8/8 21/21/21 22/22/22
f 9/9/9 22/22/22 23/23/23
f 10/10/10 23/23/23 24/24/24
f 11/11/11 24/24/24 25/25/25
f 12/12/12 25/25/25 26/26/26
f 15/15/15 14/14/14 28/28/28
f 14/14/14 27/27/27 28/28/28
f 16/16/16 15/15/15 29/29/29
f 15/15/15 28/28/28 29/29/29
f 17/17/17 16/16/16 30/30/30
f 16/16/16 29/29/29 30/30/30
f 18/18/18 17/17/17 31/31/31
f 17/17/17 30/30/30 31/31/31
f 19/19/19 18/18/18 32/32/32
f 18/18/18 31/31/31 32/32/32
f 20/20/20 19/19/19 33/33/33
f 19/19/19 32/32/32 33/33/33
f 21/21/21 20/20/20 34/34/34
f 20/20/20 33/33/33 34/34/34
f 22/22/22 21/21/21 35/35/35
f 21/21/21 34/34/34 35/35/35
f 23/23/23 22/22/22 36/36/36
f 22/22/22 35/35/35 36/36/36
f 24/24/24 23/23/23 37/37/37
f 23/23/23 36/36/36 37/37/37
f 25/25/25 24/24/24 38/38/38
f 24/24/24 37/37/37 38/38/38
f 26/26/26 25/25/25 39/39/39
f 25/25/25 38/38/38 39/39/39
f 28/28/28 27/27/27 41/41/41
f 27/27/27 40/40/40 41/41/41
f 29/29/29 28/28/28 42/42/42
f 28/28/28 41/41/41 42/42/42
f 30/30/30 29/29/29 43/43/43
f 29/29/29 42/42/42 43/43/43
f 31/31/31 30/30/30 44/44/44
f 30/30/30 43/43/43 44/44/44
f 32/32/32 31/31/31 45/45/45
f 31/31/31 44/44/44 45/45/45
f 33/33/33 32/32/32 46/46/46
f 32/32/32 45/45/45 46/46/46
f 34/34/34 33/33/33 47/47/47
f 33/33/33 46/46/46 47/47/47
f 35/35/35 34/34/34 48/48/48
f 34/34/34 47/47/47 48/48/48
f 36/36/36 35/35/35 49/49/49
f 35/35/35 48/48/48 49/49/49
f 37/37/37 36/36/36 50/50/50
f 36/36/36 49/49/49 50/50/50
f 38/38/38 37/37/37 51/51/51
f 37/37/37 50/50/50 51/51/51
f 39/39/39 38/38/38 52/52/52
f 38/38/38 51/51/51 52/52/52
f 41/41/41 40/40/40 54/54/54
f 40/40/40 53/53/53 54/54/54
f 42/42/42 41/41/41 55/55/55
f 41/41/41 54/54/54 55/55/55
f 43/43/43 42/42/42 56/56/56
f 42/42/42 55/55/55 56/56/56
f 44/44/44 43/43/43 57/57/57
f 43/43/43 56/56/56 57/57/57
f 45/45/45 44/44/44 58/58/58
f 44/44/44 57/57/57 58/58/58
f 46/46/46 45/45/45 59/59/59
f 45/45/45 58/58/58 59/59/59
f 47/47/47 46/46/46 60/60/60
f 46/46/46 59/59/59 60/60/60
f 48/48/48 47/47/47 61/61/61
f 47/47/47 60/60/60 61/61/61
f 49/49/49 48/48/48 62/62/62
f 48/48/48 61/61/61 62/62/62
f 50/50/50 49/49/49 63/63/63
f 49/49/49 62/62/62 63/63/63
f 51/51/51 50/50/50 64/64/64
f 50/50/50 63/63/63 64/64/64
f 52/52/52 51/51/51 65/65/65
f 51/51/51 64/64/64 65/65/65
f 54/54/54 53/53/53 67/67/67
f 53/53/53 66/66/66 67/67/67
f 55/55/55 54/54/54 68/68/68
f 54/54/54 67/67/67 68/68/68
f 56/56/56 55/55/55 69/69/69
f 55/55/55 68/68/68 69/69/69
f 57/57/57 56/56/56 70/70/70
f 56/56/56 69/69/69 70/70/70
f 58/58/58 57/57/57 71/71/71
f 57/57/57 70/70/70 71/71/71
f 59/59/59 58/58/58 72/72/72
f 58/58/58 71/71/71 72/72/72
f 60/60/60 59/59/59 73/73/73
f 59/59/59 72/72/72 73/73/73
f 61/61/61 60/60/60 74/74/74
f 60/60/60 73/73/73 74/74/74
f 62/62/62 61/61/61 75/75/75
f 61/61/61 74/74/74 75/75/75
f 63/63/63 62/62/62 76/76/76
f 62/62/62 75/75/75 76/76/76
f 64/64/64 63/63/63 77/77/77
f 63/63/63 76/76/76 77/77/77
f 65/65/65 64/64/64 78/78/78
f 64/64/64 77/77/77 78/78/78
f 67/67/67 66/66/66 80/80/80
f 66/66/66 79/79/79 80/80/80
f 68/68/68 67/67/67 81/81/81
f 67/67/67 80/80/80 81/81/81
f 69/69/69 68/68/68 82/82/82
f 68/68/68 81/81/81 82/82/82
f 70/70/70 69/69/69 83/83/83
f 69/69/69 82/82/82 83/83/83
f 71/71/71 70/70/70 84/84/84
f 70/70/70 83/83/83 84/84/84
f 72/72/72 71/71/71 85/85/85
f 71/71/71 84/84/84 85/85/85
f 73/73/73 72/72/72 86/86/86
f 72/72/72 85/85/85 86/86/86
f 74/74/74 73/73/73 87/87/87
f 73/73/73 86/86/86 87/87/87
f 75/75/75 74/74/74 88/88/88
f 74/74/74 87/87/87 88/88/88
f 76/76/76 75/75/75 89/89/89
f 75/75/75 88/88/88 89/89/89
f 77/77/77 76/76/76 90/90/90
f 76/76/76 89/89/89 90/90/90
f 78/78/78 77/77/77 91/91/91
f 77/77/77 90/90/90 91/91/91
f 80/80/80 79/79/79 93/93/93
f 79/79/79 92/92/92 93/93/93
f 81/81/81 80/80/80 94/94/94
f 80/80/80 93/93/93 94/94/94
f 82/82/82 81/81/81 95/95/95
f 81/81/81 94/94/94 95/95/95
f 83/83/83 82/82/82 96/96/96
f 82/82/82 95/95/95 96/96/96
f 84/84/84 83/83/83 97/97/97
f 83/83/83 96/96/96 97/97/97
f 85/85/85 84/84/84 98/98/98
f 84/84/84 97/97/97 98/98/98
f 86/86/86 85/85/85 99/99/99
f 85/85/85 98/98/98 99/99/99
f 87/87/87 86/86/86 100/100/100
f 86/86/86 99/99/99 100/100/100
f 88/88/88 87/87/87 101/101/101
f 87/87/87 100/100/100 101/101/101
f 89/89/89 88/88/88 102/102/102
f 88/88/88 101/101/101 102/102/102
f 90/90/90 89/89/89 103/103/103
f 89/89/89 102/102/102 103/103/103
f 91/91/91 90/90/90 104/104/104
f 90/90/90 103/103/103 104/104/104
f 93/93/93 92/92/92 106/106/106
f 92/92/92 105/105/105 106/106/106
f 94/94/94 93/93/93 107/107/107
f 93/93/93 106/106/106 107/107/107
f 95/95/95 94/94/94 108/108/108
f 94/94/94 107/107/107 108/108/108
f 96/96/96 95/95/95 109/109/109
f 95/95/95 108/108/108 109/109/109
f 97/97/97 96/96/96 110/110/110
f 96/96/96 109/109/109 110/110/110
f 98/98/98 97/97/97 111/111/111
f 97/97/97 110/110/110 111/111/111
f 99/99/99 98/98/98 112/112/112
f 98/98/98 111/111/111 112/112/112
f 100/100/100 99/99/99 113/113/113
f 99/99/99 112/112/112 113/113/113
f 101/101/101 100/100/100 114/114/114
f 100/100/100 113/113/113 114/114/114
f 102/102/102 101/101/101 115/115/115
f 101/101/101 114/114/114 115/115/115
f 103/103/103 102/102/102 116/116/116
f 102/102/102 115/115/115 116/116/116
f 104/104/104 103/103/103 117/117/117
f 103/103/103 116/116/116 117/117/117
f 106/106/106 105/105/105 119/119/119
f 105/105/105 118/118/118 119/119/119
f 107/107/107 106/106/106 120/120/120
f 106/106/106 119/119/119 120/120/120
f 108/108/108 107/107/107 121/121/121
f 107/107/107 120/120/120 121/121/121
f 109/109/109 108/108/108 122/122/122
f 108/108/108 121/121/121 122/122/122
f 110/110/110 109/109/109 123/123/123
f 109/109/109 122/122/122 123/123/123
f 111/111/111 110/110/110 124/124/124
f 110/110/110 123/123/123 124/124/124
f 112/112/112 111/111/111 125/125/125
f 111/111/111 124/124/124 125/125/125
f 113/113/113 112/112/112 126/126/126
f 112/112/112 125/125/125 126/126/126
f 114/114/114 113/113/113 127/127/127
f 113/113/113 126/126/126 127/127/127
f 115/115/115 114/114/114 128/128/128
f 114/114/114 127/127/127 128/128/128
f 116/116/116 115/115/115 129/129/129
f 115/115/115 128/128/128 129/129/129
f 117/117/117 116/116/116 130/130/130
f 116/116/116 129/129/129 130/130/130
f 119/119/119 118/118/118 132/132/132
f 120/120/120 119/119/119 133/133/133
f 121/121/121 120/120/120 134/134/134
f 122/122/122 121/121/121 135/135/135
f 123/123/123 122/122/122 136/136/136
f 124/124/124 123/123/123 137/137/137
f 125/125/125 124/124/124 138/138/138
f 126/126/126 125/125/125 139/139/139
f 127/127/127 126/126/126 140/140/140
f 128/128/128 127/127/127 141/141/141
f 129/129/129 128/128/128 142/142/142
f 130/130/130 129/129/129 143/143/143
o 
v 0 0.12799999117851257 0
v 0 0.12799999117851257 0
v 0 0.12799999117851257 0
v 0 0.12799999117851257 0
v 0 0.12799999117851257 0
v 0 0.12799999117851257 0
v 0 0.12799999117851257 0
v 0 0.12799999117851257 0
v 0 0.12799999117851257 0
v -0.0673522800207138 0.1182565838098526 0
v -0.047625258564949036 0.1182565838098526 0.043295688927173615
v -4.124138072912797e-18 0.1182565838098526 0.06122934818267822
v 0.047625258564949036 0.1182565838098526 0.043295688927173615
v 0.0673522800207138 0.1182565838098526 7.498432784643211e-18
v 0.047625258564949036 0.1182565838098526 -0.043295688927173615
v 1.2372413391557777e-17 0.1182565838098526 -0.06122934818267822
v -0.047625258564949036 0.1182565838098526 -0.043295688927173615
v -0.0673522800207138 0.1182565838098526 -1.4996865569286422e-17
v -0.12445078790187836 0.09050966799259186 0
v -0.08799999952316284 0.09050966799259186 0.07999999821186066
v -7.620412973673343e-18 0.09050966799259186 0.11313708126544952
v 0.08799999952316284 0.09050966799259186 0.07999999821186066
v 0.12445078790187836 0.09050966799259186 1.385529676695914e-17
v 0.08799999952316284 0.09050966799259186 -0.07999999821186066
v 2.2861240575381255e-17 0.09050966799259186 -0.11313708126544952
v -0.08799999952316284 0.09050966799259186 -0.07999999821186066
v -0.12445078790187836 0.09050966799259186 -2.771059353391828e-17
v -0.16260279715061188 0.04898347705602646 0
v -0.11497753858566284 0.04898347705602646 0.10452503710985184
v -9.956549694535405e-18 0.04898347705602646 0.14782072603702545
v 0.11497753858566284 0.04898347705602646 0.10452503710985184
v 0.16260279715061188 0.04898347705602646 1.810281792722096e-17
v 0.11497753858566284 0.04898347705602646 -0.10452503710985184
v 2.986965073796744e-17 0.04898347705602646 -0.14782072603702545
v -0.11497753858566284 0.04898347705602646 -0.10452503710985184
v -0.16260279715061188 0.04898347705602646 -3.620563585444192e-17
v -0.17599999904632568 7.837739790370625e-18 0
v -0.12445078790187836 7.837739790370625e-18 0.11313708126544952
v -1.0776892004964457e-17 7.837739790370625e-18 0.1599999964237213
v 0.12445078790187836 7.837739790370625e-18 0.11313708126544952
v 0.17599999904632568 7.837739790370625e-18 1.959434864874595e-17
v 0.12445078790187836 7.837739790370625e-18 -0.11313708126544952
v 3.233067518771276e-17 7.837739790370625e-18 -0.1599999964237213
v -0.12445078790187836 7.837739790370625e-18 -0.11313708126544952
v -0.17599999904632568 7.837739790370625e-18 -3.91886972974919e-17
v -0.16260279715061188 -0.04898347705602646 0
v -0.11497753858566284 -0.04898347705602646 0.10452503710985184
v -9.956549694535405e-18 -0.04898347705602646 0.14782072603702545
v 0.11497753858566284 -0.04898347705602646 0.10452503710985184
v 0.16260279715061188 -0.04898347705602646 1.810281792722096e-17
v 0.11497753858566284 -0.04898347705602646 -0.10452503710985184
v 2.986965073796744e-17 -0.04898347705602646 -0.14782072603702545
v -0.11497753858566284 -0.04898347705602646 -0.10452503710985184
v -0.16260279715061188 -0.04898347705602646 -3.620563585444192e-17
v -0.12445078790187836 -0.09050966799259186 0
v -0.08799999952316284 -0.09050966799259186 0.07999999821186066
v -7.620412973673343e-18 -0.09050966799259186 0.11313708126544952
v 0.08799999952316284 -0.09050966799259186 0.07999999821186066
v 0.12445078790187836 -0.09050966799259186 1.385529676695914e-17
v 0.08799999952316284 -0.09050966799259186 -0.07999999821186066
v 2.2861240575381255e-17 -0.09050966799259186 -0.11313708126544952
v -0.08799999952316284 -0.09050966799259186 -0.07999999821186066
v -0.12445078790187836 -0.09050966799259186 -2.771059353391828e-17
v -0.0673522800207138 -0.1182565838098526 0
v -0.047625258564949036 -0.1182565838098526 0.043295688927173615
v -4.124138072912797e-18 -0.1182565838098526 0.06122934818267822
v 0.047625258564949036 -0.1182565838098526 0.043295688927173615
v 0.0673522800207138 -0.1182565838098526 7.498432784643211e-18
v 0.047625258564949036 -0.1182565838098526 -0.043295688927173615
v 1.2372413391557777e-17 -0.1182565838098526 -0.06122934818267822
v -0.047625258564949036 -0.1182565838098526 -0.043295688927173615
v -0.0673522800207138 -0.1182565838098526 -1.4996865569286422e-17
v -2.1553784009928913e-17 -0.12799999117851257 0
v -1.5240825947346686e-17 -0.12799999117851257 1.385529676695914e-17
v -1.3197885782731272e-33 -0.12799999117851257 1.959434864874595e-17
v 1.5240825947346686e-17 -0.12799999117851257 1.385529676695914e-17
v 2.1553784009928913e-17 -0.12799999117851257 2.3996155968602314e-33
v 1.5240825947346686e-17 -0.12799999117851257 -1.385529676695914e-17
v 3.959365826654878e-33 -0.12799999117851257 -1.959434864874595e-17
v -1.5240825947346686e-17 -0.12799999117851257 -1.385529676695914e-17
v -2.1553784009928913e-17 -0.12799999117851257 -4.799231193720463e-33
vt 0.0625 1
vt 0.1875 1
vt 0.3125 1
vt 0.4375 1
vt 0.5625 1
vt 0.6875 1
vt 0.8125 1
vt 0.9375 1
vt 1.0625 1
vt 0 0.875
vt 0.125 0.875
vt 0.25 0.875
vt 0.375 0.875
vt 0.5 0.875
vt 0.625 0.875
vt 0.75 0.875
vt 0.875 0.875
vt 1 0.875
vt 0 0.75
vt 0.125 0.75
vt 0.25 0.75
vt 0.375 0.75
vt 0.5 0.75
vt 0.625 0.75
vt 0.75 0.75
vt 0.875 0.75
vt 1 0.75
vt 0 0.625
vt 0.125 0.625
vt 0.25 0.625
vt 0.375 0.625
vt 0.5 0.625
vt 0.625 0.625
vt 0.75 0.625
vt 0.875 0.625
vt 1 0.625
vt 0 0.5
vt 0.125 0.5
vt 0.25 0.5
vt 0.375 0.5
vt 0.5 0.5
vt 0.625 0.5
vt 0.75 0.5
vt 0.875 0.5
vt 1 0.5
vt 0 0.375
vt 0.125 0.375
vt 0.25 0.375
vt 0.375 0.375
vt 0.5 0.375
vt 0.625 0.375
vt 0.75 0.375
vt 0.875 0.375
vt 1 0.375
vt 0 0.25
vt 0.125 0.25
vt 0.25 0.25
vt 0.375 0.25
vt 0.5 0.25
vt 0.625 0.25
vt 0.75 0.25
vt 0.875 0.25
vt 1 0.25
vt 0 0.125
vt 0.125 0.125
vt 0.25 0.125
vt 0.375 0.125
vt 0.5 0.125
vt 0.625 0.125
vt 0.75 0.125
vt 0.875 0.125
vt 1 0.125
vt -0.0625 0
vt 0.0625 0
vt 0.1875 0
vt 0.3125 0
vt 0.4375 0
vt 0.5625 0
vt 0.6875 0
vt 0.8125 0
vt 0.9375 0
vn 0 1 0
vn 0 1 0
vn 0 1 0
vn 0 1 0
vn 0 1 0
vn 0 1 0
vn 0 1 0
vn 0 1 0
vn 0 1 0
vn -0.28844243288116556 0.95749723911539 0
vn -0.20307451518600603 0.9533421412237847 0.22338196670460664
vn -1.7509704449619032e-17 0.9492406756735987 0.31455069487561094
vn 0.20307451518600603 0.9533421412237847 0.22338196670460664
vn 0.28844243288116556 0.95749723911539 3.8856412228087365e-17
vn 0.20307451518600603 0.9533421412237847 -0.22338196670460664
vn 5.2529115003218305e-17 0.9492406756735987 -0.31455069487561094
vn -0.20307451518600603 0.9533421412237847 -0.22338196670460664
vn -0.28844243288116556 0.95749723911539 -7.771282445617473e-17
vn -0.5881717118512857 0.8087360739931958 0
vn -0.4085463011970104 0.7944361019183831 0.4494009342969437
vn -3.47741261729236e-17 0.7808688094430303 0.6246950475544242
vn 0.4085463011970104 0.7944361019183831 0.4494009342969437
vn 0.5881717118512857 0.8087360739931958 7.92332871352402e-17
vn 0.4085463011970104 0.7944361019183831 -0.4494009342969437
vn 1.0432237521004842e-16 0.7808688094430303 -0.6246950475544242
vn -0.4085463011970104 0.7944361019183831 -0.4494009342969437
vn -0.5881717118512857 0.8087360739931958 -1.584665742704804e-16
vn -0.868947816299009 0.49490372048428133 0
vn -0.5914406239903796 0.4763796079417457 0.6505847042708112
vn -4.9432706240426516e-17 0.45979108565894905 0.8880271153228178
vn 0.5914406239903796 0.4763796079417457 0.6505847042708112
vn 0.868947816299009 0.49490372048428133 1.170569638857451e-16
vn 0.5914406239903796 0.4763796079417457 -0.6505847042708112
vn 1.4829812864744673e-16 0.45979108565894905 -0.8880271153228178
vn -0.5914406239903796 0.4763796079417457 -0.6505847042708112
vn -0.868947816299009 0.49490372048428133 -2.341139277714902e-16
vn -1 8.419447276959152e-17 0
vn -0.6726728147635415 8.009445689556961e-17 0.7399400545166439
vn -5.566576783135624e-17 7.654042497785054e-17 1
vn 0.6726728147635415 8.009445689556961e-17 0.7399400545166439
vn 1 8.419447276959152e-17 1.3471115378436846e-16
vn 0.6726728147635415 8.009445689556961e-17 -0.7399400545166439
vn 1.6699728364173402e-16 7.654042497785054e-17 -1
vn -0.6726728147635415 8.009445689556961e-17 -0.7399400545166439
vn -1 8.419447276959152e-17 -2.6942230756873693e-16
vn -0.868947816299009 -0.49490372048428133 0
vn -0.5914406239903796 -0.4763796079417457 0.6505847042708112
vn -4.9432706240426516e-17 -0.45979108565894905 0.8880271153228178
vn 0.5914406239903796 -0.4763796079417457 0.6505847042708112
vn 0.868947816299009 -0.49490372048428133 1.170569638857451e-16
vn 0.5914406239903796 -0.4763796079417457 -0.6505847042708112
vn 1.4829812864744673e-16 -0.45979108565894905 -0.8880271153228178
vn -0.5914406239903796 -0.4763796079417457 -0.6505847042708112
vn -0.868947816299009 -0.49490372048428133 -2.341139277714902e-16
vn -0.5881717118512857 -0.8087360739931958 0
vn -0.4085463011970104 -0.7944361019183831 0.4494009342969437
vn -3.47741261729236e-17 -0.7808688094430303 0.6246950475544242
vn 0.4085463011970104 -0.7944361019183831 0.4494009342969437
vn 0.5881717118512857 -0.8087360739931958 7.92332871352402e-17
vn 0.4085463011970104 -0.7944361019183831 -0.4494009342969437
vn 1.0432237521004842e-16 -0.7808688094430303 -0.6246950475544242
vn -0.4085463011970104 -0.7944361019183831 -0.4494009342969437
vn -0.5881717118512857 -0.8087360739931958 -1.584665742704804e-16
vn -0.28844243288116556 -0.95749723911539 0
vn -0.20307451518600603 -0.9533421412237847 0.22338196670460664
vn -1.7509704449619032e-17 -0.9492406756735987 0.31455069487561094
vn 0.20307451518600603 -0.9533421412237847 0.22338196670460664
vn 0.28844243288116556 -0.95749723911539 3.8856412228087365e-17
vn 0.20307451518600603 -0.9533421412237847 -0.22338196670460664
vn 5.2529115003218305e-17 -0.9492406756735987 -0.31455069487561094
vn -0.20307451518600603 -0.9533421412237847 -0.22338196670460664
vn -0.28844243288116556 -0.95749723911539 -7.771282445617473e-17
vn -8.906522323621406e-17 -1 0
vn -6.297862016403134e-17 -1 6.927648218043447e-17
vn -5.453671877835432e-33 -1 9.797174820681343e-17
vn 6.297862016403134e-17 -1 6.927648218043447e-17
vn 8.906522323621406e-17 -1 1.1998078351643141e-32
vn 6.297862016403134e-17 -1 -6.927648218043447e-17
vn 1.6361015266164312e-32 -1 -9.797174820681343e-17
vn -6.297862016403134e-17 -1 -6.927648218043447e-17
vn -8.906522323621406e-17 -1 -2.3996156703286283e-32
f 144/144/144 153/153/153 154/154/154
f 145/145/145 154/154/154 155/155/155
f 146/146/146 155/155/155 156/156/156
f 147/147/147 156/156/156 157/157/157
f 148/148/148 157/157/157 158/158/158
f 149/149/149 158/158/158 159/159/159
f 150/150/150 159/159/159 160/160/160
f 151/151/151 160/160/160 161/161/161
f 154/154/154 153/153/153 163/163/163
f 153/153/153 162/162/162 163/163/163
f 155/155/155 154/154/154 164/164/164
f 154/154/154 163/163/163 164/164/164
f 156/156/156 155/155/155 165/165/165
f 155/155/155 164/164/164 165/165/165
f 157/157/157 156/156/156 166/166/166
f 156/156/156 165/165/165 166/166/166
f 158/158/158 157/157/157 167/167/167
f 157/157/157 166/166/166 167/167/167
f 159/159/159 158/158/158 168/168/168
f 158/158/158 167/167/167 168/168/168
f 160/160/160 159/159/159 169/169/169
f 159/159/159 168/168/168 169/169/169
f 161/161/161 160/160/160 170/170/170
f 160/160/160 169/169/169 170/170/170
f 163/163/163 162/162/162 172/172/172
f 162/162/162 171/171/171 172/172/172
f 164/164/164 163/163/163 173/173/173
f 163/163/163 172/172/172 173/173/173
f 165/165/165 164/164/164 174/174/174
f 164/164/164 173/173/173 174/174/174
f 166/166/166 165/165/165 175/175/175
f 165/165/165 174/174/174 175/175/175
f 167/167/167 166/166/166 176/176/176
f 166/166/166 175/175/175 176/176/176
f 168/168/168 167/167/167 177/177/177
f 167/167/167 176/176/176 177/177/177
f 169/169/169 168/168/168 178/178/178
f 168/168/168 177/177/177 178/178/178
f 170/170/170 169/169/169 179/179/179
f 169/169/169 178/178/178 179/179/179
f 172/172/172 171/171/171 181/181/181
f 171/171/171 180/180/180 181/181/181
f 173/173/173 172/172/172 182/182/182
f 172/172/172 181/181/181 182/182/182
f 174/174/174 173/173/173 183/183/183
f 173/173/173 182/182/182 183/183/183
f 175/175/175 174/174/174 184/184/184
f 174/174/174 183/183/183 184/184/184
f 176/176/176 175/175/175 185/185/185
f 175/175/175 184/184/184 185/185/185
f 177/177/177 176/176/176 186/186/186
f 176/176/176 185/185/185 186/186/186
f 178/178/178 177/177/177 187/187/187
f 177/177/177 186/186/186 187/187/187
f 179/179/179 178/178/178 188/188/188
f 178/178/178 187/187/187 188/188/188
f 181/181/181 180/180/180 190/190/190
f 180/180/180 189/189/189 190/190/190
f 182/182/182 181/181/181 191/191/191
f 181/181/181 190/190/190 191/191/191
f 183/183/183 182/182/182 192/192/192
f 182/182/182 191/191/191 192/192/192
f 184/184/184 183/183/183 193/193/193
f 183/183/183 192/192/192 193/193/193
f 185/185/185 184/184/184 194/194/194
f 184/184/184 193/193/193 194/194/194
f 186/186/186 185/185/185 195/195/195
f 185/185/185 194/194/194 195/195/195
f 187/187/187 186/186/186 196/196/196
f 186/186/186 195/195/195 196/196/196
f 188/188/188 187/187/187 197/197/197
f 187/187/187 196/196/196 197/197/197
f 190/190/190 189/189/189 199/199/199
f 189/189/189 198/198/198 199/199/199
f 191/191/191 190/190/190 200/200/200
f 190/190/190 199/199/199 200/200/200
f 192/192/192 191/191/191 201/201/201
f 191/191/191 200/200/200 201/201/201
f 193/193/193 192/192/192 202/202/202
f 192/192/192 201/201/201 202/202/202
f 194/194/194 193/193/193 203/203/203
f 193/193/193 202/202/202 203/203/203
f 195/195/195 194/194/194 204/204/204
f 194/194/194 203/203/203 204/204/204
f 196/196/196 195/195/195 205/205/205
f 195/195/195 204/204/204 205/205/205
f 197/197/197 196/196/196 206/206/206
f 196/196/196 205/205/205 206/206/206
f 199/199/199 198/198/198 208/208/208
f 198/198/198 207/207/207 208/208/208
f 200/200/200 199/199/199 209/209/209
f 199/199/199 208/208/208 209/209/209
f 201/201/201 200/200/200 210/210/210
f 200/200/200 209/209/209 210/210/210
f 202/202/202 201/201/201 211/211/211
f 201/201/201 210/210/210 211/211/211
f 203/203/203 202/202/202 212/212/212
f 202/202/202 211/211/211 212/212/212
f 204/204/204 203/203/203 213/213/213
f 203/203/203 212/212/212 213/213/213
f 205/205/205 204/204/204 214/214/214
f 204/204/204 213/213/213 214/214/214
f 206/206/206 205/205/205 215/215/215
f 205/205/205 214/214/214 215/215/215
f 208/208/208 207/207/207 217/217/217
f 209/209/209 208/208/208 218/218/218
f 210/210/210 209/209/209 219/219/219
f 211/211/211 210/210/210 220/220/220
f 212/212/212 211/211/211 221/221/221
f 213/213/213 212/212/212 222/222/222
f 214/214/214 213/213/213 223/223/223
f 215/215/215 214/214/214 224/224/224
o 
v 0 0.03999999910593033 0.03999999910593033
v 0.02828427031636238 0.03999999910593033 0.02828427031636238
v 0.03999999910593033 0.03999999910593033 2.449293581093244e-18
v 0.02828427031636238 0.03999999910593033 -0.02828427031636238
v 4.898587162186488e-18 0.03999999910593033 -0.03999999910593033
v -0.02828427031636238 0.03999999910593033 -0.02828427031636238
v -0.03999999910593033 0.03999999910593033 -7.347880950074885e-18
v -0.02828427031636238 0.03999999910593033 0.02828427031636238
v -9.797174324372975e-18 0.03999999910593033 0.03999999910593033
v 0 -0.03999999910593033 0.07000000029802322
v 0.04949747398495674 -0.03999999910593033 0.04949747398495674
v 0.07000000029802322 -0.03999999910593033 4.286263818611965e-18
v 0.04949747398495674 -0.03999999910593033 -0.04949747398495674
v 8.57252763722393e-18 -0.03999999910593033 -0.07000000029802322
v -0.04949747398495674 -0.03999999910593033 -0.04949747398495674
v -0.07000000029802322 -0.03999999910593033 -1.2858791455835895e-17
v -0.04949747398495674 -0.03999999910593033 0.04949747398495674
v -1.714505527444786e-17 -0.03999999910593033 0.07000000029802322
v 0 0.03999999910593033 0
v 0 0.03999999910593033 0
v 0 0.03999999910593033 0
v 0 0.03999999910593033 0
v 0 0.03999999910593033 0
v 0 0.03999999910593033 0
v 0 0.03999999910593033 0
v 0 0.03999999910593033 0
v 0 0.03999999910593033 0.03999999910593033
v 0.02828427031636238 0.03999999910593033 0.02828427031636238
v 0.03999999910593033 0.03999999910593033 2.449293581093244e-18
v 0.02828427031636238 0.03999999910593033 -0.02828427031636238
v 4.898587162186488e-18 0.03999999910593033 -0.03999999910593033
v -0.02828427031636238 0.03999999910593033 -0.02828427031636238
v -0.03999999910593033 0.03999999910593033 -7.347880950074885e-18
v -0.02828427031636238 0.03999999910593033 0.02828427031636238
v -9.797174324372975e-18 0.03999999910593033 0.03999999910593033
v 0 -0.03999999910593033 0
v 0 -0.03999999910593033 0
v 0 -0.03999999910593033 0
v 0 -0.03999999910593033 0
v 0 -0.03999999910593033 0
v 0 -0.03999999910593033 0
v 0 -0.03999999910593033 0
v 0 -0.03999999910593033 0
v 0 -0.03999999910593033 0.07000000029802322
v 0.04949747398495674 -0.03999999910593033 0.04949747398495674
v 0.07000000029802322 -0.03999999910593033 4.286263818611965e-18
v 0.04949747398495674 -0.03999999910593033 -0.04949747398495674
v 8.57252763722393e-18 -0.03999999910593033 -0.07000000029802322
v -0.04949747398495674 -0.03999999910593033 -0.04949747398495674
v -0.07000000029802322 -0.03999999910593033 -1.2858791455835895e-17
v -0.04949747398495674 -0.03999999910593033 0.04949747398495674
v -1.714505527444786e-17 -0.03999999910593033 0.07000000029802322
vt 0 1
vt 0.125 1
vt 0.25 1
vt 0.375 1
vt 0.5 1
vt 0.625 1
vt 0.75 1
vt 0.875 1
vt 1 1
vt 0 0
vt 0.125 0
vt 0.25 0
vt 0.375 0
vt 0.5 0
vt 0.625 0
vt 0.75 0
vt 0.875 0
vt 1 0
vt 0.5 0.5
vt 0.5 0.5
vt 0.5 0.5
vt 0.5 0.5
vt 0.5 0.5
vt 0.5 0.5
vt 0.5 0.5
vt 0.5 0.5
vt 1 0.5
vt 0.8535534143447876 0.8535534143447876
vt 0.5 1
vt 0.1464466154575348 0.8535534143447876
vt 0 0.5
vt 0.1464466154575348 0.1464466154575348
vt 0.5 0
vt 0.8535534143447876 0.1464466154575348
vt 1 0.5
vt 0.5 0.5
vt 0.5 0.5
vt 0.5 0.5
vt 0.5 0.5
vt 0.5 0.5
vt 0.5 0.5
vt 0.5 0.5
vt 0.5 0.5
vt 1 0.5
vt 0.8535534143447876 0.1464466154575348
vt 0.5 0
vt 0.1464466154575348 0.1464466154575348
vt 0 0.5
vt 0.1464466154575348 0.8535534143447876
vt 0.5 1
vt 0.8535534143447876 0.8535534143447876
vt 1 0.5
vn 0 0.35112344812040747 0.9363291751195385
vn 0.6620847069133904 0.3511234565545569 0.6620847069133904
vn 0.9363291751195385 0.35112344812040747 5.73336279801084e-17
vn 0.6620847069133904 0.3511234565545569 -0.6620847069133904
vn 1.146672559602168e-16 0.35112344812040747 -0.9363291751195385
vn -0.6620847069133904 0.3511234565545569 -0.6620847069133904
vn -0.9363291751195385 0.35112344812040747 -1.7200087732288036e-16
vn -0.6620847069133904 0.3511234565545569 0.6620847069133904
vn -2.293345119204336e-16 0.35112344812040747 0.9363291751195385
vn 0 0.35112344812040747 0.9363291751195385
vn 0.6620847069133904 0.3511234565545569 0.6620847069133904
vn 0.9363291751195385 0.35112344812040747 5.73336279801084e-17
vn 0.6620847069133904 0.3511234565545569 -0.6620847069133904
vn 1.146672559602168e-16 0.35112344812040747 -0.9363291751195385
vn -0.6620847069133904 0.3511234565545569 -0.6620847069133904
vn -0.9363291751195385 0.35112344812040747 -1.7200087732288036e-16
vn -0.6620847069133904 0.3511234565545569 0.6620847069133904
vn -2.293345119204336e-16 0.35112344812040747 0.9363291751195385
vn 0 1 0
vn 0 1 0
vn 0 1 0
vn 0 1 0
vn 0 1 0
vn 0 1 0
vn 0 1 0
vn 0 1 0
vn 0 1 0
vn 0 1 0
vn 0 1 0
vn 0 1 0
vn 0 1 0
vn 0 1 0
vn 0 1 0
vn 0 1 0
vn 0 1 0
vn 0 -1 0
vn 0 -1 0
vn 0 -1 0
vn 0 -1 0
vn 0 -1 0
vn 0 -1 0
vn 0 -1 0
vn 0 -1 0
vn 0 -1 0
vn 0 -1 0
vn 0 -1 0
vn 0 -1 0
vn 0 -1 0
vn 0 -1 0
vn 0 -1 0
vn 0 -1 0
vn 0 -1 0
f 225/225/225 234/234/234 226/226/226
f 234/234/234 235/235/235 226/226/226
f 226/226/226 235/235/235 227/227/227
f 235/235/235 236/236/236 227/227/227
f 227/227/227 236/236/236 228/228/228
f 236/236/236 237/237/237 228/228/228
f 228/228/228 237/237/237 229/229/229
f 237/237/237 238/238/238 229/229/229
f 229/229/229 238/238/238 230/230/230
f 238/238/238 239/239/239 230/230/230
f 230/230/230 239/239/239 231/231/231
f 239/239/239 240/240/240 231/231/231
f 231/231/231 240/240/240 232/232/232
f 240/240/240 241/241/241 232/232/232
f 232/232/232 241/241/241 233/233/233
f 241/241/241 242/242/242 233/233/233
f 251/251/251 252/252/252 243/243/243
f 252/252/252 253/253/253 244/244/244
f 253/253/253 254/254/254 245/245/245
f 254/254/254 255/255/255 246/246/246
f 255/255/255 256/256/256 247/247/247
f 256/256/256 257/257/257 248/248/248
f 257/257/257 258/258/258 249/249/249
f 258/258/258 259/259/259 250/250/250
f 269/269/269 268/268/268 260/260/260
f 270/270/270 269/269/269 261/261/261
f 271/271/271 270/270/270 262/262/262
f 272/272/272 271/271/271 263/263/263
f 273/273/273 272/272/272 264/264/264
f 274/274/274 273/273/273 265/265/265
f 275/275/275 274/274/274 266/266/266
f 276/276/276 275/275/275 267/267/267
o 
v 0 0.05999999865889549 0
v 0 0.05999999865889549 0
v 0 0.05999999865889549 0
v 0 0.05999999865889549 0
v 0 0.05999999865889549 0
v 0 0.05999999865889549 0
v 0 0.05999999865889549 0
v 0 -0.05999999865889549 0.09000000357627869
v 0.07794228941202164 -0.05999999865889549 0.04500000178813934
v 0.07794228941202164 -0.05999999865889549 -0.04500000178813934
v 1.102182101152202e-17 -0.05999999865889549 -0.09000000357627869
v -0.07794228941202164 -0.05999999865889549 -0.04500000178813934
v -0.07794228941202164 -0.05999999865889549 0.04500000178813934
v -2.204364202304404e-17 -0.05999999865889549 0.09000000357627869
v 0 -0.05999999865889549 0
v 0 -0.05999999865889549 0
v 0 -0.05999999865889549 0
v 0 -0.05999999865889549 0
v 0 -0.05999999865889549 0
v 0 -0.05999999865889549 0
v 0 -0.05999999865889549 0.09000000357627869
v 0.07794228941202164 -0.05999999865889549 0.04500000178813934
v 0.07794228941202164 -0.05999999865889549 -0.04500000178813934
v 1.102182101152202e-17 -0.05999999865889549 -0.09000000357627869
v -0.07794228941202164 -0.05999999865889549 -0.04500000178813934
v -0.07794228941202164 -0.05999999865889549 0.04500000178813934
v -2.204364202304404e-17 -0.05999999865889549 0.09000000357627869
vt 0 1
vt 0.1666666716337204 1
vt 0.3333333432674408 1
vt 0.5 1
vt 0.6666666865348816 1
vt 0.8333333134651184 1
vt 1 1
vt 0 0
vt 0.1666666716337204 0
vt 0.3333333432674408 0
vt 0.5 0
vt 0.6666666865348816 0
vt 0.8333333134651184 0
vt 1 0
vt 0.5 0.5
vt 0.5 0.5
vt 0.5 0.5
vt 0.5 0.5
vt 0.5 0.5
vt 0.5 0.5
vt 1 0.5
vt 0.75 0.0669872984290123
vt 0.25 0.0669872984290123
vt 0 0.5
vt 0.25 0.9330127239227295
vt 0.75 0.9330127239227295
vt 1 0.5
vn 0 0.6000000095367428 0.7999999928474427
vn 0.6928203049987165 0.6000000189973679 0.40000000273080455
vn 0.6928203049987165 0.6000000189973679 -0.40000000273080455
vn 9.797173925354023e-17 0.6000000095367428 -0.7999999928474427
vn -0.6928203049987165 0.6000000189973679 -0.40000000273080455
vn -0.6928203049987165 0.6000000189973679 0.40000000273080455
vn -1.9594347850708047e-16 0.6000000095367428 0.7999999928474427
vn 0 0.6000000095367428 0.7999999928474427
vn 0.6928203049987165 0.6000000189973679 0.40000000273080455
vn 0.6928203049987165 0.6000000189973679 -0.40000000273080455
vn 9.797173925354023e-17 0.6000000095367428 -0.7999999928474427
vn -0.6928203049987165 0.6000000189973679 -0.40000000273080455
vn -0.6928203049987165 0.6000000189973679 0.40000000273080455
vn -1.9594347850708047e-16 0.6000000095367428 0.7999999928474427
vn 0 -1 0
vn 0 -1 0
vn 0 -1 0
vn 0 -1 0
vn 0 -1 0
vn 0 -1 0
vn 0 -1 0
vn 0 -1 0
vn 0 -1 0
vn 0 -1 0
vn 0 -1 0
vn 0 -1 0
vn 0 -1 0
f 284/284/284 285/285/285 278/278/278
f 285/285/285 286/286/286 279/279/279
f 286/286/286 287/287/287 280/280/280
f 287/287/287 288/288/288 281/281/281
f 288/288/288 289/289/289 282/282/282
f 289/289/289 290/290/290 283/283/283
f 298/298/298 297/297/297 291/291/291
f 299/299/299 298/298/298 292/292/292
f 300/300/300 299/299/299 293/293/293
f 301/301/301 300/300/300 294/294/294
f 302/302/302 301/301/301 295/295/295
f 303/303/303 302/302/302 296/296/296
o 
v 0 0.05999999865889549 0
v 0 0.05999999865889549 0
v 0 0.05999999865889549 0
v 0 0.05999999865889549 0
v 0 0.05999999865889549 0
v 0 0.05999999865889549 0
v 0 0.05999999865889549 0
v 0 -0.05999999865889549 0.09000000357627869
v 0.07794228941202164 -0.05999999865889549 0.04500000178813934
v 0.07794228941202164 -0.05999999865889549 -0.04500000178813934
v 1.102182101152202e-17 -0.05999999865889549 -0.09000000357627869
v -0.07794228941202164 -0.05999999865889549 -0.04500000178813934
v -0.07794228941202164 -0.05999999865889549 0.04500000178813934
v -2.204364202304404e-17 -0.05999999865889549 0.09000000357627869
v 0 -0.05999999865889549 0
v 0 -0.05999999865889549 0
v 0 -0.05999999865889549 0
v 0 -0.05999999865889549 0
v 0 -0.05999999865889549 0
v 0 -0.05999999865889549 0
v 0 -0.05999999865889549 0.09000000357627869
v 0.07794228941202164 -0.05999999865889549 0.04500000178813934
v 0.07794228941202164 -0.05999999865889549 -0.04500000178813934
v 1.102182101152202e-17 -0.05999999865889549 -0.09000000357627869
v -0.07794228941202164 -0.05999999865889549 -0.04500000178813934
v -0.07794228941202164 -0.05999999865889549 0.04500000178813934
v -2.204364202304404e-17 -0.05999999865889549 0.09000000357627869
vt 0 1
vt 0.1666666716337204 1
vt 0.3333333432674408 1
vt 0.5 1
vt 0.6666666865348816 1
vt 0.8333333134651184 1
vt 1 1
vt 0 0
vt 0.1666666716337204 0
vt 0.3333333432674408 0
vt 0.5 0
vt 0.6666666865348816 0
vt 0.8333333134651184 0
vt 1 0
vt 0.5 0.5
vt 0.5 0.5
vt 0.5 0.5
vt 0.5 0.5
vt 0.5 0.5
vt 0.5 0.5
vt 1 0.5
vt 0.75 0.0669872984290123
vt 0.25 0.0669872984290123
vt 0 0.5
vt 0.25 0.9330127239227295
vt 0.75 0.9330127239227295
vt 1 0.5
vn 0 0.6000000095367428 0.7999999928474427
vn 0.6928203049987165 0.6000000189973679 0.40000000273080455
vn 0.6928203049987165 0.6000000189973679 -0.40000000273080455
vn 9.797173925354023e-17 0.6000000095367428 -0.7999999928474427
vn -0.6928203049987165 0.6000000189973679 -0.40000000273080455
vn -0.6928203049987165 0.6000000189973679 0.40000000273080455
vn -1.9594347850708047e-16 0.6000000095367428 0.7999999928474427
vn 0 0.6000000095367428 0.7999999928474427
vn 0.6928203049987165 0.6000000189973679 0.40000000273080455
vn 0.6928203049987165 0.6000000189973679 -0.40000000273080455
vn 9.797173925354023e-17 0.6000000095367428 -0.7999999928474427
vn -0.6928203049987165 0.6000000189973679 -0.40000000273080455
vn -0.6928203049987165 0.6000000189973679 0.40000000273080455
vn -1.9594347850708047e-16 0.6000000095367428 0.7999999928474427
vn 0 -1 0
vn 0 -1 0
vn 0 -1 0
vn 0 -1 0
vn 0 -1 0
vn 0 -1 0
vn 0 -1 0
vn 0 -1 0
vn 0 -1 0
vn 0 -1 0
vn 0 -1 0
vn 0 -1 0
vn 0 -1 0
f 311/311/311 312/312/312 305/305/305
f 312/312/312 313/313/313 306/306/306
f 313/313/313 314/314/314 307/307/307
f 314/314/314 315/315/315 308/308/308
f 315/315/315 316/316/316 309/309/309
f 316/316/316 317/317/317 310/310/310
f 325/325/325 324/324/324 318/318/318
f 326/326/326 325/325/325 319/319/319
f 327/327/327 326/326/326 320/320/320
f 328/328/328 327/327/327 321/321/321
f 329/329/329 328/328/328 322/322/322
f 330/330/330 329/329/329 323/323/323
