o 
v 0.5249999761581421 0.03999999910593033 0.05999999865889549
v 0.5249999761581421 0.03999999910593033 -0.05999999865889549
v 0.5249999761581421 -0.03999999910593033 0.05999999865889549
v 0.5249999761581421 -0.03999999910593033 -0.05999999865889549
v -0.5249999761581421 0.03999999910593033 -0.05999999865889549
v -0.5249999761581421 0.03999999910593033 0.05999999865889549
v -0.5249999761581421 -0.03999999910593033 -0.05999999865889549
v -0.5249999761581421 -0.03999999910593033 0.05999999865889549
v -0.5249999761581421 0.03999999910593033 -0.05999999865889549
v 0.5249999761581421 0.03999999910593033 -0.05999999865889549
v -0.5249999761581421 0.03999999910593033 0.05999999865889549
v 0.5249999761581421 0.03999999910593033 0.05999999865889549
v -0.5249999761581421 -0.03999999910593033 0.05999999865889549
v 0.5249999761581421 -0.03999999910593033 0.05999999865889549
v -0.5249999761581421 -0.03999999910593033 -0.05999999865889549
v 0.5249999761581421 -0.03999999910593033 -0.05999999865889549
v -0.5249999761581421 0.03999999910593033 0.05999999865889549
v 0.5249999761581421 0.03999999910593033 0.05999999865889549
v -0.5249999761581421 -0.03999999910593033 0.05999999865889549
v 0.5249999761581421 -0.03999999910593033 0.05999999865889549
v 0.5249999761581421 0.03999999910593033 -0.05999999865889549
v -0.5249999761581421 0.03999999910593033 -0.05999999865889549
v 0.5249999761581421 -0.03999999910593033 -0.05999999865889549
v -0.5249999761581421 -0.03999999910593033 -0.05999999865889549
vt 0 1
vt 1 1
vt 0 0
vt 1 0
vt 0 1
vt 1 1
vt 0 0
vt 1 0
vt 0 1
vt 1 1
vt 0 0
vt 1 0
vt 0 1
vt 1 1
vt 0 0
vt 1 0
vt 0 1
vt 1 1
vt 0 0
vt 1 0
vt 0 1
vt 1 1
vt 0 0
vt 1 0
vn 1 0 0
vn 1 0 0
vn 1 0 0
vn 1 0 0
vn -1 0 0
vn -1 0 0
vn -1 0 0
vn -1 0 0
vn 0 1 0
vn 0 1 0
vn 0 1 0
vn 0 1 0
vn 0 -1 0
vn 0 -1 0
vn 0 -1 0
vn 0 -1 0
vn 0 0 1
vn 0 0 1
vn 0 0 1
vn 0 0 1
vn 0 0 -1
vn 0 0 -1
vn 0 0 -1
vn 0 0 -1
f 1/1/1 3/3/3 2/2/2
f 3/3/3 4/4/4 2/2/2
f 5/5/5 7/7/7 6/6/6
f 7/7/7 8/8/8 6/6/6
f 9/9/9 11/11/11 10/10/10
f 11/11/11 12/12/12 10/10/10
f 13/13/13 15/15/15 14/14/14
f 15/15/15 16/16/16 14/14/14
f 17/17/17 19/19/19 18/18/18
f 19/19/19 20/20/20 18/18/18
f 21/21/21 23/23/23 22/22/22
f 23/23/23 24/24/24 22/22/22
o 
v 0.03999999910593033 1.0750000476837158 0.05999999865889549
v 0.03999999910593033 1.0750000476837158 -0.05999999865889549
v 0.03999999910593033 -1.0750000476837158 0.05999999865889549
v 0.03999999910593033 -1.0750000476837158 -0.05999999865889549
v -0.03999999910593033 1.0750000476837158 -0.05999999865889549
v -0.03999999910593033 1.0750000476837158 0.05999999865889549
v -0.03999999910593033 -1.0750000476837158 -0.05999999865889549
v -0.03999999910593033 -1.0750000476837158 0.05999999865889549
v -0.03999999910593033 1.0750000476837158 -0.05999999865889549
v 0.03999999910593033 1.0750000476837158 -0.05999999865889549
v -0.03999999910593033 1.0750000476837158 0.05999999865889549
v 0.03999999910593033 1.0750000476837158 0.05999999865889549
v -0.03999999910593033 -1.0750000476837158 0.05999999865889549
v 0.03999999910593033 -1.0750000476837158 0.05999999865889549
v -0.03999999910593033 -1.0750000476837158 -0.05999999865889549
v 0.03999999910593033 -1.0750000476837158 -0.05999999865889549
v -0.03999999910593033 1.0750000476837158 0.05999999865889549
v 0.03999999910593033 1.0750000476837158 0.05999999865889549
v -0.03999999910593033 -1.0750000476837158 0.05999999865889549
v 0.03999999910593033 -1.0750000476837158 0.05999999865889549
v 0.03999999910593033 1.0750000476837158 -0.05999999865889549
v -0.03999999910593033 1.0750000476837158 -0.05999999865889549
v 0.03999999910593033 -1.0750000476837158 -0.05999999865889549
v -0.03999999910593033 -1.0750000476837158 -0.05999999865889549
vt 0 1
vt 1 1
vt 0 0
vt 1 0
vt 0 1
vt 1 1
vt 0 0
vt 1 0
vt 0 1
vt 1 1
vt 0 0
vt 1 0
vt 0 1
vt 1 1
vt 0 0
vt 1 0
vt 0 1
vt 1 1
vt 0 0
vt 1 0
vt 0 1
vt 1 1
vt 0 0
vt 1 0
vn 1 0 0
vn 1 0 0
vn 1 0 0
vn 1 0 0
vn -1 0 0
vn -1 0 0
vn -1 0 0
vn -1 0 0
vn 0 1 0
vn 0 1 0
vn 0 1 0
vn 0 1 0
vn 0 -1 0
vn 0 -1 0
vn 0 -1 0
vn 0 -1 0
vn 0 0 1
vn 0 0 1
vn 0 0 1
vn 0 0 1
vn 0 0 -1
vn 0 0 -1
vn 0 0 -1
vn 0 0 -1
f 25/25/25 27/27/27 26/26/26
f 27/27/27 28/28/28 26/26/26
f 29/29/29 31/31/31 30/30/30
f 31/31/31 32/32/32 30/30/30
f 33/33/33 35/35/35 34/34/34
f 35/35/35 36/36/36 34/34/34
f 37/37/37 39/39/39 38/38/38
f 39/39/39 40/40/40 38/38/38
f 41/41/41 43/43/43 42/42/42
f 43/43/43 44/44/44 42/42/42
f 45/45/45 47/47/47 46/46/46
f 47/47/47 48/48/48 46/46/46
o 
v 0.03999999910593033 1.0750000476837158 0.05999999865889549
v 0.03999999910593033 1.0750000476837158 -0.05999999865889549
v 0.03999999910593033 -1.0750000476837158 0.05999999865889549
v 0.03999999910593033 -1.0750000476837158 -0.05999999865889549
v -0.03999999910593033 1.0750000476837158 -0.05999999865889549
v -0.03999999910593033 1.0750000476837158 0.05999999865889549
v -0.03999999910593033 -1.0750000476837158 -0.05999999865889549
v -0.03999999910593033 -1.0750000476837158 0.05999999865889549
v -0.03999999910593033 1.0750000476837158 -0.05999999865889549
v 0.03999999910593033 1.0750000476837158 -0.05999999865889549
v -0.03999999910593033 1.0750000476837158 0.05999999865889549
v 0.03999999910593033 1.0750000476837158 0.05999999865889549
v -0.03999999910593033 -1.0750000476837158 0.05999999865889549
v 0.03999999910593033 -1.0750000476837158 0.05999999865889549
v -0.03999999910593033 -1.0750000476837158 -0.05999999865889549
v 0.03999999910593033 -1.0750000476837158 -0.05999999865889549
v -0.03999999910593033 1.0750000476837158 0.05999999865889549
v 0.03999999910593033 1.0750000476837158 0.05999999865889549
v -0.03999999910593033 -1.0750000476837158 0.05999999865889549
v 0.03999999910593033 -1.0750000476837158 0.05999999865889549
v 0.03999999910593033 1.0750000476837158 -0.05999999865889549
v -0.03999999910593033 1.0750000476837158 -0.05999999865889549
v 0.03999999910593033 -1.0750000476837158 -0.05999999865889549
v -0.03999999910593033 -1.0750000476837158 -0.05999999865889549
vt 0 1
vt 1 1
vt 0 0
vt 1 0
vt 0 1
vt 1 1
vt 0 0
vt 1 0
vt 0 1
vt 1 1
vt 0 0
vt 1 0
vt 0 1
vt 1 1
vt 0 0
vt 1 0
vt 0 1
vt 1 1
vt 0 0
vt 1 0
vt 0 1
vt 1 1
vt 0 0
vt 1 0
vn 1 0 0
vn 1 0 0
vn 1 0 0
vn 1 0 0
vn -1 0 0
vn -1 0 0
vn -1 0 0
vn -1 0 0
vn 0 1 0
vn 0 1 0
vn 0 1 0
vn 0 1 0
vn 0 -1 0
vn 0 -1 0
vn 0 -1 0
vn 0 -1 0
vn 0 0 1
vn 0 0 1
vn 0 0 1
vn 0 0 1
vn 0 0 -1
vn 0 0 -1
vn 0 0 -1
vn 0 0 -1
f 49/49/49 51/51/51 50/50/50
f 51/51/51 52/52/52 50/50/50
f 53/53/53 55/55/55 54/54/54
f 55/55/55 56/56/56 54/54/54
f 57/57/57 59/59/59 58/58/58
f 59/59/59 60/60/60 58/58/58
f 61/61/61 63/63/63 62/62/62
f 63/63/63 64/64/64 62/62/62
f 65/65/65 67/67/67 66/66/66
f 67/67/67 68/68/68 66/66/66
f 69/69/69 71/71/71 70/70/70
f 71/71/71 72/72/72 70/70/70
o 
v 0.4449999928474426 1.0499999523162842 0.02500000037252903
v 0.4449999928474426 1.0499999523162842 -0.02500000037252903
v 0.4449999928474426 -1.0499999523162842 0.02500000037252903
v 0.4449999928474426 -1.0499999523162842 -0.02500000037252903
v -0.4449999928474426 1.0499999523162842 -0.02500000037252903
v -0.4449999928474426 1.0499999523162842 0.02500000037252903
v -0.4449999928474426 -1.0499999523162842 -0.02500000037252903
v -0.4449999928474426 -1.0499999523162842 0.02500000037252903
v -0.4449999928474426 1.0499999523162842 -0.02500000037252903
v 0.4449999928474426 1.0499999523162842 -0.02500000037252903
v -0.4449999928474426 1.0499999523162842 0.02500000037252903
v 0.4449999928474426 1.0499999523162842 0.02500000037252903
v -0.4449999928474426 -1.0499999523162842 0.02500000037252903
v 0.4449999928474426 -1.0499999523162842 0.02500000037252903
v -0.4449999928474426 -1.0499999523162842 -0.02500000037252903
v 0.4449999928474426 -1.0499999523162842 -0.02500000037252903
v -0.4449999928474426 1.0499999523162842 0.02500000037252903
v 0.4449999928474426 1.0499999523162842 0.02500000037252903
v -0.4449999928474426 -1.0499999523162842 0.02500000037252903
v 0.4449999928474426 -1.0499999523162842 0.02500000037252903
v 0.4449999928474426 1.0499999523162842 -0.02500000037252903
v -0.4449999928474426 1.0499999523162842 -0.02500000037252903
v 0.4449999928474426 -1.0499999523162842 -0.02500000037252903
v -0.4449999928474426 -1.0499999523162842 -0.02500000037252903
vt 0 1
vt 1 1
vt 0 0
vt 1 0
vt 0 1
vt 1 1
vt 0 0
vt 1 0
vt 0 1
vt 1 1
vt 0 0
vt 1 0
vt 0 1
vt 1 1
vt 0 0
vt 1 0
vt 0 1
vt 1 1
vt 0 0
vt 1 0
vt 0 1
vt 1 1
vt 0 0
vt 1 0
vn 1 0 0
vn 1 0 0
vn 1 0 0
vn 1 0 0
vn -1 0 0
vn -1 0 0
vn -1 0 0
vn -1 0 0
vn 0 1 0
vn 0 1 0
vn 0 1 0
vn 0 1 0
vn 0 -1 0
vn 0 -1 0
vn 0 -1 0
vn 0 -1 0
vn 0 0 1
vn 0 0 1
vn 0 0 1
vn 0 0 1
vn 0 0 -1
vn 0 0 -1
vn 0 0 -1
vn 0 0 -1
f 73/73/73 75/75/75 74/74/74
f 75/75/75 76/76/76 74/74/74
f 77/77/77 79/79/79 78/78/78
f 79/79/79 80/80/80 78/78/78
f 81/81/81 83/83/83 82/82/82
f 83/83/83 84/84/84 82/82/82
f 85/85/85 87/87/87 86/86/86
f 87/87/87 88/88/88 86/86/86
f 89/89/89 91/91/91 90/90/90
f 91/91/91 92/92/92 90/90/90
f 93/93/93 95/95/95 94/94/94
f 95/95/95 96/96/96 94/94/94
o 
v 0 0.009999999776482582 0.029999999329447746
v 0.014999999664723873 0.009999999776482582 0.025980761274695396
v 0.025980761274695396 0.009999999776482582 0.014999999664723873
v 0.029999999329447746 0.009999999776482582 1.836970237518721e-18
v 0.025980761274695396 0.009999999776482582 -0.014999999664723873
v 0.014999999664723873 0.009999999776482582 -0.025980761274695396
v 3.673940475037442e-18 0.009999999776482582 -0.029999999329447746
v -0.014999999664723873 0.009999999776482582 -0.025980761274695396
v -0.025980761274695396 0.009999999776482582 -0.014999999664723873
v -0.029999999329447746 0.009999999776482582 -5.51091050576101e-18
v -0.025980761274695396 0.009999999776482582 0.014999999664723873
v -0.014999999664723873 0.009999999776482582 0.025980761274695396
v -7.347880950074885e-18 0.009999999776482582 0.029999999329447746
v 0 -0.009999999776482582 0.029999999329447746
v 0.014999999664723873 -0.009999999776482582 0.025980761274695396
v 0.025980761274695396 -0.009999999776482582 0.014999999664723873
v 0.029999999329447746 -0.009999999776482582 1.836970237518721e-18
v 0.025980761274695396 -0.009999999776482582 -0.014999999664723873
v 0.014999999664723873 -0.009999999776482582 -0.025980761274695396
v 3.673940475037442e-18 -0.009999999776482582 -0.029999999329447746
v -0.014999999664723873 -0.009999999776482582 -0.025980761274695396
v -0.025980761274695396 -0.009999999776482582 -0.014999999664723873
v -0.029999999329447746 -0.009999999776482582 -5.51091050576101e-18
v -0.025980761274695396 -0.009999999776482582 0.014999999664723873
v -0.014999999664723873 -0.009999999776482582 0.025980761274695396
v -7.347880950074885e-18 -0.009999999776482582 0.029999999329447746
v 0 0.009999999776482582 0
v 0 0.009999999776482582 0
v 0 0.009999999776482582 0
v 0 0.009999999776482582 0
v 0 0.009999999776482582 0
v 0 0.009999999776482582 0
v 0 0.009999999776482582 0
v 0 0.009999999776482582 0
v 0 0.009999999776482582 0
v 0 0.009999999776482582 0
v 0 0.009999999776482582 0
v 0 0.009999999776482582 0
v 0 0.009999999776482582 0.029999999329447746
v 0.014999999664723873 0.009999999776482582 0.025980761274695396
v 0.025980761274695396 0.009999999776482582 0.014999999664723873
v 0.029999999329447746 0.009999999776482582 1.836970237518721e-18
v 0.025980761274695396 0.009999999776482582 -0.014999999664723873
v 0.014999999664723873 0.009999999776482582 -0.025980761274695396
v 3.673940475037442e-18 0.009999999776482582 -0.029999999329447746
v -0.014999999664723873 0.009999999776482582 -0.025980761274695396
v -0.025980761274695396 0.009999999776482582 -0.014999999664723873
v -0.029999999329447746 0.009999999776482582 -5.51091050576101e-18
v -0.025980761274695396 0.009999999776482582 0.014999999664723873
v -0.014999999664723873 0.009999999776482582 0.025980761274695396
v -7.347880950074885e-18 0.009999999776482582 0.029999999329447746
v 0 -0.009999999776482582 0
v 0 -0.009999999776482582 0
v 0 -0.009999999776482582 0
v 0 -0.009999999776482582 0
v 0 -0.009999999776482582 0
v 0 -0.009999999776482582 0
v 0 -0.009999999776482582 0
v 0 -0.009999999776482582 0
v 0 -0.009999999776482582 0
v 0 -0.009999999776482582 0
v 0 -0.009999999776482582 0
v 0 -0.009999999776482582 0
v 0 -0.009999999776482582 0.029999999329447746
v 0.014999999664723873 -0.009999999776482582 0.025980761274695396
v 0.025980761274695396 -0.009999999776482582 0.014999999664723873
v 0.029999999329447746 -0.009999999776482582 1.836970237518721e-18
v 0.025980761274695396 -0.009999999776482582 -0.014999999664723873
v 0.014999999664723873 -0.009999999776482582 -0.025980761274695396
v 3.673940475037442e-18 -0.009999999776482582 -0.029999999329447746
v -0.014999999664723873 -0.009999999776482582 -0.025980761274695396
v -0.025980761274695396 -0.009999999776482582 -0.014999999664723873
v -0.029999999329447746 -0.009999999776482582 -5.51091050576101e-18
v -0.025980761274695396 -0.009999999776482582 0.014999999664723873
v -0.014999999664723873 -0.009999999776482582 0.025980761274695396
v -7.347880950074885e-18 -0.009999999776482582 0.029999999329447746
vt 0 1
vt 0.0833333358168602 1
vt 0.1666666716337204 1
vt 0.25 1
vt 0.3333333432674408 1
vt 0.4166666567325592 1
vt 0.5 1
vt 0.5833333134651184 1
vt 0.6666666865348816 1
vt 0.75 1
vt 0.8333333134651184 1
vt 0.9166666865348816 1
vt 1 1
vt 0 0
vt 0.0833333358168602 0
vt 0.1666666716337204 0
vt 0.25 0
vt 0.3333333432674408 0
vt 0.4166666567325592 0
vt 0.5 0
vt 0.5833333134651184 0
vt 0.6666666865348816 0
vt 0.75 0
vt 0.8333333134651184 0
vt 0.9166666865348816 0
vt 1 0
vt 0.5 0.5
vt 0.5 0.5
vt 0.5 0.5
vt 0.5 0.5
vt 0.5 0.5
vt 0.5 0.5
vt 0.5 0.5
vt 0.5 0.5
vt 0.5 0.5
vt 0.5 0.5
vt 0.5 0.5
vt 0.5 0.5
vt 1 0.5
vt 0.9330127239227295 0.75
vt 0.75 0.9330127239227295
vt 0.5 1
vt 0.25 0.9330127239227295
vt 0.0669872984290123 0.75
vt 0 0.5
vt 0.0669872984290123 0.25
vt 0.25 0.0669872984290123
vt 0.5 0
vt 0.75 0.0669872984290123
vt 0.9330127239227295 0.25
vt 1 0.5
vt 0.5 0.5
vt 0.5 0.5
vt 0.5 0.5
vt 0.5 0.5
vt 0.5 0.5
vt 0.5 0.5
vt 0.5 0.5
vt 0.5 0.5
vt 0.5 0.5
vt 0.5 0.5
vt 0.5 0.5
vt 0.5 0.5
vt 1 0.5
vt 0.9330127239227295 0.25
vt 0.75 0.0669872984290123
vt 0.5 0
vt 0.25 0.0669872984290123
vt 0.0669872984290123 0.25
vt 0 0.5
vt 0.0669872984290123 0.75
vt 0.25 0.9330127239227295
vt 0.5 1
vt 0.75 0.9330127239227295
vt 0.9330127239227295 0.75
vt 1 0.5
vn 0 0 1
vn 0.5000000067305869 0 0.8660253998985324
vn 0.8660253998985324 0 0.5000000067305869
vn 1 0 6.123234262925839e-17
vn 0.8660253998985324 0 -0.5000000067305869
vn 0.5000000067305869 0 -0.8660253998985324
vn 1.2246468525851679e-16 0 -1
vn -0.5000000067305869 0 -0.8660253998985324
vn -0.8660253998985324 0 -0.5000000067305869
vn -1 0 -1.8369701465288538e-16
vn -0.8660253998985324 0 0.5000000067305869
vn -0.5000000067305869 0 0.8660253998985324
vn -2.4492937051703357e-16 0 1
vn 0 0 1
vn 0.5000000067305869 0 0.8660253998985324
vn 0.8660253998985324 0 0.5000000067305869
vn 1 0 6.123234262925839e-17
vn 0.8660253998985324 0 -0.5000000067305869
vn 0.5000000067305869 0 -0.8660253998985324
vn 1.2246468525851679e-16 0 -1
vn -0.5000000067305869 0 -0.8660253998985324
vn -0.8660253998985324 0 -0.5000000067305869
vn -1 0 -1.8369701465288538e-16
vn -0.8660253998985324 0 0.5000000067305869
vn -0.5000000067305869 0 0.8660253998985324
vn -2.4492937051703357e-16 0 1
vn 0 1 0
vn 0 1 0
vn 0 1 0
vn 0 1 0
vn 0 1 0
vn 0 1 0
vn 0 1 0
vn 0 1 0
vn 0 1 0
vn 0 1 0
vn 0 1 0
vn 0 1 0
vn 0 1 0
vn 0 1 0
vn 0 1 0
vn 0 1 0
vn 0 1 0
vn 0 1 0
vn 0 1 0
vn 0 1 0
vn 0 1 0
vn 0 1 0
vn 0 1 0
vn 0 1 0
vn 0 1 0
vn 0 -1 0
vn 0 -1 0
vn 0 -1 0
vn 0 -1 0
vn 0 -1 0
vn 0 -1 0
vn 0 -1 0
vn 0 -1 0
vn 0 -1 0
vn 0 -1 0
vn 0 -1 0
vn 0 -1 0
vn 0 -1 0
vn 0 -1 0
vn 0 -1 0
vn 0 -1 0
vn 0 -1 0
vn 0 -1 0
vn 0 -1 0
vn 0 -1 0
vn 0 -1 0
vn 0 -1 0
vn 0 -1 0
vn 0 -1 0
vn 0 -1 0
f 97/97/97 110/110/110 98/98/98
f 110/110/110 111/111/111 98/98/98
f 98/98/98 111/111/111 99/99/99
f 111/111/111 112/112/112 99/99/99
f 99/99/99 112/112/112 100/100/100
f 112/112/112 113/113/113 100/100/100
f 100/100/100 113/113/113 101/101/101
f 113/113/113 114/114/114 101/101/101
f 101/101/101 114/114/114 102/102/102
f 114/114/114 115/115/115 102/102/102
f 102/102/102 115/115/115 103/103/103
f 115/115/115 116/116/116 103/103/103
f 103/103/103 116/116/116 104/104/104
f 116/116/116 117/117/117 104/104/104
f 104/104/104 117/117/117 105/105/105
f 117/117/117 118/118/118 105/105/105
f 105/105/105 118/118/118 106/106/106
f 118/118/118 119/119/119 106/106/106
f 106/106/106 119/119/119 107/107/107
f 119/119/119 120/120/120 107/107/107
f 107/107/107 120/120/120 108/108/108
f 120/120/120 121/121/121 108/108/108
f 108/108/108 121/121/121 109/109/109
f 121/121/121 122/122/122 109/109/109
f 135/135/135 136/136/136 123/123/123
f 136/136/136 137/137/137 124/124/124
f 137/137/137 138/138/138 125/125/125
f 138/138/138 139/139/139 126/126/126
f 139/139/139 140/140/140 127/127/127
f 140/140/140 141/141/141 128/128/128
f 141/141/141 142/142/142 129/129/129
f 142/142/142 143/143/143 130/130/130
f 143/143/143 144/144/144 131/131/131
f 144/144/144 145/145/145 132/132/132
f 145/145/145 146/146/146 133/133/133
f 146/146/146 147/147/147 134/134/134
f 161/161/161 160/160/160 148/148/148
f 162/162/162 161/161/161 149/149/149
f 163/163/163 162/162/162 150/150/150
f 164/164/164 163/163/163 151/151/151
f 165/165/165 164/164/164 152/152/152
f 166/166/166 165/165/165 153/153/153
f 167/167/167 166/166/166 154/154/154
f 168/168/168 167/167/167 155/155/155
f 169/169/169 168/168/168 156/156/156
f 170/170/170 169/169/169 157/157/157
f 171/171/171 170/170/170 158/158/158
f 172/172/172 171/171/171 159/159/159
o 
v 0.05999999865889549 0.009999999776482582 0.009999999776482582
v 0.05999999865889549 0.009999999776482582 -0.009999999776482582
v 0.05999999865889549 -0.009999999776482582 0.009999999776482582
v 0.05999999865889549 -0.009999999776482582 -0.009999999776482582
v -0.05999999865889549 0.009999999776482582 -0.009999999776482582
v -0.05999999865889549 0.009999999776482582 0.009999999776482582
v -0.05999999865889549 -0.009999999776482582 -0.009999999776482582
v -0.05999999865889549 -0.009999999776482582 0.009999999776482582
v -0.05999999865889549 0.009999999776482582 -0.009999999776482582
v 0.05999999865889549 0.009999999776482582 -0.009999999776482582
v -0.05999999865889549 0.009999999776482582 0.009999999776482582
v 0.05999999865889549 0.009999999776482582 0.009999999776482582
v -0.05999999865889549 -0.009999999776482582 0.009999999776482582
v 0.05999999865889549 -0.009999999776482582 0.009999999776482582
v -0.05999999865889549 -0.009999999776482582 -0.009999999776482582
v 0.05999999865889549 -0.009999999776482582 -0.009999999776482582
v -0.05999999865889549 0.009999999776482582 0.009999999776482582
v 0.05999999865889549 0.009999999776482582 0.009999999776482582
v -0.05999999865889549 -0.009999999776482582 0.009999999776482582
v 0.05999999865889549 -0.009999999776482582 0.009999999776482582
v 0.05999999865889549 0.009999999776482582 -0.009999999776482582
v -0.05999999865889549 0.009999999776482582 -0.009999999776482582
v 0.05999999865889549 -0.009999999776482582 -0.009999999776482582
v -0.05999999865889549 -0.009999999776482582 -0.009999999776482582
vt 0 1
vt 1 1
vt 0 0
vt 1 0
vt 0 1
vt 1 1
vt 0 0
vt 1 0
vt 0 1
vt 1 1
vt 0 0
vt 1 0
vt 0 1
vt 1 1
vt 0 0
vt 1 0
vt 0 1
vt 1 1
vt 0 0
vt 1 0
vt 0 1
vt 1 1
vt 0 0
vt 1 0
vn 1 0 0
vn 1 0 0
vn 1 0 0
vn 1 0 0
vn -1 0 0
vn -1 0 0
vn -1 0 0
vn -1 0 0
vn 0 1 0
vn 0 1 0
vn 0 1 0
vn 0 1 0
vn 0 -1 0
vn 0 -1 0
vn 0 -1 0
vn 0 -1 0
vn 0 0 1
vn 0 0 1
vn 0 0 1
vn 0 0 1
vn 0 0 -1
vn 0 0 -1
vn 0 0 -1
vn 0 0 -1
f 173/173/173 175/175/175 174/174/174
f 175/175/175 176/176/176 174/174/174
f 177/177/177 179/179/179 178/178/178
f 179/179/179 180/180/180 178/178/178
f 181/181/181 183/183/183 182/182/182
f 183/183/183 184/184/184 182/182/182
f 185/185/185 187/187/187 186/186/186
f 187/187/187 188/188/188 186/186/186
f 189/189/189 191/191/191 190/190/190
f 191/191/191 192/192/192 190/190/190
f 193/193/193 195/195/195 194/194/194
f 195/195/195 196/196/196 194/194/194
o 
v 0.03500000014901161 0.09000000357627869 0.012500000186264515
v 0.03500000014901161 0.09000000357627869 -0.012500000186264515
v 0.03500000014901161 -0.09000000357627869 0.012500000186264515
v 0.03500000014901161 -0.09000000357627869 -0.012500000186264515
v -0.03500000014901161 0.09000000357627869 -0.012500000186264515
v -0.03500000014901161 0.09000000357627869 0.012500000186264515
v -0.03500000014901161 -0.09000000357627869 -0.012500000186264515
v -0.03500000014901161 -0.09000000357627869 0.012500000186264515
v -0.03500000014901161 0.09000000357627869 -0.012500000186264515
v 0.03500000014901161 0.09000000357627869 -0.012500000186264515
v -0.03500000014901161 0.09000000357627869 0.012500000186264515
v 0.03500000014901161 0.09000000357627869 0.012500000186264515
v -0.03500000014901161 -0.09000000357627869 0.012500000186264515
v 0.03500000014901161 -0.09000000357627869 0.012500000186264515
v -0.03500000014901161 -0.09000000357627869 -0.012500000186264515
v 0.03500000014901161 -0.09000000357627869 -0.012500000186264515
v -0.03500000014901161 0.09000000357627869 0.012500000186264515
v 0.03500000014901161 0.09000000357627869 0.012500000186264515
v -0.03500000014901161 -0.09000000357627869 0.012500000186264515
v 0.03500000014901161 -0.09000000357627869 0.012500000186264515
v 0.03500000014901161 0.09000000357627869 -0.012500000186264515
v -0.03500000014901161 0.09000000357627869 -0.012500000186264515
v 0.03500000014901161 -0.09000000357627869 -0.012500000186264515
v -0.03500000014901161 -0.09000000357627869 -0.012500000186264515
vt 0 1
vt 1 1
vt 0 0
vt 1 0
vt 0 1
vt 1 1
vt 0 0
vt 1 0
vt 0 1
vt 1 1
vt 0 0
vt 1 0
vt 0 1
vt 1 1
vt 0 0
vt 1 0
vt 0 1
vt 1 1
vt 0 0
vt 1 0
vt 0 1
vt 1 1
vt 0 0
vt 1 0
vn 1 0 0
vn 1 0 0
vn 1 0 0
vn 1 0 0
vn -1 0 0
vn -1 0 0
vn -1 0 0
vn -1 0 0
vn 0 1 0
vn 0 1 0
vn 0 1 0
vn 0 1 0
vn 0 -1 0
vn 0 -1 0
vn 0 -1 0
vn 0 -1 0
vn 0 0 1
vn 0 0 1
vn 0 0 1
vn 0 0 1
vn 0 0 -1
vn 0 0 -1
vn 0 0 -1
vn 0 0 -1
f 197/197/197 199/199/199 198/198/198
f 199/199/199 200/200/200 198/198/198
f 201/201/201 203/203/203 202/202/202
f 203/203/203 204/204/204 202/202/202
f 205/205/205 207/207/207 206/206/206
f 207/207/207 208/208/208 206/206/206
f 209/209/209 211/211/211 210/210/210
f 211/211/211 212/212/212 210/210/210
f 213/213/213 215/215/215 214/214/214
f 215/215/215 216/216/216 214/214/214
f 217/217/217 219/219/219 218/218/218
f 219/219/219 220/220/220 218/218/218
o 
v 0.10999999940395355 0.05000000074505806 0.007499999832361937
v 0.10999999940395355 0.05000000074505806 -0.007499999832361937
v 0.10999999940395355 -0.05000000074505806 0.007499999832361937
v 0.10999999940395355 -0.05000000074505806 -0.007499999832361937
v -0.10999999940395355 0.05000000074505806 -0.007499999832361937
v -0.10999999940395355 0.05000000074505806 0.007499999832361937
v -0.10999999940395355 -0.05000000074505806 -0.007499999832361937
v -0.10999999940395355 -0.05000000074505806 0.007499999832361937
v -0.10999999940395355 0.05000000074505806 -0.007499999832361937
v 0.10999999940395355 0.05000000074505806 -0.007499999832361937
v -0.10999999940395355 0.05000000074505806 0.007499999832361937
v 0.10999999940395355 0.05000000074505806 0.007499999832361937
v -0.10999999940395355 -0.05000000074505806 0.007499999832361937
v 0.10999999940395355 -0.05000000074505806 0.007499999832361937
v -0.10999999940395355 -0.05000000074505806 -0.007499999832361937
v 0.10999999940395355 -0.05000000074505806 -0.007499999832361937
v -0.10999999940395355 0.05000000074505806 0.007499999832361937
v 0.10999999940395355 0.05000000074505806 0.007499999832361937
v -0.10999999940395355 -0.05000000074505806 0.007499999832361937
v 0.10999999940395355 -0.05000000074505806 0.007499999832361937
v 0.10999999940395355 0.05000000074505806 -0.007499999832361937
v -0.10999999940395355 0.05000000074505806 -0.007499999832361937
v 0.10999999940395355 -0.05000000074505806 -0.007499999832361937
v -0.10999999940395355 -0.05000000074505806 -0.007499999832361937
vt 0 1
vt 1 1
vt 0 0
vt 1 0
vt 0 1
vt 1 1
vt 0 0
vt 1 0
vt 0 1
vt 1 1
vt 0 0
vt 1 0
vt 0 1
vt 1 1
vt 0 0
vt 1 0
vt 0 1
vt 1 1
vt 0 0
vt 1 0
vt 0 1
vt 1 1
vt 0 0
vt 1 0
vn 1 0 0
vn 1 0 0
vn 1 0 0
vn 1 0 0
vn -1 0 0
vn -1 0 0
vn -1 0 0
vn -1 0 0
vn 0 1 0
vn 0 1 0
vn 0 1 0
vn 0 1 0
vn 0 -1 0
vn 0 -1 0
vn 0 -1 0
vn 0 -1 0
vn 0 0 1
vn 0 0 1
vn 0 0 1
vn 0 0 1
vn 0 0 -1
vn 0 0 -1
vn 0 0 -1
vn 0 0 -1
f 221/221/221 223/223/223 222/222/222
f 223/223/223 224/224/224 222/222/222
f 225/225/225 227/227/227 226/226/226
f 227/227/227 228/228/228 226/226/226
f 229/229/229 231/231/231 230/230/230
f 231/231/231 232/232/232 230/230/230
f 233/233/233 235/235/235 234/234/234
f 235/235/235 236/236/236 234/234/234
f 237/237/237 239/239/239 238/238/238
f 239/239/239 240/240/240 238/238/238
f 241/241/241 243/243/243 242/242/242
f 243/243/243 244/244/244 242/242/242
