o 
v 0 0.14000000059604645 0.20000000298023224
v 0.10000000149011612 0.14000000059604645 0.17320507764816284
v 0.17320507764816284 0.14000000059604645 0.10000000149011612
v 0.20000000298023224 0.14000000059604645 1.2246467698671066e-17
v 0.17320507764816284 0.14000000059604645 -0.10000000149011612
v 0.10000000149011612 0.14000000059604645 -0.17320507764816284
v 2.4492935397342132e-17 0.14000000059604645 -0.20000000298023224
v -0.10000000149011612 0.14000000059604645 -0.17320507764816284
v -0.17320507764816284 0.14000000059604645 -0.10000000149011612
v -0.20000000298023224 0.14000000059604645 -3.6739405577555036e-17
v -0.17320507764816284 0.14000000059604645 0.10000000149011612
v -0.10000000149011612 0.14000000059604645 0.17320507764816284
v -4.8985870794684264e-17 0.14000000059604645 0.20000000298023224
v 0 -0.14000000059604645 0.18000000715255737
v 0.09000000357627869 -0.14000000059604645 0.15588457882404327
v 0.15588457882404327 -0.14000000059604645 0.09000000357627869
v 0.18000000715255737 -0.14000000059604645 1.102182101152202e-17
v 0.15588457882404327 -0.14000000059604645 -0.09000000357627869
v 0.09000000357627869 -0.14000000059604645 -0.15588457882404327
v 2.204364202304404e-17 -0.14000000059604645 -0.18000000715255737
v -0.09000000357627869 -0.14000000059604645 -0.15588457882404327
v -0.15588457882404327 -0.14000000059604645 -0.09000000357627869
v -0.18000000715255737 -0.14000000059604645 -3.306546303456606e-17
v -0.15588457882404327 -0.14000000059604645 0.09000000357627869
v -0.09000000357627869 -0.14000000059604645 0.15588457882404327
v -4.408728404608808e-17 -0.14000000059604645 0.18000000715255737
v 0 0.14000000059604645 0
v 0 0.14000000059604645 0
v 0 0.14000000059604645 0
v 0 0.14000000059604645 0
v 0 0.14000000059604645 0
v 0 0.14000000059604645 0
v 0 0.14000000059604645 0
v 0 0.14000000059604645 0
v 0 0.14000000059604645 0
v 0 0.14000000059604645 0
v 0 0.14000000059604645 0
v 0 0.14000000059604645 0
v 0 0.14000000059604645 0.20000000298023224
v 0.10000000149011612 0.14000000059604645 0.17320507764816284
v 0.17320507764816284 0.14000000059604645 0.10000000149011612
v 0.20000000298023224 0.14000000059604645 1.2246467698671066e-17
v 0.17320507764816284 0.14000000059604645 -0.10000000149011612
v 0.10000000149011612 0.14000000059604645 -0.17320507764816284
v 2.4492935397342132e-17 0.14000000059604645 -0.20000000298023224
v -0.10000000149011612 0.14000000059604645 -0.17320507764816284
v -0.17320507764816284 0.14000000059604645 -0.10000000149011612
v -0.20000000298023224 0.14000000059604645 -3.6739405577555036e-17
v -0.17320507764816284 0.14000000059604645 0.10000000149011612
v -0.10000000149011612 0.14000000059604645 0.17320507764816284
v -4.8985870794684264e-17 0.14000000059604645 0.20000000298023224
v 0 -0.14000000059604645 0
v 0 -0.14000000059604645 0
v 0 -0.14000000059604645 0
v 0 -0.14000000059604645 0
v 0 -0.14000000059604645 0
v 0 -0.14000000059604645 0
v 0 -0.14000000059604645 0
v 0 -0.14000000059604645 0
v 0 -0.14000000059604645 0
v 0 -0.14000000059604645 0
v 0 -0.14000000059604645 0
v 0 -0.14000000059604645 0
v 0 -0.14000000059604645 0.18000000715255737
v 0.09000000357627869 -0.14000000059604645 0.15588457882404327
v 0.15588457882404327 -0.14000000059604645 0.09000000357627869
v 0.18000000715255737 -0.14000000059604645 1.102182101152202e-17
v 0.15588457882404327 -0.14000000059604645 -0.09000000357627869
v 0.09000000357627869 -0.14000000059604645 -0.15588457882404327
v 2.204364202304404e-17 -0.14000000059604645 -0.18000000715255737
v -0.09000000357627869 -0.14000000059604645 -0.15588457882404327
v -0.15588457882404327 -0.14000000059604645 -0.09000000357627869
v -0.18000000715255737 -0.14000000059604645 -3.306546303456606e-17
v -0.15588457882404327 -0.14000000059604645 0.09000000357627869
v -0.09000000357627869 -0.14000000059604645 0.15588457882404327
v -4.408728404608808e-17 -0.14000000059604645 0.18000000715255737
vt 0 1
vt 0.0833333358168602 1
vt 0.1666666716337204 1
vt 0.25 1
vt 0.3333333432674408 1
vt 0.4166666567325592 1
vt 0.5 1
vt 0.5833333134651184 1
vt 0.6666666865348816 1
vt 0.75 1
vt 0.8333333134651184 1
vt 0.9166666865348816 1
vt 1 1
vt 0 0
vt 0.0833333358168602 0
vt 0.1666666716337204 0
vt 0.25 0
vt 0.3333333432674408 0
vt 0.4166666567325592 0
vt 0.5 0
vt 0.5833333134651184 0
vt 0.6666666865348816 0
vt 0.75 0
vt 0.8333333134651184 0
vt 0.9166666865348816 0
vt 1 0
vt 0.5 0.5
vt 0.5 0.5
vt 0.5 0.5
vt 0.5 0.5
vt 0.5 0.5
vt 0.5 0.5
vt 0.5 0.5
vt 0.5 0.5
vt 0.5 0.5
vt 0.5 0.5
vt 0.5 0.5
vt 0.5 0.5
vt 1 0.5
vt 0.9330127239227295 0.75
vt 0.75 0.9330127239227295
vt 0.5 1
vt 0.25 0.9330127239227295
vt 0.0669872984290123 0.75
vt 0 0.5
vt 0.0669872984290123 0.25
vt 0.25 0.0669872984290123
vt 0.5 0
vt 0.75 0.0669872984290123
vt 0.9330127239227295 0.25
vt 1 0.5
vt 0.5 0.5
vt 0.5 0.5
vt 0.5 0.5
vt 0.5 0.5
vt 0.5 0.5
vt 0.5 0.5
vt 0.5 0.5
vt 0.5 0.5
vt 0.5 0.5
vt 0.5 0.5
vt 0.5 0.5
vt 0.5 0.5
vt 1 0.5
vt 0.9330127239227295 0.25
vt 0.75 0.0669872984290123
vt 0.5 0
vt 0.25 0.0669872984290123
vt 0.0669872984290123 0.25
vt 0 0.5
vt 0.0669872984290123 0.75
vt 0.25 0.9330127239227295
vt 0.5 1
vt 0.75 0.9330127239227295
vt 0.9330127239227295 0.75
vt 1 0.5
vn 0 -0.07124704892894387 0.9974586999063754
vn 0.49872936026731324 -0.07124705040239035 0.863824567268329
vn 0.863824567268329 -0.07124705040239035 0.49872936026731324
vn 0.9974586999063754 -0.07124704892894387 6.107673362924981e-17
vn 0.863824567268329 -0.07124705040239035 -0.49872936026731324
vn 0.49872936026731324 -0.07124705040239035 -0.863824567268329
vn 1.2215346725849962e-16 -0.07124704892894387 -0.9974586999063754
vn -0.49872936026731324 -0.07124705040239035 -0.863824567268329
vn -0.863824567268329 -0.07124705040239035 -0.49872936026731324
vn -0.9974586999063754 -0.07124704892894387 -1.8323019427030449e-16
vn -0.863824567268329 -0.07124705040239035 0.49872936026731324
vn -0.49872936026731324 -0.07124705040239035 0.863824567268329
vn -2.4430693451699923e-16 -0.07124704892894387 0.9974586999063754
vn 0 -0.07124704892894387 0.9974586999063754
vn 0.49872936026731324 -0.07124705040239035 0.863824567268329
vn 0.863824567268329 -0.07124705040239035 0.49872936026731324
vn 0.9974586999063754 -0.07124704892894387 6.107673362924981e-17
vn 0.863824567268329 -0.07124705040239035 -0.49872936026731324
vn 0.49872936026731324 -0.07124705040239035 -0.863824567268329
vn 1.2215346725849962e-16 -0.07124704892894387 -0.9974586999063754
vn -0.49872936026731324 -0.07124705040239035 -0.863824567268329
vn -0.863824567268329 -0.07124705040239035 -0.49872936026731324
vn -0.9974586999063754 -0.07124704892894387 -1.8323019427030449e-16
vn -0.863824567268329 -0.07124705040239035 0.49872936026731324
vn -0.49872936026731324 -0.07124705040239035 0.863824567268329
vn -2.4430693451699923e-16 -0.07124704892894387 0.9974586999063754
vn 0 1 0
vn 0 1 0
vn 0 1 0
vn 0 1 0
vn 0 1 0
vn 0 1 0
vn 0 1 0
vn 0 1 0
vn 0 1 0
vn 0 1 0
vn 0 1 0
vn 0 1 0
vn 0 1 0
vn 0 1 0
vn 0 1 0
vn 0 1 0
vn 0 1 0
vn 0 1 0
vn 0 1 0
vn 0 1 0
vn 0 1 0
vn 0 1 0
vn 0 1 0
vn 0 1 0
vn 0 1 0
vn 0 -1 0
vn 0 -1 0
vn 0 -1 0
vn 0 -1 0
vn 0 -1 0
vn 0 -1 0
vn 0 -1 0
vn 0 -1 0
vn 0 -1 0
vn 0 -1 0
vn 0 -1 0
vn 0 -1 0
vn 0 -1 0
vn 0 -1 0
vn 0 -1 0
vn 0 -1 0
vn 0 -1 0
vn 0 -1 0
vn 0 -1 0
vn 0 -1 0
vn 0 -1 0
vn 0 -1 0
vn 0 -1 0
vn 0 -1 0
vn 0 -1 0
f 1/1/1 14/14/14 2/2/2
f 14/14/14 15/15/15 2/2/2
f 2/2/2 15/15/15 3/3/3
f 15/15/15 16/16/16 3/3/3
f 3/3/3 16/16/16 4/4/4
f 16/16/16 17/17/17 4/4/4
f 4/4/4 17/17/17 5/5/5
f 17/17/17 18/18/18 5/5/5
f 5/5/5 18/18/18 6/6/6
f 18/18/18 19/19/19 6/6/6
f 6/6/6 19/19/19 7/7/7
f 19/19/19 20/20/20 7/7/7
f 7/7/7 20/20/20 8/8/8
f 20/20/20 21/21/21 8/8/8
f 8/8/8 21/21/21 9/9/9
f 21/21/21 22/22/22 9/9/9
f 9/9/9 22/22/22 10/10/10
f 22/22/22 23/23/23 10/10/10
f 10/10/10 23/23/23 11/11/11
f 23/23/23 24/24/24 11/11/11
f 11/11/11 24/24/24 12/12/12
f 24/24/24 25/25/25 12/12/12
f 12/12/12 25/25/25 13/13/13
f 25/25/25 26/26/26 13/13/13
f 39/39/39 40/40/40 27/27/27
f 40/40/40 41/41/41 28/28/28
f 41/41/41 42/42/42 29/29/29
f 42/42/42 43/43/43 30/30/30
f 43/43/43 44/44/44 31/31/31
f 44/44/44 45/45/45 32/32/32
f 45/45/45 46/46/46 33/33/33
f 46/46/46 47/47/47 34/34/34
f 47/47/47 48/48/48 35/35/35
f 48/48/48 49/49/49 36/36/36
f 49/49/49 50/50/50 37/37/37
f 50/50/50 51/51/51 38/38/38
f 65/65/65 64/64/64 52/52/52
f 66/66/66 65/65/65 53/53/53
f 67/67/67 66/66/66 54/54/54
f 68/68/68 67/67/67 55/55/55
f 69/69/69 68/68/68 56/56/56
f 70/70/70 69/69/69 57/57/57
f 71/71/71 70/70/70 58/58/58
f 72/72/72 71/71/71 59/59/59
f 73/73/73 72/72/72 60/60/60
f 74/74/74 73/73/73 61/61/61
f 75/75/75 74/74/74 62/62/62
f 76/76/76 75/75/75 63/63/63
o 
v 0 0.20499999821186066 0
v 0 0.20499999821186066 0
v 0 0.20499999821186066 0
v 0 0.20499999821186066 0
v 0 0.20499999821186066 0
v 0 0.20499999821186066 0
v 0 0.20499999821186066 0
v 0 0.20499999821186066 0
v 0 0.20499999821186066 0
v 0 0.20499999821186066 0
v 0 0.20499999821186066 0
v 0 0.20499999821186066 0
v 0 0.20499999821186066 0
v -0.03735828399658203 0.20156726241111755 0
v -0.032353222370147705 0.20156726241111755 0.018679141998291016
v -0.018679141998291016 0.20156726241111755 0.032353222370147705
v -2.287535103586049e-18 0.20156726241111755 0.03735828399658203
v 0.018679141998291016 0.20156726241111755 0.032353222370147705
v 0.032353222370147705 0.20156726241111755 0.018679141998291016
v 0.03735828399658203 0.20156726241111755 4.575070207172098e-18
v 0.032353222370147705 0.20156726241111755 -0.018679141998291016
v 0.018679141998291016 0.20156726241111755 -0.032353222370147705
v 6.862605103962994e-18 0.20156726241111755 -0.03735828399658203
v -0.018679141998291016 0.20156726241111755 -0.032353222370147705
v -0.032353222370147705 0.20156726241111755 -0.018679141998291016
v -0.03735828399658203 0.20156726241111755 -9.150140414344196e-18
v -0.07346542924642563 0.1913839876651764 0
v -0.06362292915582657 0.1913839876651764 0.036732714623212814
v -0.036732714623212814 0.1913839876651764 0.06362292915582657
v -4.498460047559887e-18 0.1913839876651764 0.07346542924642563
v 0.036732714623212814 0.1913839876651764 0.06362292915582657
v 0.06362292915582657 0.1913839876651764 0.036732714623212814
v 0.07346542924642563 0.1913839876651764 8.996920095119774e-18
v 0.06362292915582657 0.1913839876651764 -0.036732714623212814
v 0.036732714623212814 0.1913839876651764 -0.06362292915582657
v 1.3495380556269967e-17 0.1913839876651764 -0.07346542924642563
v -0.036732714623212814 0.1913839876651764 -0.06362292915582657
v -0.06362292915582657 0.1913839876651764 -0.036732714623212814
v -0.07346542924642563 0.1913839876651764 -1.7993840190239548e-17
v -0.10711220651865005 0.17479123175144196 0
v -0.09276188910007477 0.17479123175144196 0.05355610325932503
v -0.05355610325932503 0.17479123175144196 0.09276188910007477
v -6.558730793364595e-18 0.17479123175144196 0.10711220651865005
v 0.05355610325932503 0.17479123175144196 0.09276188910007477
v 0.09276188910007477 0.17479123175144196 0.05355610325932503
v 0.10711220651865005 0.17479123175144196 1.311746158672919e-17
v 0.09276188910007477 0.17479123175144196 -0.05355610325932503
v 0.05355610325932503 0.17479123175144196 -0.09276188910007477
v 1.9676193207274397e-17 0.17479123175144196 -0.10711220651865005
v -0.05355610325932503 0.17479123175144196 -0.09276188910007477
v -0.09276188910007477 0.17479123175144196 -0.05355610325932503
v -0.10711220651865005 0.17479123175144196 -2.623492317345838e-17
v -0.13717177510261536 0.1523446887731552 0
v -0.11879424005746841 0.1523446887731552 0.06858588755130768
v -0.06858588755130768 0.1523446887731552 0.11879424005746841
v -8.399349104179828e-18 0.1523446887731552 0.13717177510261536
v 0.06858588755130768 0.1523446887731552 0.11879424005746841
v 0.11879424005746841 0.1523446887731552 0.06858588755130768
v 0.13717177510261536 0.1523446887731552 1.6798698208359656e-17
v 0.11879424005746841 0.1523446887731552 -0.06858588755130768
v 0.06858588755130768 0.1523446887731552 -0.11879424005746841
v 2.519804565817826e-17 0.1523446887731552 -0.13717177510261536
v -0.06858588755130768 0.1523446887731552 -0.11879424005746841
v -0.11879424005746841 0.1523446887731552 -0.06858588755130768
v -0.13717177510261536 0.1523446887731552 -3.359739641671931e-17
v -0.16263742744922638 0.12479609251022339 0
v -0.14084814488887787 0.12479609251022339 0.08131871372461319
v -0.08131871372461319 0.12479609251022339 0.14084814488887787
v -9.95867058562599e-18 0.12479609251022339 0.16263742744922638
v 0.08131871372461319 0.12479609251022339 0.14084814488887787
v 0.14084814488887787 0.12479609251022339 0.08131871372461319
v 0.16263742744922638 0.12479609251022339 1.991734117125198e-17
v 0.14084814488887787 0.12479609251022339 -0.08131871372461319
v 0.08131871372461319 0.12479609251022339 -0.14084814488887787
v 2.98760134112392e-17 0.12479609251022339 -0.16263742744922638
v -0.08131871372461319 0.12479609251022339 -0.14084814488887787
v -0.14084814488887787 0.12479609251022339 -0.08131871372461319
v -0.16263742744922638 0.12479609251022339 -3.983468234250396e-17
v -0.18265633285045624 0.09306805580854416 0
v -0.15818503499031067 0.09306805580854416 0.09132816642522812
v -0.09132816642522812 0.09306805580854416 0.15818503499031067
v -1.118447532563261e-17 0.09306805580854416 0.18265633285045624
v 0.09132816642522812 0.09306805580854416 0.15818503499031067
v 0.15818503499031067 0.09306805580854416 0.09132816642522812
v 0.18265633285045624 0.09306805580854416 2.236895065126522e-17
v 0.15818503499031067 0.09306805580854416 -0.09132816642522812
v 0.09132816642522812 0.09306805580854416 -0.15818503499031067
v 3.3553423495355993e-17 0.09306805580854416 -0.18265633285045624
v -0.09132816642522812 0.09306805580854416 -0.15818503499031067
v -0.15818503499031067 0.09306805580854416 -0.09132816642522812
v -0.18265633285045624 0.09306805580854416 -4.473790130253044e-17
vt 0.0416666679084301 1
vt 0.125 1
vt 0.2083333283662796 1
vt 0.2916666567325592 1
vt 0.375 1
vt 0.4583333432674408 1
vt 0.5416666865348816 1
vt 0.625 1
vt 0.7083333134651184 1
vt 0.7916666865348816 1
vt 0.875 1
vt 0.9583333134651184 1
vt 1.0416666269302368 1
vt 0 0.8333333134651184
vt 0.0833333358168602 0.8333333134651184
vt 0.1666666716337204 0.8333333134651184
vt 0.25 0.8333333134651184
vt 0.3333333432674408 0.8333333134651184
vt 0.4166666567325592 0.8333333134651184
vt 0.5 0.8333333134651184
vt 0.5833333134651184 0.8333333134651184
vt 0.6666666865348816 0.8333333134651184
vt 0.75 0.8333333134651184
vt 0.8333333134651184 0.8333333134651184
vt 0.9166666865348816 0.8333333134651184
vt 1 0.8333333134651184
vt 0 0.6666666865348816
vt 0.0833333358168602 0.6666666865348816
vt 0.1666666716337204 0.6666666865348816
vt 0.25 0.6666666865348816
vt 0.3333333432674408 0.6666666865348816
vt 0.4166666567325592 0.6666666865348816
vt 0.5 0.6666666865348816
vt 0.5833333134651184 0.6666666865348816
vt 0.6666666865348816 0.6666666865348816
vt 0.75 0.6666666865348816
vt 0.8333333134651184 0.6666666865348816
vt 0.9166666865348816 0.6666666865348816
vt 1 0.6666666865348816
vt 0 0.5
vt 0.0833333358168602 0.5
vt 0.1666666716337204 0.5
vt 0.25 0.5
vt 0.3333333432674408 0.5
vt 0.4166666567325592 0.5
vt 0.5 0.5
vt 0.5833333134651184 0.5
vt 0.6666666865348816 0.5
vt 0.75 0.5
vt 0.8333333134651184 0.5
vt 0.9166666865348816 0.5
vt 1 0.5
vt 0 0.3333333432674408
vt 0.0833333358168602 0.3333333432674408
vt 0.1666666716337204 0.3333333432674408
vt 0.25 0.3333333432674408
vt 0.3333333432674408 0.3333333432674408
vt 0.4166666567325592 0.3333333432674408
vt 0.5 0.3333333432674408
vt 0.5833333134651184 0.3333333432674408
vt 0.6666666865348816 0.3333333432674408
vt 0.75 0.3333333432674408
vt 0.8333333134651184 0.3333333432674408
vt 0.9166666865348816 0.3333333432674408
vt 1 0.3333333432674408
vt 0 0.1666666716337204
vt 0.0833333358168602 0.1666666716337204
vt 0.1666666716337204 0.1666666716337204
vt 0.25 0.1666666716337204
vt 0.3333333432674408 0.1666666716337204
vt 0.4166666567325592 0.1666666716337204
vt 0.5 0.1666666716337204
vt 0.5833333134651184 0.1666666716337204
vt 0.6666666865348816 0.1666666716337204
vt 0.75 0.1666666716337204
vt 0.8333333134651184 0.1666666716337204
vt 0.9166666865348816 0.1666666716337204
vt 1 0.1666666716337204
vt 0 0
vt 0.0833333358168602 0
vt 0.1666666716337204 0
vt 0.25 0
vt 0.3333333432674408 0
vt 0.4166666567325592 0
vt 0.5 0
vt 0.5833333134651184 0
vt 0.6666666865348816 0
vt 0.75 0
vt 0.8333333134651184 0
vt 0.9166666865348816 0
vt 1 0
vn 0 1 0
vn 0 1 0
vn 0 1 0
vn 0 1 0
vn 0 1 0
vn 0 1 0
vn 0 1 0
vn 0 1 0
vn 0 1 0
vn 0 1 0
vn 0 1 0
vn 0 1 0
vn 0 1 0
vn -0.18223552375629407 0.9832549078856762 0
vn -0.1578205969301683 0.9832549072673702 0.09111776182084891
vn -0.09111776182084891 0.9832549072673702 0.1578205969301683
vn -1.115870780387587e-17 0.9832549078856762 0.18223552375629407
vn 0.09111776182084891 0.9832549072673702 0.1578205969301683
vn 0.1578205969301683 0.9832549072673702 0.09111776182084891
vn 0.18223552375629407 0.9832549078856762 2.231741560775174e-17
vn 0.1578205969301683 0.9832549072673702 -0.09111776182084891
vn 0.09111776182084891 0.9832549072673702 -0.1578205969301683
vn 3.3476121757266386e-17 0.9832549078856762 -0.18223552375629407
vn -0.09111776182084891 0.9832549072673702 -0.1578205969301683
vn -0.1578205969301683 0.9832549072673702 -0.09111776182084891
vn -0.18223552375629407 0.9832549078856762 -4.463483121550348e-17
vn -0.35836795904818447 0.9335804228493864 0
vn -0.3103557603629947 0.9335804215909704 0.1791839792825619
vn -0.1791839792825619 0.9335804215909704 0.3103557603629947
vn -2.1943709249809845e-17 0.9335804228493864 0.35836795904818447
vn 0.1791839792825619 0.9335804215909704 0.3103557603629947
vn 0.3103557603629947 0.9335804215909704 0.1791839792825619
vn 0.35836795904818447 0.9335804228493864 4.388741849961969e-17
vn 0.3103557603629947 0.9335804215909704 -0.1791839792825619
vn 0.1791839792825619 0.9335804215909704 -0.3103557603629947
vn 6.5831124440707e-17 0.9335804228493864 -0.35836795904818447
vn -0.1791839792825619 0.9335804215909704 -0.3103557603629947
vn -0.3103557603629947 0.9335804215909704 -0.1791839792825619
vn -0.35836795904818447 0.9335804228493864 -8.777483699923938e-17
vn -0.5224985580997583 0.8526401684084991 0
vn -0.4524970400475335 0.8526401609893254 0.2612492767766415
vn -0.2612492767766415 0.8526401609893254 0.4524970400475335
vn -3.199381146287687e-17 0.8526401684084991 0.5224985580997583
vn 0.2612492767766415 0.8526401609893254 0.4524970400475335
vn 0.4524970400475335 0.8526401609893254 0.2612492767766415
vn 0.5224985580997583 0.8526401684084991 6.398762292575374e-17
vn 0.4524970400475335 0.8526401609893254 -0.2612492767766415
vn 0.2612492767766415 0.8526401609893254 -0.4524970400475335
vn 9.598142777118559e-17 0.8526401684084991 -0.5224985580997583
vn -0.2612492767766415 0.8526401609893254 -0.4524970400475335
vn -0.4524970400475335 0.8526401609893254 -0.2612492767766415
vn -0.5224985580997583 0.8526401684084991 -1.2797524585150748e-16
vn -0.6691306233342523 0.7431448101926803 0
vn -0.5794841095214379 0.7431448158568591 0.334565314217151
vn -0.334565314217151 0.7431448158568591 0.5794841095214379
vn -4.097243287873461e-17 0.7431448101926803 0.6691306233342523
vn 0.334565314217151 0.7431448158568591 0.5794841095214379
vn 0.5794841095214379 0.7431448158568591 0.334565314217151
vn 0.6691306233342523 0.7431448101926803 8.194486575746921e-17
vn 0.5794841095214379 0.7431448158568591 -0.334565314217151
vn 0.334565314217151 0.7431448158568591 -0.5794841095214379
vn 1.2291729201875893e-16 0.7431448101926803 -0.6691306233342523
vn -0.334565314217151 0.7431448158568591 -0.5794841095214379
vn -0.5794841095214379 0.7431448158568591 -0.334565314217151
vn -0.6691306233342523 0.7431448101926803 -1.6388973151493843e-16
vn -0.7933533320874723 0.6087614397000725 0
vn -0.6870641620762454 0.6087614220240093 0.39667665452578943
vn -0.39667665452578943 0.6087614220240093 0.6870641620762454
vn -4.85788821807799e-17 0.6087614397000725 0.7933533320874723
vn 0.39667665452578943 0.6087614220240093 0.6870641620762454
vn 0.6870641620762454 0.6087614220240093 0.39667665452578943
vn 0.7933533320874723 0.6087614397000725 9.71577643615598e-17
vn 0.6870641620762454 0.6087614220240093 -0.39667665452578943
vn 0.39667665452578943 0.6087614220240093 -0.6870641620762454
vn 1.457366531597847e-16 0.6087614397000725 -0.7933533320874723
vn -0.39667665452578943 0.6087614220240093 -0.6870641620762454
vn -0.6870641620762454 0.6087614220240093 -0.39667665452578943
vn -0.7933533320874723 0.6087614397000725 -1.943155287231196e-16
vn -0.8910065294936963 0.45399048932725333 0
vn -0.7716342859768879 0.45399049235993405 0.4455032677228337
vn -0.4455032677228337 0.45399049235993405 0.7716342859768879
vn -5.455841453783618e-17 0.45399048932725333 0.8910065294936963
vn 0.4455032677228337 0.45399049235993405 0.7716342859768879
vn 0.7716342859768879 0.45399049235993405 0.4455032677228337
vn 0.8910065294936963 0.45399048932725333 1.0911682907567237e-16
vn 0.7716342859768879 0.45399049235993405 -0.4455032677228337
vn 0.4455032677228337 0.45399049235993405 -0.7716342859768879
vn 1.63675246922231e-16 0.45399048932725333 -0.8910065294936963
vn -0.4455032677228337 0.45399049235993405 -0.7716342859768879
vn -0.7716342859768879 0.45399049235993405 -0.4455032677228337
vn -0.8910065294936963 0.45399048932725333 -2.1823365815134473e-16
f 77/77/77 90/90/90 91/91/91
f 78/78/78 91/91/91 92/92/92
f 79/79/79 92/92/92 93/93/93
f 80/80/80 93/93/93 94/94/94
f 81/81/81 94/94/94 95/95/95
f 82/82/82 95/95/95 96/96/96
f 83/83/83 96/96/96 97/97/97
f 84/84/84 97/97/97 98/98/98
f 85/85/85 98/98/98 99/99/99
f 86/86/86 99/99/99 100/100/100
f 87/87/87 100/100/100 101/101/101
f 88/88/88 101/101/101 102/102/102
f 91/91/91 90/90/90 104/104/104
f 90/90/90 103/103/103 104/104/104
f 92/92/92 91/91/91 105/105/105
f 91/91/91 104/104/104 105/105/105
f 93/93/93 92/92/92 106/106/106
f 92/92/92 105/105/105 106/106/106
f 94/94/94 93/93/93 107/107/107
f 93/93/93 106/106/106 107/107/107
f 95/95/95 94/94/94 108/108/108
f 94/94/94 107/107/107 108/108/108
f 96/96/96 95/95/95 109/109/109
f 95/95/95 108/108/108 109/109/109
f 97/97/97 96/96/96 110/110/110
f 96/96/96 109/109/109 110/110/110
f 98/98/98 97/97/97 111/111/111
f 97/97/97 110/110/110 111/111/111
f 99/99/99 98/98/98 112/112/112
f 98/98/98 111/111/111 112/112/112
f 100/100/100 99/99/99 113/113/113
f 99/99/99 112/112/112 113/113/113
f 101/101/101 100/100/100 114/114/114
f 100/100/100 113/113/113 114/114/114
f 102/102/102 101/101/101 115/115/115
f 101/101/101 114/114/114 115/115/115
f 104/104/104 103/103/103 117/117/117
f 103/103/103 116/116/116 117/117/117
f 105/105/105 104/104/104 118/118/118
f 104/104/104 117/117/117 118/118/118
f 106/106/106 105/105/105 119/119/119
f 105/105/105 118/118/118 119/119/119
f 107/107/107 106/106/106 120/120/120
f 106/106/106 119/119/119 120/120/120
f 108/108/108 107/107/107 121/121/121
f 107/107/107 120/120/120 121/121/121
f 109/109/109 108/108/108 122/122/122
f 108/108/108 121/121/121 122/122/122
f 110/110/110 109/109/109 123/123/123
f 109/109/109 122/122/122 123/123/123
f 111/111/111 110/110/110 124/124/124
f 110/110/110 123/123/123 124/124/124
f 112/112/112 111/111/111 125/125/125
f 111/111/111 124/124/124 125/125/125
f 113/113/113 112/112/112 126/126/126
f 112/112/112 125/125/125 126/126/126
f 114/114/114 113/113/113 127/127/127
f 113/113/113 126/126/126 127/127/127
f 115/115/115 114/114/114 128/128/128
f 114/114/114 127/127/127 128/128/128
f 117/117/117 116/116/116 130/130/130
f 116/116/116 129/129/129 130/130/130
f 118/118/118 117/117/117 131/131/131
f 117/117/117 130/130/130 131/131/131
f 119/119/119 118/118/118 132/132/132
f 118/118/118 131/131/131 132/132/132
f 120/120/120 119/119/119 133/133/133
f 119/119/119 132/132/132 133/133/133
f 121/121/121 120/120/120 134/134/134
f 120/120/120 133/133/133 134/134/134
f 122/122/122 121/121/121 135/135/135
f 121/121/121 134/134/134 135/135/135
f 123/123/123 122/122/122 136/136/136
f 122/122/122 135/135/135 136/136/136
f 124/124/124 123/123/123 137/137/137
f 123/123/123 136/136/136 137/137/137
f 125/125/125 124/124/124 138/138/138
f 124/124/124 137/137/137 138/138/138
f 126/126/126 125/125/125 139/139/139
f 125/125/125 138/138/138 139/139/139
f 127/127/127 126/126/126 140/140/140
f 126/126/126 139/139/139 140/140/140
f 128/128/128 127/127/127 141/141/141
f 127/127/127 140/140/140 141/141/141
f 130/130/130 129/129/129 143/143/143
f 129/129/129 142/142/142 143/143/143
f 131/131/131 130/130/130 144/144/144
f 130/130/130 143/143/143 144/144/144
f 132/132/132 131/131/131 145/145/145
f 131/131/131 144/144/144 145/145/145
f 133/133/133 132/132/132 146/146/146
f 132/132/132 145/145/145 146/146/146
f 134/134/134 133/133/133 147/147/147
f 133/133/133 146/146/146 147/147/147
f 135/135/135 134/134/134 148/148/148
f 134/134/134 147/147/147 148/148/148
f 136/136/136 135/135/135 149/149/149
f 135/135/135 148/148/148 149/149/149
f 137/137/137 136/136/136 150/150/150
f 136/136/136 149/149/149 150/150/150
f 138/138/138 137/137/137 151/151/151
f 137/137/137 150/150/150 151/151/151
f 139/139/139 138/138/138 152/152/152
f 138/138/138 151/151/151 152/152/152
f 140/140/140 139/139/139 153/153/153
f 139/139/139 152/152/152 153/153/153
f 141/141/141 140/140/140 154/154/154
f 140/140/140 153/153/153 154/154/154
f 143/143/143 142/142/142 156/156/156
f 142/142/142 155/155/155 156/156/156
f 144/144/144 143/143/143 157/157/157
f 143/143/143 156/156/156 157/157/157
f 145/145/145 144/144/144 158/158/158
f 144/144/144 157/157/157 158/158/158
f 146/146/146 145/145/145 159/159/159
f 145/145/145 158/158/158 159/159/159
f 147/147/147 146/146/146 160/160/160
f 146/146/146 159/159/159 160/160/160
f 148/148/148 147/147/147 161/161/161
f 147/147/147 160/160/160 161/161/161
f 149/149/149 148/148/148 162/162/162
f 148/148/148 161/161/161 162/162/162
f 150/150/150 149/149/149 163/163/163
f 149/149/149 162/162/162 163/163/163
f 151/151/151 150/150/150 164/164/164
f 150/150/150 163/163/163 164/164/164
f 152/152/152 151/151/151 165/165/165
f 151/151/151 164/164/164 165/165/165
f 153/153/153 152/152/152 166/166/166
f 152/152/152 165/165/165 166/166/166
f 154/154/154 153/153/153 167/167/167
f 153/153/153 166/166/166 167/167/167
o 
v 0.019999999552965164 0.02500000037252903 0.07999999821186066
v 0.019999999552965164 0.02500000037252903 -0.07999999821186066
v 0.019999999552965164 -0.02500000037252903 0.07999999821186066
v 0.019999999552965164 -0.02500000037252903 -0.07999999821186066
v -0.019999999552965164 0.02500000037252903 -0.07999999821186066
v -0.019999999552965164 0.02500000037252903 0.07999999821186066
v -0.019999999552965164 -0.02500000037252903 -0.07999999821186066
v -0.019999999552965164 -0.02500000037252903 0.07999999821186066
v -0.019999999552965164 0.02500000037252903 -0.07999999821186066
v 0.019999999552965164 0.02500000037252903 -0.07999999821186066
v -0.019999999552965164 0.02500000037252903 0.07999999821186066
v 0.019999999552965164 0.02500000037252903 0.07999999821186066
v -0.019999999552965164 -0.02500000037252903 0.07999999821186066
v 0.019999999552965164 -0.02500000037252903 0.07999999821186066
v -0.019999999552965164 -0.02500000037252903 -0.07999999821186066
v 0.019999999552965164 -0.02500000037252903 -0.07999999821186066
v -0.019999999552965164 0.02500000037252903 0.07999999821186066
v 0.019999999552965164 0.02500000037252903 0.07999999821186066
v -0.019999999552965164 -0.02500000037252903 0.07999999821186066
v 0.019999999552965164 -0.02500000037252903 0.07999999821186066
v 0.019999999552965164 0.02500000037252903 -0.07999999821186066
v -0.019999999552965164 0.02500000037252903 -0.07999999821186066
v 0.019999999552965164 -0.02500000037252903 -0.07999999821186066
v -0.019999999552965164 -0.02500000037252903 -0.07999999821186066
vt 0 1
vt 1 1
vt 0 0
vt 1 0
vt 0 1
vt 1 1
vt 0 0
vt 1 0
vt 0 1
vt 1 1
vt 0 0
vt 1 0
vt 0 1
vt 1 1
vt 0 0
vt 1 0
vt 0 1
vt 1 1
vt 0 0
vt 1 0
vt 0 1
vt 1 1
vt 0 0
vt 1 0
vn 1 0 0
vn 1 0 0
vn 1 0 0
vn 1 0 0
vn -1 0 0
vn -1 0 0
vn -1 0 0
vn -1 0 0
vn 0 1 0
vn 0 1 0
vn 0 1 0
vn 0 1 0
vn 0 -1 0
vn 0 -1 0
vn 0 -1 0
vn 0 -1 0
vn 0 0 1
vn 0 0 1
vn 0 0 1
vn 0 0 1
vn 0 0 -1
vn 0 0 -1
vn 0 0 -1
vn 0 0 -1
f 168/168/168 170/170/170 169/169/169
f 170/170/170 171/171/171 169/169/169
f 172/172/172 174/174/174 173/173/173
f 174/174/174 175/175/175 173/173/173
f 176/176/176 178/178/178 177/177/177
f 178/178/178 179/179/179 177/177/177
f 180/180/180 182/182/182 181/181/181
f 182/182/182 183/183/183 181/181/181
f 184/184/184 186/186/186 185/185/185
f 186/186/186 187/187/187 185/185/185
f 188/188/188 190/190/190 189/189/189
f 190/190/190 191/191/191 189/189/189
o 
v 0.03999999910593033 0.05000000074505806 0.009999999776482582
v 0.03999999910593033 0.05000000074505806 -0.009999999776482582
v 0.03999999910593033 -0.05000000074505806 0.009999999776482582
v 0.03999999910593033 -0.05000000074505806 -0.009999999776482582
v -0.03999999910593033 0.05000000074505806 -0.009999999776482582
v -0.03999999910593033 0.05000000074505806 0.009999999776482582
v -0.03999999910593033 -0.05000000074505806 -0.009999999776482582
v -0.03999999910593033 -0.05000000074505806 0.009999999776482582
v -0.03999999910593033 0.05000000074505806 -0.009999999776482582
v 0.03999999910593033 0.05000000074505806 -0.009999999776482582
v -0.03999999910593033 0.05000000074505806 0.009999999776482582
v 0.03999999910593033 0.05000000074505806 0.009999999776482582
v -0.03999999910593033 -0.05000000074505806 0.009999999776482582
v 0.03999999910593033 -0.05000000074505806 0.009999999776482582
v -0.03999999910593033 -0.05000000074505806 -0.009999999776482582
v 0.03999999910593033 -0.05000000074505806 -0.009999999776482582
v -0.03999999910593033 0.05000000074505806 0.009999999776482582
v 0.03999999910593033 0.05000000074505806 0.009999999776482582
v -0.03999999910593033 -0.05000000074505806 0.009999999776482582
v 0.03999999910593033 -0.05000000074505806 0.009999999776482582
v 0.03999999910593033 0.05000000074505806 -0.009999999776482582
v -0.03999999910593033 0.05000000074505806 -0.009999999776482582
v 0.03999999910593033 -0.05000000074505806 -0.009999999776482582
v -0.03999999910593033 -0.05000000074505806 -0.009999999776482582
vt 0 1
vt 1 1
vt 0 0
vt 1 0
vt 0 1
vt 1 1
vt 0 0
vt 1 0
vt 0 1
vt 1 1
vt 0 0
vt 1 0
vt 0 1
vt 1 1
vt 0 0
vt 1 0
vt 0 1
vt 1 1
vt 0 0
vt 1 0
vt 0 1
vt 1 1
vt 0 0
vt 1 0
vn 1 0 0
vn 1 0 0
vn 1 0 0
vn 1 0 0
vn -1 0 0
vn -1 0 0
vn -1 0 0
vn -1 0 0
vn 0 1 0
vn 0 1 0
vn 0 1 0
vn 0 1 0
vn 0 -1 0
vn 0 -1 0
vn 0 -1 0
vn 0 -1 0
vn 0 0 1
vn 0 0 1
vn 0 0 1
vn 0 0 1
vn 0 0 -1
vn 0 0 -1
vn 0 0 -1
vn 0 0 -1
f 192/192/192 194/194/194 193/193/193
f 194/194/194 195/195/195 193/193/193
f 196/196/196 198/198/198 197/197/197
f 198/198/198 199/199/199 197/197/197
f 200/200/200 202/202/202 201/201/201
f 202/202/202 203/203/203 201/201/201
f 204/204/204 206/206/206 205/205/205
f 206/206/206 207/207/207 205/205/205
f 208/208/208 210/210/210 209/209/209
f 210/210/210 211/211/211 209/209/209
f 212/212/212 214/214/214 213/213/213
f 214/214/214 215/215/215 213/213/213
o 
v 0 -0.014999999664723873 0.004999999888241291
v 0.01060660183429718 -0.01060660183429718 0.004999999888241291
v 0.014999999664723873 -6.123234469720992e-19 0.004999999888241291
v 0.01060660183429718 0.01060660183429718 0.004999999888241291
v 1.836970237518721e-18 0.014999999664723873 0.004999999888241291
v -0.01060660183429718 0.01060660183429718 0.004999999888241291
v -0.014999999664723873 3.0616169246677665e-18 0.004999999888241291
v -0.01060660183429718 -0.01060660183429718 0.004999999888241291
v -3.673940475037442e-18 -0.014999999664723873 0.004999999888241291
v 0 -0.014999999664723873 -0.004999999888241291
v 0.01060660183429718 -0.01060660183429718 -0.004999999888241291
v 0.014999999664723873 -1.224646790546622e-18 -0.004999999888241291
v 0.01060660183429718 0.01060660183429718 -0.004999999888241291
v 1.836970237518721e-18 0.014999999664723873 -0.004999999888241291
v -0.01060660183429718 0.01060660183429718 -0.004999999888241291
v -0.014999999664723873 2.449293581093244e-18 -0.004999999888241291
v -0.01060660183429718 -0.01060660183429718 -0.004999999888241291
v -3.673940475037442e-18 -0.014999999664723873 -0.004999999888241291
v 0 3.061616976366555e-19 0.004999999888241291
v 0 3.061616976366555e-19 0.004999999888241291
v 0 3.061616976366555e-19 0.004999999888241291
v 0 3.061616976366555e-19 0.004999999888241291
v 0 3.061616976366555e-19 0.004999999888241291
v 0 3.061616976366555e-19 0.004999999888241291
v 0 3.061616976366555e-19 0.004999999888241291
v 0 3.061616976366555e-19 0.004999999888241291
v 0 -0.014999999664723873 0.004999999888241291
v 0.01060660183429718 -0.01060660183429718 0.004999999888241291
v 0.014999999664723873 -6.123234469720992e-19 0.004999999888241291
v 0.01060660183429718 0.01060660183429718 0.004999999888241291
v 1.836970237518721e-18 0.014999999664723873 0.004999999888241291
v -0.01060660183429718 0.01060660183429718 0.004999999888241291
v -0.014999999664723873 3.0616169246677665e-18 0.004999999888241291
v -0.01060660183429718 -0.01060660183429718 0.004999999888241291
v -3.673940475037442e-18 -0.014999999664723873 0.004999999888241291
v 0 -3.061616976366555e-19 -0.004999999888241291
v 0 -3.061616976366555e-19 -0.004999999888241291
v 0 -3.061616976366555e-19 -0.004999999888241291
v 0 -3.061616976366555e-19 -0.004999999888241291
v 0 -3.061616976366555e-19 -0.004999999888241291
v 0 -3.061616976366555e-19 -0.004999999888241291
v 0 -3.061616976366555e-19 -0.004999999888241291
v 0 -3.061616976366555e-19 -0.004999999888241291
v 0 -0.014999999664723873 -0.004999999888241291
v 0.01060660183429718 -0.01060660183429718 -0.004999999888241291
v 0.014999999664723873 -1.224646790546622e-18 -0.004999999888241291
v 0.01060660183429718 0.01060660183429718 -0.004999999888241291
v 1.836970237518721e-18 0.014999999664723873 -0.004999999888241291
v -0.01060660183429718 0.01060660183429718 -0.004999999888241291
v -0.014999999664723873 2.449293581093244e-18 -0.004999999888241291
v -0.01060660183429718 -0.01060660183429718 -0.004999999888241291
v -3.673940475037442e-18 -0.014999999664723873 -0.004999999888241291
vt 0 1
vt 0.125 1
vt 0.25 1
vt 0.375 1
vt 0.5 1
vt 0.625 1
vt 0.75 1
vt 0.875 1
vt 1 1
vt 0 0
vt 0.125 0
vt 0.25 0
vt 0.375 0
vt 0.5 0
vt 0.625 0
vt 0.75 0
vt 0.875 0
vt 1 0
vt 0.5 0.5
vt 0.5 0.5
vt 0.5 0.5
vt 0.5 0.5
vt 0.5 0.5
vt 0.5 0.5
vt 0.5 0.5
vt 0.5 0.5
vt 1 0.5
vt 0.8535534143447876 0.8535534143447876
vt 0.5 1
vt 0.1464466154575348 0.8535534143447876
vt 0 0.5
vt 0.1464466154575348 0.1464466154575348
vt 0.5 0
vt 0.8535534143447876 0.1464466154575348
vt 1 0.5
vt 0.5 0.5
vt 0.5 0.5
vt 0.5 0.5
vt 0.5 0.5
vt 0.5 0.5
vt 0.5 0.5
vt 0.5 0.5
vt 0.5 0.5
vt 1 0.5
vt 0.8535534143447876 0.1464466154575348
vt 0.5 0
vt 0.1464466154575348 0.1464466154575348
vt 0 0.5
vt 0.1464466154575348 0.8535534143447876
vt 0.5 1
vt 0.8535534143447876 0.8535534143447876
vt 1 0.5
vn 0 -1 6.123234262925839e-17
vn 0.7071067811865476 -0.7071067811865476 4.329780375814312e-17
vn 1 -6.123234262925839e-17 3.74939976039497e-33
vn 0.7071067811865476 0.7071067811865476 -4.329780375814312e-17
vn 1.2246468525851679e-16 1 -6.123234262925839e-17
vn -0.7071067811865476 0.7071067811865476 -4.329780375814312e-17
vn -1 1.8369701465288538e-16 -1.1248198179158957e-32
vn -0.7071067811865476 -0.7071067811865476 4.329780375814312e-17
vn -2.4492937051703357e-16 -1 6.123234262925839e-17
vn 0 -1 6.123234262925839e-17
vn 0.7071067811865476 -0.7071067811865476 4.329780375814312e-17
vn 1 -6.123234262925839e-17 3.74939976039497e-33
vn 0.7071067811865476 0.7071067811865476 -4.329780375814312e-17
vn 1.2246468525851679e-16 1 -6.123234262925839e-17
vn -0.7071067811865476 0.7071067811865476 -4.329780375814312e-17
vn -1 1.8369701465288538e-16 -1.1248198179158957e-32
vn -0.7071067811865476 -0.7071067811865476 4.329780375814312e-17
vn -2.4492937051703357e-16 -1 6.123234262925839e-17
vn 0 6.123234262925839e-17 1
vn 0 6.123234262925839e-17 1
vn 0 6.123234262925839e-17 1
vn 0 6.123234262925839e-17 1
vn 0 6.123234262925839e-17 1
vn 0 6.123234262925839e-17 1
vn 0 6.123234262925839e-17 1
vn 0 6.123234262925839e-17 1
vn 0 6.123234262925839e-17 1
vn 0 6.123234262925839e-17 1
vn 0 6.123234262925839e-17 1
vn 0 6.123234262925839e-17 1
vn 0 6.123234262925839e-17 1
vn 0 6.123234262925839e-17 1
vn 0 6.123234262925839e-17 1
vn 0 6.123234262925839e-17 1
vn 0 6.123234262925839e-17 1
vn 0 -6.123234262925839e-17 -1
vn 0 -6.123234262925839e-17 -1
vn 0 -6.123234262925839e-17 -1
vn 0 -6.123234262925839e-17 -1
vn 0 -6.123234262925839e-17 -1
vn 0 -6.123234262925839e-17 -1
vn 0 -6.123234262925839e-17 -1
vn 0 -6.123234262925839e-17 -1
vn 0 -6.123234262925839e-17 -1
vn 0 -6.123234262925839e-17 -1
vn 0 -6.123234262925839e-17 -1
vn 0 -6.123234262925839e-17 -1
vn 0 -6.123234262925839e-17 -1
vn 0 -6.123234262925839e-17 -1
vn 0 -6.123234262925839e-17 -1
vn 0 -6.123234262925839e-17 -1
vn 0 -6.123234262925839e-17 -1
f 216/216/216 225/225/225 217/217/217
f 225/225/225 226/226/226 217/217/217
f 217/217/217 226/226/226 218/218/218
f 226/226/226 227/227/227 218/218/218
f 218/218/218 227/227/227 219/219/219
f 227/227/227 228/228/228 219/219/219
f 219/219/219 228/228/228 220/220/220
f 228/228/228 229/229/229 220/220/220
f 220/220/220 229/229/229 221/221/221
f 229/229/229 230/230/230 221/221/221
f 221/221/221 230/230/230 222/222/222
f 230/230/230 231/231/231 222/222/222
f 222/222/222 231/231/231 223/223/223
f 231/231/231 232/232/232 223/223/223
f 223/223/223 232/232/232 224/224/224
f 232/232/232 233/233/233 224/224/224
f 242/242/242 243/243/243 234/234/234
f 243/243/243 244/244/244 235/235/235
f 244/244/244 245/245/245 236/236/236
f 245/245/245 246/246/246 237/237/237
f 246/246/246 247/247/247 238/238/238
f 247/247/247 248/248/248 239/239/239
f 248/248/248 249/249/249 240/240/240
f 249/249/249 250/250/250 241/241/241
f 260/260/260 259/259/259 251/251/251
f 261/261/261 260/260/260 252/252/252
f 262/262/262 261/261/261 253/253/253
f 263/263/263 262/262/262 254/254/254
f 264/264/264 263/263/263 255/255/255
f 265/265/265 264/264/264 256/256/256
f 266/266/266 265/265/265 257/257/257
f 267/267/267 266/266/266 258/258/258
