o 
v 0.800000011920929 0.07500000298023224 0.05000000074505806
v 0.800000011920929 0.07500000298023224 -0.05000000074505806
v 0.800000011920929 -0.07500000298023224 0.05000000074505806
v 0.800000011920929 -0.07500000298023224 -0.05000000074505806
v -0.800000011920929 0.07500000298023224 -0.05000000074505806
v -0.800000011920929 0.07500000298023224 0.05000000074505806
v -0.800000011920929 -0.07500000298023224 -0.05000000074505806
v -0.800000011920929 -0.07500000298023224 0.05000000074505806
v -0.800000011920929 0.07500000298023224 -0.05000000074505806
v 0.800000011920929 0.07500000298023224 -0.05000000074505806
v -0.800000011920929 0.07500000298023224 0.05000000074505806
v 0.800000011920929 0.07500000298023224 0.05000000074505806
v -0.800000011920929 -0.07500000298023224 0.05000000074505806
v 0.800000011920929 -0.07500000298023224 0.05000000074505806
v -0.800000011920929 -0.07500000298023224 -0.05000000074505806
v 0.800000011920929 -0.07500000298023224 -0.05000000074505806
v -0.800000011920929 0.07500000298023224 0.05000000074505806
v 0.800000011920929 0.07500000298023224 0.05000000074505806
v -0.800000011920929 -0.07500000298023224 0.05000000074505806
v 0.800000011920929 -0.07500000298023224 0.05000000074505806
v 0.800000011920929 0.07500000298023224 -0.05000000074505806
v -0.800000011920929 0.07500000298023224 -0.05000000074505806
v 0.800000011920929 -0.07500000298023224 -0.05000000074505806
v -0.800000011920929 -0.07500000298023224 -0.05000000074505806
vt 0 1
vt 1 1
vt 0 0
vt 1 0
vt 0 1
vt 1 1
vt 0 0
vt 1 0
vt 0 1
vt 1 1
vt 0 0
vt 1 0
vt 0 1
vt 1 1
vt 0 0
vt 1 0
vt 0 1
vt 1 1
vt 0 0
vt 1 0
vt 0 1
vt 1 1
vt 0 0
vt 1 0
vn 1 0 0
vn 1 0 0
vn 1 0 0
vn 1 0 0
vn -1 0 0
vn -1 0 0
vn -1 0 0
vn -1 0 0
vn 0 1 0
vn 0 1 0
vn 0 1 0
vn 0 1 0
vn 0 -1 0
vn 0 -1 0
vn 0 -1 0
vn 0 -1 0
vn 0 0 1
vn 0 0 1
vn 0 0 1
vn 0 0 1
vn 0 0 -1
vn 0 0 -1
vn 0 0 -1
vn 0 0 -1
f 1/1/1 3/3/3 2/2/2
f 3/3/3 4/4/4 2/2/2
f 5/5/5 7/7/7 6/6/6
f 7/7/7 8/8/8 6/6/6
f 9/9/9 11/11/11 10/10/10
f 11/11/11 12/12/12 10/10/10
f 13/13/13 15/15/15 14/14/14
f 15/15/15 16/16/16 14/14/14
f 17/17/17 19/19/19 18/18/18
f 19/19/19 20/20/20 18/18/18
f 21/21/21 23/23/23 22/22/22
f 23/23/23 24/24/24 22/22/22
o 
v 0.07500000298023224 1.2000000476837158 0.05000000074505806
v 0.07500000298023224 1.2000000476837158 -0.05000000074505806
v 0.07500000298023224 -1.2000000476837158 0.05000000074505806
v 0.07500000298023224 -1.2000000476837158 -0.05000000074505806
v -0.07500000298023224 1.2000000476837158 -0.05000000074505806
v -0.07500000298023224 1.2000000476837158 0.05000000074505806
v -0.07500000298023224 -1.2000000476837158 -0.05000000074505806
v -0.07500000298023224 -1.2000000476837158 0.05000000074505806
v -0.07500000298023224 1.2000000476837158 -0.05000000074505806
v 0.07500000298023224 1.2000000476837158 -0.05000000074505806
v -0.07500000298023224 1.2000000476837158 0.05000000074505806
v 0.07500000298023224 1.2000000476837158 0.05000000074505806
v -0.07500000298023224 -1.2000000476837158 0.05000000074505806
v 0.07500000298023224 -1.2000000476837158 0.05000000074505806
v -0.07500000298023224 -1.2000000476837158 -0.05000000074505806
v 0.07500000298023224 -1.2000000476837158 -0.05000000074505806
v -0.07500000298023224 1.2000000476837158 0.05000000074505806
v 0.07500000298023224 1.2000000476837158 0.05000000074505806
v -0.07500000298023224 -1.2000000476837158 0.05000000074505806
v 0.07500000298023224 -1.2000000476837158 0.05000000074505806
v 0.07500000298023224 1.2000000476837158 -0.05000000074505806
v -0.07500000298023224 1.2000000476837158 -0.05000000074505806
v 0.07500000298023224 -1.2000000476837158 -0.05000000074505806
v -0.07500000298023224 -1.2000000476837158 -0.05000000074505806
vt 0 1
vt 1 1
vt 0 0
vt 1 0
vt 0 1
vt 1 1
vt 0 0
vt 1 0
vt 0 1
vt 1 1
vt 0 0
vt 1 0
vt 0 1
vt 1 1
vt 0 0
vt 1 0
vt 0 1
vt 1 1
vt 0 0
vt 1 0
vt 0 1
vt 1 1
vt 0 0
vt 1 0
vn 1 0 0
vn 1 0 0
vn 1 0 0
vn 1 0 0
vn -1 0 0
vn -1 0 0
vn -1 0 0
vn -1 0 0
vn 0 1 0
vn 0 1 0
vn 0 1 0
vn 0 1 0
vn 0 -1 0
vn 0 -1 0
vn 0 -1 0
vn 0 -1 0
vn 0 0 1
vn 0 0 1
vn 0 0 1
vn 0 0 1
vn 0 0 -1
vn 0 0 -1
vn 0 0 -1
vn 0 0 -1
f 25/25/25 27/27/27 26/26/26
f 27/27/27 28/28/28 26/26/26
f 29/29/29 31/31/31 30/30/30
f 31/31/31 32/32/32 30/30/30
f 33/33/33 35/35/35 34/34/34
f 35/35/35 36/36/36 34/34/34
f 37/37/37 39/39/39 38/38/38
f 39/39/39 40/40/40 38/38/38
f 41/41/41 43/43/43 42/42/42
f 43/43/43 44/44/44 42/42/42
f 45/45/45 47/47/47 46/46/46
f 47/47/47 48/48/48 46/46/46
o 
v 0.07500000298023224 1.2000000476837158 0.05000000074505806
v 0.07500000298023224 1.2000000476837158 -0.05000000074505806
v 0.07500000298023224 -1.2000000476837158 0.05000000074505806
v 0.07500000298023224 -1.2000000476837158 -0.05000000074505806
v -0.07500000298023224 1.2000000476837158 -0.05000000074505806
v -0.07500000298023224 1.2000000476837158 0.05000000074505806
v -0.07500000298023224 -1.2000000476837158 -0.05000000074505806
v -0.07500000298023224 -1.2000000476837158 0.05000000074505806
v -0.07500000298023224 1.2000000476837158 -0.05000000074505806
v 0.07500000298023224 1.2000000476837158 -0.05000000074505806
v -0.07500000298023224 1.2000000476837158 0.05000000074505806
v 0.07500000298023224 1.2000000476837158 0.05000000074505806
v -0.07500000298023224 -1.2000000476837158 0.05000000074505806
v 0.07500000298023224 -1.2000000476837158 0.05000000074505806
v -0.07500000298023224 -1.2000000476837158 -0.05000000074505806
v 0.07500000298023224 -1.2000000476837158 -0.05000000074505806
v -0.07500000298023224 1.2000000476837158 0.05000000074505806
v 0.07500000298023224 1.2000000476837158 0.05000000074505806
v -0.07500000298023224 -1.2000000476837158 0.05000000074505806
v 0.07500000298023224 -1.2000000476837158 0.05000000074505806
v 0.07500000298023224 1.2000000476837158 -0.05000000074505806
v -0.07500000298023224 1.2000000476837158 -0.05000000074505806
v 0.07500000298023224 -1.2000000476837158 -0.05000000074505806
v -0.07500000298023224 -1.2000000476837158 -0.05000000074505806
vt 0 1
vt 1 1
vt 0 0
vt 1 0
vt 0 1
vt 1 1
vt 0 0
vt 1 0
vt 0 1
vt 1 1
vt 0 0
vt 1 0
vt 0 1
vt 1 1
vt 0 0
vt 1 0
vt 0 1
vt 1 1
vt 0 0
vt 1 0
vt 0 1
vt 1 1
vt 0 0
vt 1 0
vn 1 0 0
vn 1 0 0
vn 1 0 0
vn 1 0 0
vn -1 0 0
vn -1 0 0
vn -1 0 0
vn -1 0 0
vn 0 1 0
vn 0 1 0
vn 0 1 0
vn 0 1 0
vn 0 -1 0
vn 0 -1 0
vn 0 -1 0
vn 0 -1 0
vn 0 0 1
vn 0 0 1
vn 0 0 1
vn 0 0 1
vn 0 0 -1
vn 0 0 -1
vn 0 0 -1
vn 0 0 -1
f 49/49/49 51/51/51 50/50/50
f 51/51/51 52/52/52 50/50/50
f 53/53/53 55/55/55 54/54/54
f 55/55/55 56/56/56 54/54/54
f 57/57/57 59/59/59 58/58/58
f 59/59/59 60/60/60 58/58/58
f 61/61/61 63/63/63 62/62/62
f 63/63/63 64/64/64 62/62/62
f 65/65/65 67/67/67 66/66/66
f 67/67/67 68/68/68 66/66/66
f 69/69/69 71/71/71 70/70/70
f 71/71/71 72/72/72 70/70/70
o 
v 0.3149999976158142 1.149999976158142 0.019999999552965164
v 0.3149999976158142 1.149999976158142 -0.019999999552965164
v 0.3149999976158142 -1.149999976158142 0.019999999552965164
v 0.3149999976158142 -1.149999976158142 -0.019999999552965164
v -0.3149999976158142 1.149999976158142 -0.019999999552965164
v -0.3149999976158142 1.149999976158142 0.019999999552965164
v -0.3149999976158142 -1.149999976158142 -0.019999999552965164
v -0.3149999976158142 -1.149999976158142 0.019999999552965164
v -0.3149999976158142 1.149999976158142 -0.019999999552965164
v 0.3149999976158142 1.149999976158142 -0.019999999552965164
v -0.3149999976158142 1.149999976158142 0.019999999552965164
v 0.3149999976158142 1.149999976158142 0.019999999552965164
v -0.3149999976158142 -1.149999976158142 0.019999999552965164
v 0.3149999976158142 -1.149999976158142 0.019999999552965164
v -0.3149999976158142 -1.149999976158142 -0.019999999552965164
v 0.3149999976158142 -1.149999976158142 -0.019999999552965164
v -0.3149999976158142 1.149999976158142 0.019999999552965164
v 0.3149999976158142 1.149999976158142 0.019999999552965164
v -0.3149999976158142 -1.149999976158142 0.019999999552965164
v 0.3149999976158142 -1.149999976158142 0.019999999552965164
v 0.3149999976158142 1.149999976158142 -0.019999999552965164
v -0.3149999976158142 1.149999976158142 -0.019999999552965164
v 0.3149999976158142 -1.149999976158142 -0.019999999552965164
v -0.3149999976158142 -1.149999976158142 -0.019999999552965164
vt 0 1
vt 1 1
vt 0 0
vt 1 0
vt 0 1
vt 1 1
vt 0 0
vt 1 0
vt 0 1
vt 1 1
vt 0 0
vt 1 0
vt 0 1
vt 1 1
vt 0 0
vt 1 0
vt 0 1
vt 1 1
vt 0 0
vt 1 0
vt 0 1
vt 1 1
vt 0 0
vt 1 0
vn 1 0 0
vn 1 0 0
vn 1 0 0
vn 1 0 0
vn -1 0 0
vn -1 0 0
vn -1 0 0
vn -1 0 0
vn 0 1 0
vn 0 1 0
vn 0 1 0
vn 0 1 0
vn 0 -1 0
vn 0 -1 0
vn 0 -1 0
vn 0 -1 0
vn 0 0 1
vn 0 0 1
vn 0 0 1
vn 0 0 1
vn 0 0 -1
vn 0 0 -1
vn 0 0 -1
vn 0 0 -1
f 73/73/73 75/75/75 74/74/74
f 75/75/75 76/76/76 74/74/74
f 77/77/77 79/79/79 78/78/78
f 79/79/79 80/80/80 78/78/78
f 81/81/81 83/83/83 82/82/82
f 83/83/83 84/84/84 82/82/82
f 85/85/85 87/87/87 86/86/86
f 87/87/87 88/88/88 86/86/86
f 89/89/89 91/91/91 90/90/90
f 91/91/91 92/92/92 90/90/90
f 93/93/93 95/95/95 94/94/94
f 95/95/95 96/96/96 94/94/94
o 
v 0.3149999976158142 1.149999976158142 0.019999999552965164
v 0.3149999976158142 1.149999976158142 -0.019999999552965164
v 0.3149999976158142 -1.149999976158142 0.019999999552965164
v 0.3149999976158142 -1.149999976158142 -0.019999999552965164
v -0.3149999976158142 1.149999976158142 -0.019999999552965164
v -0.3149999976158142 1.149999976158142 0.019999999552965164
v -0.3149999976158142 -1.149999976158142 -0.019999999552965164
v -0.3149999976158142 -1.149999976158142 0.019999999552965164
v -0.3149999976158142 1.149999976158142 -0.019999999552965164
v 0.3149999976158142 1.149999976158142 -0.019999999552965164
v -0.3149999976158142 1.149999976158142 0.019999999552965164
v 0.3149999976158142 1.149999976158142 0.019999999552965164
v -0.3149999976158142 -1.149999976158142 0.019999999552965164
v 0.3149999976158142 -1.149999976158142 0.019999999552965164
v -0.3149999976158142 -1.149999976158142 -0.019999999552965164
v 0.3149999976158142 -1.149999976158142 -0.019999999552965164
v -0.3149999976158142 1.149999976158142 0.019999999552965164
v 0.3149999976158142 1.149999976158142 0.019999999552965164
v -0.3149999976158142 -1.149999976158142 0.019999999552965164
v 0.3149999976158142 -1.149999976158142 0.019999999552965164
v 0.3149999976158142 1.149999976158142 -0.019999999552965164
v -0.3149999976158142 1.149999976158142 -0.019999999552965164
v 0.3149999976158142 -1.149999976158142 -0.019999999552965164
v -0.3149999976158142 -1.149999976158142 -0.019999999552965164
vt 0 1
vt 1 1
vt 0 0
vt 1 0
vt 0 1
vt 1 1
vt 0 0
vt 1 0
vt 0 1
vt 1 1
vt 0 0
vt 1 0
vt 0 1
vt 1 1
vt 0 0
vt 1 0
vt 0 1
vt 1 1
vt 0 0
vt 1 0
vt 0 1
vt 1 1
vt 0 0
vt 1 0
vn 1 0 0
vn 1 0 0
vn 1 0 0
vn 1 0 0
vn -1 0 0
vn -1 0 0
vn -1 0 0
vn -1 0 0
vn 0 1 0
vn 0 1 0
vn 0 1 0
vn 0 1 0
vn 0 -1 0
vn 0 -1 0
vn 0 -1 0
vn 0 -1 0
vn 0 0 1
vn 0 0 1
vn 0 0 1
vn 0 0 1
vn 0 0 -1
vn 0 0 -1
vn 0 0 -1
vn 0 0 -1
f 97/97/97 99/99/99 98/98/98
f 99/99/99 100/100/100 98/98/98
f 101/101/101 103/103/103 102/102/102
f 103/103/103 104/104/104 102/102/102
f 105/105/105 107/107/107 106/106/106
f 107/107/107 108/108/108 106/106/106
f 109/109/109 111/111/111 110/110/110
f 111/111/111 112/112/112 110/110/110
f 113/113/113 115/115/115 114/114/114
f 115/115/115 116/116/116 114/114/114
f 117/117/117 119/119/119 118/118/118
f 119/119/119 120/120/120 118/118/118
o 
v 0.004999999888241291 1.149999976158142 0.02250000089406967
v 0.004999999888241291 1.149999976158142 -0.02250000089406967
v 0.004999999888241291 -1.149999976158142 0.02250000089406967
v 0.004999999888241291 -1.149999976158142 -0.02250000089406967
v -0.004999999888241291 1.149999976158142 -0.02250000089406967
v -0.004999999888241291 1.149999976158142 0.02250000089406967
v -0.004999999888241291 -1.149999976158142 -0.02250000089406967
v -0.004999999888241291 -1.149999976158142 0.02250000089406967
v -0.004999999888241291 1.149999976158142 -0.02250000089406967
v 0.004999999888241291 1.149999976158142 -0.02250000089406967
v -0.004999999888241291 1.149999976158142 0.02250000089406967
v 0.004999999888241291 1.149999976158142 0.02250000089406967
v -0.004999999888241291 -1.149999976158142 0.02250000089406967
v 0.004999999888241291 -1.149999976158142 0.02250000089406967
v -0.004999999888241291 -1.149999976158142 -0.02250000089406967
v 0.004999999888241291 -1.149999976158142 -0.02250000089406967
v -0.004999999888241291 1.149999976158142 0.02250000089406967
v 0.004999999888241291 1.149999976158142 0.02250000089406967
v -0.004999999888241291 -1.149999976158142 0.02250000089406967
v 0.004999999888241291 -1.149999976158142 0.02250000089406967
v 0.004999999888241291 1.149999976158142 -0.02250000089406967
v -0.004999999888241291 1.149999976158142 -0.02250000089406967
v 0.004999999888241291 -1.149999976158142 -0.02250000089406967
v -0.004999999888241291 -1.149999976158142 -0.02250000089406967
vt 0 1
vt 1 1
vt 0 0
vt 1 0
vt 0 1
vt 1 1
vt 0 0
vt 1 0
vt 0 1
vt 1 1
vt 0 0
vt 1 0
vt 0 1
vt 1 1
vt 0 0
vt 1 0
vt 0 1
vt 1 1
vt 0 0
vt 1 0
vt 0 1
vt 1 1
vt 0 0
vt 1 0
vn 1 0 0
vn 1 0 0
vn 1 0 0
vn 1 0 0
vn -1 0 0
vn -1 0 0
vn -1 0 0
vn -1 0 0
vn 0 1 0
vn 0 1 0
vn 0 1 0
vn 0 1 0
vn 0 -1 0
vn 0 -1 0
vn 0 -1 0
vn 0 -1 0
vn 0 0 1
vn 0 0 1
vn 0 0 1
vn 0 0 1
vn 0 0 -1
vn 0 0 -1
vn 0 0 -1
vn 0 0 -1
f 121/121/121 123/123/123 122/122/122
f 123/123/123 124/124/124 122/122/122
f 125/125/125 127/127/127 126/126/126
f 127/127/127 128/128/128 126/126/126
f 129/129/129 131/131/131 130/130/130
f 131/131/131 132/132/132 130/130/130
f 133/133/133 135/135/135 134/134/134
f 135/135/135 136/136/136 134/134/134
f 137/137/137 139/139/139 138/138/138
f 139/139/139 140/140/140 138/138/138
f 141/141/141 143/143/143 142/142/142
f 143/143/143 144/144/144 142/142/142
o 
v 0.05999999865889549 0.17499999701976776 0.014999999664723873
v 0.05999999865889549 0.17499999701976776 -0.014999999664723873
v 0.05999999865889549 -0.17499999701976776 0.014999999664723873
v 0.05999999865889549 -0.17499999701976776 -0.014999999664723873
v -0.05999999865889549 0.17499999701976776 -0.014999999664723873
v -0.05999999865889549 0.17499999701976776 0.014999999664723873
v -0.05999999865889549 -0.17499999701976776 -0.014999999664723873
v -0.05999999865889549 -0.17499999701976776 0.014999999664723873
v -0.05999999865889549 0.17499999701976776 -0.014999999664723873
v 0.05999999865889549 0.17499999701976776 -0.014999999664723873
v -0.05999999865889549 0.17499999701976776 0.014999999664723873
v 0.05999999865889549 0.17499999701976776 0.014999999664723873
v -0.05999999865889549 -0.17499999701976776 0.014999999664723873
v 0.05999999865889549 -0.17499999701976776 0.014999999664723873
v -0.05999999865889549 -0.17499999701976776 -0.014999999664723873
v 0.05999999865889549 -0.17499999701976776 -0.014999999664723873
v -0.05999999865889549 0.17499999701976776 0.014999999664723873
v 0.05999999865889549 0.17499999701976776 0.014999999664723873
v -0.05999999865889549 -0.17499999701976776 0.014999999664723873
v 0.05999999865889549 -0.17499999701976776 0.014999999664723873
v 0.05999999865889549 0.17499999701976776 -0.014999999664723873
v -0.05999999865889549 0.17499999701976776 -0.014999999664723873
v 0.05999999865889549 -0.17499999701976776 -0.014999999664723873
v -0.05999999865889549 -0.17499999701976776 -0.014999999664723873
vt 0 1
vt 1 1
vt 0 0
vt 1 0
vt 0 1
vt 1 1
vt 0 0
vt 1 0
vt 0 1
vt 1 1
vt 0 0
vt 1 0
vt 0 1
vt 1 1
vt 0 0
vt 1 0
vt 0 1
vt 1 1
vt 0 0
vt 1 0
vt 0 1
vt 1 1
vt 0 0
vt 1 0
vn 1 0 0
vn 1 0 0
vn 1 0 0
vn 1 0 0
vn -1 0 0
vn -1 0 0
vn -1 0 0
vn -1 0 0
vn 0 1 0
vn 0 1 0
vn 0 1 0
vn 0 1 0
vn 0 -1 0
vn 0 -1 0
vn 0 -1 0
vn 0 -1 0
vn 0 0 1
vn 0 0 1
vn 0 0 1
vn 0 0 1
vn 0 0 -1
vn 0 0 -1
vn 0 0 -1
vn 0 0 -1
f 145/145/145 147/147/147 146/146/146
f 147/147/147 148/148/148 146/146/146
f 149/149/149 151/151/151 150/150/150
f 151/151/151 152/152/152 150/150/150
f 153/153/153 155/155/155 154/154/154
f 155/155/155 156/156/156 154/154/154
f 157/157/157 159/159/159 158/158/158
f 159/159/159 160/160/160 158/158/158
f 161/161/161 163/163/163 162/162/162
f 163/163/163 164/164/164 162/162/162
f 165/165/165 167/167/167 166/166/166
f 167/167/167 168/168/168 166/166/166
o 
v 0.03999999910593033 0.03999999910593033 0.004999999888241291
v 0.03999999910593033 0.03999999910593033 -0.004999999888241291
v 0.03999999910593033 -0.03999999910593033 0.004999999888241291
v 0.03999999910593033 -0.03999999910593033 -0.004999999888241291
v -0.03999999910593033 0.03999999910593033 -0.004999999888241291
v -0.03999999910593033 0.03999999910593033 0.004999999888241291
v -0.03999999910593033 -0.03999999910593033 -0.004999999888241291
v -0.03999999910593033 -0.03999999910593033 0.004999999888241291
v -0.03999999910593033 0.03999999910593033 -0.004999999888241291
v 0.03999999910593033 0.03999999910593033 -0.004999999888241291
v -0.03999999910593033 0.03999999910593033 0.004999999888241291
v 0.03999999910593033 0.03999999910593033 0.004999999888241291
v -0.03999999910593033 -0.03999999910593033 0.004999999888241291
v 0.03999999910593033 -0.03999999910593033 0.004999999888241291
v -0.03999999910593033 -0.03999999910593033 -0.004999999888241291
v 0.03999999910593033 -0.03999999910593033 -0.004999999888241291
v -0.03999999910593033 0.03999999910593033 0.004999999888241291
v 0.03999999910593033 0.03999999910593033 0.004999999888241291
v -0.03999999910593033 -0.03999999910593033 0.004999999888241291
v 0.03999999910593033 -0.03999999910593033 0.004999999888241291
v 0.03999999910593033 0.03999999910593033 -0.004999999888241291
v -0.03999999910593033 0.03999999910593033 -0.004999999888241291
v 0.03999999910593033 -0.03999999910593033 -0.004999999888241291
v -0.03999999910593033 -0.03999999910593033 -0.004999999888241291
vt 0 1
vt 1 1
vt 0 0
vt 1 0
vt 0 1
vt 1 1
vt 0 0
vt 1 0
vt 0 1
vt 1 1
vt 0 0
vt 1 0
vt 0 1
vt 1 1
vt 0 0
vt 1 0
vt 0 1
vt 1 1
vt 0 0
vt 1 0
vt 0 1
vt 1 1
vt 0 0
vt 1 0
vn 1 0 0
vn 1 0 0
vn 1 0 0
vn 1 0 0
vn -1 0 0
vn -1 0 0
vn -1 0 0
vn -1 0 0
vn 0 1 0
vn 0 1 0
vn 0 1 0
vn 0 1 0
vn 0 -1 0
vn 0 -1 0
vn 0 -1 0
vn 0 -1 0
vn 0 0 1
vn 0 0 1
vn 0 0 1
vn 0 0 1
vn 0 0 -1
vn 0 0 -1
vn 0 0 -1
vn 0 0 -1
f 169/169/169 171/171/171 170/170/170
f 171/171/171 172/172/172 170/170/170
f 173/173/173 175/175/175 174/174/174
f 175/175/175 176/176/176 174/174/174
f 177/177/177 179/179/179 178/178/178
f 179/179/179 180/180/180 178/178/178
f 181/181/181 183/183/183 182/182/182
f 183/183/183 184/184/184 182/182/182
f 185/185/185 187/187/187 186/186/186
f 187/187/187 188/188/188 186/186/186
f 189/189/189 191/191/191 190/190/190
f 191/191/191 192/192/192 190/190/190
o 
v 0 -0.014999999664723873 0.004999999888241291
v 0.01060660183429718 -0.01060660183429718 0.004999999888241291
v 0.014999999664723873 -6.123234469720992e-19 0.004999999888241291
v 0.01060660183429718 0.01060660183429718 0.004999999888241291
v 1.836970237518721e-18 0.014999999664723873 0.004999999888241291
v -0.01060660183429718 0.01060660183429718 0.004999999888241291
v -0.014999999664723873 3.0616169246677665e-18 0.004999999888241291
v -0.01060660183429718 -0.01060660183429718 0.004999999888241291
v -3.673940475037442e-18 -0.014999999664723873 0.004999999888241291
v 0 -0.014999999664723873 -0.004999999888241291
v 0.01060660183429718 -0.01060660183429718 -0.004999999888241291
v 0.014999999664723873 -1.224646790546622e-18 -0.004999999888241291
v 0.01060660183429718 0.01060660183429718 -0.004999999888241291
v 1.836970237518721e-18 0.014999999664723873 -0.004999999888241291
v -0.01060660183429718 0.01060660183429718 -0.004999999888241291
v -0.014999999664723873 2.449293581093244e-18 -0.004999999888241291
v -0.01060660183429718 -0.01060660183429718 -0.004999999888241291
v -3.673940475037442e-18 -0.014999999664723873 -0.004999999888241291
v 0 3.061616976366555e-19 0.004999999888241291
v 0 3.061616976366555e-19 0.004999999888241291
v 0 3.061616976366555e-19 0.004999999888241291
v 0 3.061616976366555e-19 0.004999999888241291
v 0 3.061616976366555e-19 0.004999999888241291
v 0 3.061616976366555e-19 0.004999999888241291
v 0 3.061616976366555e-19 0.004999999888241291
v 0 3.061616976366555e-19 0.004999999888241291
v 0 -0.014999999664723873 0.004999999888241291
v 0.01060660183429718 -0.01060660183429718 0.004999999888241291
v 0.014999999664723873 -6.123234469720992e-19 0.004999999888241291
v 0.01060660183429718 0.01060660183429718 0.004999999888241291
v 1.836970237518721e-18 0.014999999664723873 0.004999999888241291
v -0.01060660183429718 0.01060660183429718 0.004999999888241291
v -0.014999999664723873 3.0616169246677665e-18 0.004999999888241291
v -0.01060660183429718 -0.01060660183429718 0.004999999888241291
v -3.673940475037442e-18 -0.014999999664723873 0.004999999888241291
v 0 -3.061616976366555e-19 -0.004999999888241291
v 0 -3.061616976366555e-19 -0.004999999888241291
v 0 -3.061616976366555e-19 -0.004999999888241291
v 0 -3.061616976366555e-19 -0.004999999888241291
v 0 -3.061616976366555e-19 -0.004999999888241291
v 0 -3.061616976366555e-19 -0.004999999888241291
v 0 -3.061616976366555e-19 -0.004999999888241291
v 0 -3.061616976366555e-19 -0.004999999888241291
v 0 -0.014999999664723873 -0.004999999888241291
v 0.01060660183429718 -0.01060660183429718 -0.004999999888241291
v 0.014999999664723873 -1.224646790546622e-18 -0.004999999888241291
v 0.01060660183429718 0.01060660183429718 -0.004999999888241291
v 1.836970237518721e-18 0.014999999664723873 -0.004999999888241291
v -0.01060660183429718 0.01060660183429718 -0.004999999888241291
v -0.014999999664723873 2.449293581093244e-18 -0.004999999888241291
v -0.01060660183429718 -0.01060660183429718 -0.004999999888241291
v -3.673940475037442e-18 -0.014999999664723873 -0.004999999888241291
vt 0 1
vt 0.125 1
vt 0.25 1
vt 0.375 1
vt 0.5 1
vt 0.625 1
vt 0.75 1
vt 0.875 1
vt 1 1
vt 0 0
vt 0.125 0
vt 0.25 0
vt 0.375 0
vt 0.5 0
vt 0.625 0
vt 0.75 0
vt 0.875 0
vt 1 0
vt 0.5 0.5
vt 0.5 0.5
vt 0.5 0.5
vt 0.5 0.5
vt 0.5 0.5
vt 0.5 0.5
vt 0.5 0.5
vt 0.5 0.5
vt 1 0.5
vt 0.8535534143447876 0.8535534143447876
vt 0.5 1
vt 0.1464466154575348 0.8535534143447876
vt 0 0.5
vt 0.1464466154575348 0.1464466154575348
vt 0.5 0
vt 0.8535534143447876 0.1464466154575348
vt 1 0.5
vt 0.5 0.5
vt 0.5 0.5
vt 0.5 0.5
vt 0.5 0.5
vt 0.5 0.5
vt 0.5 0.5
vt 0.5 0.5
vt 0.5 0.5
vt 1 0.5
vt 0.8535534143447876 0.1464466154575348
vt 0.5 0
vt 0.1464466154575348 0.1464466154575348
vt 0 0.5
vt 0.1464466154575348 0.8535534143447876
vt 0.5 1
vt 0.8535534143447876 0.8535534143447876
vt 1 0.5
vn 0 -1 6.123234262925839e-17
vn 0.7071067811865476 -0.7071067811865476 4.329780375814312e-17
vn 1 -6.123234262925839e-17 3.74939976039497e-33
vn 0.7071067811865476 0.7071067811865476 -4.329780375814312e-17
vn 1.2246468525851679e-16 1 -6.123234262925839e-17
vn -0.7071067811865476 0.7071067811865476 -4.329780375814312e-17
vn -1 1.8369701465288538e-16 -1.1248198179158957e-32
vn -0.7071067811865476 -0.7071067811865476 4.329780375814312e-17
vn -2.4492937051703357e-16 -1 6.123234262925839e-17
vn 0 -1 6.123234262925839e-17
vn 0.7071067811865476 -0.7071067811865476 4.329780375814312e-17
vn 1 -6.123234262925839e-17 3.74939976039497e-33
vn 0.7071067811865476 0.7071067811865476 -4.329780375814312e-17
vn 1.2246468525851679e-16 1 -6.123234262925839e-17
vn -0.7071067811865476 0.7071067811865476 -4.329780375814312e-17
vn -1 1.8369701465288538e-16 -1.1248198179158957e-32
vn -0.7071067811865476 -0.7071067811865476 4.329780375814312e-17
vn -2.4492937051703357e-16 -1 6.123234262925839e-17
vn 0 6.123234262925839e-17 1
vn 0 6.123234262925839e-17 1
vn 0 6.123234262925839e-17 1
vn 0 6.123234262925839e-17 1
vn 0 6.123234262925839e-17 1
vn 0 6.123234262925839e-17 1
vn 0 6.123234262925839e-17 1
vn 0 6.123234262925839e-17 1
vn 0 6.123234262925839e-17 1
vn 0 6.123234262925839e-17 1
vn 0 6.123234262925839e-17 1
vn 0 6.123234262925839e-17 1
vn 0 6.123234262925839e-17 1
vn 0 6.123234262925839e-17 1
vn 0 6.123234262925839e-17 1
vn 0 6.123234262925839e-17 1
vn 0 6.123234262925839e-17 1
vn 0 -6.123234262925839e-17 -1
vn 0 -6.123234262925839e-17 -1
vn 0 -6.123234262925839e-17 -1
vn 0 -6.123234262925839e-17 -1
vn 0 -6.123234262925839e-17 -1
vn 0 -6.123234262925839e-17 -1
vn 0 -6.123234262925839e-17 -1
vn 0 -6.123234262925839e-17 -1
vn 0 -6.123234262925839e-17 -1
vn 0 -6.123234262925839e-17 -1
vn 0 -6.123234262925839e-17 -1
vn 0 -6.123234262925839e-17 -1
vn 0 -6.123234262925839e-17 -1
vn 0 -6.123234262925839e-17 -1
vn 0 -6.123234262925839e-17 -1
vn 0 -6.123234262925839e-17 -1
vn 0 -6.123234262925839e-17 -1
f 193/193/193 202/202/202 194/194/194
f 202/202/202 203/203/203 194/194/194
f 194/194/194 203/203/203 195/195/195
f 203/203/203 204/204/204 195/195/195
f 195/195/195 204/204/204 196/196/196
f 204/204/204 205/205/205 196/196/196
f 196/196/196 205/205/205 197/197/197
f 205/205/205 206/206/206 197/197/197
f 197/197/197 206/206/206 198/198/198
f 206/206/206 207/207/207 198/198/198
f 198/198/198 207/207/207 199/199/199
f 207/207/207 208/208/208 199/199/199
f 199/199/199 208/208/208 200/200/200
f 208/208/208 209/209/209 200/200/200
f 200/200/200 209/209/209 201/201/201
f 209/209/209 210/210/210 201/201/201
f 219/219/219 220/220/220 211/211/211
f 220/220/220 221/221/221 212/212/212
f 221/221/221 222/222/222 213/213/213
f 222/222/222 223/223/223 214/214/214
f 223/223/223 224/224/224 215/215/215
f 224/224/224 225/225/225 216/216/216
f 225/225/225 226/226/226 217/217/217
f 226/226/226 227/227/227 218/218/218
f 237/237/237 236/236/236 228/228/228
f 238/238/238 237/237/237 229/229/229
f 239/239/239 238/238/238 230/230/230
f 240/240/240 239/239/239 231/231/231
f 241/241/241 240/240/240 232/232/232
f 242/242/242 241/241/241 233/233/233
f 243/243/243 242/242/242 234/234/234
f 244/244/244 243/243/243 235/235/235
o 
v 0 -0.014999999664723873 0.004999999888241291
v 0.01060660183429718 -0.01060660183429718 0.004999999888241291
v 0.014999999664723873 -6.123234469720992e-19 0.004999999888241291
v 0.01060660183429718 0.01060660183429718 0.004999999888241291
v 1.836970237518721e-18 0.014999999664723873 0.004999999888241291
v -0.01060660183429718 0.01060660183429718 0.004999999888241291
v -0.014999999664723873 3.0616169246677665e-18 0.004999999888241291
v -0.01060660183429718 -0.01060660183429718 0.004999999888241291
v -3.673940475037442e-18 -0.014999999664723873 0.004999999888241291
v 0 -0.014999999664723873 -0.004999999888241291
v 0.01060660183429718 -0.01060660183429718 -0.004999999888241291
v 0.014999999664723873 -1.224646790546622e-18 -0.004999999888241291
v 0.01060660183429718 0.01060660183429718 -0.004999999888241291
v 1.836970237518721e-18 0.014999999664723873 -0.004999999888241291
v -0.01060660183429718 0.01060660183429718 -0.004999999888241291
v -0.014999999664723873 2.449293581093244e-18 -0.004999999888241291
v -0.01060660183429718 -0.01060660183429718 -0.004999999888241291
v -3.673940475037442e-18 -0.014999999664723873 -0.004999999888241291
v 0 3.061616976366555e-19 0.004999999888241291
v 0 3.061616976366555e-19 0.004999999888241291
v 0 3.061616976366555e-19 0.004999999888241291
v 0 3.061616976366555e-19 0.004999999888241291
v 0 3.061616976366555e-19 0.004999999888241291
v 0 3.061616976366555e-19 0.004999999888241291
v 0 3.061616976366555e-19 0.004999999888241291
v 0 3.061616976366555e-19 0.004999999888241291
v 0 -0.014999999664723873 0.004999999888241291
v 0.01060660183429718 -0.01060660183429718 0.004999999888241291
v 0.014999999664723873 -6.123234469720992e-19 0.004999999888241291
v 0.01060660183429718 0.01060660183429718 0.004999999888241291
v 1.836970237518721e-18 0.014999999664723873 0.004999999888241291
v -0.01060660183429718 0.01060660183429718 0.004999999888241291
v -0.014999999664723873 3.0616169246677665e-18 0.004999999888241291
v -0.01060660183429718 -0.01060660183429718 0.004999999888241291
v -3.673940475037442e-18 -0.014999999664723873 0.004999999888241291
v 0 -3.061616976366555e-19 -0.004999999888241291
v 0 -3.061616976366555e-19 -0.004999999888241291
v 0 -3.061616976366555e-19 -0.004999999888241291
v 0 -3.061616976366555e-19 -0.004999999888241291
v 0 -3.061616976366555e-19 -0.004999999888241291
v 0 -3.061616976366555e-19 -0.004999999888241291
v 0 -3.061616976366555e-19 -0.004999999888241291
v 0 -3.061616976366555e-19 -0.004999999888241291
v 0 -0.014999999664723873 -0.004999999888241291
v 0.01060660183429718 -0.01060660183429718 -0.004999999888241291
v 0.014999999664723873 -1.224646790546622e-18 -0.004999999888241291
v 0.01060660183429718 0.01060660183429718 -0.004999999888241291
v 1.836970237518721e-18 0.014999999664723873 -0.004999999888241291
v -0.01060660183429718 0.01060660183429718 -0.004999999888241291
v -0.014999999664723873 2.449293581093244e-18 -0.004999999888241291
v -0.01060660183429718 -0.01060660183429718 -0.004999999888241291
v -3.673940475037442e-18 -0.014999999664723873 -0.004999999888241291
vt 0 1
vt 0.125 1
vt 0.25 1
vt 0.375 1
vt 0.5 1
vt 0.625 1
vt 0.75 1
vt 0.875 1
vt 1 1
vt 0 0
vt 0.125 0
vt 0.25 0
vt 0.375 0
vt 0.5 0
vt 0.625 0
vt 0.75 0
vt 0.875 0
vt 1 0
vt 0.5 0.5
vt 0.5 0.5
vt 0.5 0.5
vt 0.5 0.5
vt 0.5 0.5
vt 0.5 0.5
vt 0.5 0.5
vt 0.5 0.5
vt 1 0.5
vt 0.8535534143447876 0.8535534143447876
vt 0.5 1
vt 0.1464466154575348 0.8535534143447876
vt 0 0.5
vt 0.1464466154575348 0.1464466154575348
vt 0.5 0
vt 0.8535534143447876 0.1464466154575348
vt 1 0.5
vt 0.5 0.5
vt 0.5 0.5
vt 0.5 0.5
vt 0.5 0.5
vt 0.5 0.5
vt 0.5 0.5
vt 0.5 0.5
vt 0.5 0.5
vt 1 0.5
vt 0.8535534143447876 0.1464466154575348
vt 0.5 0
vt 0.1464466154575348 0.1464466154575348
vt 0 0.5
vt 0.1464466154575348 0.8535534143447876
vt 0.5 1
vt 0.8535534143447876 0.8535534143447876
vt 1 0.5
vn 0 -1 6.123234262925839e-17
vn 0.7071067811865476 -0.7071067811865476 4.329780375814312e-17
vn 1 -6.123234262925839e-17 3.74939976039497e-33
vn 0.7071067811865476 0.7071067811865476 -4.329780375814312e-17
vn 1.2246468525851679e-16 1 -6.123234262925839e-17
vn -0.7071067811865476 0.7071067811865476 -4.329780375814312e-17
vn -1 1.8369701465288538e-16 -1.1248198179158957e-32
vn -0.7071067811865476 -0.7071067811865476 4.329780375814312e-17
vn -2.4492937051703357e-16 -1 6.123234262925839e-17
vn 0 -1 6.123234262925839e-17
vn 0.7071067811865476 -0.7071067811865476 4.329780375814312e-17
vn 1 -6.123234262925839e-17 3.74939976039497e-33
vn 0.7071067811865476 0.7071067811865476 -4.329780375814312e-17
vn 1.2246468525851679e-16 1 -6.123234262925839e-17
vn -0.7071067811865476 0.7071067811865476 -4.329780375814312e-17
vn -1 1.8369701465288538e-16 -1.1248198179158957e-32
vn -0.7071067811865476 -0.7071067811865476 4.329780375814312e-17
vn -2.4492937051703357e-16 -1 6.123234262925839e-17
vn 0 6.123234262925839e-17 1
vn 0 6.123234262925839e-17 1
vn 0 6.123234262925839e-17 1
vn 0 6.123234262925839e-17 1
vn 0 6.123234262925839e-17 1
vn 0 6.123234262925839e-17 1
vn 0 6.123234262925839e-17 1
vn 0 6.123234262925839e-17 1
vn 0 6.123234262925839e-17 1
vn 0 6.123234262925839e-17 1
vn 0 6.123234262925839e-17 1
vn 0 6.123234262925839e-17 1
vn 0 6.123234262925839e-17 1
vn 0 6.123234262925839e-17 1
vn 0 6.123234262925839e-17 1
vn 0 6.123234262925839e-17 1
vn 0 6.123234262925839e-17 1
vn 0 -6.123234262925839e-17 -1
vn 0 -6.123234262925839e-17 -1
vn 0 -6.123234262925839e-17 -1
vn 0 -6.123234262925839e-17 -1
vn 0 -6.123234262925839e-17 -1
vn 0 -6.123234262925839e-17 -1
vn 0 -6.123234262925839e-17 -1
vn 0 -6.123234262925839e-17 -1
vn 0 -6.123234262925839e-17 -1
vn 0 -6.123234262925839e-17 -1
vn 0 -6.123234262925839e-17 -1
vn 0 -6.123234262925839e-17 -1
vn 0 -6.123234262925839e-17 -1
vn 0 -6.123234262925839e-17 -1
vn 0 -6.123234262925839e-17 -1
vn 0 -6.123234262925839e-17 -1
vn 0 -6.123234262925839e-17 -1
f 245/245/245 254/254/254 246/246/246
f 254/254/254 255/255/255 246/246/246
f 246/246/246 255/255/255 247/247/247
f 255/255/255 256/256/256 247/247/247
f 247/247/247 256/256/256 248/248/248
f 256/256/256 257/257/257 248/248/248
f 248/248/248 257/257/257 249/249/249
f 257/257/257 258/258/258 249/249/249
f 249/249/249 258/258/258 250/250/250
f 258/258/258 259/259/259 250/250/250
f 250/250/250 259/259/259 251/251/251
f 259/259/259 260/260/260 251/251/251
f 251/251/251 260/260/260 252/252/252
f 260/260/260 261/261/261 252/252/252
f 252/252/252 261/261/261 253/253/253
f 261/261/261 262/262/262 253/253/253
f 271/271/271 272/272/272 263/263/263
f 272/272/272 273/273/273 264/264/264
f 273/273/273 274/274/274 265/265/265
f 274/274/274 275/275/275 266/266/266
f 275/275/275 276/276/276 267/267/267
f 276/276/276 277/277/277 268/268/268
f 277/277/277 278/278/278 269/269/269
f 278/278/278 279/279/279 270/270/270
f 289/289/289 288/288/288 280/280/280
f 290/290/290 289/289/289 281/281/281
f 291/291/291 290/290/290 282/282/282
f 292/292/292 291/291/291 283/283/283
f 293/293/293 292/292/292 284/284/284
f 294/294/294 293/293/293 285/285/285
f 295/295/295 294/294/294 286/286/286
f 296/296/296 295/295/295 287/287/287
